<?xml version="1.0" encoding="utf-8"?>
<!-- Generator: Adobe Illustrator 27.6.1, SVG Export Plug-In . SVG Version: 6.00 Build 0)  -->
<svg version="1.1" id="Layer_1" xmlns="http://www.w3.org/2000/svg" xmlns:xlink="http://www.w3.org/1999/xlink" x="0px" y="0px"
	 viewBox="0 0 441.8 457.3" style="enable-background:new 0 0 441.8 457.3;" xml:space="preserve">
<style type="text/css">
	.st0{fill:#F5F5F5;}
	.st1{fill:#E0E0E0;}
	.st2{fill:#455A64;}
	.st3{fill:#BA68C8;}
	.st4{opacity:0.3;enable-background:new    ;}
	.st5{opacity:0.3;fill:#B31A3E;enable-background:new    ;}
	.st6{fill:#95204D;}
	.st7{fill:#37474F;}
	.st8{fill:#263238;}
	.st9{opacity:0.3;fill:#FFFFFF;enable-background:new    ;}
	.st10{opacity:0.7;fill:#FFFFFF;enable-background:new    ;}
	.st11{opacity:0.5;fill:#B31A3E;enable-background:new    ;}
	.st12{opacity:0.4;enable-background:new    ;}
	.st13{opacity:0.5;enable-background:new    ;}
	.st14{opacity:0.6;enable-background:new    ;}
	.st15{opacity:0.8;enable-background:new    ;}
	.st16{opacity:0.1;fill:#FFFFFF;enable-background:new    ;}
	.st17{opacity:0.1;enable-background:new    ;}
	.st18{opacity:0.2;enable-background:new    ;}
	.st19{opacity:0.8;fill:#FFFFFF;enable-background:new    ;}
	.st20{opacity:0.6;fill:#FFFFFF;enable-background:new    ;}
	.st21{opacity:0.4;fill:#FFFFFF;enable-background:new    ;}
	.st22{opacity:0.2;fill:#FFFFFF;enable-background:new    ;}
	.st23{opacity:0.7;enable-background:new    ;}
	.st24{fill:#FFFFFF;}
	.st25{fill:#E6E6E6;}
	.st26{fill:#FAFAFA;}
	.st27{fill:#F0F0F0;}
	.st28{fill:#B31A3E;enable-background:new    ;}
	.st29{opacity:0.7;fill:#B31A3E;enable-background:new    ;}
	.st30{opacity:0.3;fill:#95204D;enable-background:new    ;}
	.st31{fill:#95204D;enable-background:new    ;}
	.st32{fill:#945959;}
	.st33{fill:#703838;}
</style>
<g id="Floor">
	<ellipse class="st0" cx="220.9" cy="329.8" rx="220.9" ry="127.5"/>
</g>
<g id="Shadows">
	<path class="st1" d="M397,374.5l-54.5,31.5c-4.7,2.7-13,2.4-18.4-0.8l-51.8-29.9c-5.5-3.1-6-7.9-1.3-10.6l54.5-31.5
		c4.7-2.7,13-2.4,18.4,0.8l51.8,29.9C401.2,367,401.8,371.7,397,374.5L397,374.5L397,374.5z"/>
	<path class="st1" d="M308.8,379c16.8,10.4,16.8,27.3,0,37.7s-44,10.4-60.8,0c-16.8-10.4-16.8-27.3,0-37.7S292,368.6,308.8,379z"/>
	<ellipse class="st1" cx="69.7" cy="367.3" rx="42" ry="24.2"/>
	<path class="st1" d="M239.2,231.9L57.1,337c-5.5,3.2-5.5,11.2,0,14.4l99.4,57.4c7.1,4.1,15.8,4.1,22.9,0l174.8-100.9
		c5.5-3.2,5.5-11.2,0-14.4l-106.6-61.6C244.9,230.4,241.8,230.4,239.2,231.9L239.2,231.9L239.2,231.9z"/>
</g>
<g id="Desk">
	<g>
		<g>
			<path class="st2" d="M185.1,403.6c-1.8,1-4.8,1-6.6,0c-1.8-1-1.8-2.8,0-3.8s4.8-1,6.6,0C187,400.8,187,402.5,185.1,403.6z"/>
			<rect x="177.2" y="297.3" class="st2" width="9.3" height="104.3"/>
		</g>
		<g>
			<path class="st2" d="M76,341c-1.8,1-4.8,1-6.6,0c-1.8-1-1.8-2.8,0-3.8s4.8-1,6.6,0C77.8,338.2,77.8,339.9,76,341z"/>
			<rect x="68.1" y="234.7" class="st2" width="9.3" height="104.3"/>
		</g>
		<g>
			<path class="st2" d="M347.3,309c-1.8,1-4.8,1-6.6,0c-1.8-1-1.8-2.8,0-3.8s4.8-1,6.6,0C349.1,306.2,349.1,308,347.3,309z"/>
			<rect x="339.4" y="202.7" class="st2" width="9.3" height="104.3"/>
		</g>
		<g>
			<path class="st2" d="M238.1,246.4c-1.8,1.1-4.8,1.1-6.6,0c-1.8-1.1-1.8-2.8,0-3.8s4.8-1.1,6.6,0C240,243.6,240,245.3,238.1,246.4
				z"/>
			<rect x="230.2" y="140.1" class="st2" width="9.3" height="104.3"/>
		</g>
		<g>
			<polygon class="st3" points="44.7,235.9 44.7,242 167.9,313.2 167.9,307 			"/>
			<polygon class="st4" points="44.7,235.9 44.7,242 167.9,313.2 167.9,307 			"/>
			<polygon class="st3" points="366.6,192.3 167.9,307 167.9,313.2 366.6,198.5 			"/>
			<polygon class="st5" points="366.6,192.3 167.9,307 167.9,313.2 366.6,198.5 			"/>
			<polygon class="st6" points="243.3,121.2 44.7,235.9 167.9,307 366.6,192.3 			"/>
		</g>
	</g>
</g>
<g id="Papers">
	<g>
		<path class="st7" d="M40.4,303.6v60.2l0,0c0,4.5,3,9.1,9,12.5c12,6.9,31.4,6.9,43.3,0c6-3.5,9-8,9-12.5l0,0v-60.2
			C101.7,303.6,40.4,303.6,40.4,303.6z"/>
		<ellipse class="st2" cx="71" cy="303.4" rx="30.7" ry="17.7"/>
		<path class="st8" d="M92,311.7c-0.9,0.7-1.9,1.4-3,2.1c-0.2,0.1-0.4,0.2-0.6,0.4c-1.3,0.7-2.8,1.4-4.3,1.9
			c-0.6,0.2-1.2,0.4-1.8,0.6c-1.4,0.4-2.8,0.7-4.3,1c-1.2,0.2-2.5,0.4-3.8,0.4c-0.5,0-1,0.1-1.6,0.1c-1,0-1.9,0-2.9,0
			c-1.2,0-2.4-0.1-3.6-0.2c-1.5-0.2-3-0.4-4.5-0.8c-0.6-0.1-1.2-0.3-1.8-0.5c-2.5-0.7-4.7-1.6-6.8-2.8c-1-0.6-1.9-1.2-2.6-1.8
			c-5.8-4.6-6.4-10.8-1.7-15.7c1.1-1.2,2.6-2.3,4.3-3.4c1.7-1,3.6-1.8,5.6-2.5c0.4-0.1,0.8-0.2,1.1-0.4c1-0.3,2.1-0.5,3.2-0.7
			c1.2-0.2,2.3-0.4,3.5-0.5c2-0.2,4.1-0.3,6.1-0.2c1.8,0.1,3.6,0.2,5.3,0.5c0.1,0,0.2,0,0.3,0c1.3,0.2,2.7,0.5,4,0.9
			c1.9,0.5,3.7,1.2,5.3,2c0.5,0.2,1,0.5,1.5,0.8c0.8,0.5,1.6,1,2.2,1.5c1.1,0.9,2.1,1.8,2.9,2.7C97.9,301.8,97.2,307.4,92,311.7
			L92,311.7L92,311.7z"/>
		<g>
			<path class="st3" d="M72,225.5v18.7h9.6v-12.8C81.6,231.5,78,226.2,72,225.5L72,225.5L72,225.5z"/>
			<path class="st9" d="M72,225.5v18.7h9.6v-12.8C81.6,231.5,78,226.2,72,225.5L72,225.5L72,225.5z"/>
			<path class="st3" d="M78,230.1v87.4c-1.2,0.2-2.5,0.4-3.8,0.4c-0.5,0-1,0.1-1.6,0.1c-1,0-1.9,0-2.9,0c-1.2,0-2.4-0.1-3.6-0.2
				c-1.5-0.2-3-0.4-4.5-0.8c-0.6-0.1-1.2-0.3-1.8-0.5v-86.4L78,230.1L78,230.1z"/>
			<path class="st10" d="M78,230.1v87.4c-1.2,0.2-2.5,0.4-3.8,0.4c-0.5,0-1,0.1-1.6,0.1c-1,0-1.9,0-2.9,0c-1.2,0-2.4-0.1-3.6-0.2
				c-1.5-0.2-3-0.4-4.5-0.8c-0.6-0.1-1.2-0.3-1.8-0.5v-86.4L78,230.1L78,230.1z"/>
			<path class="st3" d="M82.3,233.1v83.5c-1.4,0.4-2.8,0.7-4.3,1c-1.2,0.2-2.5,0.4-3.8,0.4c-0.5,0-1,0.1-1.6,0.1v-77.8
				c2.3-0.4,4-1.1,5.3-1.8c1.9-1.1,3-2.5,3.6-3.6C82.2,233.8,82.3,233.1,82.3,233.1L82.3,233.1L82.3,233.1z"/>
			<path class="st11" d="M82.3,233.1v83.5c-1.4,0.4-2.8,0.7-4.3,1c-1.2,0.2-2.5,0.4-3.8,0.4c-0.5,0-1,0.1-1.6,0.1v-77.8
				c2.3-0.4,4-1.1,5.3-1.8c1.9-1.1,3-2.5,3.6-3.6C82.2,233.8,82.3,233.1,82.3,233.1L82.3,233.1L82.3,233.1z"/>
			<path class="st3" d="M73.1,240.6c-0.2,0-0.4-0.1-0.4-0.4c-0.1-0.2,0.1-0.5,0.4-0.5c1.8-0.4,3.5-0.9,4.8-1.7
				c2.3-1.3,3.6-3.1,3.6-4.9s-1.3-3.6-3.6-4.9c-2.4-1.4-5.5-2.1-8.9-2.1c-0.2,0-0.5-0.2-0.5-0.5s0.2-0.5,0.5-0.5
				c3.5,0,6.9,0.8,9.4,2.2c2.6,1.5,4,3.5,4,5.7s-1.4,4.2-4,5.7C76.8,239.6,75.1,240.2,73.1,240.6L73.1,240.6L73.1,240.6L73.1,240.6z
				"/>
			<path class="st11" d="M73.1,240.6c-0.2,0-0.4-0.1-0.4-0.4c-0.1-0.2,0.1-0.5,0.4-0.5c1.8-0.4,3.5-0.9,4.8-1.7
				c2.3-1.3,3.6-3.1,3.6-4.9s-1.3-3.6-3.6-4.9c-2.4-1.4-5.5-2.1-8.9-2.1c-0.2,0-0.5-0.2-0.5-0.5s0.2-0.5,0.5-0.5
				c3.5,0,6.9,0.8,9.4,2.2c2.6,1.5,4,3.5,4,5.7s-1.4,4.2-4,5.7C76.8,239.6,75.1,240.2,73.1,240.6L73.1,240.6L73.1,240.6L73.1,240.6z
				"/>
			<path class="st3" d="M75.3,226.7c3.6,2.1,3.6,5.4,0,7.4c-3.6,2.1-9.3,2.1-12.8,0c-3.5-2.1-3.5-5.4,0-7.4
				C66,224.6,71.8,224.6,75.3,226.7z"/>
			<path class="st11" d="M75.3,226.7c3.6,2.1,3.6,5.4,0,7.4c-3.6,2.1-9.3,2.1-12.8,0c-3.5-2.1-3.5-5.4,0-7.4
				C66,224.6,71.8,224.6,75.3,226.7z"/>
		</g>
		<g>
			<path class="st3" d="M92.1,257.6l-2,13.9l7.1,1l1.4-9.4C98.5,263,96.5,258.8,92.1,257.6L92.1,257.6L92.1,257.6z"/>
			<path class="st9" d="M92.1,257.6l-2,13.9l7.1,1l1.4-9.4C98.5,263,96.5,258.8,92.1,257.6L92.1,257.6L92.1,257.6z"/>
			<path class="st3" d="M96,261.7l-0.8,5.7l-0.1,0.4l-0.1,0.4l-0.6,3.9l-3.2,22.3l-2.9,19.7c-1.3,0.7-2.8,1.4-4.3,1.9
				c-0.6,0.2-1.2,0.4-1.8,0.6c-1.4,0.4-2.8,0.7-4.3,1c-1.2,0.2-2.5,0.4-3.8,0.4l3.8-26.3l0.3-2.4l4-27.4l0.3-2.1h0l9,1.3L96,261.7
				L96,261.7L96,261.7z"/>
			<path class="st10" d="M96,261.7l-0.8,5.7l-0.1,0.4l-0.1,0.4l-0.6,3.9l-3.2,22.3l-2.9,19.7c-1.3,0.7-2.8,1.4-4.3,1.9
				c-0.6,0.2-1.2,0.4-1.8,0.6c-1.4,0.4-2.8,0.7-4.3,1c-1.2,0.2-2.5,0.4-3.8,0.4l3.8-26.3l0.3-2.4l4-27.4l0.3-2.1h0l9,1.3L96,261.7
				L96,261.7L96,261.7z"/>
			<path class="st3" d="M98.9,264.3l-4.8,32.8l-2.1,14.5c-0.9,0.7-1.9,1.4-3,2.1c-0.2,0.1-0.4,0.2-0.6,0.4c-1.3,0.7-2.8,1.4-4.3,1.9
				l3.4-23.8l3-20.6l0.4-2.9c1.7,0,3.1-0.4,4.2-0.8c1.5-0.6,2.5-1.5,3-2.2C98.7,264.9,98.9,264.3,98.9,264.3L98.9,264.3L98.9,264.3z
				"/>
			<path class="st11" d="M98.9,264.3l-4.8,32.8l-2.1,14.5c-0.9,0.7-1.9,1.4-3,2.1c-0.2,0.1-0.4,0.2-0.6,0.4
				c-1.3,0.7-2.8,1.4-4.3,1.9l3.4-23.8l3-20.6l0.4-2.9c1.7,0,3.1-0.4,4.2-0.8c1.5-0.6,2.5-1.5,3-2.2
				C98.7,264.9,98.9,264.3,98.9,264.3L98.9,264.3L98.9,264.3z"/>
			<path class="st3" d="M91.3,268.9c-0.2,0-0.3-0.1-0.3-0.3c0-0.2,0.1-0.4,0.3-0.4c1.4-0.1,2.7-0.3,3.8-0.8c1.8-0.7,3-1.9,3.2-3.2
				c0.2-1.4-0.6-2.8-2.1-4c-1.6-1.3-3.9-2.2-6.4-2.5c-0.2,0-0.3-0.2-0.3-0.4s0.2-0.3,0.4-0.3c2.6,0.4,5,1.3,6.7,2.7
				c1.8,1.4,2.6,3,2.4,4.6c-0.2,1.6-1.5,2.9-3.6,3.8C94.2,268.6,92.8,268.8,91.3,268.9C91.3,268.9,91.3,268.9,91.3,268.9z"/>
			<path class="st11" d="M91.3,268.9c-0.2,0-0.3-0.1-0.3-0.3c0-0.2,0.1-0.4,0.3-0.4c1.4-0.1,2.7-0.3,3.8-0.8c1.8-0.7,3-1.9,3.2-3.2
				c0.2-1.4-0.6-2.8-2.1-4c-1.6-1.3-3.9-2.2-6.4-2.5c-0.2,0-0.3-0.2-0.3-0.4s0.2-0.3,0.4-0.3c2.6,0.4,5,1.3,6.7,2.7
				c1.8,1.4,2.6,3,2.4,4.6c-0.2,1.6-1.5,2.9-3.6,3.8C94.2,268.6,92.8,268.8,91.3,268.9C91.3,268.9,91.3,268.9,91.3,268.9z"/>
			<path class="st3" d="M94.4,258.9c2.4,1.9,2.1,4.4-0.8,5.5c-2.8,1.1-7.1,0.5-9.5-1.4s-2.1-4.4,0.8-5.5
				C87.8,256.3,92,257,94.4,258.9z"/>
			<path class="st11" d="M94.4,258.9c2.4,1.9,2.1,4.4-0.8,5.5c-2.8,1.1-7.1,0.5-9.5-1.4s-2.1-4.4,0.8-5.5
				C87.8,256.3,92,257,94.4,258.9z"/>
		</g>
		<g>
			<path class="st3" d="M53.4,247.5l1.7,15.3l7.8-0.9l-1.1-10.4C61.8,251.5,58.4,247.6,53.4,247.5L53.4,247.5L53.4,247.5z"/>
			<path class="st9" d="M53.4,247.5l1.7,15.3l7.8-0.9l-1.1-10.4C61.8,251.5,58.4,247.6,53.4,247.5L53.4,247.5L53.4,247.5z"/>
			<path class="st3" d="M66.1,317.8c-1.5-0.2-3-0.4-4.5-0.8c-0.6-0.1-1.2-0.3-1.8-0.5c-2.5-0.7-4.7-1.6-6.8-2.8
				c-1-0.6-1.9-1.2-2.6-1.8l-1.7-15.7l-4.8-43.9h0l10-1.1l4.9-0.5h0l0.7,6.3l0,0.4l0,0.4l0.3,2.4l0.2,1.9l3,27.1L66.1,317.8
				L66.1,317.8L66.1,317.8z"/>
			<path class="st10" d="M66.1,317.8c-1.5-0.2-3-0.4-4.5-0.8c-0.6-0.1-1.2-0.3-1.8-0.5c-2.5-0.7-4.7-1.6-6.8-2.8
				c-1-0.6-1.9-1.2-2.6-1.8l-1.7-15.7l-4.8-43.9h0l10-1.1l4.9-0.5h0l0.7,6.3l0,0.4l0,0.4l0.3,2.4l0.2,1.9l3,27.1L66.1,317.8
				L66.1,317.8L66.1,317.8z"/>
			<path class="st3" d="M66.1,317.8c-1.5-0.2-3-0.4-4.5-0.8l-1.8-16.1l-1.1-10.5l-3-27.7l-0.3-3.2c1.8-0.5,3.2-1.2,4.2-2
				c0.1-0.1,0.2-0.1,0.3-0.2c1.3-1,2-2.1,2.3-3c0.4-0.9,0.4-1.5,0.4-1.5l4,36.1l3.2,29.2C68.5,318,67.3,317.9,66.1,317.8L66.1,317.8
				L66.1,317.8z"/>
			<path class="st11" d="M66.1,317.8c-1.5-0.2-3-0.4-4.5-0.8l-1.8-16.1l-1.1-10.5l-3-27.7l-0.3-3.2c1.8-0.5,3.2-1.2,4.2-2
				c0.1-0.1,0.2-0.1,0.3-0.2c1.3-1,2-2.1,2.3-3c0.4-0.9,0.4-1.5,0.4-1.5l4,36.1l3.2,29.2C68.5,318,67.3,317.9,66.1,317.8L66.1,317.8
				L66.1,317.8z"/>
			<path class="st3" d="M55.7,259.8c-0.2,0-0.3-0.1-0.4-0.3c-0.1-0.2,0-0.4,0.2-0.5c1.5-0.5,2.8-1.1,3.8-1.9
				c1.8-1.3,2.6-2.8,2.5-4.3c-0.2-1.5-1.4-2.8-3.4-3.7c-2.1-0.9-4.7-1.2-7.5-0.9c-0.2,0-0.4-0.1-0.4-0.3c0-0.2,0.1-0.4,0.3-0.4
				c2.9-0.3,5.7,0,7.9,1c2.3,1,3.6,2.5,3.8,4.3c0.2,1.8-0.8,3.6-2.8,5C58.6,258.6,57.3,259.3,55.7,259.8
				C55.7,259.8,55.7,259.8,55.7,259.8L55.7,259.8L55.7,259.8z"/>
			<path class="st11" d="M55.7,259.8c-0.2,0-0.3-0.1-0.4-0.3c-0.1-0.2,0-0.4,0.2-0.5c1.5-0.5,2.8-1.1,3.8-1.9
				c1.8-1.3,2.6-2.8,2.5-4.3c-0.2-1.5-1.4-2.8-3.4-3.7c-2.1-0.9-4.7-1.2-7.5-0.9c-0.2,0-0.4-0.1-0.4-0.3c0-0.2,0.1-0.4,0.3-0.4
				c2.9-0.3,5.7,0,7.9,1c2.3,1,3.6,2.5,3.8,4.3c0.2,1.8-0.8,3.6-2.8,5C58.6,258.6,57.3,259.3,55.7,259.8
				C55.7,259.8,55.7,259.8,55.7,259.8L55.7,259.8L55.7,259.8z"/>
			<path class="st3" d="M56.3,248.2c3.1,1.4,3.4,4.1,0.7,6.1c-2.7,2-7.4,2.5-10.5,1.1s-3.4-4.1-0.7-6.1S53.2,246.8,56.3,248.2z"/>
			<path class="st11" d="M56.3,248.2c3.1,1.4,3.4,4.1,0.7,6.1c-2.7,2-7.4,2.5-10.5,1.1s-3.4-4.1-0.7-6.1S53.2,246.8,56.3,248.2z"/>
		</g>
	</g>
</g>
<g id="Palette">
	<g>
		<g>
			<path class="st8" d="M297.5,183.5l-12,6.9c-0.8,0.4-2.1,0.4-3-0.1l-40.8-23.5c-0.9-0.5-1-1.3-0.2-1.7l12-6.9
				c0.8-0.4,2.1-0.4,3,0.1l40.8,23.5C298.1,182.3,298.2,183.1,297.5,183.5z"/>
			<g>
				<polygon class="st3" points="262.7,165 253.5,170.4 245.9,166 255.1,160.7 				"/>
				<polygon class="st3" points="272.7,170.8 263.5,176.1 255.9,171.8 265.1,166.4 				"/>
				<polygon class="st3" points="282.7,176.6 273.5,181.9 265.9,177.5 275.1,172.2 				"/>
				<polygon class="st3" points="292.7,182.4 283.5,187.7 275.9,183.3 285.1,178 				"/>
			</g>
			<g>
				<polygon class="st12" points="262.7,165 253.5,170.4 245.9,166 255.1,160.7 				"/>
				<polygon class="st13" points="272.7,170.8 263.5,176.1 255.9,171.8 265.1,166.4 				"/>
				<polygon class="st14" points="282.7,176.6 273.5,181.9 265.9,177.5 275.1,172.2 				"/>
				<polygon class="st15" points="292.7,182.4 283.5,187.7 275.9,183.3 285.1,178 				"/>
			</g>
		</g>
		<g>
			<path class="st7" d="M299.8,170.8l-10.1,9.4c-0.6,0.6-2,0.8-3,0.5l-44.9-14c-1-0.3-1.2-1-0.6-1.6l10.1-9.4c0.6-0.6,2-0.8,2.9-0.5
				l44.9,14C300.2,169.5,300.4,170.2,299.8,170.8L299.8,170.8L299.8,170.8z"/>
			<g>
				<polygon class="st3" points="261.8,160.5 254,167.7 245.6,165.1 253.4,157.9 				"/>
				<polygon class="st3" points="272.8,163.9 265,171.1 256.6,168.5 264.5,161.3 				"/>
				<polygon class="st3" points="283.9,167.3 276.1,174.6 267.7,171.9 275.5,164.7 				"/>
				<polygon class="st3" points="294.9,170.8 287.1,178 278.7,175.4 286.5,168.2 				"/>
			</g>
			<g>
				<polygon class="st16" points="261.8,160.5 254,167.7 245.6,165.1 253.4,157.9 				"/>
				<polygon class="st17" points="283.9,167.3 276.1,174.6 267.7,171.9 275.5,164.7 				"/>
				<polygon class="st18" points="294.9,170.8 287.1,178 278.7,175.4 286.5,168.2 				"/>
			</g>
		</g>
		<g>
			<path class="st2" d="M299.4,158.8l-8,11.3c-0.5,0.7-1.8,1.2-2.8,1.1l-46.9-4.4c-1-0.1-1.4-0.8-0.9-1.5l8-11.3
				c0.5-0.7,1.8-1.2,2.8-1.1l46.8,4.4C299.5,157.4,299.9,158.1,299.4,158.8z"/>
			<g>
				<polygon class="st3" points="260.1,156.5 253.9,165.1 245.2,164.3 251.3,155.6 				"/>
				<polygon class="st3" points="271.6,157.6 265.4,166.2 256.7,165.4 262.8,156.7 				"/>
				<polygon class="st3" points="283.1,158.6 276.9,167.3 268.2,166.5 274.4,157.8 				"/>
				<polygon class="st3" points="294.6,159.7 288.4,168.4 279.7,167.6 285.9,158.9 				"/>
			</g>
			<g>
				<polygon class="st19" points="260.1,156.5 253.9,165.1 245.2,164.3 251.3,155.6 				"/>
				<polygon class="st20" points="271.6,157.6 265.4,166.2 256.7,165.4 262.8,156.7 				"/>
				<polygon class="st21" points="283.1,158.6 276.9,167.3 268.2,166.5 274.4,157.8 				"/>
				<polygon class="st22" points="294.6,159.7 288.4,168.4 279.7,167.6 285.9,158.9 				"/>
			</g>
		</g>
		<path class="st1" d="M239.3,169.4c-1.8,0-3.4-1.2-3.9-2.9c-0.3-1-0.2-2.1,0.4-3.1s1.4-1.6,2.4-1.9s2.1-0.2,3.1,0.4
			s1.6,1.4,1.9,2.4l-0.8,0.2c-0.2-0.8-0.8-1.5-1.5-1.9s-1.6-0.5-2.4-0.3s-1.5,0.8-1.9,1.5s-0.5,1.6-0.3,2.4c0.5,1.7,2.3,2.7,4,2.2
			c0.8-0.2,1.5-0.8,1.9-1.5l0.7,0.4c-0.5,0.9-1.4,1.6-2.4,1.9C240,169.4,239.6,169.4,239.3,169.4L239.3,169.4L239.3,169.4z"/>
	</g>
</g>
<g id="Book">
	<g>
		<path class="st3" d="M182.6,263.7l-33.9,19.5L106,258.5l33.9-19.6c0.9-0.5,2-0.5,2.9,0l39.8,23
			C183.3,262.3,183.3,263.3,182.6,263.7L182.6,263.7L182.6,263.7z"/>
		<path class="st23" d="M182.6,263.7l-33.9,19.5L106,258.5l33.9-19.6c0.9-0.5,2-0.5,2.9,0l39.8,23
			C183.3,262.3,183.3,263.3,182.6,263.7L182.6,263.7L182.6,263.7z"/>
		<g>
			<path class="st24" d="M180.2,262.9l-31.5,18.2l-39.8-23l31.6-18.2c0.8-0.5,1.9-0.5,2.7,0l37,21.4
				C180.9,261.7,180.9,262.6,180.2,262.9L180.2,262.9L180.2,262.9z"/>
			<polygon class="st24" points="148.7,281.1 148.7,277.6 180.7,259.1 180.7,262.1 			"/>
		</g>
		<polygon class="st1" points="148.7,281.1 148.7,277.6 108.9,254.6 108.9,258.2 		"/>
		<path class="st3" d="M182.6,258l-33.9,19.5L106,252.9l33.9-19.6c0.9-0.5,2-0.5,2.9,0l39.8,23C183.3,256.7,183.3,257.7,182.6,258
			L182.6,258L182.6,258z"/>
		<path class="st13" d="M182.6,258l-33.9,19.5L106,252.9l33.9-19.6c0.9-0.5,2-0.5,2.9,0l39.8,23C183.3,256.7,183.3,257.7,182.6,258
			L182.6,258L182.6,258z"/>
		<g>
			<path class="st24" d="M144.3,280.7c-0.2,0.1-0.4,0.1-0.6,0c-0.2-0.1-0.4-0.4-0.4-0.7v-3.2c0-1.5,0.8-2.9,2.1-3.6l0.1-0.1
				c0.2-0.1,0.3,0,0.4,0c0.1,0,0.2,0.1,0.2,0.3c0,0.4,0.3,0.7,0.7,0.7s0.7-0.3,0.7-0.7c0-0.6-0.3-1.2-0.9-1.5s-1.2-0.3-1.7,0
				l-0.1,0.1c-1.7,1-2.7,2.8-2.7,4.8v3.2c0,0.8,0.4,1.5,1.1,1.9c0.3,0.2,0.6,0.2,1,0.2c0.4,0,0.8-0.1,1.2-0.4
				c0.1-0.1,0.2-0.2,0.3-0.4L144.3,280.7L144.3,280.7L144.3,280.7z"/>
			<path class="st24" d="M138,277c-0.2,0.1-0.4,0.1-0.6,0c-0.2-0.1-0.4-0.4-0.4-0.7v-3.2c0-1.5,0.8-2.9,2.1-3.6l0.1-0.1
				c0.2-0.1,0.3,0,0.4,0c0.1,0,0.2,0.1,0.2,0.3c0,0.4,0.3,0.7,0.7,0.7s0.7-0.3,0.7-0.7c0-0.6-0.3-1.2-0.9-1.5s-1.2-0.3-1.7,0
				l-0.1,0.1c-1.7,1-2.7,2.8-2.7,4.8v3.2c0,0.8,0.4,1.5,1.1,1.9c0.3,0.2,0.6,0.2,1,0.2c0.4,0,0.8-0.1,1.2-0.4
				c0.1-0.1,0.2-0.2,0.3-0.4L138,277L138,277L138,277z"/>
			<path class="st24" d="M131.6,273.4c-0.2,0.1-0.4,0.1-0.6,0c-0.2-0.1-0.4-0.4-0.4-0.7v-3.2c0-1.5,0.8-2.9,2.1-3.6l0.1-0.1
				c0.2-0.1,0.3,0,0.4,0c0.1,0,0.2,0.1,0.2,0.3c0,0.4,0.3,0.7,0.7,0.7s0.7-0.3,0.7-0.7c0-0.6-0.3-1.2-0.9-1.5s-1.2-0.3-1.7,0
				l-0.1,0.1c-1.7,1-2.7,2.8-2.7,4.8v3.2c0,0.8,0.4,1.5,1.1,1.9c0.3,0.2,0.6,0.2,1,0.2c0.4,0,0.8-0.1,1.2-0.4
				c0.1-0.1,0.2-0.2,0.3-0.4L131.6,273.4L131.6,273.4L131.6,273.4z"/>
			<path class="st24" d="M125.3,269.7c-0.2,0.1-0.4,0.1-0.6,0c-0.2-0.1-0.4-0.4-0.4-0.7v-3.2c0-1.5,0.8-2.9,2.1-3.6l0.1-0.1
				c0.2-0.1,0.3,0,0.4,0c0.1,0,0.2,0.1,0.2,0.3c0,0.4,0.3,0.7,0.7,0.7s0.7-0.3,0.7-0.7c0-0.6-0.3-1.2-0.9-1.5
				c-0.5-0.3-1.2-0.3-1.7,0l-0.1,0.1c-1.7,1-2.7,2.8-2.7,4.8v3.2c0,0.8,0.4,1.5,1.1,1.9c0.3,0.2,0.7,0.2,1,0.2
				c0.4,0,0.8-0.1,1.2-0.4c0.1-0.1,0.2-0.2,0.3-0.4L125.3,269.7L125.3,269.7L125.3,269.7z"/>
			<path class="st24" d="M119,266c-0.2,0.1-0.4,0.1-0.6,0c-0.2-0.1-0.4-0.4-0.4-0.7v-3.2c0-1.5,0.8-2.9,2.1-3.6l0.1-0.1
				c0.2-0.1,0.3,0,0.4,0c0.1,0,0.2,0.1,0.2,0.3c0,0.4,0.3,0.7,0.7,0.7s0.7-0.3,0.7-0.7c0-0.6-0.3-1.2-0.9-1.5s-1.2-0.3-1.7,0
				l-0.1,0.1c-1.7,1-2.7,2.8-2.7,4.8v3.2c0,0.8,0.4,1.5,1.1,1.9c0.3,0.2,0.7,0.2,1,0.2c0.4,0,0.8-0.1,1.2-0.4
				c0.1-0.1,0.2-0.2,0.3-0.4L119,266L119,266L119,266z"/>
			<path class="st24" d="M112.7,262.4c-0.2,0.1-0.4,0.1-0.6,0c-0.2-0.1-0.4-0.4-0.4-0.7v-3.2c0-1.5,0.8-2.9,2.1-3.6l0.1-0.1
				c0.2-0.1,0.3,0,0.4,0c0.1,0,0.2,0.1,0.2,0.3c0,0.4,0.3,0.7,0.7,0.7s0.7-0.3,0.7-0.7c0-0.6-0.3-1.2-0.9-1.5
				c-0.5-0.3-1.2-0.3-1.7,0l-0.1,0.1c-1.7,1-2.7,2.8-2.7,4.8v3.2c0,0.8,0.4,1.5,1.1,1.9c0.3,0.2,0.7,0.2,1,0.2
				c0.4,0,0.8-0.1,1.2-0.4c0.1-0.1,0.2-0.2,0.3-0.4L112.7,262.4L112.7,262.4L112.7,262.4z"/>
		</g>
	</g>
	<polygon class="st25" points="186.9,249.2 150.4,270.3 102.7,242.8 139.3,221.7 	"/>
	<g>
		<polygon class="st26" points="189.1,248.5 150.8,266.5 105.6,235.1 143.9,217.1 		"/>
		<g>
			<path class="st6" d="M140.3,236.1c-3.1,2.8-3.8,7.5-2.1,11.2c1.7,4,6,6.3,10.2,6.4c4.3,0.1,8.6-2.1,10.6-6c1-1.9,1.2-4.1,0.6-6.2
				c-0.7-2.1-2.1-3.9-3.9-5.1c-2.3-1.6-5.2-2.3-8.1-2.4c-2.4-0.1-5.4,0.2-7,2.2c-0.3,0.4,0.2,1,0.6,0.6c1.4-1.6,3.7-1.9,5.7-1.9
				c2.4,0,4.8,0.3,7,1.4c3.7,1.8,6.3,5.9,4.9,10c-1.3,3.8-5.2,6.3-9.1,6.6c-3.9,0.3-8-1.4-10.1-4.7c-2.2-3.5-1.8-8.6,1.4-11.5
				C141.3,236.3,140.7,235.7,140.3,236.1L140.3,236.1L140.3,236.1z"/>
			<path class="st6" d="M145.9,247.9c1.9,0.5,4,0.3,5.6-0.8c1.6-1.1,2.5-2.9,2.4-4.9c-0.1-1.1-0.4-2.1-1.1-2.9
				c-0.3-0.4-0.9,0.2-0.6,0.6c1.3,1.6,1.1,4.2-0.2,5.7c-1.4,1.6-3.8,2.1-5.9,1.6C145.6,247,145.4,247.8,145.9,247.9L145.9,247.9
				L145.9,247.9z"/>
			<path class="st6" d="M138.2,249.8c-2.3-0.5-4.4-2-5.5-4.1c-0.4-0.8-0.8-2.1-0.1-2.9c1-1.2,2.6-0.2,3.2,0.8c0.2,0.4,0.6,1,0.6,1.4
				c0,0.8-1.3-0.4-1.6-0.6c-0.9-0.8-1.5-1.9-1.7-3.1c-0.5-2.2,0.5-5.1,3-5.4c1-0.1,2.4,0.2,2.7,1.3c0.2,0.6-0.1,1.2-0.8,0.8
				c-0.5-0.3-0.8-1-0.9-1.5c-0.5-2.2,1-4.5,3.2-4.9c1.1-0.2,2.2,0.1,3.1,0.7c0.3,0.2,1.2,0.9,0.8,1.4c-0.6,0.6-1.2-0.4-1.3-0.9
				c-0.2-1.2,0.8-2.2,1.8-2.6c1.2-0.5,2.6-0.1,3.6,0.6c0.6,0.4,1.3,0.9,1.6,1.5c0.5,0.8-0.5,1.3-1.1,0.8c-1.2-1,0.1-2.4,1.2-2.6
				c1.5-0.3,3,0.7,4.1,1.5c1.2,0.8,2.3,1.9,3.2,3.1c0.3,0.4,1,0,0.7-0.4c-1.2-1.5-2.6-2.9-4.2-3.9c-1.5-0.9-3.4-1.6-5-0.6
				c-1.2,0.8-1.6,2.4-0.6,3.5c1,1,3.1,0.4,2.7-1.2c-0.2-0.8-1-1.4-1.6-1.9c-0.7-0.6-1.6-1-2.5-1.2c-1.6-0.3-3.3,0.2-4.2,1.6
				c-0.8,1.1-0.8,3.3,0.8,3.7c0.6,0.2,1.3-0.1,1.6-0.7c0.4-0.7-0.2-1.4-0.7-1.9c-2.4-2.2-6.4-1.4-7.7,1.6c-0.6,1.4-0.6,3.2,0.3,4.5
				c0.4,0.6,1.2,1,1.9,0.8c0.6-0.2,0.8-0.8,0.8-1.4c0-1.6-1.6-2.4-3-2.5c-1.6,0-3.1,0.9-3.9,2.3c-0.8,1.5-0.8,3.4-0.2,5
				c0.3,0.8,0.7,1.5,1.3,2.1c0.5,0.6,1.3,1.4,2.1,1.6c0.7,0.2,1.3-0.2,1.3-1c0-0.8-0.5-1.6-0.9-2.2c-0.9-1.2-2.8-2.1-4.1-0.9
				c-1.1,1-0.9,2.7-0.3,3.9c0.7,1.6,2.1,2.9,3.7,3.7c0.8,0.4,1.6,0.7,2.4,0.9C138.5,250.7,138.8,250,138.2,249.8L138.2,249.8
				L138.2,249.8z"/>
			<path class="st6" d="M143.6,243.1c0,0-0.1,0.1-0.1,0.1c0.1-0.1,0,0,0,0l-0.1,0.1l-0.1,0.1c0,0-0.1,0.1,0,0c0,0-0.1,0.1-0.1,0.1
				c-0.1,0-0.1,0.1-0.1,0.1c0,0,0,0-0.1,0c0,0,0,0,0,0c0,0,0,0,0,0c0,0-0.1,0-0.2,0.1c-0.1,0-0.1,0-0.2,0c-0.1,0,0.1,0,0,0h-0.3
				c0,0,0.1,0,0,0c-0.1,0-0.1,0-0.2,0c0,0-0.1,0-0.1,0c0.1,0.1,0,0,0,0c0,0-0.1-0.1-0.1-0.1c0,0,0,0,0,0c0,0,0,0,0,0
				c0,0-0.1-0.1-0.1-0.1l-0.1-0.1c-0.1-0.1,0,0,0,0c0,0,0-0.1-0.1-0.1c0,0,0,0,0-0.1c0,0,0,0,0,0c0,0,0,0,0,0c0,0,0-0.1,0-0.1
				c0-0.1,0-0.1,0-0.1c0,0.1,0,0.1,0,0v-0.2c0,0,0-0.1,0-0.1c0,0.1,0,0.1,0,0s0-0.1,0-0.2c0,0,0,0,0-0.1c0,0,0-0.1,0,0
				c0,0,0-0.1,0.1-0.1c0,0,0,0,0-0.1c0-0.1,0.1,0,0,0c0,0,0.1-0.1,0.1-0.1c0,0,0,0,0.1-0.1c-0.1,0.1-0.1,0,0,0c0,0,0.1,0,0.1-0.1
				c0.1,0-0.1,0,0,0c0,0,0.1,0,0.1,0s0.1,0,0.1,0c-0.1,0,0,0,0.1,0h0.1c0.1,0-0.1,0,0,0c0.1,0,0.1,0,0.2,0.1c0.1,0-0.1,0,0,0
				c0,0,0.1,0,0.1,0.1c0.1,0,0.1,0.1,0.2,0.1c0,0,0.1,0.1,0,0c0,0,0.1,0.1,0.1,0.1c0.1,0.1,0.1,0.1,0.2,0.1c0.1,0.1,0.1,0.1,0.2,0.2
				c0,0,0.1,0.1,0.1,0.1c0,0,0,0,0,0c0,0,0,0,0,0.1c0.1,0.2,0.4,0.3,0.6,0.1c0.2-0.1,0.3-0.4,0.1-0.6c-0.4-0.6-1-1.1-1.7-1.2
				c-0.6-0.1-1.3,0.2-1.5,0.8c-0.2,0.5-0.2,1.1,0,1.6c0.3,0.5,0.9,0.8,1.5,0.8c0.7,0,1.4-0.4,1.7-1c0.1-0.2,0.1-0.4-0.1-0.6
				S143.7,242.9,143.6,243.1L143.6,243.1L143.6,243.1L143.6,243.1z"/>
			<path class="st6" d="M145.6,238.6c0,0.6,0.5,1.1,1.1,1.3c0.6,0.2,1.3,0,1.6-0.5c0.3-0.5,0.3-1.1,0.1-1.6
				c-0.3-0.6-0.9-0.8-1.6-0.6c-0.4,0.1-0.6,0.3-0.9,0.6c-0.2,0.3-0.3,0.7-0.2,1c0,0.2,0.3,0.3,0.5,0.3c0.2-0.1,0.3-0.3,0.3-0.5
				c0,0,0,0.1,0,0.1v-0.1c0-0.1,0,0,0,0c0,0,0-0.1,0-0.1c0,0,0-0.1,0-0.1c0,0,0,0,0,0c0,0,0,0,0,0c0,0,0.1-0.1,0.1-0.1
				c0,0,0.1-0.1,0,0s0,0,0,0l0.1-0.1c0,0,0,0,0,0c0,0,0,0,0,0c0,0,0.1,0,0.1-0.1c0.1,0,0.1-0.1,0.1-0.1c0,0,0,0,0,0s0,0,0,0
				c0,0,0.1,0,0.1,0c0,0,0.1,0,0.1,0h0.1c0.1,0,0,0,0,0h0.2c0.1,0,0,0,0,0c0,0,0.1,0,0.1,0c0,0,0.1,0,0.1,0c0.1,0-0.1,0,0,0
				c0,0,0.1,0.1,0.1,0.1c-0.1,0-0.1-0.1,0,0c0,0,0,0,0,0c0,0,0,0,0.1,0.1c0,0,0,0,0,0.1c0,0,0,0,0,0c0-0.1,0,0,0,0
				c0,0,0.1,0.1,0.1,0.1c0,0,0,0.1,0,0c0-0.1,0,0,0,0c0,0,0,0.1,0,0.1c0,0,0,0,0,0.1c0-0.1,0,0,0,0v0.2c0,0.1,0-0.1,0,0
				c0,0,0,0.1,0,0.1c0,0,0,0.1,0,0.1c0,0.1,0-0.1,0,0c0,0,0,0.1-0.1,0.1c0,0,0,0,0,0.1c0,0,0.1-0.1,0,0c0,0,0,0,0,0c0,0,0,0,0,0
				s-0.1,0.1,0,0c0.1,0,0,0,0,0c0,0-0.1,0-0.1,0c0,0,0,0,0,0c0,0,0.1,0,0,0c0,0-0.1,0-0.1,0s0,0-0.1,0h0c0,0,0.1,0,0,0H147
				c0,0,0.1,0,0.1,0h0c-0.1,0-0.1,0-0.2,0c0,0,0,0,0,0c-0.1,0,0,0,0,0c0,0-0.1,0-0.1,0c-0.1,0-0.1-0.1-0.1-0.1c-0.1-0.1,0.1,0,0,0
				c0,0-0.1,0-0.1-0.1l-0.1-0.1c0,0-0.1-0.1,0,0c0,0.1,0,0,0,0c0,0,0-0.1,0-0.1c0,0,0,0,0,0c0-0.1,0,0,0,0c0,0,0-0.1,0-0.1
				c0,0,0-0.1,0-0.1c0,0,0-0.1,0,0s0,0,0,0c0-0.2-0.2-0.4-0.4-0.4C145.8,238.3,145.6,238.4,145.6,238.6L145.6,238.6L145.6,238.6z"/>
		</g>
	</g>
</g>
<g id="Device_1">
	<g>
		<g>
			<path class="st1" d="M206.8,199.9l-16.2,9.2c-1.1,0.6-2.3,1-3.5,1.1c-1.6,0.1-3.3-0.2-4.8-1.1l-10.4-6l-1.2-0.7
				c-2.5-1.4-4.1-4.1-4.1-7v-29.9l24.3-13.9v30.6c0,2.5,1.3,4.8,3.5,6.1l12.3,7.1C208.6,196.4,208.6,198.9,206.8,199.9L206.8,199.9
				L206.8,199.9z"/>
			<path class="st25" d="M187.1,210.2c1.2-0.1,2.4-0.4,3.5-1.1l16.2-9.2c1.8-1,1.8-3.5,0-4.6l-8.4-4.9h-11.3L187.1,210.2
				L187.1,210.2L187.1,210.2z"/>
			<path class="st25" d="M206.5,193.4l0.4,0.4c0.7,0.6,1.2,1.5,1.2,2.4v1.5h-1.6L206.5,193.4L206.5,193.4L206.5,193.4z"/>
			<path class="st27" d="M192.9,153.9v27.5c0,2.4,1.3,4.7,3.4,5.9l10.2,6.1c1.7,1,1.7,3.4,0,4.4l-1.2,0.7l-14.5,8.3
				c-2.5,1.4-5.5,1.4-8,0l-10.1-5.9c-2.1-1.2-3.4-3.4-3.4-5.9v-27.5L192.9,153.9L192.9,153.9L192.9,153.9z"/>
			<path class="st25" d="M192.9,181.4v-27.5l-23.6,13.4v27.5c0,2.4,1.3,4.7,3.4,5.9l23.2-13.6C194,185.8,192.9,183.7,192.9,181.4
				L192.9,181.4L192.9,181.4z"/>
		</g>
		<g>
			<path class="st1" d="M118.3,215.3l-2.7,1.6v4.9c-1.7,0-3.4-0.5-4.9-1.3l-0.2-0.1c-1.3-0.8-2.1-2-2.4-3.4
				c-0.1-0.3-0.1-0.6-0.1-0.9v-6.7L118.3,215.3L118.3,215.3L118.3,215.3z"/>
			<path class="st7" d="M234.7,35.4l-0.2-0.1c-1.5-0.9-3.2-1.3-4.9-1.3l0,0c-0.5,0-1.1,0.1-1.6,0.4l-115.4,66.4
				c-2.9,1.7-4.7,4.8-4.7,8.1v100.6l10.4,6l109.7-63c2.9-1.7,4.7-4.8,4.7-8.1V39.9h4.7C237.3,38,236.3,36.3,234.7,35.4L234.7,35.4z"
				/>
			<path class="st8" d="M108.9,104.6c-0.6,1.3-1,2.7-1,4.2v100.6l10.4,6l3.9-2.2V112.8C122.2,112.8,108.9,104.6,108.9,104.6z"/>
			<path class="st27" d="M112.6,212v6.7c0,2.4,2.6,3.8,4.6,2.6L232.6,155c2.9-1.7,4.7-4.8,4.7-8.1V140L112.6,212L112.6,212
				L112.6,212z"/>
			<path class="st2" d="M237.3,39.7c0-2.3-2.6-3.8-4.6-2.7l-115.4,66.4c-2.9,1.7-4.7,4.8-4.7,8.1V212l124.7-72"/>
			<path class="st3" d="M230.6,44.3C230.6,44.3,230.6,44.3,230.6,44.3L230.6,44.3c-0.2,0-1,0-1.5,0.3L120.6,107
				c-2.6,1.5-4.1,4.2-4.1,7.1v85.7c0,0.4,0.1,0.8,0.2,1.1l0,0c0.6,1.4,2.4,2.1,3.8,1.3L229,139.8c2.6-1.5,4.1-4.2,4.1-7.1V47
				C233.1,45.5,231.9,44.4,230.6,44.3L230.6,44.3L230.6,44.3z"/>
			<path class="st28" d="M230.6,44.3C230.6,44.3,230.6,44.3,230.6,44.3L230.6,44.3c-0.2,0-1,0-1.5,0.3L120.6,107
				c-2.6,1.5-4.1,4.2-4.1,7.1v85.7c0,0.4,0.1,0.8,0.2,1.1l0,0c0.6,1.4,2.4,2.1,3.8,1.3L229,139.8c2.6-1.5,4.1-4.2,4.1-7.1V47
				C233.1,45.5,231.9,44.4,230.6,44.3L230.6,44.3L230.6,44.3z"/>
		</g>
	</g>
</g>
<g id="Device_2">
	<g>
		<path class="st8" d="M276,217.4l-0.9,0.5c-0.3-0.3-0.7-0.6-1.2-0.9l-33.1-19.1c-2.5-1.4-6.2-1.6-8.4-0.4L174,231.2
			c-0.2,0.1-0.3,0.2-0.4,0.3l-1-0.6v2.5h0c0.1,0.9,0.7,1.9,2,2.6l33.1,19.1c2.5,1.4,6.2,1.6,8.4,0.4l58.4-33.7
			c1-0.6,1.4-1.3,1.4-2.1h0L276,217.4L276,217.4L276,217.4z"/>
		<path class="st7" d="M274.5,219.4l-58.4,33.7c-2.1,1.2-5.9,1.1-8.4-0.4l-33.1-19.1c-2.5-1.4-2.8-3.6-0.6-4.9l58.4-33.7
			c2.1-1.2,5.9-1.1,8.4,0.4l33.1,19.1C276.4,216,276.7,218.2,274.5,219.4z"/>
		<path class="st2" d="M267.5,218.2l-45.9,26.5c-1.1,0.6-2.9,0.5-4.1-0.2L188.9,228c-1.2-0.7-1.3-1.8-0.3-2.4l45.9-26.5
			c1.1-0.6,2.9-0.5,4.1,0.2l28.6,16.5C268.4,216.6,268.5,217.6,267.5,218.2L267.5,218.2L267.5,218.2z"/>
		<path class="st8" d="M200,238.3c1.5,0.9,1.5,2.2,0,3.1s-3.9,0.9-5.4,0s-1.5-2.2,0-3.1S198.5,237.4,200,238.3z"/>
		<g>
			<path class="st8" d="M206.1,242.6l-4,2.3c-0.4,0.2-1.1,0.2-1.6-0.1l0,0c-0.5-0.3-0.5-0.7-0.1-0.9l4-2.3c0.4-0.2,1.1-0.2,1.6,0.1
				l0,0C206.4,241.9,206.5,242.3,206.1,242.6z"/>
			<path class="st8" d="M209.8,244.7l-4,2.3c-0.4,0.2-1.1,0.2-1.6-0.1l0,0c-0.5-0.3-0.5-0.7-0.1-0.9l4-2.3c0.4-0.2,1.1-0.2,1.6,0.1
				l0,0C210.2,244.1,210.2,244.5,209.8,244.7z"/>
			<path class="st8" d="M190.6,233.6l-4,2.3c-0.4,0.2-1.1,0.2-1.6-0.1l0,0c-0.5-0.3-0.5-0.7-0.1-0.9l4-2.3c0.4-0.2,1.1-0.2,1.6,0.1
				l0,0C190.9,233,191,233.4,190.6,233.6z"/>
			<path class="st8" d="M194.3,235.8l-4,2.3c-0.4,0.2-1.1,0.2-1.6-0.1l0,0c-0.5-0.3-0.5-0.7-0.1-0.9l4-2.3c0.4-0.2,1.1-0.2,1.6,0.1
				l0,0C194.7,235.1,194.7,235.5,194.3,235.8z"/>
		</g>
	</g>
	<g>
		<path class="st7" d="M229.8,177.4l-6.8-0.6l-6.8,0.6l1.7,9.7v0.1h0c0.1,0.6,0.6,1.2,1.4,1.7c2,1.1,5.2,1.1,7.2,0
			c0.9-0.5,1.4-1.2,1.5-1.8l0,0L229.8,177.4L229.8,177.4L229.8,177.4z"/>
		<path class="st2" d="M227.8,174.3c2.7,1.5,2.7,4,0,5.6c-2.7,1.5-7,1.5-9.6,0c-2.7-1.5-2.7-4,0-5.6
			C220.8,172.8,225.2,172.8,227.8,174.3z"/>
		<path class="st8" d="M223,155.8c-1,0-1.9,0.9-1.9,1.9v18.7c0,0.3,0.2,0.6,0.6,0.8c0.7,0.4,1.9,0.4,2.7,0c0.4-0.2,0.6-0.5,0.6-0.8
			v-18.7C224.9,156.6,224,155.8,223,155.8L223,155.8L223,155.8z"/>
	</g>
</g>
<g id="Windows">
	<g>
		<g>
			<path class="st1" d="M172.5,26.2C172.5,26.2,172.5,26.2,172.5,26.2L172.5,26.2c-0.2,0-0.7,0-1.1,0.3L91.2,72.5
				c-1.9,1.1-3.1,3.1-3.1,5.3V141c0,0.3,0.1,0.6,0.2,0.8l0,0c0.4,1,1.8,1.6,2.8,0.9l80.1-46.1c1.9-1.1,3-3.1,3-5.3V28.2
				C174.3,27,173.5,26.2,172.5,26.2L172.5,26.2L172.5,26.2z"/>
			<path class="st1" d="M172.5,27.1c0.4,0,0.9,0.4,0.9,1v63.3c0,1.8-1,3.5-2.6,4.4l-80.1,46.1c-0.2,0.1-0.3,0.1-0.5,0.1
				c-0.4,0-0.8-0.2-0.9-0.6c-0.1-0.1-0.1-0.3-0.1-0.4V77.8c0-1.8,1-3.5,2.6-4.4l80.1-46.1C172,27.2,172.3,27.1,172.5,27.1
				 M172.5,26.2L172.5,26.2c-0.1,0-0.7,0-1.1,0.3L91.2,72.5c-1.9,1.1-3.1,3.1-3.1,5.3V141c0,0.3,0.1,0.6,0.2,0.8l0,0
				c0.3,0.7,1.1,1.2,1.8,1.2c0.3,0,0.7-0.1,1-0.3l80.1-46.1c1.9-1.1,3-3.1,3-5.3V28.2C174.3,27,173.5,26.2,172.5,26.2L172.5,26.2
				L172.5,26.2L172.5,26.2z"/>
		</g>
		<polygon class="st1" points="89.1,142.7 91.9,144.7 91.9,140.1 		"/>
		<polygon class="st1" points="173.4,26.5 176.2,28.5 172.7,31 		"/>
		<g>
			<g>
				<path class="st24" d="M175.2,28.1C175.2,28.1,175.2,28.1,175.2,28.1L175.2,28.1c-0.2,0-0.7,0-1.1,0.3L94,74.4
					c-1.9,1.1-3.1,3.1-3.1,5.3V143c0,0.3,0.1,0.6,0.2,0.8l0,0c0.4,1,1.8,1.6,2.8,0.9L174,98.6c1.9-1.1,3.1-3.1,3.1-5.3V30.1
					C177.1,29,176.2,28.2,175.2,28.1z"/>
				<path class="st1" d="M175.2,29.1c0.4,0,0.9,0.4,0.9,1v63.3c0,1.8-1,3.5-2.6,4.4l-80.1,46.1c-0.2,0.1-0.3,0.1-0.5,0.1
					c-0.4,0-0.8-0.2-0.9-0.6c-0.1-0.1-0.1-0.3-0.1-0.4V79.7c0-1.8,1-3.5,2.6-4.4l80.1-46.1C174.7,29.1,175,29.1,175.2,29.1
					 M175.2,28.1L175.2,28.1c-0.1,0-0.7,0-1.1,0.3L94,74.4c-1.9,1.1-3.1,3.1-3.1,5.3V143c0,0.3,0.1,0.6,0.2,0.8l0,0
					c0.3,0.7,1.1,1.2,1.8,1.2c0.3,0,0.7-0.1,1-0.3L174,98.6c1.9-1.1,3.1-3.1,3.1-5.3V30.1C177.1,29,176.2,28.2,175.2,28.1
					L175.2,28.1L175.2,28.1L175.2,28.1z"/>
			</g>
			<g>
				<path class="st3" d="M131.1,97.2c0-0.8,0.1-1.7,0.2-2.6c-5.6,1.9-9.9-0.8-10.8-6.8c-6.3,5.1-11,14.2-11,21.9
					c0,8.8,6.2,12.3,13.7,7.9c4.4-2.5,8.3-7.2,10.8-12.3C132.2,103.6,131.1,100.9,131.1,97.2L131.1,97.2L131.1,97.2z"/>
				<path class="st29" d="M131.1,97.2c0-0.8,0.1-1.7,0.2-2.6c-5.6,1.9-9.9-0.8-10.8-6.8c-6.3,5.1-11,14.2-11,21.9
					c0,8.8,6.2,12.3,13.7,7.9c4.4-2.5,8.3-7.2,10.8-12.3C132.2,103.6,131.1,100.9,131.1,97.2L131.1,97.2L131.1,97.2z"/>
				<path class="st3" d="M147.6,72.1c-0.9,7.1-5.2,14.8-10.8,19.3c0.1,0.7,0.2,1.5,0.2,2.4c0,3.7-1.1,7.7-2.9,11.4
					c2.5,2.3,6.4,2.4,10.8-0.1c7.6-4.4,13.7-15,13.7-23.8C158.6,73.7,153.8,70,147.6,72.1L147.6,72.1L147.6,72.1z"/>
				<path class="st30" d="M147.6,72.1c-0.9,7.1-5.2,14.8-10.8,19.3c0.1,0.7,0.2,1.5,0.2,2.4c0,3.7-1.1,7.7-2.9,11.4
					c2.5,2.3,6.4,2.4,10.8-0.1c7.6-4.4,13.7-15,13.7-23.8C158.6,73.7,153.8,70,147.6,72.1L147.6,72.1L147.6,72.1z"/>
				<path class="st3" d="M136.8,91.5c-0.9,0.7-1.8,1.4-2.7,1.9s-1.9,1-2.7,1.3c-0.1,0.9-0.2,1.7-0.2,2.6c0,3.7,1.1,6.4,2.9,8.1
					c1.8-3.8,2.9-7.8,2.9-11.4C136.9,93,136.9,92.2,136.8,91.5z"/>
				<path class="st13" d="M136.8,91.5c-0.9,0.7-1.8,1.4-2.7,1.9s-1.9,1-2.7,1.3c-0.1,0.9-0.2,1.7-0.2,2.6c0,3.7,1.1,6.4,2.9,8.1
					c1.8-3.8,2.9-7.8,2.9-11.4C136.9,93,136.9,92.2,136.8,91.5z"/>
				<path class="st6" d="M134,85.8c2.5-5.2,6.4-9.8,10.8-12.3c0.9-0.5,1.9-1,2.7-1.3c0.1-0.9,0.2-1.7,0.2-2.6
					c0-8.8-6.1-12.3-13.7-7.9c-7.6,4.4-13.7,15-13.7,23.8c0,0.8,0.1,1.6,0.2,2.4c0.9-0.7,1.8-1.4,2.7-1.9
					C127.6,83.4,131.5,83.5,134,85.8L134,85.8L134,85.8z"/>
				<path class="st3" d="M131.3,94.6c0.4-2.9,1.3-6,2.7-8.9c-2.5-2.3-6.4-2.4-10.8,0.1c-0.9,0.5-1.8,1.2-2.7,1.9
					C121.3,93.8,125.7,96.6,131.3,94.6L131.3,94.6L131.3,94.6z"/>
				<path class="st9" d="M131.3,94.6c0.4-2.9,1.3-6,2.7-8.9c-2.5-2.3-6.4-2.4-10.8,0.1c-0.9,0.5-1.8,1.2-2.7,1.9
					C121.3,93.8,125.7,96.6,131.3,94.6L131.3,94.6L131.3,94.6z"/>
				<path class="st3" d="M134,85.8c1.4,1.3,2.4,3.2,2.7,5.7c5.6-4.5,9.9-12.3,10.8-19.3c-0.9,0.3-1.8,0.7-2.7,1.3
					C140.4,75.9,136.5,80.6,134,85.8L134,85.8L134,85.8z"/>
				<path class="st23" d="M134,85.8c1.4,1.3,2.4,3.2,2.7,5.7c5.6-4.5,9.9-12.3,10.8-19.3c-0.9,0.3-1.8,0.7-2.7,1.3
					C140.4,75.9,136.5,80.6,134,85.8L134,85.8L134,85.8z"/>
				<path class="st8" d="M134,85.8c-1.4,2.9-2.4,5.9-2.7,8.9c0.9-0.3,1.8-0.7,2.7-1.3s1.9-1.2,2.7-1.9C136.4,88.9,135.4,87,134,85.8
					z"/>
			</g>
		</g>
	</g>
	<g>
		<g>
			<g>
				<path class="st1" d="M221.5,77.2L221.5,77.2L221.5,77.2c-0.1,0-0.6,0-0.9,0.2l-66.2,38.1c-1.6,0.9-2.5,2.6-2.5,4.4v52.3
					c0,0.2,0.1,0.5,0.1,0.7l0,0c0.4,0.9,1.4,1.3,2.3,0.8l66.2-38.1c1.6-0.9,2.5-2.6,2.5-4.4V78.8C223,77.9,222.3,77.3,221.5,77.2
					L221.5,77.2L221.5,77.2z"/>
				<path class="st1" d="M221.4,78c0.4,0,0.8,0.3,0.8,0.8v52.3c0,1.5-0.8,2.9-2.1,3.7l-66.2,38.1c-0.1,0.1-0.3,0.1-0.4,0.1
					c-0.3,0-0.6-0.2-0.8-0.5c-0.1-0.1-0.1-0.2-0.1-0.3v-52.3c0-1.5,0.8-2.9,2.1-3.7l66.2-38.1C221.1,78,221.3,78,221.4,78
					 M221.5,77.2L221.5,77.2c-0.1,0-0.6,0-0.9,0.2l-66.2,38.1c-1.6,0.9-2.5,2.6-2.5,4.4v52.3c0,0.2,0.1,0.5,0.1,0.7l0,0
					c0.3,0.6,0.9,1,1.5,1c0.3,0,0.6-0.1,0.8-0.2l66.2-38.1c1.6-0.9,2.5-2.6,2.5-4.4V78.8C223,77.9,222.3,77.2,221.5,77.2L221.5,77.2
					L221.5,77.2L221.5,77.2z"/>
			</g>
			<polygon class="st1" points="152.6,173.5 154.9,175.1 154.9,171.3 			"/>
			<polygon class="st1" points="222.2,77.4 224.6,79.1 221.7,81.1 			"/>
			<g>
				<path class="st24" d="M223.8,78.8L223.8,78.8L223.8,78.8c-0.1,0-0.6,0-0.9,0.2l-66.2,38.1c-1.6,0.9-2.5,2.6-2.5,4.4v52.3
					c0,0.2,0.1,0.5,0.1,0.7l0,0c0.4,0.9,1.4,1.3,2.3,0.8l66.2-38.1c1.6-0.9,2.5-2.6,2.5-4.4V80.4C225.3,79.5,224.6,78.8,223.8,78.8
					L223.8,78.8L223.8,78.8z"/>
				<path class="st1" d="M223.7,79.6c0.4,0,0.8,0.3,0.8,0.8v52.3c0,1.5-0.8,2.9-2.1,3.7l-66.2,38.1c-0.1,0.1-0.3,0.1-0.4,0.1
					c-0.3,0-0.6-0.2-0.8-0.5c-0.1-0.1-0.1-0.2-0.1-0.3v-52.3c0-1.5,0.8-2.9,2.1-3.7l66.2-38.1C223.3,79.6,223.6,79.6,223.7,79.6
					 M223.7,78.8L223.7,78.8c-0.1,0-0.6,0-0.9,0.2L156.6,117c-1.6,0.9-2.5,2.6-2.5,4.4v52.3c0,0.2,0.1,0.5,0.1,0.7l0,0
					c0.3,0.6,0.9,1,1.5,1c0.3,0,0.6-0.1,0.8-0.2l66.2-38.1c1.6-0.9,2.5-2.6,2.5-4.4V80.4C225.3,79.5,224.6,78.8,223.7,78.8
					L223.7,78.8L223.7,78.8L223.7,78.8z"/>
			</g>
		</g>
		<g>
			<polygon class="st3" points="217,131 167.1,159.9 181.8,121.5 192,133.6 202.5,118.7 			"/>
			<polygon class="st28" points="217,131 167.1,159.9 181.8,121.5 192,133.6 202.5,118.7 			"/>
			<path class="st28" d="M199.7,107.1c0,2.9-2,6.4-4.6,7.9s-4.6,0.3-4.6-2.6s2-6.4,4.6-7.9S199.7,104.2,199.7,107.1z"/>
		</g>
	</g>
</g>
<g id="Character">
	<g>
		<g>
			<path class="st8" d="M319.8,258.6l15,79.7c0.2,1.2,1.2,2,2.4,2c1.5,0,2.6-1.3,2.4-2.8l-11-73.9L319.8,258.6L319.8,258.6
				L319.8,258.6z"/>
			<path class="st2" d="M348.6,310.3l-15.3,93.1c-0.2,1.4-1.4,2.4-2.9,2.4l0,0c-1.7,0-3.1-1.5-2.9-3.2l10.7-96.1L348.6,310.3
				L348.6,310.3L348.6,310.3z"/>
			<path class="st2" d="M295.9,279l-15.3,93.1c-0.2,1.4-1.4,2.4-2.9,2.4l0,0c-1.7,0-3.1-1.5-2.9-3.2l10.7-96.1L295.9,279L295.9,279
				L295.9,279z"/>
			<path class="st8" d="M373,288.5l15.1,80.2c0.2,1.2,1.2,2,2.4,2c1.5,0,2.6-1.3,2.4-2.8l-11.1-74.4L373,288.5L373,288.5L373,288.5z
				"/>
			<path class="st3" d="M323.1,252.5c7-3.1,11.8-9.8,12.6-17.4c2.4-24.4,11-74.8,40.2-58c36,20.7,23.1,80.8,17.9,100
				c-1.2,4.4-3.4,8.3-6.6,11.5c-6.5,6.5-20,17.8-42.9,27.4c-2.8,1.2-5.9,1.4-8.9,0.5c-11.4-3.2-41.1-13.2-55.9-32.1
				c-1.8-2.2-1.4-5.5,0.9-7.2C286.4,272.4,299.9,262.9,323.1,252.5L323.1,252.5L323.1,252.5z"/>
			<path class="st31" d="M323.1,252.5c7-3.1,11.8-9.8,12.6-17.4c2.4-24.4,11-74.8,40.2-58c36,20.7,23.1,80.8,17.9,100
				c-1.2,4.4-3.4,8.3-6.6,11.5c-6.5,6.5-20,17.8-42.9,27.4c-2.8,1.2-5.9,1.4-8.9,0.5c-11.4-3.2-41.1-13.2-55.9-32.1
				c-1.8-2.2-1.4-5.5,0.9-7.2C286.4,272.4,299.9,262.9,323.1,252.5L323.1,252.5L323.1,252.5z"/>
			<path class="st3" d="M278.5,281c-0.1,1.2,0.3,2.4,1.1,3.5c0.8,1,1.6,2,2.5,3l0,0c0.5,0.5,1,1,1.5,1.5c0,0,0,0,0,0
				c0.5,0.5,1,1,1.5,1.5l0,0c0.5,0.5,1,1,1.6,1.4c0,0,0,0,0,0c0.5,0.5,1.1,1,1.6,1.4l0,0c8.4,7.1,18.6,12.4,27.7,16.3c0,0,0,0,0,0
				c0.6,0.2,1.1,0.5,1.7,0.7c0.1,0,0.1,0,0.2,0.1c0.5,0.2,1,0.4,1.5,0.6c0.1,0,0.2,0.1,0.3,0.1c0.5,0.2,1,0.4,1.5,0.6
				c0.1,0,0.2,0.1,0.3,0.1c0.5,0.2,0.9,0.3,1.4,0.5c0.1,0,0.3,0.1,0.4,0.1c0.4,0.2,0.8,0.3,1.2,0.5c0.1,0,0.3,0.1,0.5,0.2
				c0.4,0.1,0.8,0.3,1.1,0.4c0.2,0.1,0.3,0.1,0.5,0.2c0.4,0.1,0.7,0.2,1.1,0.4c0.2,0.1,0.3,0.1,0.5,0.2c0.3,0.1,0.6,0.2,1,0.3
				c0.2,0.1,0.4,0.1,0.5,0.2c0.3,0.1,0.6,0.2,0.9,0.3c0.2,0.1,0.4,0.1,0.6,0.2c0.2,0.1,0.5,0.2,0.8,0.2c0.2,0.1,0.4,0.1,0.6,0.2
				s0.4,0.1,0.6,0.2c0.3,0.1,0.5,0.1,0.8,0.2c0.1,0,0.3,0.1,0.4,0.1c0.4,0.1,0.8,0.2,1.1,0.3c2.9,0.8,6.1,0.6,8.9-0.5
				c22.9-9.6,36.4-20.9,42.9-27.4c3.2-3.2,5.4-7.2,6.6-11.5c5.2-19.3,18.1-79.3-17.9-100c-0.6-0.4-1.3-0.7-1.9-1
				c-0.1-0.1-0.3-0.1-0.4-0.2c-0.6-0.3-1.2-0.6-1.8-0.8c-0.1,0-0.1,0-0.2-0.1c-0.6-0.2-1.1-0.4-1.7-0.6c-0.1,0-0.2-0.1-0.2-0.1
				c-0.6-0.2-1.2-0.3-1.7-0.4c0,0-0.1,0-0.1,0c-1.2-0.2-2.3-0.3-3.5-0.2h-0.1c-1.1,0.1-2.2,0.2-3.3,0.5l0,0
				c5.8-2.5,12.8-2.4,19.7,1.6c36,20.7,23.1,80.8,17.9,100l-0.9,3.3c-1.8,6.7-5.7,12.6-11.2,16.8l-9.3,7.1l0,0
				c-7.6,5.8-18.3,12.6-32.9,18.7c-2.8,1.2-6,1.4-8.9,0.5c-11.4-3.2-41.1-13.2-55.9-32.1c-0.7-0.8-1-1.8-1.1-2.8h0L278.5,281
				L278.5,281L278.5,281L278.5,281z"/>
			<path class="st13" d="M278.5,281c-0.1,1.2,0.3,2.4,1.1,3.5c0.8,1,1.6,2,2.5,3l0,0c0.5,0.5,1,1,1.5,1.5c0,0,0,0,0,0
				c0.5,0.5,1,1,1.5,1.5l0,0c0.5,0.5,1,1,1.6,1.4c0,0,0,0,0,0c0.5,0.5,1.1,1,1.6,1.4l0,0c8.4,7.1,18.6,12.4,27.7,16.3c0,0,0,0,0,0
				c0.6,0.2,1.1,0.5,1.7,0.7c0.1,0,0.1,0,0.2,0.1c0.5,0.2,1,0.4,1.5,0.6c0.1,0,0.2,0.1,0.3,0.1c0.5,0.2,1,0.4,1.5,0.6
				c0.1,0,0.2,0.1,0.3,0.1c0.5,0.2,0.9,0.3,1.4,0.5c0.1,0,0.3,0.1,0.4,0.1c0.4,0.2,0.8,0.3,1.2,0.5c0.1,0,0.3,0.1,0.5,0.2
				c0.4,0.1,0.8,0.3,1.1,0.4c0.2,0.1,0.3,0.1,0.5,0.2c0.4,0.1,0.7,0.2,1.1,0.4c0.2,0.1,0.3,0.1,0.5,0.2c0.3,0.1,0.6,0.2,1,0.3
				c0.2,0.1,0.4,0.1,0.5,0.2c0.3,0.1,0.6,0.2,0.9,0.3c0.2,0.1,0.4,0.1,0.6,0.2c0.2,0.1,0.5,0.2,0.8,0.2c0.2,0.1,0.4,0.1,0.6,0.2
				s0.4,0.1,0.6,0.2c0.3,0.1,0.5,0.1,0.8,0.2c0.1,0,0.3,0.1,0.4,0.1c0.4,0.1,0.8,0.2,1.1,0.3c2.9,0.8,6.1,0.6,8.9-0.5
				c22.9-9.6,36.4-20.9,42.9-27.4c3.2-3.2,5.4-7.2,6.6-11.5c5.2-19.3,18.1-79.3-17.9-100c-0.6-0.4-1.3-0.7-1.9-1
				c-0.1-0.1-0.3-0.1-0.4-0.2c-0.6-0.3-1.2-0.6-1.8-0.8c-0.1,0-0.1,0-0.2-0.1c-0.6-0.2-1.1-0.4-1.7-0.6c-0.1,0-0.2-0.1-0.2-0.1
				c-0.6-0.2-1.2-0.3-1.7-0.4c0,0-0.1,0-0.1,0c-1.2-0.2-2.3-0.3-3.5-0.2h-0.1c-1.1,0.1-2.2,0.2-3.3,0.5l0,0
				c5.8-2.5,12.8-2.4,19.7,1.6c36,20.7,23.1,80.8,17.9,100l-0.9,3.3c-1.8,6.7-5.7,12.6-11.2,16.8l-9.3,7.1l0,0
				c-7.6,5.8-18.3,12.6-32.9,18.7c-2.8,1.2-6,1.4-8.9,0.5c-11.4-3.2-41.1-13.2-55.9-32.1c-0.7-0.8-1-1.8-1.1-2.8h0L278.5,281
				L278.5,281L278.5,281L278.5,281z"/>
		</g>
		<g>
			<path class="st8" d="M388,137.4c0,0,8-8.3,17.1-3.1c9.1,5.2,4.8,22,2.2,26.7c-2.6,4.8-7.5,21.8,6.8,18.4c0,0-4.9,7-15,5.1
				c-10.2-1.9-12.1-14.1-9.4-24.2c2.7-10.1-1.6-14.7-1.6-14.7L388,137.4L388,137.4L388,137.4z"/>
			<path class="st32" d="M346.2,178c0,0-10.6-1.1-14.8,0.8c-4.2,1.9-30.9,39.8-30.9,39.8s10,3.2,26.2-10.2
				C342.9,194.9,346.2,178,346.2,178L346.2,178L346.2,178z"/>
			<path class="st3" d="M381.5,216.8l1.3-29l-13.4-6.7l-15.9-3.1l-7.2,0c0,0-14.1,12-18.4,23.6s5.5,20.2,5.5,20.2
				c0,9.8-5.5,20.4-5.5,20.4s9.4,13.8,30.2,12.3c6.8-0.5,13.4-2.8,19.1-5.6c-1.5-8.4-3.7-15-3.7-15L381.5,216.8z"/>
			<path class="st11" d="M381.5,216.8l1.3-29l-13.4-6.7l-15.9-3.1l-7.2,0c0,0-14.1,12-18.4,23.6s5.5,20.2,5.5,20.2
				c0,9.8-5.5,20.4-5.5,20.4s9.4,13.8,30.2,12.3c6.8-0.5,13.4-2.8,19.1-5.6c-1.5-8.4-3.7-15-3.7-15L381.5,216.8z"/>
			<g>
				<path class="st8" d="M355,119.4c0,0-10.8-5.8-15.5,5.5c-4.6,11.3,2.2,24.1-11.4,25.9c0,0,6.6,7.5,15.2-3.3
					c-1.2,1.5,0.2,6.5,0.8,8.2c1,2.9,2.7,5.7,5,7.8c2.6,2.3,5.7,3.8,9,4.9c2.4,0.8,4.9,1.4,7.5,1.4c3.9-0.1,8.7-1.9,12.1-3.8
					c3.6-2.1,6.5-5.3,8.5-8.9c3.4-6.4,4.5-14.9,2.8-21.9c-1-4.2-2.9-7.9-5.9-11C375.3,117.4,364.5,117,355,119.4L355,119.4
					L355,119.4z"/>
				<path class="st32" d="M355,168.1l-1.5,9.9c0,0-12,9.8-2.2,12.3c9.9,2.5,18.1-9.2,18.1-9.2l3.1-19.6L355,168.1L355,168.1
					L355,168.1z"/>
				<path class="st33" d="M372.8,158.2l-0.1,0.6c-5.8,13.5-15.5,15.1-18.6,15.4l3.3-21.8l15.5,2.4L372.8,158.2z"/>
				<path class="st32" d="M362.9,124.5c-6-0.4-19,2-21.6,17.5s-2.1,27.8,5.9,29.6c8,1.8,27.2-2.7,31.2-22.8
					C382.4,128.7,368.7,124.9,362.9,124.5L362.9,124.5L362.9,124.5z"/>
				<polygon class="st33" points="351.2,150 349.9,159.1 344.8,156.8 				"/>
				<path class="st8" d="M359.3,151c-0.1,1-1.1,1.8-2.1,1.6c-1-0.1-1.8-1.1-1.6-2.1c0.1-1,1.1-1.8,2.1-1.6
					C358.7,149,359.4,150,359.3,151z"/>
				<path class="st8" d="M347.2,147.9c-0.1,1-1.1,1.8-2.1,1.6c-1-0.1-1.8-1.1-1.6-2.1c0.1-1,1.1-1.8,2.1-1.6
					C346.6,145.9,347.3,146.9,347.2,147.9z"/>
				<path class="st3" d="M343.6,143.4l4-1.6c0,0-1.2-1.7-2.7-1C343.3,141.5,343.6,143.5,343.6,143.4L343.6,143.4L343.6,143.4z"/>
				<path class="st33" d="M351.1,161.4c0,0,1.9-0.5,5.9-2.3c0,0,0.4,1.2-2.3,2.1C352.1,162.2,351.1,161.4,351.1,161.4L351.1,161.4
					L351.1,161.4z"/>
				<path class="st8" d="M343.6,143.4l4-1.6c0,0-1.2-1.7-2.7-1C343.3,141.5,343.6,143.5,343.6,143.4L343.6,143.4L343.6,143.4z"/>
				<path class="st8" d="M368.6,151.6c0,0-1.4,6.5,2.4,7.1l7.4,1.2l2-12.5c2.2-14-6.2-30.4-30.6-22.3
					C349.7,125,345.7,143.6,368.6,151.6L368.6,151.6L368.6,151.6z"/>
				<path class="st32" d="M371.1,157.9c0.2-1.4,0.7-2.8,1.5-4c0.9-1.4,2.3-2.6,4.3-2.4c4.4,0.6,4.3,4.9,4,6.4
					c-0.8,3.9-4.7,7.7-10.7,6.9L371.1,157.9z"/>
			</g>
			<g>
				<path class="st6" d="M253.5,377.5c0,0-12.2,9.5-13.5,12.3c-1.3,2.7,1.9,10.3,19.2,7.5c4.8-0.8,11.8-5.7,15.3-10.5
					c3.5-4.7,10.5-8,11.6-9.7c1.5-2.4,0.7-15-2-15.2C279.8,361.6,253.5,377.5,253.5,377.5L253.5,377.5L253.5,377.5z"/>
				<path class="st32" d="M277.2,285.3c0,0-7.7,63.2-9,72.5c-0.6,4.4-12.7,17.4-16.8,21.8c-0.7,0.8-0.6,2,0.3,2.6l0.4,0.2
					c5,3.5,11.7,3.2,16.4-0.7c3.4-2.8,6.9-6.2,8.7-9.3c2.6-4.6,4.7-6.9,5.8-8c0.6-0.5,1-1.3,1-2.1c0.2-3.1,0.9-10.9,2.7-15.2
					c2.2-5.5,13.7-27.8,13.7-47.9L277.2,285.3L277.2,285.3L277.2,285.3z"/>
				<path class="st33" d="M300.5,299.3L300.5,299.3l-5.2-0.6c2,13.9-1.9,33.1-1.9,33.1C296.9,322.5,300.5,310.5,300.5,299.3
					L300.5,299.3z"/>
			</g>
			<g>
				<path class="st6" d="M276.3,390.8c0,0-12.2,9.5-13.5,12.3c-1.3,2.7,1.9,10.3,19.2,7.5c4.8-0.8,11.8-5.7,15.3-10.5
					c3.5-4.7,10.5-8,11.6-9.7c1.5-2.4,0.7-15-2-15.2C302.6,374.9,276.3,390.8,276.3,390.8L276.3,390.8L276.3,390.8z"/>
				<path class="st32" d="M300,298.6c0,0-7.7,63.2-9,72.5c-0.6,4.4-12.7,17.4-16.8,21.8c-0.7,0.8-0.6,2,0.3,2.6l0.4,0.2
					c5,3.5,11.7,3.2,16.4-0.7c3.4-2.8,6.9-6.2,8.7-9.3c2.6-4.6,4.7-6.9,5.8-8c0.6-0.5,1-1.3,1-2.1c0.2-3.1,0.9-10.9,2.7-15.2
					c2.2-5.5,13.7-27.8,13.7-47.9L300,298.6L300,298.6L300,298.6z"/>
			</g>
			<path class="st8" d="M327.8,242.2c0,0-36.7,20-44.2,28.9c-7.5,8.9-10.7,29.4-10.7,29.4c12.8,16.5,52,18.4,52,18.4
				c3.3-10.8,11.4-12.7,24-18.8s26.7-18.4,29-31.7c1-6.1,0.4-13.3-0.7-19.5c-5.8,2.8-12.4,5.1-19.1,5.6
				C337.2,256,327.8,242.2,327.8,242.2L327.8,242.2L327.8,242.2z"/>
			<path class="st3" d="M348,223.5c0,0,16.1,4.3,23.1-7.2C371,216.3,365.4,231.3,348,223.5z"/>
			<path class="st22" d="M371,216.3c0,0-5.7,15-23.1,7.2C348,223.5,364.1,227.9,371,216.3"/>
			<path class="st32" d="M381,186.9c0,0-12.2,5.3-0.6,32.2c7.8,18.1,9.1,23,9.1,23s-4.1,2-27.3,19.3l7,11.6c0,0,41.2-14.7,40.3-26.1
				s-12.9-40.9-14.8-45.1C392.8,197.7,391.9,191.7,381,186.9L381,186.9L381,186.9z"/>
			<path class="st32" d="M300.5,218.6c4,1.7,12.5-5.7,19.5-15.5c7.1-9.8,11.3-17.9,11.3-17.9s9.1,1.2,14.9-7.2
				c0.9-1.3-6.5-10.3-6.5-10.3l3.9-1.7c0,0,6.2-1.7,5.8-4.4c-0.2-1.2-10.4,0.9-14.2,1.8c-0.9,0.2-1.8,0.7-2.4,1.4l-11.4,13
				c0,0-11.7,10-18,15.9C293.7,202.7,292.2,215,300.5,218.6L300.5,218.6z"/>
			<path class="st33" d="M339.8,168.1c-0.1,0-0.3-0.1-0.3-0.2c-0.1-0.2,0-0.4,0.2-0.5l3.9-1.7c1.7-0.5,5.8-2,5.6-4
				c-0.2-0.1-1.6-0.4-8.8,1c-0.2,0-0.4-0.1-0.4-0.3c0-0.2,0.1-0.4,0.3-0.4c8.3-1.6,9.1-1.1,9.4-0.9c0.2,0.1,0.2,0.3,0.3,0.4
				c0.4,3-5.8,4.8-6.1,4.8l-3.8,1.7C339.9,168,339.8,168.1,339.8,168.1L339.8,168.1L339.8,168.1z"/>
			<path class="st33" d="M315.6,209.1c-0.1,0-0.2,0-0.2-0.1c-0.1-0.1-0.2-0.4,0-0.5c1.5-1.7,3-3.6,4.4-5.6
				c7-9.6,11.2-17.8,11.3-17.9l0.1-0.2l0.2,0c0,0,4,0.5,8.2-1.5c0.2-0.1,0.4,0,0.5,0.2c0.1,0.2,0,0.4-0.2,0.5
				c-3.9,1.8-7.4,1.7-8.4,1.6c-0.7,1.4-4.9,8.9-11.2,17.7c-1.4,2-2.9,3.9-4.4,5.6C315.8,209,315.7,209,315.6,209.1L315.6,209.1
				L315.6,209.1z"/>
			<path class="st32" d="M363.4,261.6c0,0-5.8-1.1-10.4-0.1c-2.1,0.4-4.2,0.4-6.3,0.1c-2-0.3-4.8-0.7-3.6,2.3
				c1.1,2.6,4.8,3.2,7.3,3.5c0,0-0.9,3.1-7.5,2.9c-6.7-0.2-8.5,0.1-8,2.2s7,9.8,13.8,9.9c5.1,0.1,14.1-3.4,20.5-9.3L363.4,261.6
				L363.4,261.6L363.4,261.6z"/>
		</g>
	</g>
</g>
<g id="Speech_bubble">
	<g>
		<g>
			<path class="st24" d="M365.2,52.4c1.4-11.5-6.8-21.9-18.2-23.3c-0.3,0-0.6,0-0.9-0.1c0.1-0.4,0.1-0.8,0.2-1.1
				c1-7.9-4.6-15.1-12.5-16c-0.8-0.1-1.6-0.1-2.4-0.1c-3.5-5.7-9.5-9.8-16.6-10.7c-9.3-1.1-17.9,3.5-22.4,11h0
				c-11.5-1.4-21.9,6.8-23.3,18.2c-0.5,4.1,0.2,8.1,1.9,11.6c-5.5,1.5-9.8,6.2-10.6,12.2c-1,7.9,4.6,15.1,12.5,16
				c1.6,0.2,3.2,0.1,4.8-0.2c1,9,8,16.4,17.4,17.6c4.9,0.6,9.6-0.6,13.4-3.1c3.5,4.3,8.5,7.3,14.4,8.1c12,1.5,22.9-7.1,24.3-19.1
				c0.1-1,0.2-1.9,0.1-2.8C356.6,69.3,364,62,365.2,52.4L365.2,52.4L365.2,52.4z"/>
			<path class="st1" d="M325.6,93.6c-0.9,0-1.9-0.1-2.8-0.2c-5.7-0.7-10.8-3.4-14.5-7.8c-4,2.4-8.7,3.4-13.3,2.8
				c-9.3-1.1-16.6-8.2-18.1-17.4c-1.4,0.2-2.7,0.2-4,0.1c-8.4-1-14.4-8.7-13.4-17.1c0.7-5.9,4.7-10.7,10.2-12.7
				c-1.5-3.5-2-7.3-1.5-11.1c0.7-5.8,3.6-11,8.2-14.6c4.5-3.5,9.9-5.1,15.5-4.6c4.9-7.8,13.8-12.1,23-10.9c7,0.9,13.2,4.7,17,10.6
				c0.7,0,1.3,0,2,0.1c8.4,1,14.4,8.7,13.4,17.1c0,0,0,0.1,0,0.1c11.9,1.5,20.4,12.4,19,24.4l0,0c-1.2,9.5-8.4,17.2-17.8,18.9
				c0,0.7-0.1,1.4-0.1,2.1c-0.7,6.1-3.8,11.5-8.6,15.2C335.6,91.9,330.7,93.6,325.6,93.6L325.6,93.6L325.6,93.6z M308.5,83.4
				c0.3,0,0.6,0.1,0.8,0.4c3.4,4.3,8.3,7,13.8,7.7c5.5,0.7,11-0.8,15.4-4.3s7.2-8.4,7.8-13.9c0.1-0.9,0.1-1.8,0.1-2.7
				c0-0.5,0.4-0.9,0.9-1c8.9-1.3,15.8-8.4,16.9-17.3c1.3-10.9-6.5-20.8-17.3-22.1c-0.2,0-0.4,0-0.5,0l-0.4,0c-0.3,0-0.5-0.2-0.7-0.4
				c-0.2-0.2-0.2-0.5-0.2-0.8c0.1-0.4,0.1-0.7,0.2-1.1c0.9-7.3-4.3-14-11.7-14.9c-0.7-0.1-1.4-0.1-2.2-0.1c-0.4,0-0.7-0.2-0.9-0.5
				C327,6.7,321.2,3,314.6,2.2c-8.6-1-17,3.1-21.4,10.5c-0.2,0.4-0.6,0.5-1,0.5c-5.3-0.6-10.5,0.8-14.7,4.1c-4.2,3.3-6.8,8-7.5,13.3
				c-0.5,3.8,0.2,7.6,1.9,11.1c0.1,0.3,0.1,0.6,0,0.8c-0.1,0.3-0.4,0.5-0.6,0.5c-5.3,1.4-9.2,5.9-9.8,11.3
				c-0.9,7.3,4.3,14,11.7,14.9c1.5,0.2,3,0.1,4.4-0.2c0.3-0.1,0.6,0,0.8,0.2c0.2,0.2,0.4,0.4,0.4,0.7c1,8.8,7.8,15.6,16.5,16.7
				c4.4,0.5,9-0.5,12.7-3C308.2,83.5,308.3,83.4,308.5,83.4L308.5,83.4L308.5,83.4z M365.2,52.4L365.2,52.4z"/>
		</g>
		<g>
			<g>
				<path class="st8" d="M307.5,65.5l10-0.1l0,5.6c0,2.5-2,4.5-4.4,4.5h-1.1c-2.5,0-4.5-1.9-4.5-4.4L307.5,65.5
					C307.5,65.5,307.5,65.5,307.5,65.5z"/>
				<path class="st7" d="M320.4,67c0,2.4-3.5,4.3-7.8,4.3c-4.3,0-7.8-1.8-7.9-4.2s3.5-4.3,7.8-4.3C316.9,62.8,320.4,64.7,320.4,67
					L320.4,67z"/>
				<path class="st2" d="M320.4,64.5c0,2.4-3.5,4.3-7.8,4.3c-4.3,0-7.8-1.8-7.9-4.2s3.5-4.3,7.8-4.3
					C316.8,60.3,320.3,62.2,320.4,64.5z"/>
				<path class="st6" d="M329,42.6c-0.1-9.8-8.6-17.6-18.7-16.4c-7.7,0.9-13.8,7.2-14.5,14.9c-0.6,6.6,2.6,12.4,7.6,15.6
					c1.8,1.2,3,3.1,3,5.3l0,0c0,2.3,1.9,4.1,4.1,4.1l2.1,0l2.1,0c2.3,0,4.1-1.9,4.1-4.2v-0.2c0-2,1-3.9,2.8-5
					C326,53.7,329,48.5,329,42.6z"/>
				<path class="st8" d="M313.4,66.1c0-0.1-0.1-1.6-0.1-14.8c0-0.9,0-1.8,0-2.6c-0.4,0-0.9,0.1-1.3,0.1c-0.4,0-0.7,0-1,0
					c0.2,1.3,0.3,2.7,0.3,4.3l0.1,13h-0.7l-0.1-13c0-1.6-0.1-3-0.4-4.3c-3.9-0.4-5.7-2.5-5.7-4.4c0-1.3,0.8-2.3,2-2.3h0
					c2.1,0,3.6,2.2,4.3,6c0.4,0,0.7,0,1.1,0c0.5,0,0.9,0,1.4-0.1c0.3-5,1.3-8,3.1-8.7c1.1-0.5,2.2,0.1,2.8,0.8
					c0.8,0.8,1.2,2.7,0.5,4.7c-0.5,1.3-2,3.3-5.7,3.9c0,0.8-0.1,1.7-0.1,2.7c0,13.1,0.1,14.6,0.1,14.7L313.4,66.1L313.4,66.1
					L313.4,66.1z M306.5,42.8L306.5,42.8c-0.8,0-1.3,0.6-1.3,1.5c0,1.6,1.6,3.2,4.9,3.7C309.5,44.8,308.2,42.8,306.5,42.8
					L306.5,42.8L306.5,42.8z M317.3,39.9c-0.2,0-0.4,0-0.6,0.1c-0.9,0.4-2.3,1.9-2.7,8c3.3-0.6,4.6-2.3,5-3.5
					c0.6-1.6,0.4-3.2-0.3-3.9C318.4,40.3,317.9,39.9,317.3,39.9L317.3,39.9L317.3,39.9z"/>
				<path class="st21" d="M322.5,34.8c-0.6,1.1-2.5,1.2-4.2,0.2c-1.7-1-2.6-2.6-2-3.7c0.6-1.1,2.5-1.2,4.2-0.2
					C322.2,32.1,323.1,33.7,322.5,34.8z"/>
				<path class="st21" d="M326.2,39.2c0.2,1.2-0.2,2.2-1,2.4c-0.8,0.2-1.7-0.6-1.9-1.8c-0.2-1.2,0.2-2.2,1-2.4
					C325,37.2,325.9,38,326.2,39.2z"/>
			</g>
			<path class="st6" d="M311.6,23.1c-0.4,0-0.7-0.3-0.7-0.7l-0.3-7.8c0-0.4,0.3-0.7,0.7-0.7c0.4,0,0.7,0.3,0.7,0.7l0.3,7.8
				C312.4,22.7,312,23,311.6,23.1L311.6,23.1z"/>
			<g>
				<path class="st6" d="M295,31.3c-0.1,0-0.2,0-0.3-0.1l-6.9-3.7c-0.4-0.2-0.5-0.6-0.3-1c0.2-0.4,0.6-0.5,1-0.3l6.9,3.7
					c0.4,0.2,0.5,0.6,0.3,1C295.5,31.2,295.3,31.3,295,31.3L295,31.3L295,31.3z"/>
				<path class="st6" d="M327.6,30.1c-0.2,0-0.5-0.1-0.6-0.3c-0.2-0.3-0.1-0.8,0.2-1l6.6-4.1c0.3-0.2,0.8-0.1,1,0.2
					c0.2,0.3,0.1,0.8-0.2,1L328,30C327.9,30.1,327.7,30.1,327.6,30.1L327.6,30.1z"/>
			</g>
		</g>
		<g>
			<path class="st24" d="M354.2,85.9c-0.7,5.9-6,10-11.9,9.3c-5.9-0.7-10-6-9.3-11.9c0.7-5.9,6-10,11.9-9.3
				C350.7,74.7,354.9,80,354.2,85.9z"/>
			<path class="st1" d="M343.6,96.3c-0.5,0-1,0-1.4-0.1c-3.1-0.4-5.9-1.9-7.8-4.4c-1.9-2.5-2.8-5.5-2.4-8.6c0.8-6.4,6.6-11,13-10.2
				c3.1,0.4,5.9,1.9,7.8,4.4c1.9,2.5,2.8,5.5,2.4,8.6l0,0c-0.4,3.1-1.9,5.9-4.4,7.8C348.7,95.4,346.2,96.3,343.6,96.3L343.6,96.3z
				 M343.6,74.9c-4.8,0-9,3.6-9.6,8.5c-0.3,2.6,0.4,5.1,2,7.2c1.6,2,3.9,3.3,6.5,3.7c2.6,0.3,5.1-0.4,7.1-2s3.3-3.9,3.6-6.5l0,0
				c0.3-2.6-0.4-5.1-2-7.2c-1.6-2-3.9-3.3-6.5-3.7C344.3,74.9,343.9,74.9,343.6,74.9z"/>
		</g>
		<g>
			<path class="st24" d="M363.5,104.6c0,2.3-1.9,4.2-4.2,4.2s-4.2-1.9-4.2-4.2s1.9-4.2,4.2-4.2S363.5,102.3,363.5,104.6z"/>
			<path class="st1" d="M359.3,109.8c-2.9,0-5.2-2.3-5.2-5.2s2.3-5.2,5.2-5.2s5.2,2.3,5.2,5.2S362.2,109.8,359.3,109.8z
				 M359.3,101.4c-1.8,0-3.2,1.4-3.2,3.2s1.4,3.2,3.2,3.2s3.2-1.4,3.2-3.2S361.1,101.4,359.3,101.4z"/>
		</g>
	</g>
</g>
</svg>
