<?xml version="1.0" encoding="UTF-8"?>
<svg id="Layer_1" data-name="Layer 1" xmlns="http://www.w3.org/2000/svg" viewBox="0 0 314.43 125.52">
  <path d="m146.19,57.24c1.56,1.72,1.64,3.38.33,5.41-1.06,1.65-1.16,3.76-.71,5.64.41,1.72.3,3.21-.47,4.73-.44.34-.93.46-1.47.35h.01c.15-.64.46-1.35-.35-1.76-.71-.37-1.28.07-1.82.51-1.65,1.34-3.52,2.19-5.64,2.39-2.29.22-2.81-.3-2.83-2.6-.01-2.53-.18-2.69-2.7-2.55-.42.02-.85.1-1.26.2-1.09.28-1.94.05-2.37-1.08-.41-1.09-1.21-1.44-2.31-1.33-2.85.27-5.48,2.07-8.49,1.28-.13-.03-.32.16-.48.24-1.26.61-2.07.2-2.19-1.16-.11-1.36-.89-1.57-2-1.48-.55.05-1.1.05-1.65.05-5.86.03-9.55-4.88-7.83-10.45.32-1.03.5-2.02-.04-3.01-.29-.52-.5-.85-1.19-.2-1.65,1.55-3.43,1.02-4.23-1.1-.38-1-.36-2.04-.32-3.07.15-3.49.15-6.95-1.31-10.23-.14-.32-.09-.72-.12-1.08-.24-3.09,1.12-5.67,2.65-8.19,1.38-.62,2.06-.28,2.51,1.3.68,2.38,1.98,4.41,4.37,5.56.72.35,1.5.62,2.07.32,2.41-1.24,4.9-1.08,7.43-.7.75.12,1.3-.31,1.73-.8,1.02-1.17,1.98-2.41,2.96-3.61,1.43-.59,3.06-.7,4.17.2,2.99,2.42,6.03,1.09,9.1.55.66.02,1.34-.25,1.58-.76,1.26-2.59,2.41-5.23,3.6-7.85.02-.05,0-.12,0-.18-.13-.84.19-1.55.6-2.24.15-.12.3-.25.45-.37,2-.38,3.1-2.2,2.52-4.77-.39-1.69-.36-3.19.44-4.7,0,0,0,0,0,0,.12-.12.24-.25.36-.37,3.73-2.28,9.21-1.95,12.66.7,1.26.97,1.9,2.37,1.63,4.05-.73.02-1.46-.03-2.18.08-.92.13-1.47.51-.47,1.36-.07,1.26.55,2.05,1.51,2.86,1.68,1.41,3.81,2.65,3.36,5.42-.07.41-.03.89-.22,1.23-1.08,1.94-.09,3.06,1.5,3.97.53.3,1.06.6,1.6.89,1.88,1,3.09,2.38,2.58,4.69-.11.14-.22.28-.33.41-.05.07-.08.15-.1.24-.96.37-1.94.54-2.99.5-2.71-.1-4.74,1.39-5.68,4.04-.06.2-.12.39-.18.59-.06.17-.13.34-.19.51-.64,1.01-.65,2.22-.22,3.16.96,2.09.58,4-.22,5.95-2.05,1.58-4.02,3.28-6.47,4.3-.78.33-1.16,1.07-.71,1.97Z" fill="#95204d"/>
  <path d="m1.98.05c1.24-.23,2.18.43,3.07,1.12.75.59,1.46,1.23,2.43,1.46.12.03.24.07.36.1.49.03.98.05,1.48.08,1.95,0,3.91,0,5.86.01,1.02.18,2.04.34,2.96.9,1.17.71,2,1.63,1.81,3.11-.28,2.22.74,3.89,2.24,5.33,2.26,2.15,4.89,3.73,7.79,4.85,2.13.82,2.72,2.86,3.62,4.59.77,1.48,1.8,2.71,2.89,3.92.69.76,1.45.82,2.26.29,1.24-.81,2.31-.56,3.17.54.33.42.76.82,1.16.77,1.88-.28,3.02.53,4.01,2.07.33.51.91,1.22,1.81,1.37,1.76.29,2.23,1.59,2.22,3.19,0,.48-.01,1,.14,1.44.81,2.34,2.22,2.78,4.51,1.39.6-.36,1.12-.8,1.81-.31.53.38.5.84.24,1.44-.32.73.32,1.03.83,1.4.96.7,2.17,1.25,2.08,2.76-.18.88-1.57,1.29-.95,2.49.35.67-.07,1.27-.24,1.89,0,0,0,0,0,0-.22.05-.33.18-.3.4-1.26,2.3-.51,3.59,2.13,3.64,1.87.04,3.18,1.22,3.29,3.11.09,1.57.34,2.99,1.87,3.82.29.16.44.45.38.76-.35,1.88.76,2.01,2.15,1.81.96.51,2.24.14,3.05,1.07.07.54.26,1.09.19,1.62-.16,1.27.21,2.24,1.18,3.08,1.32,1.16,1.17,2.51.75,4.15-1.11,4.25-2.86,8.59.16,12.83.55.78.73,1.67.2,2.58-.59.9-1.42,1.08-2.39.76-.6-.2-1.2-.28-1.79-.02-1.52.66-2.82.53-3.89-.86-.29-.38-.73-.83-1.06,0-.21.55-.18,1.42-.89,1.43-.85.02-1.07-.9-1.35-1.54-1.22-2.75-3.2-4.88-5.52-6.72-2.59-2.06-5.48-3.64-8.43-5.12-3.9-1.96-6.56-4.81-6.68-9.46-.03-1.12-.62-1.99-1.59-2.52-.82-.45-1.19-1.09-1.4-1.99-1.19-5.17-3.45-9.75-7.57-13.27-.69-.59-1.26-1.33-1.83-2.04-2.12-2.61-3.31-5.58-4.02-8.89-.91-4.21-2.74-7.88-7.54-8.94-.79-.17-1.05-.81-1.08-1.52-.1-2.21-1.16-3.78-3.06-4.87-.41-.23-.89-.61-1.01-1.02-.72-2.43-2.38-3.58-4.6-4.81-2.86-1.59-5.09-4.31-6.56-7.44C1.38,4.22.72,2.2,1.98.05Z" fill="#95204d"/>
  <path d="m314.21,69.69c0,1.97,0,3.95,0,5.92-.26,1.93-.26,3.87,0,5.81,0,9.66,0,19.33.01,28.99,0,.12,0,.25.01.37,0,.25,0,.49,0,.74-.04.13-.07.26-.11.4,0,0-.06.1-.06.1-1.13-.05-2.14-.43-3.06-1.09-1.81-1.29-2.8-3.18-3.74-5.1-1.68-3.42-3.3-3.77-6.23-1.34-.56.47-1.19,1.15-1.92.76-1.92-1.03-3.74-.65-5.66-.03-1.47.47-2.14-.18-2.25-1.72-.09-1.22.64-2.2.79-3.34.78-.93,1.99-1.18,2.95-1.83,1.07-.06,1.37-.91,1.66-1.7.28-.75.51-1.54,1.18-2.02.95-.68.52-1.15-.14-1.67-2-1.57-3.24-3.67-3.79-6.11-.82-3.59-3.2-5.59-6.45-6.87-2.51-.99-5.13-1.56-7.74-2.16-5.46-1.24-10.76-2.74-14.77-7.07-1.37-1.49-2.14-1.06-2.61,1.18-.12.24-.23.49-.35.73-.28.14-.42.37-.44.67,0,0,0,0,0,0-1.16.45-2.36.92-3.42-.1-1-.97-.96-2.19-.39-3.38.48-.99,0-1.36-.84-1.79-1.51-.77-3.04-1.55-4-3.07-.54-.85-.6-1.57.29-2.2,1.32.04,2.64.08,3.96.12.68.1,1.23-.23,1.59-.72.95-1.27,2.07-1.34,3.37-.66.21.11.46.17.7.19.75.07,1.59.13,1.73-.85.15-1.13-.78-1.04-1.49-1.04-2.62,0-5.23-.02-7.85.08-1.7.07-2.61-.76-3.07-2.27-.9-2.98-1.1-3.16-4.08-3.32-3.18-.17-4.77-2.05-4.03-4.76,2.38.01,4.32-1.51,6.6-1.87.94-.07,1.35-.8,1.8-1.47,0,0,.02-.02.02-.02.49-.03.86-.25,1.04-.73,2.42-.8,4.66-.28,6.75,1.02,1.58.98,3.19,1.77,5.12,1.59.97-.09,1.53.31,1.42,1.36-.1.96.2,1.76.76,2.55.52.72.77,1.54.37,2.51-.88,2.15-.39,4.28.37,6.37.18.5.4.89,1.06.59,1.08-.48,1.41.24,1.64,1.08.15.53.27,1.07.43,1.59.99,3.19,2.71,3.86,5.6,2.2.7-.03.99-.59,1.39-1.04,1.88-2.07,2.94-4.67,4.51-6.94,1.11-.15,2.28.31,3.35-.3.67-.03,1.26-.29,1.31-1,.11-1.46,1-2.57,1.59-3.81,1.47-1.22,2.93-.68,4.03.37,3.94,3.76,8.76,5.76,13.88,7.17,2.03.56,4.07,1.17,6.2,1.21.87.01.99.49,1.02,1.15-.3,2.18-.27,4.36,0,6.54Z" fill="#95204d"/>
  <path d="m177.19,32.78c1.27-.13,2.58-.42,3.41.99.07.12.29.25.43.24,2.41-.22,4.32.98,6.27,2.11.67.39,1.48.45,2.11.15,2.18-1.01,4.37-.74,6.6-.34,1.27.22,2.54.33,3.59-.69,2.4-.58,3.34-2.74,4.75-4.4,0,0,0,0,0,0,.62-.01,1.24-.02,1.86-.03,1.46-.08.98.75.69,1.49-.29.15-.4.4-.43.71-.09.14-.19.28-.28.42-.55.28-.75.78-.85,1.35,0,0-.02.02-.02.02-.37.15-.59.41-.6.83h0c-1.06,1.01-2.08,2.05-3.18,3.01-2,1.75-4.45,3.28-6.97,2.26-3.96-1.59-8.08-.85-12.06-1.59-1.03-.19-2.07.06-3.01.56-1.17.62-2.21.57-3.42-.09-1.88-1.03-2.9-.69-4.03.93,0,0-.01.02-.01.02-.09.14-.19.28-.28.42-.03.1-.06.2-.1.29-.43.26-.32.72-.39,1.11-1.29,3.7,1.74,8.55,5.16,10.39.28.3.56.33.84,0,0,0,.02,0,.02,0,1.77-.59,1.82-2.56,2.94-3.67,2.91.14,5.68-.44,8.36-1.58.78-.33,1.64-.51,2.48-.63,2.63-.37,3.13.12,2.96,2.81-.78.38-1.6.48-2.46.46-1.01-.03-2.02.22-2.61,1.05-1.73,2.44-4.1,4.08-6.55,5.67-.48.31-1.19.61-.49,1.38,1.52,2.27,3.03,4.55,4.58,6.8.6.88.86,1.7.24,2.69-.56.89-.33,1.75.26,2.54.51.68,1.1,1.32,1.51,2.06.64,1.15,1.5.96,2.48.64.5-.16,1.16-.35,1.51.18.38.57-.15,1.12-.51,1.4-.68.53-.55,1.01-.15,1.55.57.77.64,1.59.14,2.37-.77,1.21-1,2.36-.15,3.66.29.45.41,1.14.07,1.73-.8,1.17-1.9,1.82-3.29,1.42-1.79-.52-2.55-2-2.83-3.72-.46-2.82,1.48-3.96,3.78-4.88-2.52-1.15-3.7-.7-4.29,1.49-.11.43-.13.83-.68.93-2.56.49-4.3-.9-4.05-3.52.17-1.74-.42-2.88-1.73-3.89-1.78-1.38-3.22-2.91-1.7-5.4.25-.41.1-1.08.09-1.62-.02-1.75-.89-2.45-2.56-1.99-.76.21-1.51.53-1.84,1.36-.69.8-.98,1.61-.35,2.64.82,1.33.54,2.95,1.01,4.38.02,1.94.04,3.88.06,5.82-.81,2.64-1.41,5.3-.7,8.08-.49.71-1.2.98-2.03,1.06-3.66.38-5.44-2.05-4.39-5.93.7-2.59,1.49-5.17,1.28-7.91-.17-2.26-.69-2.8-2.76-3-1.48-.14-2.45-1-3.07-2.28-.64-1.33-.66-2.81.39-3.77,2.3-2.09,2.56-4.74,2.49-7.52-.07-2.57.7-4.76,2.44-6.67,1.14-1.25,1.74-2.74,1.63-4.52-.21-3.16.7-6.01,2.59-8.56.71,0,1.42-.01,2.13-.02.94.48,1.28-.33,1.7-.84.61-.74,1.16-1.53,1.73-2.3,0,0,.09-.04.09-.04,0,0,.12-.06.12-.06Z" fill="#95204d"/>
  <path d="m74.97,87.34c1.85-.11,3.71-.42,5.03,1.46.6.86,1.34.07,1.9-.27,2.41-1.48,3.26-1.38,5.09.66.69.78,1.66,1.07,2.62,1,1.26-.09,2.24.4,3.22,1.05,1.47.97,2.99,1.89,4.48,2.84,2.74,1.75,5.37,1.37,7.88-.46,2.02-1.46,4.08-1.68,6.3-.49,1.27.68,2.65.89,4.08.76,1.49-.14,2.94,0,4.24.81.55.34.97.23,1.53.03,1.26-.44,2.54-.9,3.86-1.09,2.04-.3,3.16,1.03,2.8,3.11-1.28.58-2.62.85-4.03.81-1.01-.03-1.85.19-1.62,1.52.01.22.02.43.03.65-.03.41.31.38.56.47.88.89,2,.68,3.08.68,1.71,0,3.41-.04,5.12,0,1.29.03,2.23.55,2.11,2.06-.07.82.21,1.47,1.08,1.16,2.58-.92,4.74.11,6.9,1.26.12.81-.4,1.43-.61,2.14-.13.12-.26.25-.39.37-1.7,1.05-3.14.81-4.37-.81-.32-.42-.79-.75-1.25-1.02-.58-.33-1.31-.64-1.78.06-.47.69.28,1.04.67,1.46,0,.42,0,.83,0,1.25-.1.15-.2.3-.3.44,0,0,0-.01,0-.01-2.19.55-3.98-.27-5.47-1.76-.91-.92-1.9-1.12-3.12-1.15-2.86-.06-5.78.67-8.57-.68-1.52-.74-3.25-.64-4.87-.44-2.48.31-4.65-.28-6.79-1.49-4.17-2.36-8.64-3.06-13.39-2.19-1.29.24-2.61.11-3.94-.39-2.37-.89-4.68-2.16-7.37-1.74-1.59.25-2.14-.49-2.2-2.04-.08-2.25-1.59-3.55-3.84-3.47-.66.02-1.32.24-1.98.29-.71.05-1-.44-.47-.86,1.8-1.42,2.16-3.62,3.15-5.48,0,0,.02-.04.02-.04.21-.16.42-.32.63-.47Z" fill="#95204d"/>
  <path d="m227.84,27.92c1.47-.73,3.11-.43,3.95.61.85,1.05,1.1,2.73.04,4.11-.85.65-1.55,1.49-2.58,1.95-.86.38-.84.95.02,1.41,1.5.75,2.71,1.67,2.2,3.63-1.22.38-1.79-.77-2.68-1.16-1.67-.72-2.73-.42-3.25,1.09-.64,2.9-.35,5.68,1.07,8.33.81,1.51,1.55,3.05,2.32,4.57-.88.03-1.48-.51-2.06-1.05-2.41-2.21-3.69-4.97-3.8-8.23-.06-1.84-.03-3.73-1.11-5.3-2.45-3.57-3.25-7.18-.64-11.01.21-.15.43-.3.64-.45,1.19.08,1.75-.64,2.05-1.65.24-.81.37-1.65.88-2.36.33.05.65.1.98.14.27.79.58,1.58.57,2.43,0,.96,0,1.92,0,2.89-.09,1.7-.77,3.18-1.71,4.56-.22.32-.68.76-.25,1.11.53.44.89-.15,1.17-.49,1.24-1.5,1.74-3.32,2.19-5.16Z" fill="#95204d"/>
  <path d="m197.18,113.12c1.19-.51,2.38-1.03,3.56-1.54,2.55.05,3.69-1.56,4.37-3.71,0,0,0,0,0,0,.13-.12.26-.23.39-.35,4.38-2.46,9.13-2.28,13.9-1.98.96.06,1.26.59.99,1.48-1.47.19-3.02.44-3.93,1.65-1.11,1.47-2.61,1.79-4.22,2.16-3.2.74-6.04,2.15-7.99,4.95,0,0-.01.03,0,.04-.53.2-.89.57-1.07,1.11,0,0,0,.01,0,.01-.28.06-.51.18-.53.51-.07.08-.11.18-.14.28-1.36,1.52-2.99,2.39-5.1,2.26-.45-.03-.93.26-1.39.4-.65.19-1.24,1.14-1.94.41-.66-.68-.36-1.59-.08-2.42.6-1.82,1.74-3.32,2.78-4.89,0,0,0-.04,0-.04.14-.11.27-.21.41-.32Z" fill="#95204d"/>
  <path d="m170.78,105.05c2.35-1,4.74-.84,6.77.55,4,2.73,7.87,2.25,11.79,0,1.22-.7,2.4-1.06,3.8-.44.71.32,1.5.12,2.29-.15.91-.31,1.78-.16,1.46,1.21-.43.22-.98.33-1.27.67-1.16,1.33-2.24,1.23-3.4.03-.86-.88-1.56-.31-2.16.37-1.09,1.23-2.47,1.97-4,2.47-3.97,1.28-8.04,1.23-12.12.81-1.08-.11-2.16-.37-3.15-.9-1.34-.72-1.58-1.78-.95-3.08.26-.54.64-1.03.97-1.55Z" fill="#95204d"/>
  <path d="m149.08,106.44c1.32-.06,2.47-1.06,3.87-.65.78.66,1.55,1.33,2.33,1.98.5.42,1.07.67,1.65.23.65-.49.54-1.15.24-1.8-.28-.59-.77-.93-1.36-1.12-.64-.2-1.13-.47-.93-1.26.56-.26,1.29-.61,1.74-.27,1.72,1.3,3.85,1.05,5.69,1.73,1.9.7.87,2.37.65,3.69-1.22.59-2.45,1.11-3.83.45-.24-.11-.7-.13-.86.02-2.07,1.94-5.08.97-7.32,2.44-1,.66-2.15.47-2.94-.57-.79-1.04-.68-2.15-.03-3.24.34-.57,1.03-.89,1.12-1.63Z" fill="#95204d"/>
  <path d="m226.05,63.9c3.13.3,6.26-.17,9.38-.05,2.16.09,4.15,1.08,6.28,1.47,1.47.27,2.36,1.65,2.27,3.33-.03.61-.03,1.21.31,1.75-.81.59-1.42.3-2.05-.35-.83-.87-1.69-1.97-3-1.86-3.25.29-6.49-.82-9.75.04-1.34.35-2.54-.22-3.37-1.31-.73-.95-.79-2.01-.06-3.04Z" fill="#95204d"/>
  <path d="m71.7,54.01c.3-.02.61-.01.91-.08,2.85-.59,3.05-.43,3.08,2.42.02,2.01.7,3.95,2.44,4.79,2.01.97,2.14,2.36,1.95,4.12-.03.24-.03.49-.05.73-1.25.45-1.8-.98-2.75-1.09-2.37-.27-3.08-1.78-3.38-3.84-.17-1.23-.84-2.13-2.21-2.34-1.88-.29-2.3-1.1-1.4-2.82.36-.69.93-1.27,1.4-1.9Z" fill="#95204d"/>
  <path d="m163.29,114.44c1.9-1.57,6.27-1.58,8.08.05,1.13,1.02,2.29,2,3.68,2.65,1.27.59,1.74,1.44,1.05,2.75-.11.14-.22.28-.33.42,0,0,0,0,0,0-1.83.82-3.61,1.14-5.03-.74-1.5-1.99-3.56-3.04-5.9-3.63-.83-.21-1.48-.53-1.55-1.5Z" fill="#95204d"/>
  <path d="m211.75,66.09c.79-.05,1.59,0,2.36-.15,3.9-.79,5.73.87,5.17,4.74-.12.12-.23.24-.35.37,0,0-.06,0-.06,0-2.62.9-4.85.29-6.74-1.72-.94-1-1.25-2.04-.39-3.24Z" fill="#95204d"/>
  <path d="m259.34,84.74c.76-1.31,2.1-1.32,3.29-1.23,2.2.18,1.84,1.96,1.89,3.44-.08.27-.17.54-.25.81,0,0-.07.06-.07.06-1.35.58-2.15,1.7-2.88,2.88-.46.74-.9,1.59-1.94,1.27-1.07-.33-1.06-1.34-1.1-2.27-.06-1.74.72-3.3,1.06-4.96Z" fill="#95204d"/>
  <path d="m200.34,55.05c.1-.05.21-.08.32-.1.39.01.77.03,1.16.04,3.59.32,7.08,1.51,10.74,1.2.74-.06,1.27.61.81,1.2-.91,1.17-.76,2.62-1.32,3.86-.64.27-1.27.49-1.83-.16-.49-.58-.29-1.07.1-1.63.72-1.07-.1-1.42-.91-1.61-2.1-.51-4.22-.4-6.33-.04-2.36.4-3.18-.43-2.73-2.77Z" fill="#95204d"/>
  <path d="m147.59,106.36c-.34,1.84-1.5,3.02-3.13,3.78-.7.33-1.44.33-2.09-.15-.69-.51-.2-1.08-.05-1.65.29-1.11-.2-2.34.49-3.39,2.58-1.38,4.24-.89,4.77,1.41Z" fill="#95204d"/>
  <path d="m86.38,61.72c4.23-.36,4.8.37,3.47,4.43-.1.3.13.72-.32.91-2.41.75-3.9-.31-3.96-2.78-.02-.95.36-1.76.8-2.56Z" fill="#95204d"/>
  <path d="m210.64,100.19c1.65.16,3.23-.44,4.86-.45,1.2,0,2.24.31,1.72,1.92-1.58.03-2.85.83-4.1,1.69-.93.64-1.9.73-2.86.08-1.02-.68-.49-1.59-.3-2.44,0,0,.01-.02.01-.02.45-.06.57-.41.67-.78Z" fill="#95204d"/>
  <path d="m241.4,43.32c.05-.07.09-.15.1-.23.14-.11.28-.23.42-.34,1.19-.32,2.42-.22,3.62-.14,1.91.12,2.98,1.65,2.48,3.36-.1.11-.2.22-.3.33,0,0-.05.04-.05.04-.84.05-1.53-.6-2.44-.39-2.38.54-3.36-.16-3.82-2.61Z" fill="#95204d"/>
  <path d="m15.55,31.92c1.02-.12,1.79.21,2.2,1.21.61,1.46,2.64,2.2,2.1,4.23-.97.86-1.89.9-2.86-.07-1.92-1.93-2.44-3.79-1.45-5.36Z" fill="#95204d"/>
  <path d="m229.36,18.43c2.41-.17,2.52-.07,2.51,2.28,0,.54-.04,1.09-.06,1.63-.89.3-1.77.63-1.89,1.76,0,0-.03.04-.03.04-1.57.39-2.05-.42-2.12-1.83-.07-1.36.61-2.43,1.15-3.57,0,0,0,0,0,0,.15-.1.29-.2.44-.3Z" fill="#95204d"/>
  <path d="m26.2,49.87c1.9,1.3,2.73,3.58,2.11,5.82-1.94-.02-3.65-1.54-3.94-3.52-.2-1.4.09-2.43,1.83-2.3Z" fill="#95204d"/>
  <path d="m223.04,51.06c.99.84,1.85,1.73,1.44,3.2-.34.13-.68.24-1,.4-1.33.67-2.59.57-3.64-.48-1.11-1.11-.16-2.09.37-3.06,0,0-.02,0-.02,0,.95-.18,1.89-.19,2.85-.05Z" fill="#95204d"/>
  <path d="m4.6,20.99c2.36-.78,5.09,1.56,5.09,4.37-1.78.05-2.99-1.1-4.3-2.03-.81-.57-1.21-1.32-.79-2.33Z" fill="#95204d"/>
  <path d="m194.75,53.86c-.59.12-1.25.35-1.76-.05-.69-.55-1.12-.47-1.58.27-.4.65-1.03.93-1.68.36-.64-.57-.57-1.34-.11-1.97,1.01-1.37,2.44-1.68,4.06-1.39.52.64,1.38,1.09,1.18,2.14,0,.12-.01.25-.02.37-.04.09-.08.18-.1.28Z" fill="#95204d"/>
  <path d="m237.52,54.5c.3-.05.59-.1.89-.13,2.54-.24,2.93.19,2.55,2.81-.33.14-.67.28-1,.43-.94.43-1.89.53-2.72-.18-.93-.79-.6-1.73-.17-2.64,0,0,0-.01,0-.01.15-.09.3-.18.45-.27Z" fill="#95204d"/>
  <path d="m200.7,103.81c.97,0,1.95.09,2.92-.01,1.51-.16,1.81.53,1.46,1.81-.11.14-.21.28-.32.42,0,0,0,0,0,0-.13.11-.27.22-.4.33,0,0,0,0,0,0-3.6.73-4.08.43-3.94-2.46.11.02.21,0,.29-.08Z" fill="#95204d"/>
  <path d="m278.13,48.5c2.23-.91,3.82,0,4.25,2.44-.73.85-1.59,1.04-2.6.54-1.24-.62-1.73-1.64-1.65-2.98Z" fill="#95204d"/>
  <path d="m189.75,121.09c2.19-.02,2.35.19,1.94,2.46-.22.09-.44.2-.67.26-1.07.28-2.51,1.22-3.14.05-.79-1.45.82-2.11,1.87-2.77Z" fill="#95204d"/>
  <path d="m37.2,66.08c-.93.57-1.66.17-2.18-.59-.77-1.13-1.71-2.29-.73-3.78.59.65,1.09,1.42,1.94,1.74.92.35.98,1.07.99,1.86,0,.25-.01.5-.02.74v.02Z" fill="#95204d"/>
  <path d="m180.24,49.25c-1.12,1.11-1.17,3.08-2.94,3.67.24-1.81,1.09-3.14,2.94-3.67Z" fill="#95204d"/>
  <path d="m59.52,46.23c.17-.62.59-1.22.24-1.89-.63-1.2.76-1.61.95-2.49,0,1.57-.08,3.11-1.18,4.38Z" fill="#95204d"/>
  <path d="m314.21,69.69c-.27-2.18-.29-4.36,0-6.54.28,2.18.3,4.36,0,6.54Z" fill="#95204d"/>
  <path d="m15.18,2.81c-1.95,0-3.91,0-5.86-.01,1.95-.39,3.91-.42,5.86.01Z" fill="#95204d"/>
  <path d="m314.2,81.42c-.26-1.94-.27-3.87,0-5.81.3,1.94.3,3.87,0,5.81Z" fill="#95204d"/>
  <path d="m173.55,77.04c-.02-1.94-.04-3.88-.06-5.82.73,1.93.62,3.87.06,5.82Z" fill="#95204d"/>
  <path d="m252.34,46.21c-.45.67-.85,1.4-1.8,1.47.16-1.03.72-1.56,1.8-1.47Z" fill="#95204d"/>
  <path d="m206.22,30.81c-.62.01-1.24.02-1.86.03.6-1,1.23-.97,1.86-.03Z" fill="#95204d"/>
  <path d="m223.04,51.06c-.95-.14-1.9-.14-2.85.05.94-.77,1.89-.7,2.85-.05Z" fill="#95204d"/>
  <path d="m205.35,34.77c.11-.56.3-1.07.85-1.35.02.64-.07,1.21-.85,1.35Z" fill="#95204d"/>
  <path d="m201.82,55c-.39-.01-.77-.03-1.16-.04.42-.82.8-.77,1.16.04Z" fill="#95204d"/>
  <path d="m253.4,45.47c-.18.48-.54.7-1.04.73.09-.61.54-.7,1.04-.73Z" fill="#95204d"/>
  <path d="m204.73,35.62c.01-.41.23-.67.6-.83.14.52-.1.77-.6.83Z" fill="#95204d"/>
  <path d="m171.28,42.53c.07-.39-.04-.85.39-1.11.02.42.12.88-.39,1.11Z" fill="#95204d"/>
  <path d="m264.28,87.75c.08-.27.17-.54.25-.81.37.41.17.65-.25.81Z" fill="#95204d"/>
  <path d="m122.94,100.19c-.25-.08-.59-.06-.56-.47.27.05.5.17.56.47Z" fill="#95204d"/>
  <path d="m74.97,87.34c-.21.16-.42.31-.63.47.03-.4.3-.47.63-.47Z" fill="#95204d"/>
  <path d="m261.47,73.31c.02-.31.17-.53.44-.67,0,.33-.08.59-.44.67Z" fill="#95204d"/>
  <path d="m206.48,33c.03-.31.14-.56.43-.71,0,.33-.08.6-.43.71Z" fill="#95204d"/>
  <g>
    <path d="m1.98.05c-1.26,2.16-.6,4.18.36,6.22,1.47,3.13,3.7,5.84,6.56,7.44,2.22,1.24,3.88,2.39,4.6,4.81.12.41.61.78,1.01,1.02,1.9,1.09,2.95,2.66,3.06,4.87.03.71.29,1.34,1.08,1.52,4.8,1.05,6.63,4.73,7.54,8.94.71,3.31,1.9,6.28,4.02,8.89.58.71,1.14,1.45,1.83,2.04,4.12,3.52,6.38,8.1,7.57,13.27.21.9.58,1.55,1.4,1.99.97.53,1.56,1.4,1.59,2.52.12,4.65,2.78,7.51,6.68,9.46,2.95,1.48,5.83,3.06,8.43,5.12,2.32,1.84,4.29,3.97,5.52,6.72.29.65.5,1.56,1.35,1.54.71-.02.68-.88.89-1.43.33-.83.76-.39,1.06,0,1.07,1.4,2.37,1.53,3.89.86.58-.26,1.18-.18,1.79.02.97.33,1.8.15,2.39-.76.1,1.33-1,2.43-2.46,2.14-2.05-.4-4.12.57-6.14-.23-.21-.09-.63.09-.84.27-1.54,1.33-2.38.22-2.9-.98-2.41-5.51-7.04-8.61-12.13-11.08-4.84-2.35-8.62-5.32-8.9-11.19-.03-.67-.3-1.23-.87-1.52-1.42-.71-1.95-1.99-2.21-3.39-.92-4.95-3.69-8.81-7.15-12.27-3.14-3.14-5.23-6.76-6.05-11.23-.55-3-1.69-6.18-4.71-7.47-2.48-1.06-4.33-2.02-4.38-5.03-.01-.77-.96-1.43-1.68-1.85-1.54-.9-2.38-2.3-2.86-3.89-.29-.96-.88-1.27-1.67-1.69C4.58,12.97.92,9.1.04,3.16-.2,1.53.69.2,1.98.05Z" fill="#ffd4db"/>
    <path d="m97.4,28.73c-1.53,2.52-2.89,5.09-2.65,8.19.03.36-.02.77.12,1.08,1.46,3.28,1.46,6.74,1.31,10.23-.04,1.03-.05,2.07.32,3.07.8,2.12,2.58,2.65,4.23,1.1.69-.65.9-.32,1.19.2.55.98.36,1.98.04,3.01-1.71,5.57,1.97,10.48,7.83,10.45.55,0,1.1,0,1.65-.05,1.11-.09,1.88.11,2,1.48.11,1.36.93,1.77,2.19,1.16.16-.08.35-.27.48-.24,3.02.79,5.64-1,8.49-1.28,1.1-.11,1.91.25,2.31,1.33.43,1.14,1.27,1.37,2.37,1.08.41-.11.84-.18,1.26-.2,2.52-.15,2.69.02,2.7,2.55.01,2.3.54,2.82,2.83,2.6,2.12-.2,3.99-1.05,5.64-2.39.53-.43,1.1-.87,1.82-.51.81.41.5,1.13.35,1.78,0,0-.01-.01-.01-.01.54.1,1.04-.01,1.47-.35-.14,1-1.45,2.02-2.48,1.8-1.63-.35.16-1.26-.51-2.06-1.15.77-2.33,1.74-3.78,2.25-1.05.37-2.1.63-3.17.83-2.11.39-3.23-.59-3.26-2.74-.03-2.83-.34-3.08-3.1-2.29-1.45.42-2.62.03-3.27-1.24-.89-1.73-2.25-1.68-3.52-.94-1.76,1.03-3.4,1.9-5.44.82-.24-.13-.7.08-1.04.19-2.4.81-2.77.68-3.81-1.69-.35-.79-.85-.62-1.49-.56-3.75.36-6.83-.83-8.97-4.05-1.28-1.93-1.52-4.09-1.11-6.32.46-2.52.48-2.53-1.95-2.37-1.91.13-3.26-1.52-3.64-3.8-.2-1.19-.09-2.44-.03-3.66.12-2.69-.06-5.32-.82-7.92-1.02-3.53.24-6.71,1.75-9.81.33-.67.93-.94,1.69-.74Z" fill="#ffd4db"/>
    <path d="m74.33,87.85c-.98,1.86-1.35,4.05-3.15,5.48-.54.43-.25.91.47.86.66-.05,1.32-.26,1.98-.29,2.25-.08,3.76,1.22,3.84,3.47.05,1.55.6,2.29,2.2,2.04,2.69-.42,5.01.85,7.37,1.74,1.32.5,2.64.63,3.94.39,4.74-.88,9.21-.17,13.39,2.19,2.14,1.21,4.31,1.8,6.79,1.49,1.62-.2,3.35-.3,4.87.44,2.79,1.35,5.71.62,8.57.68,1.22.03,2.21.23,3.12,1.15,1.48,1.5,3.28,2.31,5.47,1.76-.62,1.44-1.89,1.95-3.55,1.33-1.09-.41-2.18-.97-2.92-1.84-1.17-1.39-2.66-1.55-4.15-1.19-2.43.59-4.73.25-7-.56-1.47-.53-2.96-.69-4.5-.61-2.64.14-5.14.01-7.54-1.48-3.95-2.46-8.43-2.52-12.91-2.2-2.82.2-5.44-.38-7.92-1.72-1.18-.64-2.49-.46-3.77-.46-2.14,0-2.48-.32-2.64-2.49-.12-1.68-1.16-2.66-2.84-2.67-.92,0-1.83.06-2.75.02-.9-.04-1.6-.62-.99-1.4,1.45-1.86,2.55-3.93,3.81-5.9.19-.29.49-.32.81-.22Z" fill="#ffd4db"/>
    <path d="m262.27,71.91c.47-2.24,1.23-2.67,2.61-1.18,4.01,4.34,9.31,5.83,14.77,7.07,2.61.6,5.23,1.17,7.74,2.16,3.26,1.28,5.63,3.28,6.45,6.87.56,2.43,1.79,4.53,3.79,6.11.66.52,1.09.98.14,1.67-.67.48-.9,1.27-1.18,2.02-.29.79-.59,1.64-1.66,1.7.18-.51.36-1.03.55-1.54.57-1.56.93-2.92-.62-4.37-1-.93-1.68-2.47-1.96-3.85-1.01-4.89-4.41-7.03-8.79-8.19-2.94-.77-5.9-1.46-8.85-2.23-4.05-1.05-7.82-2.65-10.83-5.72-.51-.51-1.12-1.71-2.16-.53Z" fill="#ffd4db"/>
    <path d="m171.42,36.03c-1.89,2.54-2.8,5.4-2.59,8.56.12,1.78-.48,3.26-1.63,4.52-1.74,1.91-2.51,4.1-2.44,6.67.07,2.78-.19,5.43-2.49,7.52-1.05.96-1.04,2.44-.39,3.77.62,1.28,1.59,2.14,3.07,2.28,2.06.2,2.58.74,2.76,3,.21,2.73-.58,5.32-1.28,7.91-1.05,3.88.73,6.31,4.39,5.93.83-.09,1.54-.35,2.03-1.06.5.79-.1,1.31-.55,1.72-1.88,1.74-6.56.22-7.18-2.23-.56-2.2.29-4.2.65-6.27.37-2.14,1.26-4.21.5-6.46-.32-.94-.69-1.49-1.76-1.45-1.75.06-3.13-.67-3.79-2.32-.76-1.89-.6-3.82.82-5.31,1.65-1.73,2.15-3.82,2.1-6-.07-3.15.63-5.85,2.89-8.18,1.15-1.18,1.26-2.88,1.18-4.48-.13-2.47.74-4.67,1.75-6.83.38-.82.91-1.47,1.97-1.28Z" fill="#ffd4db"/>
    <path d="m172.84,64.2c.33-.83,1.07-1.15,1.84-1.36,1.67-.46,2.54.24,2.56,1.99,0,.55.16,1.22-.09,1.62-1.52,2.49-.08,4.03,1.7,5.4,1.31,1.01,1.9,2.14,1.73,3.89-.26,2.61,1.48,4,4.05,3.52.55-.1.57-.51.68-.93.58-2.2,1.77-2.65,4.29-1.49-2.3.92-4.24,2.06-3.78,4.88.28,1.72,1.04,3.2,2.83,3.72,1.39.4,2.49-.24,3.29-1.42.72,1.22-.39,1.63-1.04,2.1-1.19.86-2.55,1.23-3.89.32-.53-.36-.94-.92-1.36-1.43-.35-.42-.69-.74-1.19-.28-1.43,1.31-2.22.24-2.81-.85-.65-1.23-.55-2.37,1.1-2.8-.01.36-.03.72-.03,1.08,0,.78.26,1.43,1.02,1.74.39.16.69-.08.88-.42.39-.69.33-1.38-.04-2.06-.47-.85-1.12-.74-1.82-.34-.06-.57-.45-.81-.95-.98-2.51-.85-3.13-1.63-2.59-4.02.29-1.31-.06-2.06-1.03-2.8-.72-.55-1.36-1.23-1.99-1.88-1.05-1.08-1.22-2.35-.59-3.69.26-.55.57-1.05.58-1.7,0-1.39-.34-2.32-2.04-1.84-.4.11-.85.04-1.27.05Z" fill="#ffd4db"/>
    <path d="m291.99,100.15c-.14,1.14-.87,2.12-.79,3.34.11,1.53.79,2.19,2.25,1.72,1.92-.62,3.74-1,5.66.03.73.39,1.36-.29,1.92-.76,2.92-2.43,4.54-2.08,6.23,1.34.94,1.92,1.94,3.81,3.74,5.1.92.66,1.93,1.03,3.06,1.09-.01,1.54-.91,1.44-1.98,1.09-2.82-.92-4.45-3.04-5.69-5.56-.21-.44-.34-.92-.58-1.34-1.41-2.52-2.59-2.74-4.66-.72-1.16,1.13-2.3,1.54-3.72.61-1.29-.86-2.48-.07-3.66.26-2.13.59-3.08.34-3.64-1.14-.69-1.82.27-4.41,1.86-5.05Z" fill="#ffd4db"/>
    <path d="m221.32,26.89c-2.6,3.84-1.81,7.44.64,11.01,1.08,1.57,1.05,3.46,1.11,5.3.11,3.26,1.39,6.02,3.8,8.23.58.53,1.18,1.08,2.06,1.05.92.33.66,1.33.42,1.59-.45.48-1.24.36-1.82-.09-2.71-2.12-5.01-4.66-5.42-8.16-.43-3.66-1.54-6.99-3.05-10.31-1.18-2.59-1.15-5.32.79-7.73.39-.48.74-.99,1.47-.89Z" fill="#ffd4db"/>
    <path d="m170.78,105.05c-.33.51-.71,1-.97,1.55-.62,1.3-.38,2.35.95,3.08.99.53,2.07.79,3.15.9,4.08.42,8.15.47,12.12-.81,1.53-.5,2.91-1.24,4-2.47.6-.68,1.3-1.25,2.16-.37,1.16,1.2,2.25,1.3,3.4-.03.29-.34.84-.45,1.27-.67-.56,2.34-3.32,3.53-5.25,2.2-.62-.42-1.11-.77-1.71-.06-2.1,2.48-5.09,2.91-8.02,3.43-3.63.64-7.26.48-10.84-.32-3.36-.75-3.61-3.44-2.11-5.63.47-.68.99-1.05,1.83-.81Z" fill="#ffd4db"/>
    <path d="m172.06,40.69c1.12-1.62,2.15-1.95,4.03-.93,1.21.66,2.26.72,3.42.09.94-.5,1.98-.75,3.01-.56,3.98.74,8.1,0,12.06,1.59,2.52,1.01,4.97-.51,6.97-2.26,1.1-.96,2.12-2,3.18-3-1.26,3.95-6.98,7.4-11.07,6.45-2.73-.63-5.4-1.36-8.24-.97-.62.09-1.19-.18-1.76-.41-1.25-.48-2.53-.53-3.71.16-1.51.88-3.11.85-4.58.19-1.13-.51-2.19-.45-3.32-.35Z" fill="#ffd4db"/>
    <path d="m149.08,106.44c-.08.74-.78,1.06-1.12,1.63-.65,1.1-.76,2.2.03,3.24.78,1.03,1.94,1.22,2.94.57,2.24-1.47,5.26-.5,7.32-2.44.16-.15.62-.13.86-.02,1.39.65,2.61.14,3.83-.45-.47,1.58-2,2.45-3.85,2-1.05-.26-1.91-.23-2.68.57-.04.04-.09.1-.15.11-2.64.5-5.16,1.59-7.87,1.66-1.05.03-1.63-.79-2.03-1.63-.41-.85-.93-1.06-1.74-.58-.54.32-1.15.36-1.75.46-.6.1-1.18.79-1.73-.11-.43-.7-.73-1.36-.37-2.23.23-.55,1.12-1.29-.18-1.73.21-.71.74-1.33.61-2.14.5-.26,1-.49,1.59-.41-.7,1.05-.2,2.28-.49,3.39-.15.57-.64,1.14.05,1.65.65.48,1.38.48,2.09.15,1.63-.76,2.79-1.94,3.13-3.78.48.39,1,.03,1.49.08Z" fill="#ffd4db"/>
    <path d="m243.95,49.55c-.73,2.7.86,4.58,4.03,4.76,2.98.16,3.18.33,4.08,3.32.45,1.5,1.36,2.33,3.07,2.27,2.61-.1,5.23-.08,7.85-.08.72,0,1.64-.09,1.49,1.04-.13.98-.98.92-1.73.85-.24-.02-.49-.08-.7-.19-1.31-.67-2.42-.6-3.37.66-.36.48-.91.81-1.59.72.22-.29.42-.59.66-.87.58-.69.48-1.1-.47-1.11-.85,0-1.69.05-2.54.22-2.14.44-3.69-.83-3.82-3.03-.14-2.39-1.11-3.17-3.49-2.78-2.95.48-5.28-1.53-4.92-4.23.11-.85.41-1.55,1.45-1.53Z" fill="#ffd4db"/>
    <path d="m226.05,63.9c-.73,1.03-.66,2.09.06,3.04.83,1.09,2.04,1.66,3.37,1.31,3.26-.86,6.5.24,9.75-.04,1.31-.12,2.16.99,3,1.86.63.66,1.24.94,2.05.35-.81,2.01-1.6,2.32-2.92.82-1.31-1.5-2.95-1.59-4.64-1.66-2.38-.1-4.69-1-7.16,0-2,.81-3.8-.24-5.17-1.78-1.27-1.42-.35-3.5,1.66-3.89Z" fill="#ffd4db"/>
    <path d="m71.7,54.01c-.47.63-1.04,1.21-1.4,1.9-.9,1.72-.49,2.53,1.4,2.82,1.37.21,2.04,1.11,2.21,2.34.29,2.06,1.01,3.57,3.38,3.84.96.11,1.5,1.53,2.75,1.09-.34,1.57-.99,1.93-2.15,1.1-.9-.65-1.77-1.22-2.89-1.49-1.1-.26-1.5-1.29-1.92-2.27-.35-.82-.04-1.89-.96-2.47-.82-.94-2.09-.56-3.06-1.07-.64-1.78-.31-3.39.84-4.88.47-.6.97-1.06,1.8-.9Z" fill="#ffd4db"/>
    <path d="m253.12,62.75c-.9.63-.83,1.35-.29,2.2.96,1.52,2.49,2.31,4,3.07.84.43,1.31.8.84,1.79-.57,1.19-.61,2.41.39,3.38,1.05,1.02,2.26.56,3.42.1-.17,1.64-1.4,1.93-2.64,1.82-1.38-.13-2.97-.77-2.67-2.39.5-2.79-.65-4.2-3.05-5.18-.75-.3-1.25-1.12-1.64-1.91-.9-1.79-.41-2.66,1.65-2.89Z" fill="#ffd4db"/>
    <path d="m181.93,58.4c-.7-.76.01-1.07.49-1.38,2.45-1.59,4.82-3.23,6.55-5.67.59-.83,1.6-1.08,2.61-1.05.86.02,1.68-.08,2.46-.46.1.47-.16.84-.35,1.23-1.61-.29-3.04.01-4.06,1.39-.46.62-.53,1.4.11,1.97.65.58,1.28.29,1.68-.36.46-.74.88-.82,1.58-.27.51.4,1.17.18,1.76.05,0,1.09-.88,1.86-1.59,1.45-1.6-.92-4.39,2.98-5.02-1.27,0-.04-.08-.08-.21-.2-1.85,1.71-3.85,3.24-6,4.57Z" fill="#ffd4db"/>
    <path d="m200.34,55.05c-.45,2.33.37,3.16,2.73,2.77,2.11-.35,4.23-.46,6.33.04.81.2,1.64.54.91,1.61-.38.57-.59,1.06-.1,1.63.56.65,1.19.43,1.83.16-.05,1.54-1.15,1.66-2.18,1.34-.94-.29-1.79-1.03-1.16-2.23.52-.99.11-1.24-.8-1.43-1.46-.31-2.9-.33-4.35-.02-.97.21-1.95.28-2.91.12-1.15-.2-1.77-.99-1.79-2.19-.02-1.02.17-1.86,1.47-1.79Z" fill="#ffd4db"/>
    <path d="m163.29,114.44c.06.97.71,1.28,1.55,1.5,2.34.59,4.4,1.64,5.9,3.63,1.42,1.88,3.2,1.56,5.03.74-.88,1.89-4.06,2.74-5.3,1.17-1.92-2.43-4.48-3.59-7.24-4.55-.74-.26-1.32-.75-1.27-1.58.04-.79.7-.89,1.35-.9Z" fill="#ffd4db"/>
    <path d="m196.76,113.47c-1.03,1.57-2.18,3.08-2.78,4.89-.27.83-.58,1.74.08,2.42.71.73,1.3-.22,1.94-.41.46-.14.94-.43,1.39-.4,2.11.13,3.74-.75,5.1-2.26-.05,1.43-1.16,2.13-2.16,2.72-1.77,1.06-3.94,1.01-5.82,1.97-1.14.58-2.43-.73-2.17-2.35.36-2.2,1.15-4.32,2.75-5.99.42-.44.98-.74,1.65-.59Z" fill="#ffd4db"/>
    <path d="m204.26,115.77c1.95-2.8,4.79-4.21,7.99-4.95,1.62-.38,3.11-.69,4.22-2.16.91-1.21,2.47-1.45,3.93-1.65.08.66-.22,1.11-.86,1.16-1.3.12-2.22.88-3.11,1.7-1.37,1.28-2.92,2.06-4.84,2.26-2.25.24-4.05,1.56-5.8,2.9-.46.35-.79.99-1.54.74Z" fill="#ffd4db"/>
    <path d="m259.34,84.74c-.34,1.65-1.12,3.21-1.06,4.96.03.93.03,1.94,1.1,2.27,1.04.32,1.48-.53,1.94-1.27.73-1.18,1.54-2.31,2.88-2.88-.9,2.13-2.34,3.87-4.21,5.13-.87.59-2.19.53-2.54-.8-.6-2.27-.58-4.57.7-6.68.26-.42.65-.72,1.19-.73Z" fill="#ffd4db"/>
    <path d="m211.75,66.09c-.86,1.2-.56,2.24.39,3.24,1.89,2,4.12,2.61,6.74,1.72-.24,1.57-1.52,1.51-2.61,1.58-2.87.17-5.98-1.87-6.32-4.11-.21-1.37.06-2.47,1.81-2.43Z" fill="#ffd4db"/>
    <path d="m15.55,31.92c-.99,1.58-.47,3.43,1.45,5.36.96.97,1.88.93,2.86.07-.04,1.17-.75,1.73-1.81,1.9-1.04.16-1.85-.12-2.42-1.14-.58-1.05-1.44-1.97-1.79-3.15-.52-1.79.14-2.91,1.72-3.04Z" fill="#ffd4db"/>
    <path d="m86.38,61.72c-.44.8-.82,1.61-.8,2.56.06,2.48,1.55,3.53,3.96,2.78-.12,1.43-1.22,1.57-2.25,1.53-1.41-.06-2.78-.7-3.12-2.09-.33-1.38.13-2.87.62-4.23.26-.72.97-.59,1.58-.54Z" fill="#ffd4db"/>
    <path d="m209.95,100.98c-.19.85-.72,1.76.3,2.44.96.64,1.94.56,2.86-.08,1.25-.86,2.51-1.65,4.1-1.69-.9,1.72-5.65,3.76-7.43,3.24-1.18-.34-1.39-1.16-1.4-2.22-.01-1.11.37-1.75,1.56-1.7Z" fill="#ffd4db"/>
    <path d="m26.2,49.87c-1.74-.13-2.03.9-1.83,2.3.29,1.97,2,3.49,3.94,3.52-.16,1.48-1.19,1.58-2.22,1.18-2.21-.85-3.58-4.16-2.71-6.29.45-1.11,1.84-1.46,2.82-.72Z" fill="#ffd4db"/>
    <path d="m241.4,43.32c.46,2.45,1.44,3.15,3.82,2.61.91-.21,1.6.44,2.44.39-.32,1.05-.72,1.92-2,.93-.33-.26-.66-.13-1.02,0-2.07.69-3.96-.1-4.51-2.03-.24-.85-.05-1.86,1.27-1.89Z" fill="#ffd4db"/>
    <path d="m220.21,51.11c-.53.98-1.48,1.95-.37,3.06,1.05,1.05,2.31,1.15,3.64.48.32-.16.67-.27,1-.4-.34,1.64-2.54,2.46-4.87,1.82-1.25-.34-2.07-1.88-1.58-3.14.38-.97.91-1.87,2.18-1.83Z" fill="#ffd4db"/>
    <path d="m137.54,20.54c-.42.69-.74,1.4-.6,2.24,0,.06.03.13,0,.18-1.19,2.62-2.34,5.27-3.6,7.85-.25.51-.92.77-1.58.76,1.82-2.23,2.02-5.3,3.87-7.53.25-.31.16-.93.16-1.41,0-1.2.45-1.99,1.75-2.08Z" fill="#ffd4db"/>
    <path d="m228.92,18.74c-.54,1.14-1.22,2.21-1.15,3.57.07,1.41.55,2.23,2.12,1.83.28,1.6-.68,1.68-1.81,1.41-.55-.13-.99-.66-1.64-.53,0-.86-.3-1.64-.57-2.43.63-.46.71-1.22,1.03-1.85.44-.86.69-2,2.02-2Z" fill="#ffd4db"/>
    <path d="m133.49,107.57c-.39-.42-1.14-.76-.67-1.46.47-.7,1.2-.4,1.78-.06.46.27.94.6,1.25,1.02,1.23,1.62,2.67,1.86,4.37.81-.74,2.02-3.34,2.49-4.88.91-.51-.53-.76-1.56-1.86-1.22Z" fill="#ffd4db"/>
    <path d="m4.6,20.99c-.43,1.01-.02,1.76.79,2.33,1.31.93,2.52,2.09,4.3,2.03.04,1.24-.86,1.23-1.62,1.04-1.86-.45-3.49-1.37-4.55-3.02-.8-1.25-.59-2.19,1.08-2.39Z" fill="#ffd4db"/>
    <path d="m37.2,66.08c-.02,1.55-1.05,1.62-2.13,1.35-1.37-.34-2.88-2.99-2.59-4.4.2-.99.81-1.44,1.82-1.31-.99,1.49-.04,2.65.73,3.78.51.76,1.25,1.16,2.18.59Z" fill="#ffd4db"/>
    <path d="m282.83,58.36c-1.57,2.27-2.63,4.87-4.51,6.94-.4.44-.69,1-1.39,1.04,1.05-2.72,2.56-5.17,4.44-7.39.37-.44.88-.64,1.47-.59Z" fill="#ffd4db"/>
    <path d="m154.88,103.82c-.2.8.28,1.06.93,1.26.59.19,1.09.52,1.36,1.12.3.66.41,1.31-.24,1.8-.58.44-1.15.19-1.65-.23-.78-.66-1.56-1.32-2.33-1.98.68-.62.36-2.22,1.93-1.97Z" fill="#ffd4db"/>
    <path d="m154.17,40.76c.94-2.64,2.97-4.13,5.68-4.04,1.05.04,2.02-.13,2.99-.5-.01,1.38-1.19,1.92-2.08,1.83-2.75-.27-4.81.78-6.59,2.7Z" fill="#ffd4db"/>
    <path d="m140.95,10.7c-.8,1.51-.83,3.01-.44,4.7.59,2.56-.51,4.39-2.52,4.77,1.14-.87,1.37-2.06,1.23-3.4-.14-1.45-.27-2.91.12-4.35.23-.86.54-1.64,1.61-1.72Z" fill="#ffd4db"/>
    <path d="m278.13,48.5c-.08,1.34.41,2.36,1.65,2.98,1.01.5,1.87.31,2.6-.54.16,1.54-.87,2.15-2.08,2.17-1.58.03-2.8-.85-3.22-2.44-.23-.89-.5-2.03,1.04-2.17Z" fill="#ffd4db"/>
    <path d="m189.75,121.09c-1.06.66-2.66,1.32-1.87,2.77.63,1.17,2.07.23,3.14-.05.23-.06.45-.17.67-.26.11.69-.3,1.41-1.08,1.69-.45.16-.97.25-1.43.17-.95-.17-2.33.75-2.74-.89-.32-1.26,1-3.07,2.41-3.44.28-.07.6,0,.91,0Z" fill="#ffd4db"/>
    <path d="m237.07,54.78c-.44.91-.76,1.85.17,2.64.83.7,1.78.61,2.72.18.33-.15.66-.29,1-.43-.63,1.59-1.96,2.24-3.78,1.86-1.47-.31-1.73-1.37-1.65-2.63.06-.96.44-1.65,1.55-1.63Z" fill="#ffd4db"/>
    <path d="m225.54,39.58c.52-1.51,1.58-1.82,3.25-1.09.89.39,1.46,1.54,2.68,1.16-.19,1.96-.49,2.18-1.98,1.06-1.22-.92-2.4-1.56-3.95-1.12Z" fill="#ffd4db"/>
    <path d="m146.19,57.24c-.45-.9-.07-1.64.71-1.97,2.44-1.02,4.41-2.72,6.47-4.3-.45,2.18-2.32,3.02-3.95,4-1.14.68-2.25,1.36-3.22,2.28Z" fill="#ffd4db"/>
    <path d="m200.41,103.9c-.15,2.89.33,3.19,3.93,2.46-.64,1.26-2.48,1.99-4.01,1.42-1.31-.49-1.08-1.75-1.08-2.81,0-.69.36-1.16,1.16-1.08Z" fill="#ffd4db"/>
    <path d="m227.84,27.92c-.45,1.84-.95,3.67-2.19,5.16-.28.34-.64.93-1.17.49-.43-.36.04-.79.25-1.11.94-1.39,1.62-2.86,1.71-4.56.46.82.94-.11,1.4.02Z" fill="#ffd4db"/>
    <path d="m122.35,99.07c-.23-1.33.61-1.54,1.62-1.52,1.41.04,2.75-.23,4.03-.81-.36,1.75-1.9,1.86-3.2,2.27-.8.25-1.65-.29-2.46.06Z" fill="#ffd4db"/>
    <path d="m289.08,53.25c-.59,1.24-1.48,2.34-1.59,3.81-.05.71-.64.97-1.31,1-.05-1.5.61-2.76,1.27-4.05.39-.76.92-.85,1.62-.76Z" fill="#ffd4db"/>
    <path d="m118.48,30.8c-.98,1.21-1.94,2.44-2.96,3.61-.43.49-.97.92-1.73.8.97-1.21,1.91-2.45,2.91-3.63.44-.51,1.08-.76,1.78-.78Z" fill="#ffd4db"/>
    <path d="m204.35,30.84c-1.41,1.65-2.35,3.81-4.75,4.4,1.66-1.38,2.31-3.86,4.75-4.4Z" fill="#ffd4db"/>
    <path d="m224.89,22.44c-.51.71-.64,1.55-.88,2.36-.3,1.01-.86,1.73-2.05,1.65.45-.84.99-1.63,1.14-2.62.15-.98.78-1.45,1.79-1.39Z" fill="#ffd4db"/>
    <path d="m205.11,107.86c-.68,2.15-1.82,3.76-4.37,3.71,2.05-.54,2.57-2.88,4.37-3.71Z" fill="#ffd4db"/>
    <path d="m152.94,16.51c-.99-.85-.45-1.23.47-1.36.72-.1,1.45-.06,2.18-.08-.11,1.91-1.55,1.36-2.65,1.44Z" fill="#ffd4db"/>
    <path d="m176.98,32.88c-.57.77-1.12,1.56-1.73,2.3-.43.51-.77,1.32-1.7.84.56-.76,1.11-1.52,1.68-2.28.44-.58.9-1.13,1.76-.85Z" fill="#ffd4db"/>
    <path d="m229.27,36.01c-.86-.46-.89-1.03-.02-1.41,1.03-.45,1.73-1.29,2.58-1.95.09,1.02-.34,1.72-1.27,2.15-.55.26-1.01.65-1.29,1.21Z" fill="#ffd4db"/>
    <path d="m229.92,24.1c.13-1.13,1-1.45,1.89-1.76-.16,1.1-.71,1.77-1.89,1.76Z" fill="#ffd4db"/>
    <path d="m203.18,116.91c.18-.54.54-.91,1.07-1.11-.07.64-.25,1.18-1.07,1.11Z" fill="#ffd4db"/>
    <path d="m210.64,100.19c-.1.37-.22.72-.67.78-.07-.51.12-.8.67-.78Z" fill="#ffd4db"/>
    <path d="m202.65,117.43c.02-.33.25-.45.53-.51,0,.34-.23.47-.53.51Z" fill="#ffd4db"/>
  </g>
  <path d="m37.2,66.06c0-.25.01-.5.02-.74.3.26.31.51-.02.74Z" fill="#95204d"/>
  <path d="m177.28,52.92c-.28.33-.56.3-.84,0,.28,0,.56,0,.84,0Z" fill="#95204d"/>
  <path d="m177.19,32.78s-.12.06-.12.06c-.08-.24-.04-.26.12-.06Z" fill="#95204d"/>
  <path d="m162.94,35.98c.11-.14.22-.28.33-.41-.11.14-.22.28-.33.41Z" fill="#95204d"/>
  <path d="m204.35,106.36c.13-.11.27-.22.4-.33-.13.11-.27.22-.4.33Z" fill="#95204d"/>
  <path d="m141.31,10.32c-.12.12-.24.25-.36.37.12-.12.24-.25.36-.37Z" fill="#95204d"/>
  <path d="m205.51,107.51c-.13.12-.26.23-.39.35.13-.12.26-.23.39-.35Z" fill="#95204d"/>
  <path d="m204.75,106.02c.11-.14.21-.28.32-.42-.11.14-.21.28-.32.42Z" fill="#95204d"/>
  <path d="m175.76,120.31c.11-.14.22-.28.33-.42-.11.14-.22.28-.33.42Z" fill="#95204d"/>
  <path d="m59.23,46.63c-.03-.23.08-.36.3-.4-.1.13-.2.27-.3.4Z" fill="#95204d"/>
  <path d="m247.71,46.28c.1-.11.2-.22.3-.33-.1.11-.2.22-.3.33Z" fill="#95204d"/>
  <path d="m200.7,103.81c-.08.08-.18.1-.29.08.03-.24.14-.25.29-.08Z" fill="#95204d"/>
  <path d="m229.36,18.43c-.15.1-.29.2-.44.3.15-.1.29-.2.44-.3Z" fill="#95204d"/>
  <path d="m133.18,109.26c.1-.15.2-.3.3-.44-.1.15-.2.3-.3.44Z" fill="#95204d"/>
  <path d="m241.92,42.74c-.14.11-.28.23-.42.34.03-.25.17-.36.42-.34Z" fill="#95204d"/>
  <path d="m7.85,2.72c-.12-.03-.24-.07-.36-.1.12.03.24.07.36.1Z" fill="#95204d"/>
  <path d="m314.23,110.78c0-.12,0-.25-.01-.37.03.08.06.17.07.25,0,.04-.04.08-.06.12Z" fill="#95204d"/>
  <path d="m153.8,41.86c.06-.17.13-.34.19-.51-.06.17-.13.34-.19.51Z" fill="#95204d"/>
  <path d="m171.76,41.12c.09-.14.19-.28.28-.42-.09.14-.19.28-.28.42Z" fill="#95204d"/>
  <path d="m314.13,111.92c.03-.13.07-.26.11-.4-.03.13-.07.26-.11.4Z" fill="#95204d"/>
  <path d="m218.93,71.05c.12-.12.23-.24.35-.37,0,.23-.1.37-.35.37Z" fill="#95204d"/>
  <path d="m197.18,113.12c-.14.11-.27.21-.41.32.03-.24.17-.34.41-.32Z" fill="#95204d"/>
  <path d="m237.52,54.5c-.15.09-.3.18-.45.27.07-.22.22-.31.45-.27Z" fill="#95204d"/>
  <path d="m194.85,53.58c0-.12.01-.25.02-.37.03.09.07.18.09.27,0,.03-.07.07-.11.1Z" fill="#95204d"/>
  <path d="m143.87,73.37s.01.01.01.01c0,0-.01-.01-.01-.01Z" fill="#95204d"/>
  <path d="m182.73,81.07c.71-.4,1.36-.51,1.82.34.37.68.43,1.37.04,2.06-.19.34-.5.58-.88.42-.75-.31-1.02-.96-1.02-1.74,0-.36.02-.72.03-1.08,0,0,0,0,0,0Z" fill="#95204d"/>
</svg>