<?xml version="1.0" encoding="utf-8"?>
<!-- Generator: Adobe Illustrator 27.6.1, SVG Export Plug-In . SVG Version: 6.00 Build 0)  -->
<svg version="1.1" id="Layer_1" xmlns="http://www.w3.org/2000/svg" xmlns:xlink="http://www.w3.org/1999/xlink" x="0px" y="0px"
	 viewBox="0 0 740.7 164.3" style="enable-background:new 0 0 740.7 164.3;" xml:space="preserve">
<style type="text/css">
	.st0{opacity:0.1;}
</style>
<g class="st0">
	<path d="M152.8,80.6c0,52.3-31.3,83.7-78,83.7S0,128.7,0,83.2S30.6,0,77.3,0S152.8,36.5,152.8,80.6z M38,82.5
		c0,31.3,14.6,53.3,38.7,53.3s38.2-23.1,38.2-54c0-28.8-13.4-53.3-38.2-53.3S38,51.6,38,82.5z"/>
	<path d="M176.6,2.8h35.8v128.7h63.2v30.2h-99V2.8z"/>
	<path d="M431.2,100.9c-0.7-19.1-1.4-42.2-1.4-65.3h-0.5c-5.2,20.3-11.8,42.9-17.9,61.5l-19.3,62h-28l-17-61.3
		c-5.2-18.9-10.4-41.5-14.4-62.2h-0.5c-0.7,21.5-1.6,46-2.6,65.8l-3.1,60.4h-33.2L303.4,2.8h47.9l15.6,53
		c5.2,18.4,9.9,38.2,13.4,56.8h0.9c4.2-18.4,9.7-39.4,15.1-57L413,2.8h47.1l8.5,158.9h-34.9L431.2,100.9L431.2,100.9z"/>
	<path d="M532.5,120.9l-11.3,40.8h-37L532.5,2.8h47.2l49.5,158.9h-38.9L578,120.9H532.5z M572.9,94.1L563,60.4
		c-2.8-9.4-5.7-21.2-8-30.7h-0.5c-2.4,9.4-4.7,21.5-7.3,30.7l-9.4,33.7H572.9z"/>
	<path d="M661.5,33h-42.9V2.8h122.1V33h-43.4v128.7h-35.8V33z"/>
</g>
</svg>
