<?xml version="1.0" encoding="UTF-8"?>
<svg id="Layer_1" data-name="Layer 1" xmlns="http://www.w3.org/2000/svg" viewBox="0 0 740.72 164.32">
  <path d="m152.77,80.62c0,52.34-31.35,83.69-78.03,83.69S0,128.72,0,83.22,30.65,0,77.33,0s75.44,36.54,75.44,80.62Zm-114.81,1.89c0,31.35,14.62,53.28,38.66,53.28s38.19-23.1,38.19-53.99c0-28.76-13.44-53.28-38.19-53.28s-38.66,23.1-38.66,53.99Z" fill="#231f20"/>
  <path d="m176.57,2.83h35.83v128.72h63.18v30.18h-99.01V2.83Z" fill="#231f20"/>
  <path d="m431.18,100.9c-.71-19.09-1.41-42.2-1.41-65.3h-.47c-5.19,20.27-11.79,42.91-17.92,61.53l-19.33,62h-28.05l-16.97-61.29c-5.19-18.86-10.37-41.49-14.38-62.24h-.47c-.71,21.45-1.65,45.97-2.59,65.77l-3.06,60.35h-33.24L303.4,2.83h47.86l15.56,53.04c5.19,18.39,9.9,38.19,13.44,56.82h.94c4.24-18.39,9.67-39.37,15.09-57.05l16.74-52.81h47.15l8.49,158.89h-34.89l-2.59-60.82Z" fill="#231f20"/>
  <path d="m532.55,120.94l-11.32,40.78h-37.01L532.55,2.83h47.15l49.51,158.89h-38.9l-12.26-40.78h-45.5Zm40.31-26.88l-9.9-33.71c-2.83-9.43-5.66-21.22-8.02-30.65h-.47c-2.36,9.43-4.71,21.45-7.31,30.65l-9.43,33.71h35.13Z" fill="#231f20"/>
  <path d="m661.5,33h-42.91V2.83h122.12v30.18h-43.38v128.72h-35.83V33Z" fill="#231f20"/>
</svg>