<?xml version="1.0" encoding="UTF-8"?>
<svg id="Layer_1" data-name="Layer 1" xmlns="http://www.w3.org/2000/svg" viewBox="0 0 487.44 465.21">
  <g id="Floor">
    <path id="Floor-2" data-name="Floor" d="m71.38,219.95c-95.18,54.95-95.18,144.04,0,199,95.18,54.95,249.5,54.95,344.67,0,95.18-54.95,95.18-144.04,0-199-95.18-54.95-249.5-54.95-344.67,0Z" fill="#f5f5f5"/>
  </g>
  <path id="Background" d="m366.68,30.37C314.04.18,205.49-14.41,100.16,64.88,34.29,114.48,17.3,205.64,48.99,267.72c24.67,48.32,84.08,86.24,166.96,91.82,37.78,2.55,144.9-3.5,201.56-78.74,49.22-65.37,40.57-198.01-50.83-250.43Z" fill="#f5f5f5"/>
  <path id="Character" d="m351.09,317.25c-.13-14.05-1.84-27-2.2-29.88,0,0-.15-41.3-2.71-81.32.33-.18.51-.29.51-.29,0,0-.29-12.55-.36-24.14,0-1.53.04-3.25.12-5.04,2.06,1.81,3.81,3.4,4.73,4.37,2.45,2.57,5.41,4.41,9.12,5.73,7.08,5.71,14.45,3.06,16.93.61,2.48-2.45,2.16-6.96,1.39-9.41-.77-2.45.52-5.67-2.06-9.54-.54-.81-1.51-1.7-2.74-2.6-.56-1.41-1.17-2.88-1.87-4.45-2.03-4.53-8.95-17.99-11.72-23.74-5.39-11.2-7.17-14.5-20.21-17.9-1.25-.33-2.5-.96-3.72-1.4-1.31-.48-2.63-1.08-3.82-1.82-.31-.19-.64-.43-.9-.69-.53-.51-1.07-1.02-1.61-1.52-1.23-1.14-2.48-2.27-3.83-3.26-.47-.35-1.31-.65-1.66-1.1-.64-.82-.26-2.26-.25-3.21,0-.59.01-1.17.02-1.76.64-.41,1.36-1.05,1.83-2.01.47-.96,1.09-2.09,1.79-3.78.84.03,1.83-.17,2.99-.77,4.07-2.12,5.6-6.85,3.51-11.04-.66-1.32-1.58-2.08-2.56-2.47,1.3-6.92.94-10,0-11.69-1.47-2.65-3.35-3.7-4.55-4.11-1.08-5.36-8.12-9.15-12.47-10.55-5.91-1.9-11.97-.52-17.55,1.77-1.98.81-4.09,1.52-6.22,1.27-.93-.11-1.99-.56-2.15-1.49-.72.39-1.11,1.21-1.32,2-.49,1.86-.28,3.9.58,5.62-.83.11-1.48.79-1.93,1.49-1.4,2.19-1.54,5.1-.47,7.48.76,1.68,1.88,2.8,3.2,3.6-.78,7.57-.64,16.23.58,21.24,1.29,5.28,4.67,7.93,8.63,8.44,2.37.32,3.87.27,3.87.27.01.5.19,1.26-.05,1.72-.23.46-.87.57-1.26.84-.74.51-1.4,1.14-1.98,1.82l-12.6,4.13c-7.66,1.73-11.61,3.56-15.65,9.26-3.17,4.47-14.3,22.6-19.09,31.43-.02-.1-.02-.17-.02-.17,0,0,.65-1.25.65-1.25,0-.01-.36-.12-.38-.13-.3-.06-.62-.05-.91.05-.77.28-1.36,1.06-1.69,1.78-.31.68-.46,1.39-.57,2.13-.1.64-.26,1.34-.5,1.94-.14.36-.39.69-.57,1.03-.53,1.04-.82,2.09-.87,3.26-.04.67,0,1.35.23,1.97.21.56.58,1.06.98,1.5.43.48.92.89,1.43,1.27,1.12,2.41,3.29,5.38,6.97,9.75,5.65,6.71,11.77,14.81,13.77,17.21.93,1.12,0,3.43-.5,4.8-.18.5-.27,1.02-.3,1.56-.04.05-.09.1-.14.13-.36-.66-1.2-1.03-1.93-.83-.33.09-.66.36-.99.69-.23-.27-.63-.34-.92-.12-.73.56-1.86,1.85-3.2,3.15-2.35,2.28-1.73,2.76-.6,6.64.45,1.55,1.66,1.99,6.34,2.9,4.22.83,5.79.39,10.26-3.27-.19,24.18.17,52.31,1.18,69.61.62,10.61,3.65,67.63,3.65,67.63.48.48.97.91,1.46,1.31-.63,1.06-1.3,2.14-2.03,3.24-.21,0-.42,0-.65.03-.08,0-.14.06-.19.13,8.37-1.33,17.1-3.08,26-5.33.96-8.76,3.81-34.87,4.29-42.18.76-11.45-1.1-23.48-1.1-23.48l2.29-18.63s2.99,18.29,5.73,35.83c1.87,11.95,4.97,29.51,7.42,43.04,8.25-2.73,16.53-5.94,24.7-9.69.26-7.23.44-14.44.39-19.63Zm-73.12-130.7c-2.46-4.58-5.45-10.37-7.14-13.66.26-.21.48-.46.52-.78.05-.43-.25-.83-.23-1.26.01-.3.18-.57.29-.85.09-.26-.07-.88-.28-1.14l7.24-10.04c-.15,7.76-.29,18.53-.39,27.72Z" fill="#95204d" opacity=".44"/>
  <path id="Character-2" data-name="Character" d="m424.38,276.9c-.12-6.74-.44-17.74-1.47-35.3-.2-3.36-.4-6.4-.61-9.18,1.78-.86,3.26-2.13,3.35-4.24.14-3.15-.75-6.9-1.19-10.06-.45-3.25-1.22-6.53-1.9-9.81.18.06.35.12.52.17,6.09,1.91,10.22.78,11.99-.67,1.76-1.45,2.54-4.72,2.15-11.78-.39-7.05-3.42-25.98-5.18-34.13-1.76-8.14-1.97-10.19-5.01-14.95-3.03-4.76-7.05-5.25-9.84-5.69-1.68-.26-2.85-.42-3.53-.5l-12.74-1.8v.26s.28-8.29.28-8.29c1.66-1.12,3.72-1.5,5.64-2.12,2.03-.66,4.14-1.86,4.76-3.9.26,1.2-.1,2.51-.93,3.41,2.93-.76,5.3-3.14,6.41-5.96,1.11-2.82,1.05-6.01.22-8.93-.45-1.58-1.11-3.1-1.55-4.69-.67-2.4-.17-4.84.2-7.24.33-2.15,0-3.64-.91-5.61-1.6-3.5-5.21-6.09-9.08-6.23-.12,0-1.21-2.37-1.37-2.63-2.26-3.5-5.11-6.02-9.24-7.15-3.33-.92-6.91-.8-10.24.11-1.52.41-3.04.92-4.51,1.48-1.5.56-3.07.53-4.66.65-5.2.38-10.45,2.92-13.05,7.44-1.5,2.61-2.01,5.64-2.12,8.61-.05,1.38.17,4.54,2.11,7.9.22-1.71,1.03-3.34,2.25-4.56-.23,1.52-.33,3.1.09,4.59.29,1.03.82,1.83,1.49,2.5.1,1.21.17,2.81.51,3.81.19.54.49,1.22,1.03,1.85-.94,7.71,1.76,14.43,3.84,16.47,1.76,1.72,5.09,2.94,9.1,2.83l-.15,4.29-9.39,1.66c-7.47,5.9-16.27,16.43-16.61,24.4-.34,7.97,1.39,13.34,1.39,13.34,0,0,.85,16.51-.82,25.09-1.26,6.46-2.48,12.92-3.71,19.38-.51,2.7.26,4.23,2.43,6.04.34.28.7.53,1.07.77-2.57,21.46-3.95,44.19-3.86,55.64.07,9.4,1.74,32.12,3.24,50.81,9.76-4.73,19.31-10.26,28.43-16.72.09-.71.17-1.39.25-2.05,1.87-15.2-.2-24.74-.2-24.74l4.04-27.85s5.36,29.56,8.18,45.12c9.15-7.76,17.68-16.61,25.29-26.72,1.24-1.65,2.44-3.36,3.61-5.09Z" fill="#95204d" opacity=".44"/>
  <g id="Character-3" data-name="Character" fill="none" opacity=".83">
    <path d="m300.96,351.82c-.12-3.82-.03-12.7-.62-44.41-.26-13.88-1.13-23.03-2.26-29.98.15-.09.32-.17.47-.25-.61-3.09-1.23-6.18-1.83-9.28-.29-1.52-.73-3.08-.88-4.62-.12-1.2.21-2.44,1.22-3.18.84-.62,1.9-.84,2.94-.98,2.74-.37,5.51-.26,8.26-.47,1.37-.11,2.74-.29,4.07-.66,1.16-.32,2.05-.5,2.75-1.58.58-.88.97-2.16,1.2-3.66.02-.09.02-.19.04-.28.04-.28.08-.56.1-.85,1.55-12.33-5.32-29.88-8.35-37.82-2.64-6.91-4.88-9.79-9.87-11.33v-39.39c0-7.77-5.87-14.15-13.42-14.98-2.05-1.05-4.55-1.21-6.61-.24-3.23-2.7-8.74-3.93-16.99-3.48-6.74.37-17.62,4.14-21.22,14.21-1.58,4.43-1.92,12.84,4.34,16.52-.21,9.56,2.28,13.55,5.09,15.95,1.85,1.58,4.58,2.6,8.82,2.62l-.13,4.14c-1.2.24-2.55.5-3.97.71-2.62.39-5.04,1.82-7.23,3.26-2.16,1.42-3.8,3.7-5.28,5.79-.98,1.39-1.79,2.99-2.62,4.47-1.79,3.21-2.64,6.67-3.18,10.3-.24,1.63-.43,3.27-.6,4.91-1.74,17.16-1.69,39.91-2.34,49.06.1.06.22.12.32.18-1.83,26.73-2.98,58.54-2.98,73.24,0,3.09.14,7,.36,11.39,8.53.1,18.85-.22,30.32-1.28-.16-1.26-.29-1.92-.29-1.92l4.34-30.25s3.26,16.63,6.18,31.06c9.49-1.19,19.59-2.9,29.97-5.28-.08-.62-.13-1.17-.15-1.67Z" fill="#95204d"/>
    <g>
      <path d="m265.47,327.6l-.6-3.05-4.79,33.33v.09s0,.09,0,.09c0,.03.13.67.28,1.87.35-.03.7-.06,1.05-.09-.13-1.01-.24-1.66-.28-1.89l3.89-27.09c1.08,5.46,3.42,17.32,5.58,27.97.35-.04.7-.09,1.05-.13-2.9-14.32-6.14-30.85-6.19-31.09Z" fill="#95204d"/>
      <path d="m301.4,345.26c-.05-6-.15-17.16-.53-37.86-.23-12.19-.93-21.64-2.2-29.68.05-.03.1-.06.15-.09l.33-.19-.6-3.05c-.5-2.51-1-5.03-1.48-7.55-.24-1.22-.5-2.45-.7-3.68-.13-.8-.07-1.81.6-2.38.5-.43,1.18-.59,1.84-.71,1.91-.34,3.86-.47,5.8-.6l3.5-.23c1.08-.07,2.27-.01,3.33-.26,1.61-.39,3.15-.81,4.11-2.28.59-.91,1.02-2.21,1.28-3.86,0-.06.02-.12.02-.18l.02-.12c.04-.28.08-.57.11-.85,1.53-12.14-5-29.24-8.14-37.45,0,0-.24-.62-.24-.63-2.75-7.2-5.08-9.97-9.83-11.52v-39c0-7.94-5.92-14.58-13.79-15.49-2.15-1.07-4.61-1.19-6.68-.34-3.46-2.72-9.06-3.83-17.11-3.39-6.25.34-17.84,3.79-21.69,14.56-1.69,4.74-1.91,13.1,4.31,16.99-.16,10.09,2.73,13.89,5.28,16.06,2.04,1.74,4.87,2.64,8.62,2.74l-.1,3.19c-.93.19-2.19.43-3.54.63-2.69.4-5.16,1.84-7.44,3.34-2.29,1.51-4.03,3.96-5.42,5.93-.8,1.12-1.48,2.37-2.14,3.58l-.51.94c-1.59,2.85-2.59,6.08-3.24,10.47-.22,1.46-.41,3.03-.6,4.93-1.12,11.02-1.5,24.24-1.8,34.87-.17,5.86-.31,10.93-.55,14.2l-.02.32.27.17s.03.02.05.03c-1.83,26.81-2.96,58.69-2.96,72.94,0,3.08.14,6.99.36,11.38.35,0,.7,0,1.06.01-.23-4.4-.36-8.32-.36-11.4,0-14.29,1.14-46.35,2.98-73.2l.02-.33-.32-.19c.22-3.3.36-8.23.53-13.91.3-10.61.68-23.81,1.79-34.79.19-1.89.38-3.44.6-4.88.64-4.26,1.6-7.38,3.12-10.12l.52-.95c.64-1.18,1.31-2.41,2.07-3.48,1.34-1.9,3.01-4.26,5.14-5.66,2.18-1.43,4.53-2.81,7.01-3.18,1.58-.23,3.04-.52,4-.72l.41-.08.16-5.1h-.54c-3.76-.02-6.54-.84-8.48-2.5-2.4-2.05-5.12-5.66-4.91-15.54v-.31s-.26-.16-.26-.16c-5.89-3.47-5.65-11.58-4.11-15.89,3.66-10.25,14.77-13.53,20.75-13.86,7.85-.43,13.45.7,16.63,3.35l.26.22.3-.14c1.86-.87,4.16-.78,6.15.23l.18.06c7.38.81,12.95,7.02,12.95,14.46v39.77l.37.11c4.62,1.42,6.85,3.99,9.53,11.01l.24.62c3.11,8.13,9.57,25.06,8.08,36.96-.03.28-.06.55-.1.81,0,.06-.02.12-.02.18v.11c-.25,1.48-.64,2.68-1.14,3.45-1.56,2.4-5.62,2-8.05,2.1-1.72.07-3.43.08-5.15.21-1.67.13-3.38.24-4.8,1.17-.28.19-.56.4-.74.68-.1.16-.17.34-.22.52-.55,1.75-.19,3.45.15,5.2.55,2.87,1.11,5.73,1.68,8.59l.46,2.3-.46.25.06.37c1.3,8.07,2.02,17.58,2.25,29.91.39,20.69.48,31.85.53,37.85.03,3.26.04,5.24.09,6.57.02.53.07,1.11.16,1.77.35-.08.69-.15,1.04-.23-.08-.58-.13-1.1-.14-1.57-.04-1.32-.06-3.29-.09-6.54Z" fill="#95204d"/>
    </g>
  </g>
  <g id="Character-4" data-name="Character" fill="none" opacity=".83">
    <path d="m424.93,253.52c-1.14-2.91-2.43-6.07-3.8-9.32.14-.21.21-.34.21-.34,0,0-5.98-13.95-9.44-21.98-5.15-11.95-9.36-14.99-21.06-17.93-3.41-.76-8.15-1.83-14.73-2.95l.07-9.87c.74-1.07,1.86-2.47,3.12-4.67,1.05-.06,2.21-.47,3.24-1.44,3.34-3.17,3.34-7.63,1.51-10.15.01.01.02.02.03.03.18-.5.73-1.11,1.4-3.98,1.51-6.46,1.95-19.9-13.3-25.34-12.17-4.33-21.32-3.34-25.63,1.89-.66-.11-1.26-.21-1.78-.28-7.5-1.12-9.54.22-9.81,1.34-.06.26-.36,1.47-.44,1.77-.04.14-.05.27-.04.39,0,.02,0,.03,0,.05.01.12.04.23.08.32.85,1.94,6.42,5.98,6.42,5.98-1.52,4.11-1.13,6.92.14,8.66-.62,2.84-1.13,6.54-1.43,11.43-.61,10.1,1.82,14.61,5.47,16.46,2.4,1.22,5.54,2.2,9.87,2.28,0,0-.08,3.52-.08,3.52-3.55,0-7.09-.41-10.35,1.13-12.25,5.81-14.04,19.9-14.79,31.97-1,16.13-.58,50.49-.58,50.49,0,0,.08.18.28.5-1.16,18.79-1.31,42.83-1.06,61.76,28.41-9.91,56.92-25.57,79.71-49.94,6.27-8.58,14.75-21.35,16.87-25.95,2.92-6.35,2.73-8.64-.08-15.85Zm-28.4,27.45c-.06-4.86,0-10.88-.04-15.73-.04-5.03.18-10.54.46-15.27.92,2.01,1.5,3.27,1.5,3.27,0,0,.33.16,1.08.28l3.91,8.33s-.02.01-.03.02l.86,1.75s-2.77,6.29-7.74,17.34Z" fill="#95204d"/>
  </g>
  <path id="Shadow" d="m390.08,389c9.78,5.71,9.78,14.97,0,20.68-9.78,5.71-25.64,5.71-35.42,0-9.78-5.71-9.78-14.97,0-20.68,9.78-5.71,25.64-5.71,35.42,0Z" fill="#e1e1e1"/>
  <ellipse id="Shadow-2" data-name="Shadow" cx="104.75" cy="398.75" rx="63.35" ry="36.57" fill="#e1e1e1"/>
  <polygon id="Shadow-3" data-name="Shadow" points="161.73 465.21 104.3 432.04 180.14 388.3 237.51 421.43 161.73 465.21" fill="#e1e1e1"/>
  <ellipse id="Shadow-4" data-name="Shadow" cx="240.42" cy="392.3" rx="18.8" ry="10.85" fill="#e1e1e1"/>
  <polygon points="444.33 23.29 437.25 17.98 426.23 16.35 407.08 17.46 103.42 66.07 149.55 424.61 445.54 51.2 448.39 37.09 444.33 23.29" fill="#95204d" opacity=".3"/>
  <g id="Lamp">
    <polygon points="440.18 2.24 444.06 0 444.06 15.22 440.18 17.45 440.18 2.24" fill="#1a2e35"/>
    <polygon points="440.18 2.24 444.06 0 444.06 15.22 440.18 17.45 440.18 2.24" opacity=".1"/>
    <g>
      <polygon points="423.86 21.06 427.99 37.93 412.52 45.82 405.26 20.91 423.86 21.06" fill="#375a64"/>
      <g>
        <polygon points="432.05 41.18 417.25 50.96 417.07 52.16 440.21 57.45 443.38 41.63 432.05 41.18" fill="#95204d" opacity=".56"/>
        <polygon points="432.22 39.98 417.25 50.96 440.39 56.25 443.38 41.63 432.22 39.98" fill="#95204d"/>
      </g>
      <g>
        <path d="m451.53,10.44c4.63,2.68,8.39,9.18,8.39,14.53,0,2.66-.93,4.51-2.44,5.39-.69.4-9.23,5.33-9.92,5.73-1.51.87-3.59.76-5.9-.58-4.63-2.68-8.39-9.18-8.39-14.53,0-2.66.94-4.52,2.44-5.39.69-.4,9.23-5.33,9.91-5.72,1.51-.87,3.59-.75,5.89.58Z" fill="#1a2e35"/>
        <path d="m445.62,12.19c5.43,3.14,9.83,10.76,9.83,17.03,0,3.11-1.09,5.29-2.85,6.31-.81.47-10.82,6.25-11.62,6.71-1.77,1.02-4.21.89-6.91-.68-5.43-3.14-9.83-10.76-9.83-17.03,0-3.12,1.1-5.3,2.86-6.32.8-.46,10.81-6.24,11.62-6.71,1.77-1.02,4.2-.88,6.9.68Z" fill="#375a64"/>
        <path d="m434.07,18.86c5.43,3.14,9.83,10.76,9.83,17.03s-4.4,8.81-9.83,5.68c-5.43-3.14-9.83-10.76-9.83-17.03,0-6.27,4.4-8.81,9.83-5.68Z" fill="#e1e1e1"/>
        <path d="m434.07,20.52c4.64,2.68,8.4,9.19,8.4,14.55s-3.76,7.53-8.4,4.85c-4.64-2.68-8.4-9.19-8.4-14.55s3.76-7.53,8.4-4.85Z" fill="#fff"/>
      </g>
      <g>
        <polygon points="444.33 23.3 436.88 25.24 444.45 51.45 445.53 51.2 447.3 37.34 444.33 23.3" fill="#95204d"/>
        <polygon points="444.33 23.3 437.96 25 445.53 51.2 448.38 37.1 444.33 23.3" fill="#1a2e35"/>
      </g>
      <g>
        <polygon points="437.09 19.07 430 20.64 406.92 18.55 407.08 17.46 426.06 17.44 437.25 17.98 437.09 19.07" fill="#95204d"/>
        <polygon points="437.25 17.98 430.16 19.55 407.08 17.46 426.22 16.35 437.25 17.98" fill="#1a2e35"/>
      </g>
    </g>
    <g>
      <polygon points="455.68 29.17 459.55 26.93 459.55 8.94 444.06 0 440.18 2.24 455.68 11.18 455.68 29.17" fill="#1a2e35"/>
      <path d="m457.61,28.05c1.07-.62,1.94-2.19,1.94-3.5v-15.6l-15.49-8.94-3.87,2.24,15.49,8.94v15.6c0,1.32.87,1.88,1.94,1.27Z" opacity=".05"/>
    </g>
    <path d="m457.61,26.51c.59-.34,1.07-1.17,1.07-1.86s-.48-.96-1.07-.62c-.59.34-1.07,1.17-1.07,1.86s.48.96,1.07.62Z" fill="#fff"/>
  </g>
  <g id="Microphone">
    <g id="Stand">
      <g>
        <path d="m254.18,391.71c0-.37-.03-.73-.11-1.1-.66-4.11-5.08-6.97-8.34-8.16h-10.62c-3.16.97-7.68,4.06-8.34,8.16-.08.37-.12.73-.11,1.1,0,.06.02.19.02.19.13,1.93,1.45,3.84,4.01,5.31,5.38,3.1,14.09,3.1,19.47,0,2.55-1.47,3.88-3.38,4.01-5.31,0,0,.02-.12.02-.19Z" fill="#2b454e"/>
        <path d="m233.81,383.07c-3.65,2.11-3.65,5.53,0,7.64,3.65,2.11,9.58,2.11,13.23,0,3.65-2.11,3.65-5.53,0-7.64-3.65-2.11-9.58-2.11-13.23,0Z" fill="#375a64"/>
      </g>
      <g>
        <g>
          <path d="m241.41,259.83c-.55-.32-1.43-.32-1.98,0-.27.16-.41.36-.41.57v126.17c0,.21.14.41.41.57.55.32,1.43.32,1.98,0,.27-.16.41-.36.41-.57v-126.17c0-.21-.14-.41-.41-.57Z" fill="#1a2e35"/>
          <path d="m241.41,260.25c-.55-.32-1.43-.32-1.98,0-.08.05-.15.1-.21.15h-.2v2.35c.87.29,1.95.28,2.8-.03v-2.32h-.2c-.06-.05-.13-.11-.21-.15Z" opacity=".25"/>
        </g>
        <g>
          <path d="m242.65,249.09c-.11-.1-.24-.2-.39-.29-1.05-.6-2.74-.6-3.78,0-.15.09-.29.19-.39.29h-.39v11.4h0c0,.4.26.79.78,1.09,1.05.6,2.74.6,3.78,0,.52-.3.78-.7.78-1.09h0v-11.4h-.39Z" fill="#2b454e"/>
          <path d="m239.25,248.5c-.28.07-.54.17-.77.31-.15.09-.29.19-.39.29h-.39v11.4c0,.4.26.79.78,1.09.23.13.49.23.77.31v-13.4Z" opacity=".25"/>
          <path d="m238.47,250.19c1.05.6,2.74.6,3.78,0,1.04-.6,1.04-1.58,0-2.18-1.05-.6-2.74-.6-3.78,0-1.05.6-1.05,1.58,0,2.18Z" fill="#375a64"/>
        </g>
        <g>
          <path d="m242.08,251.31c.33-.19.63-.21.85-.09.22.13.34.2.56.32.22.13.35.4.35.78,0,.77-.54,1.7-1.21,2.09-.33.19-.63.21-.85.08-.22-.13-.33-.2-.55-.32-.22-.12-.36-.4-.36-.78,0-.77.54-1.7,1.21-2.09Z" fill="#d268cc"/>
          <path d="m242.08,251.31c.33-.19.63-.21.85-.09.22.13.34.2.56.32.22.13.35.4.35.78,0,.77-.54,1.7-1.21,2.09-.33.19-.63.21-.85.08-.22-.13-.33-.2-.55-.32-.22-.12-.36-.4-.36-.78,0-.77.54-1.7,1.21-2.09Z" fill="#d268cc"/>
          <path d="m242.64,251.63c-.67.38-1.21,1.32-1.21,2.09s.54,1.08,1.21.7c.67-.38,1.21-1.32,1.21-2.09s-.54-1.08-1.21-.7Z" opacity=".15"/>
        </g>
        <g>
          <path d="m241.62,210.75c-.06-.05-.13-.11-.21-.15-.55-.32-1.43-.32-1.98,0-.08.05-.15.1-.21.15h-.2v38.23h0c0,.21.14.41.41.57.55.32,1.43.32,1.98,0,.27-.16.41-.36.41-.57h0v-38.23h-.2Z" fill="#1a2e35"/>
          <path d="m239.43,211.32c.55.32,1.43.32,1.98,0s.55-.83,0-1.14-1.43-.32-1.98,0c-.55.32-.55.83,0,1.14Z" fill="#375a64"/>
        </g>
        <g>
          <path d="m242.47,208.28c-.1-.09-.21-.18-.35-.26-.93-.54-2.45-.54-3.39,0-.14.08-.26.17-.35.26h-.35v2.2h0c0,.35.23.71.7.98.93.54,2.45.54,3.39,0,.47-.27.7-.62.7-.98h0v-2.2h-.35Z" fill="#d268cc"/>
          <path d="m239.42,207.74c-.25.07-.49.15-.69.27-.14.08-.26.17-.35.26h-.35v2.2c0,.35.23.71.7.98.21.12.44.21.69.27v-3.98Z" opacity=".25"/>
          <path d="m238.73,209.25c.93.54,2.45.54,3.39,0,.93-.54.93-1.41,0-1.95-.93-.54-2.45-.54-3.38,0-.93.54-.93,1.41,0,1.95Z" fill="#d268cc"/>
          <path d="m238.73,209.25c.93.54,2.45.54,3.39,0,.93-.54.93-1.41,0-1.95-.93-.54-2.45-.54-3.38,0-.93.54-.93,1.41,0,1.95Z" fill="#fff" opacity=".3"/>
        </g>
        <g>
          <g>
            <path d="m219.93,141.83c-3.16-4.31-9.22-5.25-13.54-2.09-4.31,3.16-5.25,9.22-2.09,13.54,1.17,1.6,5.16,7.04,6.33,8.63,3.16,4.31,9.22,5.25,13.54,2.09,4.31-3.16,5.25-9.22,2.09-13.54-1.17-1.6-5.16-7.04-6.33-8.63Z" fill="#375a64"/>
            <path d="m224.17,164c3.27-2.4,4.6-6.47,3.66-10.18-1.61.93-9.8,5.64-11.02,6.29-1.35.72-4.62-2.55-8.21-7.73-3.58-5.17-5.76-7.58-3.73-11.25-2.97,3.34-3.32,8.4-.57,12.15,1.17,1.6,5.16,7.04,6.33,8.63,3.16,4.31,9.22,5.25,13.54,2.09Z" fill="#1a2e35"/>
          </g>
          <g>
            <g>
              <polygon points="220.15 160.17 228.13 171.06 224.02 179.35 216.04 168.45 220.15 160.17" fill="#d268cc"/>
              <polygon points="220.15 160.17 228.13 171.06 224.02 179.35 216.04 168.45 220.15 160.17" fill="#95204d" opacity=".89"/>
            </g>
            <polygon points="228.13 171.06 238.27 165.2 230.29 154.31 220.15 160.17 228.13 171.06" fill="#95204d"/>
            <g>
              <polygon points="224.02 179.35 234.17 173.49 238.27 165.2 228.13 171.06 224.02 179.35" fill="#d268cc"/>
              <polygon points="224.02 179.35 234.17 173.49 238.27 165.2 228.13 171.06 224.02 179.35" fill="#95204d" opacity=".81"/>
            </g>
          </g>
        </g>
        <path d="m242.01,208.44c0,.99-3.14.99-3.14,0,0-11.81,0-25.2-8.33-35.26-.68-.82,1.74-2.83,2.42-2,9.05,10.93,9.05,25.53,9.05,37.26Z" fill="#1a2e35"/>
        <g>
          <path d="m241.69,205.54c.17-.1.32-.11.43-.04.11.06.17.1.28.16.11.06.18.2.18.39,0,.39-.27.86-.61,1.05-.17.1-.32.11-.43.04-.11-.06-.17-.1-.28-.16-.11-.06-.18-.2-.18-.39,0-.39.27-.86.61-1.05Z" fill="#d268cc"/>
          <path d="m241.69,205.54c.17-.1.32-.11.43-.04.11.06.17.1.28.16.11.06.18.2.18.39,0,.39-.27.86-.61,1.05-.17.1-.32.11-.43.04-.11-.06-.17-.1-.28-.16-.11-.06-.18-.2-.18-.39,0-.39.27-.86.61-1.05Z" fill="#d268cc"/>
          <path d="m241.97,205.7c-.33.19-.61.66-.61,1.05,0,.39.27.54.61.35.33-.19.61-.66.61-1.05s-.27-.54-.61-.35Z" opacity=".15"/>
        </g>
      </g>
    </g>
  </g>
  <g id="Chartacter">
    <g id="Character-5" data-name="Character">
      <g id="Bottom">
        <g id="Bottom-2" data-name="Bottom">
          <g>
            <polygon points="123.05 386.02 127.08 384.1 123.12 382.98 123.05 386.02" fill="#1a2e35"/>
            <path d="m162.87,393.61s-47.28-21.48-47.9-18.32c-.13.7-.12,1.32.01,1.9-.04-.06-.09-.11-.13-.17l.84,5.9s3.37,2.88,7.36,3.11c0-.28.05-2.04.07-3.04,1.28.54,2.61,1.18,4.17,2.22,3.03,2.01,4.96,5.5,8.16,9.56,2.33,2.96,6.51,4.36,12.72,5.28,6.68.98,12.58-.25,14.25-2.01,1.33-1.41.69-4.01.45-4.43Z" fill="#1a2e35"/>
            <path d="m161.57,392.51c-.45-.48-2.13-2.33-4.41-4.35-1.99-1.77-4.31-4-6.8-5.81-1-.72-2.53-1.88-3.38-2.8-.82-.88-1.61-1.8-2.34-2.76-2.27-2.98-4.11-6.25-5.66-9.64-.74-1.61-1.65-3.31-1.96-5.06-.33-1.85-.52-3.72-.52-5.6,0-8.46.19-9.8.27-16.24l-20.05.52c.63,3.57,1.6,8.46,1.92,12.51.49,6.17.64,7.55-1.83,13.68-.73,1.81-1.81,3.54-1.92,5.48-.17,3.15,2.32,5.9,5.11,7.46,2.32,1.29,4.99,1.86,7.23,3.24,2.36,1.45,4.19,3.63,5.87,5.77,1.58,2.03,2.85,4.42,5.08,5.86,2.47,1.59,4.84,2.1,7.71,2.69,3.3.69,7.55.79,10.38.59,4.93-.35,8.61-2.09,5.31-5.55Z" fill="#ffaaa8"/>
            <path d="m158.87,389.05c-2.03-1.71-4.91-4.17-8.39-6.93-.78-.4-3.9-1.16-7.36.61-7.07,3.61-8.31,8.79-8.31,8.79,0,0,1.49,3.52,5.72,5.01,8.12,3.57,22.69,2.55,22.86-1.15.11-2.36-2.05-4.26-4.52-6.34Zm-41.61-23.41s-.48,1.21-1.74,3.59c-1.26,2.38-1.51,4.75.02,7.15,2.03,3.17,4.54,4.16,7.1,4.84,2.31-7.01-2.57-14.04-5.38-15.58Z" fill="#2b454e"/>
          </g>
          <g>
            <path d="m79.4,375.2c1.34,2.12-.4,10.12-.09,15.81.28,5.17,1.68,14.19.06,19.3-1.92,6.06-5.81,13.08-13.05,7.41-4.49-3.52-7.06-8.06-7.67-15.51-.43-5.17,1.68-12.33,3.48-18.68,2.11-7.41,2.91-11.38,2.91-11.38l14.37,3.05Z" fill="#1a2e35"/>
            <path d="m64.53,337.04c-.52,12.07.91,20.54.99,28.26-.08,3.6-.32,6.64-1.12,10.43-1.03,4.93-2.78,11.78-3.52,14.98-1.03,4.46-1.81,7.28-.24,12.28.12.39.31.76.51,1.13,2.19,4.13,7.77,7.24,9.55,6.74.5.81,1.76,1.3,3.14,1.08.2-.03.39-.08.59-.14.2-.06.4-.14.6-.24,1.19-.57,2.31-1.75,2.97-3.79.11-.34.21-.7.29-1.09,1.3-6.22.36-10.23.23-12.66-.14-2.81.03-6.38.28-10.9.25-4.53,1.35-18.74,2.95-25.53,1.19-4.74,2.67-10.69,4.23-17.03l-21.46-3.51Z" fill="#ffaaa8"/>
            <path d="m59.8,396.53c4.4-1.91,17.14-2.17,19.17,3.93.05,5.74.09,9.63-3.6,14.63-4.9,6.64-11.3-.4-13.75-4.87-2.45-4.47-2.42-10.59-1.82-13.69Z" fill="#2b454e"/>
          </g>
          <path d="m78.62,186.94c-6.21,10.44-7.94,18.29-9.56,45.88-1.83,31.14-1.56,42.99-1.72,46.75-.16,3.76-2.74,10.65-4.94,29.16-2.19,18.5.11,63.37.11,63.37,0,0,1.55,3.02,9.09,3.71,6.96.63,11.04-1.66,11.04-1.66,0,0,13.06-54.68,15.1-65.98,2.73-15.13,9.39-51.83,9.39-51.83l4.32,29.78s-2.2,10.21-.21,26.46c1.99,16.25,5.89,49.03,5.89,49.03,0,0,4.62,1.93,10.54,2.55,6.72.7,11.69-1.27,11.69-1.27,0,0,5.86-66.17,6.01-84.58.15-18.41-3.25-64.09-9.21-91.38h-57.55Z" fill="#375a64"/>
          <path d="m112.34,227.55l-5.19,29.15,4.3,29.41-.83-28.19,5.58-27.41c6.23-1.01,13.04-8.86,14.8-15.02-6.41,8.39-18.67,12.05-18.67,12.05Zm-20.65-27.69c.86-2.91,1.76-5.8,2.78-8.7-1.8,2.57-3.16,5.39-4.32,8.24-1.17,2.86-2.1,5.79-2.91,8.75-.77,2.96-1.42,5.95-1.87,8.97-.46,3.01-.78,6.06-.73,9.11.82-2.96,1.58-5.9,2.33-8.84.77-2.93,1.5-5.87,2.3-8.79.76-2.93,1.58-5.84,2.42-8.75Zm-4.73-2.22c1.08-1.77,2.17-3.55,3.17-5.41-1.69,1.39-3.17,2.95-4.52,4.59-1.37,1.64-2.58,3.38-3.69,5.18-1.08,1.82-2.05,3.69-2.81,5.64-.77,1.95-1.36,3.97-1.57,6.04l3.06-5.44c1.04-1.78,2.06-3.56,3.15-5.31,1.05-1.77,2.15-3.52,3.22-5.29Zm-2.27,122.72c-1.65,9.42-3.17,18.86-4.55,28.32,2.19-9.34,4.24-18.69,6.16-28.06,1.95-9.38,3.77-18.73,5.58-28.17,1.68-9.45,2.75-18.96,3.56-28.48.83-9.51,1.39-19.04,1.82-28.57-1.24,9.48-2.34,18.96-3.44,28.44-1.14,9.47-2.3,18.93-4,28.31-1.76,9.36-3.5,18.8-5.12,28.22Zm51.43-54.09c.17,4.13.41,8.29.3,12.38-.12,4.1-.43,8.26-.69,12.4l-.78,12.43c-.53,8.29-.96,16.58-1.27,24.89,1.13-8.25,2.1-16.5,2.9-24.78.81-8.28,1.56-16.53,1.94-24.89.04-8.4-.67-16.66-1.41-24.95-.77-8.28-1.79-16.54-3.12-24.76l1.5,24.87c.22,4.14.47,8.28.65,12.42Z" fill="#2b454e"/>
        </g>
      </g>
      <g id="Top">
        <g id="Arm">
          <path d="m206.18,110.16c2.79-1.57.38-9.44-1.86-12.7-2.24-3.26-5.52-7.03-8.83-4.84-3.31,2.19-.73,9.73,1.7,12.82,2.42,3.09,6.12,7.33,8.99,4.71Z" fill="#1a2e35"/>
          <g>
            <path d="m195.81,92.7c4.93-3.66,10.8-8.23,12.43-10.33,2.9-3.73,4.09-6.2,7.23-8.79,3.14-2.58,7.68-7.52,11.7-11.48,4.03-3.96,5.7-5.7,7.24-4.73s-1.1,4.08-2.67,6.2-4.11,5.71-4.11,5.71c0,0,5.38-3.86,6.7-4.47,1.32-.61,6.94-2.35,8.28-2.64,1.33-.29,2.05,1.74.61,3.22-1.44,1.48-7.35,3.94-7.35,3.94,0,0-4.54,2.96-4.99,3.53-.45.57.04,1.07,1.06.69,1.01-.38,5.19-2.58,6.68-3.01s5.79-1.64,6.81-1.84,1.97,1.66.51,2.83c-1.45,1.17-4.24,2.57-4.24,2.57,0,0,1.29.53,1.26,1.73-.03,1.2-1.34,1.98-3.74,3.22-2.4,1.24-6.82,3.32-6.82,3.32,0,0-1.67,1.81-3.34,3.38-1.68,1.57-2.14,3.59-6.21,5.75-2.99,1.59-3.82,1.11-7.72,5.34-2.53,2.74-12.98,13.12-12.98,13.12,0,0-8.52-6.39-6.3-17.27Z" fill="#ffaaa8"/>
            <path d="m226.61,68.31c3.99,2.1,7.37,8.53,6.14,12.98.3-2.49-.63-4.91-1.68-7.12-1.08-2.22-2.48-4.34-4.47-5.85h0Z" fill="#ff9090"/>
            <path d="m232.6,77.61c3.16-.79,6.21-1.97,9.08-3.51-3.15.79-6.21,1.97-9.08,3.51Z" fill="#ff9090"/>
            <path d="m218.17,63.99c-1.28.17-1.35,1.79-2.08,3.64-.65,1.66-1.42,3.53-3.06,5.21-3.55,3.99-3.1,10.38-2.28,16.69,5.42-3.4,7.87-10.78,8.27-12.71.61-2.91,1.36-4.17,1.82-7.3.46-3.13-1.39-5.7-2.68-5.53Z" fill="#ffaaa8"/>
            <path d="m213.03,72.84c2.28-2.34,2.76-5.54,4.03-8.41,1.38-1.84,3.29.38,3.73,1.84,1.12,3.08-.53,6.27-.77,9.34-.21,1.53.05,3.07-.07,4.67-.13,3.17-1.68,6.23-4.19,8.17,2.34-2.09,3.71-5.11,3.75-8.19.06-1.52-.2-3.11-.01-4.7.17-3.06,1.8-6.09.79-9.11-.35-1.12-1.72-3.12-2.86-1.75-.4.58-.59,1.37-.85,2.1-.78,2.21-1.84,4.41-3.55,6.04h0Z" fill="#ff9090"/>
          </g>
          <path d="m195.49,92.63c4.29-3.17,6.56-4.84,6.56-4.84,0,0-1.24,2.34,1.55,7.18,4.19,7.26,7.53,6.13,7.53,6.13l-9.07,9.69c-1.75-.05-4.63-1.58-7.46-7.07-2.03-3.95-3.58-7.54.88-11.08Z" fill="#e1e1e1"/>
          <path d="m140.5,158.61c2.71-8.53,6.8-9.95,18.64-15.74,9.75-4.76,14.85-6.19,19.35-9.5,4.49-3.31,27.69-23.21,27.69-23.21-2.12.85-5.37-.33-9.07-6.99-2.3-4.13-2.66-9.21-1.62-10.55,0,0-22.87,15.1-26.87,18.05-4,2.95-19.89,6.09-27.36,7.51-6.41,1.22-17.63,2.62-17.63,2.62l16.87,37.8Z" fill="#375a64"/>
          <path d="m140.5,158.61c2.71-8.53,6.8-9.95,18.64-15.74,9.75-4.76,14.85-6.19,19.35-9.5,4.49-3.31,27.69-23.21,27.69-23.21-2.12.85-5.37-.33-9.07-6.99-2.3-4.13-2.66-9.21-1.62-10.55,0,0-22.87,15.1-26.87,18.05-4,2.95-19.89,6.09-27.36,7.51-6.41,1.22-17.63,2.62-17.63,2.62l16.87,37.8Z" fill="#d268cc"/>
          <path d="m140.5,158.61c2.71-8.53,6.8-9.95,18.64-15.74,9.75-4.76,14.85-6.19,19.35-9.5,4.49-3.31,27.69-23.21,27.69-23.21-2.12.85-5.37-.33-9.07-6.99-2.3-4.13-2.66-9.21-1.62-10.55,0,0-22.87,15.1-26.87,18.05-4,2.95-19.89,6.09-27.36,7.51-6.41,1.22-17.63,2.62-17.63,2.62l16.87,37.8Z" fill="#95204d" opacity=".88"/>
          <path d="m143.32,144.82c-1.23-2.57-4.88-11.52-11.88-16.03l-3.25,2.24,12.31,27.57c2.27-7.14,5.53-9.31,13.47-13.22,0,0,0,0,0,0h0s-8.96,2.97-10.65-.57Z" opacity=".15"/>
        </g>
        <path id="Chest" d="m72.99,204.33c-4.23-4.24,1.28-10.34,2.57-28.57.33-4.7-1.24-16.35-1.24-16.35,0,0,8.24-9.57,5.49-32.25l22.43-5.09,11.61-.22,10.04,2.83c2.85,2.56,8.08,6.61,12.23,12.74,5.99,8.85,6.89,18.46.43,25.5-.1,1.39-.27,14.08.85,19.46,1.08,5.15,2.42,9.51.46,13.17-8.87,14.19-50.23,22.45-64.88,8.79Z" fill="#fafafa"/>
        <g>
          <path d="m113.85,121.85l9.78-1.04c7.98,6.3,17.66,20.38,18.02,28.9.36,8.52-1.49,14.26-1.49,14.26,0,0-.91,17.65.87,26.83,1.34,6.9,2.65,13.81,3.96,20.72.55,2.88-.28,4.53-2.6,6.46-1.9,1.58-4.33,2.54-6.81,2.55-.27,0-.56-.01-.77-.18-.27-.22-.34-.61-.34-.95.17-23.38-.06-42.83-1.43-64.25-.83-12.94-9.07-24.66-19.21-33.31Z" fill="#95204d"/>
          <path d="m92.59,123.07l.04,1.01c3.37,7.07,4.42,12.09,5.48,18.71,1.28,7.95,1.75,15.36,1.42,23.41-.81,19.78-3.87,39.54-2.4,59.28.04.47.05,1.02-.31,1.33-.2.18-.48.24-.75.29-8.1,1.41-17.74-.65-25.28-3.61-2.35-.92-3.53-1.75-3.65-4.42-.15-3.37,1.1-7.55,1.89-10.86,1.94-8.21,3.71-18.71,4.16-25.12.84-12.01-1.88-17.42-1.59-29.58.21-8.95,6.3-17.23,6.48-26.18l14.51-4.25Z" fill="#95204d"/>
        </g>
        <g id="Arm-2" data-name="Arm">
          <path d="m110.94,159.56c4.04-2.5,6.05-3.42,7.86-3.77,1.81-.35,8.25-2.38,10.68-2.77,1.54-.24,1.94,2.21-.12,3.69-1.59,1.14-5.58,2.47-7.35,3.25-1.77.78-5.44,4.51-5.44,4.51l-5.63-4.92Z" fill="#ff9090"/>
          <path d="m61.64,137.61c4.33-5.98,10.15-7.02,14.53-8.45,7.83,9.1.58,27.66.58,27.66l-7.19,17.63s22.52-1.28,25.23-2.69c2.71-1.42,10.25-8.22,12.75-10.23,3.41-2.74,4.93-2.2,6.51-1.82,5.16,1.24,6.27,1.78,7.32,2.58,1.05.8.84,2.13.84,2.13,1.37.3,3.46.43,3.53,2.74.04,1.52-.08,1.84-.08,1.84,0,0,.5.09.86.6,1.04,1.44-1.35,5.9-2.71,6.92-.95.72-2.22.71-3.86.34-1.39-.31-.61-1.69-.61-1.69l-1.98-.06c-4.52,2.65-5.26,8.62-11,9.45-1.21.17-3.65-.07-6.99.73-12.47,3.01-33.4,13.6-44.28,13.58-10.61-.02-9.82-5.6-9.42-12.07.36-5.77,10.77-42,15.97-49.18Z" fill="#ffaaa8"/>
          <path d="m83.74,173.34l8.14-.98s-1.78,1.54-1.77,7c0,5.46,2.92,7.93,2.92,7.93l-12.1,4.63,2.81-18.59Z" fill="#fafafa"/>
          <path d="m70.2,172.28l-.64,2.17c-4.9.81-11.09,6.65-12.47,9.17,1.26-4.08,4.47-9.83,13.11-11.34Z" fill="#ff9090"/>
          <path d="m78.08,127.32s-2.75.58-6.01,1.9c-3.26,1.31-7.59,3.29-9.88,6.52-3.49,4.92-5.74,9.71-8.61,18.62-2.73,8.48-6.96,22.47-8.03,29.95-1.07,7.48-.55,11.04,1.19,12.74,1.74,1.7,6.04,3.3,12.71,1.83,6.67-1.47,26.58-7.47,26.58-7.47,0,0-2.49-.07-2.64-7.46-.15-7.39,1.82-10.89,1.82-10.89l-15.17,1.02,7.24-14.91s5.5-13.86.8-31.85Z" fill="#d268cc"/>
          <path d="m78.08,127.32s-2.75.58-6.01,1.9c-3.26,1.31-7.59,3.29-9.88,6.52-3.49,4.92-5.74,9.71-8.61,18.62-2.73,8.48-6.96,22.47-8.03,29.95-1.07,7.48-.55,11.04,1.19,12.74,1.74,1.7,6.04,3.3,12.71,1.83,6.67-1.47,26.58-7.47,26.58-7.47,0,0-2.49-.07-2.64-7.46-.15-7.39,1.82-10.89,1.82-10.89l-15.17,1.02,7.24-14.91s5.5-13.86.8-31.85Z" fill="#95204d" opacity=".88"/>
          <path d="m70.05,174.09c-5.33.61-10.92,2.73-13.62,7.6,2.37-8.21,10.52-10.03,14.86-10.14l-1.23,2.54Z" opacity=".15"/>
          <g>
            <path d="m122.2,164.41l-6.1-1.8,6.05.93c.07.3.09.59.05.87Z" fill="#ff9090"/>
            <path d="m125.65,168.99l-7.07-1.55,7.15.73c0,.26-.02.54-.08.83Z" fill="#ff9090"/>
            <path d="m123.33,172.62c-.32.09-.65.15-.98.19-.78.07-2.51-.05-2.51-.05,0,0-.1.51-1.01,1.3-.49.42-1.49,1.04-1.49,1.04l1.98.06s.52-.76,2.13-.99c.31-.03.67.07.94.26.27.21.5.5.66.84-.08-.36-.25-.72-.54-.99-.2-.18-.45-.3-.72-.35l.48-.84c.38-.05.75-.14,1.11-.28.4-.16.79-.4,1.04-.75-.31.3-.71.45-1.1.57Z" fill="#ff9090"/>
          </g>
        </g>
        <g>
          <path d="m122.5,94.06c8.62-3.24,9.9-17.43,3.55-23.66-9.28-10.74-23.5-12.05-34.06-6.41-7.73,4.13-10.72,9.18-10.72,15.04-8.93,12.95,4.66,28.15,13.23,36.91,13.03-1.6,17.32-16.9,27.99-21.88Z" fill="#1a2e35"/>
          <g id="Head">
            <g id="Head-2" data-name="Head">
              <g id="Head-3" data-name="Head">
                <g>
                  <path d="m89.42,107.62c-2.46.54-4.85-.61-6.41-2.22-3.45-3.57-3.87-7.3-2.39-9.84,1.22-2.09,4.33-3.49,6.58-2.17,2.41,1.41,2.52,2.61,3.46,4.26.97,1.69,3.19.27,2.22-6.43,4.52-2.3,3.55-9.96,5.94-13.17,3.73-5.03,10.16-3.95,12.28-2.85,1.8-1.56,5.49-2.41,8.69-.82,2.91,1.45,5.31,3.97,6.67,11.72.13.76-.55,4-.26,4.82,3.68,10.45-.05,20.66-2.78,23.33-1.88,1.83-5.44,3.15-9.73,3.03l.16,4.59s12.75,12.53-3.05,11.83c-11.84-.52-18.17-9.59-18.17-9.59l-.65-18.46s-.21,1.48-2.55,1.99Z" fill="#ffaaa8"/>
                  <g>
                    <path d="m116.21,104.93c-.32,1.92-2.14,3.21-4.06,2.89-1.92-.32-3.21-2.14-2.89-4.06l6.94,1.17Z" fill="#c76668"/>
                    <path d="m109.28,104.91c.24,1.44,1.35,2.65,2.88,2.9.43.07.84.05,1.24-.03-.35-1.93-2.19-3.21-4.12-2.88Z" fill="#ff9090"/>
                  </g>
                  <g>
                    <path d="m108.44,91.86c-.31,1.11-1.42,1.77-2.49,1.48-1.07-.3-1.69-1.44-1.38-2.55.31-1.11,1.42-1.77,2.49-1.48,1.07.3,1.69,1.44,1.38,2.55Z" fill="#1a2e35"/>
                    <path d="m123.78,85.63l-4.3-2.14c.55-1.22,1.96-1.73,3.15-1.14,1.19.59,1.7,2.06,1.15,3.28Z" fill="#1a2e35"/>
                    <path d="m119.31,91.28c.43,1.07,1.61,1.6,2.64,1.19,1.03-.42,1.52-1.62,1.09-2.69-.43-1.07-1.61-1.6-2.64-1.19-1.03.41-1.52,1.62-1.09,2.69Z" fill="#1a2e35"/>
                    <path d="m106.91,84.8l-4.45,2.58c-.77-1.21-.39-2.77.84-3.48,1.23-.71,2.84-.31,3.61.9Z" fill="#1a2e35"/>
                    <polygon points="121.42 97.14 115.3 99.92 112.94 88.75 121.42 97.14" fill="#ff9090"/>
                  </g>
                </g>
              </g>
            </g>
            <path d="m113.69,117.26c-6.18-.04-14.51-1.99-16.85-5.9,1.36,4.25,5.77,6.35,9.27,7.22,4.25,1.06,7.6,1.08,7.6,1.08l-.02-2.39Z" fill="#ff9090"/>
          </g>
        </g>
      </g>
    </g>
  </g>
  <g id="Speech_Bubble" data-name="Speech Bubble">
    <path d="m101.55,18.89c-5.24-7.63-19.24-13.95-36.56-14.12-15.75-.15-34.93,4.48-39.72,19.62-4.09,12.91,8.5,24.9,21.56,27.45,5.67,1.11,10.94,1.58,15.77,1.67,2.42,4.52,8.1,7.3,12.38,7.59-2.21-2.62-2.79-5.64-2.84-7.95,4.82-.45,8.91-1.25,12.1-2.04,22.68-5.67,23.18-23.68,17.32-32.22Z" fill="#d268cc"/>
    <path d="m101.55,18.89c-5.24-7.63-19.24-13.95-36.56-14.12-15.75-.15-34.93,4.48-39.72,19.62-4.09,12.91,8.5,24.9,21.56,27.45,5.67,1.11,10.94,1.58,15.77,1.67,2.42,4.52,8.1,7.3,12.38,7.59-2.21-2.62-2.79-5.64-2.84-7.95,4.82-.45,8.91-1.25,12.1-2.04,22.68-5.67,23.18-23.68,17.32-32.22Z" fill="#95204d" opacity=".77"/>
  </g>
  <g id="Podium">
    <g id="Podium-2" data-name="Podium">
      <polygon points="162.19 458.89 162.19 445.68 228.15 407.59 228.15 420.8 162.19 458.89" fill="#ececec"/>
      <polygon points="162.19 445.68 104.75 412.52 104.75 425.73 162.19 458.89 162.19 445.68" fill="#e1e1e1"/>
      <polygon points="162.19 445.68 104.75 412.52 104.75 425.73 162.19 458.89 162.19 445.68" opacity=".1"/>
      <polygon points="162.19 445.68 104.75 412.52 175.44 377.16 228.15 407.59 162.19 445.68" fill="#f5f5f5"/>
      <polygon points="162.19 440.24 218.73 407.59 225.11 237.32 162.19 273.65 162.19 440.24" fill="#ececec"/>
      <polygon points="162.19 440.24 114.18 412.52 107.8 242.25 162.19 273.65 162.19 440.24" fill="#e1e1e1"/>
      <polygon points="162.19 440.24 114.18 412.52 107.8 242.25 162.19 273.65 162.19 440.24" opacity=".1"/>
      <polygon points="224.36 257.25 225.11 237.32 162.19 273.65 107.8 242.25 108.55 262.18 162.19 293.15 224.36 257.25" opacity=".2"/>
      <g>
        <polygon points="173.63 290.39 213.67 267.27 209.89 399.43 173.63 420.42 173.63 290.39" fill="#e1e1e1"/>
        <path d="m207.87,277.12l-3.56,119.02-25.05,14.51v-117.02s28.61-16.52,28.61-16.52m1.57-2.54l-31.59,18.24v120.27s27.82-16.11,27.82-16.11l3.77-122.4h0Z" fill="#f5f5f5"/>
      </g>
      <g>
        <polygon points="157.77 286.92 157.77 268.66 246.13 217.64 246.13 235.9 157.77 286.92" fill="#ececec"/>
        <polygon points="157.77 268.66 95.92 241.52 95.92 251.21 157.77 286.92 157.77 268.66" fill="#e1e1e1"/>
        <polygon points="157.77 268.66 95.92 241.52 184.28 190.51 246.13 217.64 157.77 268.66" fill="#fafafa"/>
      </g>
    </g>
  </g>
  <g id="Paper">
    <g>
      <path d="m178.52,316.01l54.24-31.35c-.31-.96-.51-1.99-.51-2.98v-47.5c0-5.63-3.33-10.73-8.48-13l-54.57-24.02c-2.09-.92-3.44-2.98-3.44-5.27,0-.35.03-.71.1-1.04l-50.17,28.99h-2.48c-3.17,0-5.75,2.58-5.75,5.75,0,2.28,1.35,4.35,3.44,5.27l54.57,24.02c5.15,2.27,8.48,7.37,8.48,13v47.5c0,2.8,1.44,5.89,3.2,6.92,1.77,1.02,3.2.25,3.2-1.71s-.82-4.03-1.84-4.57Z" fill="#a12e64"/>
      <path d="m178.52,316.01l54.24-31.35c-.31-.96-.51-1.99-.51-2.98v-47.5c0-5.63-3.33-10.73-8.48-13l-54.57-24.02c-2.09-.92-3.44-2.98-3.44-5.27,0-.35.03-.71.1-1.04l-50.17,28.99h-2.48c-3.17,0-5.75,2.58-5.75,5.75,0,2.28,1.35,4.35,3.44,5.27l54.57,24.02c5.15,2.27,8.48,7.37,8.48,13v47.5c0,2.8,1.44,5.89,3.2,6.92,1.77,1.02,3.2.25,3.2-1.71s-.82-4.03-1.84-4.57Z" fill="#a12e64" opacity=".8"/>
    </g>
    <path d="m171.51,186.13c-1.06,0-2.05.29-2.91.79h-.01s-58.12,33.61-58.12,33.61c.81-.45,1.74-.7,2.74-.7h2.48l50.17-28.99,8.13-4.71h-2.48Z" fill="#a12e64"/>
    <path d="m171.51,186.13c-1.06,0-2.05.29-2.91.79h-.01s-58.12,33.61-58.12,33.61c.81-.45,1.74-.7,2.74-.7h2.48l50.17-28.99,8.13-4.71h-2.48Z" fill="#a12e64" opacity=".9"/>
    <path d="m238.65,286.88c0-1.97-.82-4.02-1.84-4.57h0s0,0,0,0l-4.07,2.35-54.24,31.35c1.01.55,1.84,2.6,1.84,4.57,0,.95-.33,1.62-.87,1.94h0s58.23-33.65,58.23-33.65c0,0,.01,0,.02,0l.06-.04h0c.53-.34.87-1,.87-1.93Z" fill="#a12e64"/>
    <path d="m238.65,286.88c0-1.97-.82-4.02-1.84-4.57h0s0,0,0,0l-4.07,2.35-54.24,31.35c1.01.55,1.84,2.6,1.84,4.57,0,.95-.33,1.62-.87,1.94h0s58.23-33.65,58.23-33.65c0,0,.01,0,.02,0l.06-.04h0c.53-.34.87-1,.87-1.93Z" fill="#a12e64" opacity=".5"/>
    <path d="m177.15,322.29c1.77,1.02,3.2.25,3.2-1.71s-.82-4.03-1.84-4.57l54.24-31.35c-.31-.96-.51-1.99-.51-2.98v-47.5c0-2.62-.73-5.12-2.02-7.28l-58.32,33.67c1.3,2.17,2.04,4.68,2.04,7.31v47.5c0,2.8,1.44,5.89,3.2,6.92Z" fill="#a12e64" opacity=".2"/>
  </g>
  <g id="Plants">
    <g id="Plant">
      <g id="Pot">
        <path d="m359.15,402.44c-7.4-7.61-11.79-26.91-4.5-32.91h36.77c7.18,6.11,2.89,25.3-4.5,32.91l-.21.21-.21.21c-.21.21-.43.43-.64.64-.11,0-.11.11-.21.11-.21.11-.32.32-.54.43-.32.21-.64.43-.96.64-6.11,3.54-15.97,3.54-22.08,0h0c-.32-.21-.64-.43-.96-.64-.21-.11-.32-.21-.54-.43-.11,0-.11-.11-.21-.21-.21-.21-.43-.43-.64-.54l-.32-.32c-.11.11-.21,0-.21-.11h0Z" fill="#37474f"/>
        <path d="m388.2,367.07c8.36,4.93,8.36,12.86,0,17.8s-21.98,4.93-30.44,0-8.36-12.86,0-17.8c8.36-4.93,21.98-4.82,30.44,0Z" fill="#455a64"/>
        <path d="m384.13,369.43c6.22,3.64,6.22,9.43,0,13.08-6.22,3.64-16.19,3.64-22.3,0-6.11-3.64-6.22-9.43,0-13.08,6.11-3.54,16.19-3.54,22.3,0Z" fill="#263238"/>
        <path d="m361.83,375.64c6.22-3.64,16.19-3.64,22.3,0,1.72.96,2.89,2.14,3.64,3.43-.75,1.29-1.93,2.47-3.64,3.43-6.22,3.64-16.19,3.64-22.3,0-1.72-.96-2.89-2.14-3.64-3.43.75-1.29,1.93-2.47,3.64-3.43Z" fill="#fafafa"/>
      </g>
      <g>
        <g>
          <path d="m370.51,326.55c-2.79,3.11-10.61,3.86-13.94-4.4-3-7.72-6.32-15.12-7.29-17.9-.96-2.79,1.93-3.75,1.93-3.75,0,0,.21-4.29,7.4-1.39,7.18,2.89,12.33,7.29,15.44,14.36,3.11,6.97,1.29,12.11-3.54,13.08h0Z" fill="#ba68c8"/>
          <path d="m370.51,326.55c-2.79,3.11-10.61,3.86-13.94-4.4-3-7.72-6.32-15.12-7.29-17.9-.96-2.79,1.93-3.75,1.93-3.75,0,0,.21-4.29,7.4-1.39,7.18,2.89,12.33,7.29,15.44,14.36,3.11,6.97,1.29,12.11-3.54,13.08h0Z" fill="#fff" isolation="isolate" opacity=".45"/>
        </g>
        <g>
          <path d="m373.62,337.48c-.11-1.5-.32-2.89-.64-4.29-.64-2.79-1.39-5.57-2.36-8.36-2.04-5.47-4.82-10.72-8.36-15.44-1.93-2.68-4.07-5.25-6.54-7.5-.11-.11-.11.11-.11.11,4.07,4.29,7.5,9,10.29,14.15,2.68,5.15,4.72,10.51,5.9,16.08.32,1.61.64,3.11.96,4.72s.43,3.22.75,4.82c0,.11.32.21.32,0,.11-1.18-.11-2.79-.21-4.29Z" fill="#ba68c8"/>
          <path d="m373.62,337.48c-.11-1.5-.32-2.89-.64-4.29-.64-2.79-1.39-5.57-2.36-8.36-2.04-5.47-4.82-10.72-8.36-15.44-1.93-2.68-4.07-5.25-6.54-7.5-.11-.11-.11.11-.11.11,4.07,4.29,7.5,9,10.29,14.15,2.68,5.15,4.72,10.51,5.9,16.08.32,1.61.64,3.11.96,4.72s.43,3.22.75,4.82c0,.11.32.21.32,0,.11-1.18-.11-2.79-.21-4.29Z" fill="#95204d"/>
        </g>
        <g>
          <path d="m376.09,324.4c-6.43,2.04-11.26-3.11-9.65-10.93,1.61-7.93,9.97-16.72,13.08-14.36,1.93-1.93,6.32-1.29,8.36,5.15,2.04,6.43.21,22.94-11.79,20.15h0Z" fill="#ba68c8"/>
          <path d="m376.09,324.4c-6.43,2.04-11.26-3.11-9.65-10.93,1.61-7.93,9.97-16.72,13.08-14.36,1.93-1.93,6.32-1.29,8.36,5.15,2.04,6.43.21,22.94-11.79,20.15h0Z" fill="#b31a3e" isolation="isolate" opacity=".71"/>
        </g>
        <g>
          <path d="m379.84,303.93c-1.93,4.5-3.22,9.43-4.29,14.26-1.18,4.93-1.93,9.86-2.47,14.9-1.18,9.65-1.39,19.51-1.29,29.27,0,2.68.11,5.36.11,8.04.11,2.79,0,5.57.21,8.36.11,1.07,1.61.75,1.61-.21.11-4.82-.21-9.76-.21-14.58-.11-4.82,0-9.65.11-14.36.21-9.76.96-19.51,2.57-29.16.43-2.68.96-5.36,1.61-8.04.64-2.79,1.5-5.57,2.25-8.36,0-.11-.21-.21-.21-.11h0Z" fill="#ba68c8"/>
          <path d="m379.84,303.93c-1.93,4.5-3.22,9.43-4.29,14.26-1.18,4.93-1.93,9.86-2.47,14.9-1.18,9.65-1.39,19.51-1.29,29.27,0,2.68.11,5.36.11,8.04.11,2.79,0,5.57.21,8.36.11,1.07,1.61.75,1.61-.21.11-4.82-.21-9.76-.21-14.58-.11-4.82,0-9.65.11-14.36.21-9.76.96-19.51,2.57-29.16.43-2.68.96-5.36,1.61-8.04.64-2.79,1.5-5.57,2.25-8.36,0-.11-.21-.21-.21-.11h0Z" fill="#95204d"/>
        </g>
        <g>
          <path d="m365.47,347.66c-2.79,3.22-9.33,2.89-13.61-2.79-4.4-5.68-6.97-27.23-.86-25.84,1.29-2.89,18.22,4.07,20.37,18.01,1.61,10.18-5.9,10.61-5.9,10.61h0Z" fill="#ba68c8"/>
          <path d="m365.47,347.66c-2.79,3.22-9.33,2.89-13.61-2.79-4.4-5.68-6.97-27.23-.86-25.84,1.29-2.89,18.22,4.07,20.37,18.01,1.61,10.18-5.9,10.61-5.9,10.61h0Z" fill="#b31a3e" isolation="isolate" opacity=".71"/>
        </g>
        <g>
          <path d="m370.51,357.85c-.21-1.29-.54-2.68-.86-3.97-.75-2.68-1.5-5.25-2.47-7.72-1.93-5.25-4.61-10.08-7.5-14.79-1.61-2.57-3.43-5.25-5.36-7.61,0-.11-.11.11-.11.11,1.5,2.14,3,4.4,4.4,6.65,1.39,2.36,2.68,4.82,3.86,7.4,2.25,4.82,4.07,9.86,5.57,15.01.43,1.5.75,2.89,1.18,4.4.43,1.5.96,3,1.39,4.5,0,.21.32.32.32,0-.21-1.39-.21-2.68-.43-3.97h0Z" fill="#ba68c8"/>
          <path d="m370.51,357.85c-.21-1.29-.54-2.68-.86-3.97-.75-2.68-1.5-5.25-2.47-7.72-1.93-5.25-4.61-10.08-7.5-14.79-1.61-2.57-3.43-5.25-5.36-7.61,0-.11-.11.11-.11.11,1.5,2.14,3,4.4,4.4,6.65,1.39,2.36,2.68,4.82,3.86,7.4,2.25,4.82,4.07,9.86,5.57,15.01.43,1.5.75,2.89,1.18,4.4.43,1.5.96,3,1.39,4.5,0,.21.32.32.32,0-.21-1.39-.21-2.68-.43-3.97h0Z" fill="#95204d"/>
        </g>
        <g>
          <path d="m375.87,344.45c-3.64-.86-3.86-5.25.75-10.72,4.61-5.47,16.29-7.83,16.83-5.57,2.57,0,2.57,8.15-3.11,15.54-5.79,7.5-14.15,5.79-14.47.75Z" fill="#ba68c8"/>
          <path d="m375.87,344.45c-3.64-.86-3.86-5.25.75-10.72,4.61-5.47,16.29-7.83,16.83-5.57,2.57,0,2.57,8.15-3.11,15.54-5.79,7.5-14.15,5.79-14.47.75Z" fill="#b31a3e" isolation="isolate" opacity=".71"/>
        </g>
        <g>
          <path d="m383.05,336.52c-2.47,1.72-4.61,3.75-6.43,6.11s-3.22,4.93-4.29,7.72c-.11.32.43.75.54.43,2.14-5.36,5.68-10.51,10.18-14.26.11.11.11,0,0,0h0Z" fill="#ba68c8"/>
          <path d="m383.05,336.52c-2.47,1.72-4.61,3.75-6.43,6.11s-3.22,4.93-4.29,7.72c-.11.32.43.75.54.43,2.14-5.36,5.68-10.51,10.18-14.26.11.11.11,0,0,0h0Z" fill="#95204d"/>
        </g>
        <g>
          <path d="m380.05,371.57c-5.15,2.04-2.89,8.15,2.04,12.86,5.04,4.61,12.11,5.9,15.65,5.57,3.54-.32,4.29-.75,4.29-.75,0,0,.54-5.25,0-8.47-.86-4.5-4.07-10.83-12.11-12.97-7.93-2.25-9.86.64-9.86,3.75h0Z" fill="#ba68c8"/>
          <path d="m380.05,371.57c-5.15,2.04-2.89,8.15,2.04,12.86,5.04,4.61,12.11,5.9,15.65,5.57,3.54-.32,4.29-.75,4.29-.75,0,0,.54-5.25,0-8.47-.86-4.5-4.07-10.83-12.11-12.97-7.93-2.25-9.86.64-9.86,3.75h0Z" fill="#b31a3e" isolation="isolate" opacity=".71"/>
        </g>
        <g>
          <path d="m394.31,380.57c-2.36-2.68-4.82-5.25-7.83-7.29-2.89-1.93-6.75-3.54-10.29-2.36-1.39.43-3.43,1.82-3.22,3.54,0,.21.32.54.54.32.64-.75,1.07-1.61,1.82-2.14.86-.64,1.72-.96,2.79-1.07,2.47-.32,5.04.54,7.18,1.61,3.32,1.93,6.11,4.72,9,7.4q0,.11,0,0h0Z" fill="#ba68c8"/>
          <path d="m394.31,380.57c-2.36-2.68-4.82-5.25-7.83-7.29-2.89-1.93-6.75-3.54-10.29-2.36-1.39.43-3.43,1.82-3.22,3.54,0,.21.32.54.54.32.64-.75,1.07-1.61,1.82-2.14.86-.64,1.72-.96,2.79-1.07,2.47-.32,5.04.54,7.18,1.61,3.32,1.93,6.11,4.72,9,7.4q0,.11,0,0h0Z" fill="#95204d"/>
        </g>
        <g>
          <path d="m360.54,345.31c.54-2.36-2.89-7.93-13.4-9s-18.33,3.43-19.94,5.47-2.36,4.18-.54,4.72c1.93.54,8.47,1.18,12.76,3.22,4.29,2.04,13.08,7.83,19.08,6.11,6-1.82,5.04-8.15,2.04-10.51h0Z" fill="#ba68c8"/>
          <path d="m360.54,345.31c.54-2.36-2.89-7.93-13.4-9s-18.33,3.43-19.94,5.47-2.36,4.18-.54,4.72c1.93.54,8.47,1.18,12.76,3.22,4.29,2.04,13.08,7.83,19.08,6.11,6-1.82,5.04-8.15,2.04-10.51h0Z" fill="#fff" isolation="isolate" opacity=".45"/>
        </g>
        <g>
          <path d="m368.58,353.45c-4.4-9.11-15.87-11.9-25.19-11.9-3.11,0-6.11.43-9.11,1.18v.11c5.04-.75,10.18-.96,15.22-.11,4.93.86,9.86,2.36,13.94,5.36,2.04,1.5,3.75,3.43,4.93,5.57.11.21.32,0,.21-.21h0Z" fill="#ba68c8"/>
          <path d="m368.58,353.45c-4.4-9.11-15.87-11.9-25.19-11.9-3.11,0-6.11.43-9.11,1.18v.11c5.04-.75,10.18-.96,15.22-.11,4.93.86,9.86,2.36,13.94,5.36,2.04,1.5,3.75,3.43,4.93,5.57.11.21.32,0,.21-.21h0Z" fill="#95204d"/>
        </g>
        <g>
          <path d="m384.98,333.08c-.11,3.64,5.04,5.79,10.08,2.68,5.04-3.22,10.29-6.32,14.9-7.5,4.61-1.18,6.86-4.93,5.36-6.86-1.5-1.82-3.75-6.43-15.97-4.93s-16.51,6.97-18.22,10.83c-1.61,3.97,2.04,6.86,3.86,5.79Z" fill="#ba68c8"/>
          <path d="m384.98,333.08c-.11,3.64,5.04,5.79,10.08,2.68,5.04-3.22,10.29-6.32,14.9-7.5,4.61-1.18,6.86-4.93,5.36-6.86-1.5-1.82-3.75-6.43-15.97-4.93s-16.51,6.97-18.22,10.83c-1.61,3.97,2.04,6.86,3.86,5.79Z" fill="#fff" isolation="isolate" opacity=".45"/>
        </g>
        <g>
          <path d="m404.92,321.4c-1.72-.21-3.54.11-5.25.54-1.5.43-3,.96-4.5,1.61-2.89,1.29-5.47,3.22-7.61,5.47-.64.64-1.18,1.29-1.72,2.04-.43.64-1.07,1.39-1.29,2.14-.11.21.21.64.43.43.64-.64,1.07-1.5,1.61-2.25.64-.75,1.29-1.5,1.93-2.25,1.39-1.39,3-2.68,4.72-3.75,1.61-.96,3.43-1.93,5.25-2.57.96-.32,2.04-.64,3-.96,1.07-.32,2.14-.54,3.32-.43.11.11.11,0,.11,0h0Z" fill="#ba68c8"/>
          <path d="m404.92,321.4c-1.72-.21-3.54.11-5.25.54-1.5.43-3,.96-4.5,1.61-2.89,1.29-5.47,3.22-7.61,5.47-.64.64-1.18,1.29-1.72,2.04-.43.64-1.07,1.39-1.29,2.14-.11.21.21.64.43.43.64-.64,1.07-1.5,1.61-2.25.64-.75,1.29-1.5,1.93-2.25,1.39-1.39,3-2.68,4.72-3.75,1.61-.96,3.43-1.93,5.25-2.57.96-.32,2.04-.64,3-.96,1.07-.32,2.14-.54,3.32-.43.11.11.11,0,.11,0h0Z" fill="#95204d"/>
        </g>
        <g>
          <path d="m376.3,352.92c-1.72-1.72-6.32-1.29-8.58,3.75-2.14,5.04,2.36,10.61,2.89,12.11,2.14-1.18,3.75-.54,7.5-1.18,3.75-.75,7.4-4.72,7.18-9.33-.21-4.61-2.14-7.72-9-5.36h0Z" fill="#ba68c8"/>
          <path d="m376.3,352.92c-1.72-1.72-6.32-1.29-8.58,3.75-2.14,5.04,2.36,10.61,2.89,12.11,2.14-1.18,3.75-.54,7.5-1.18,3.75-.75,7.4-4.72,7.18-9.33-.21-4.61-2.14-7.72-9-5.36h0Z" fill="#fff" isolation="isolate" opacity=".45"/>
        </g>
        <g>
          <path d="m376.19,352.38c-.86.43-1.72,1.5-2.25,2.36-.64.86-1.07,1.82-1.5,2.79-.75,2.04-1.07,4.29-.64,6.43,0,.11.11,0,.11,0-.11-2.14.21-4.4,1.07-6.32.43-.96.96-1.72,1.5-2.57.32-.43.64-.86,1.07-1.18.32-.32.75-.64.96-.96.21-.21,0-.64-.32-.54h0Z" fill="#ba68c8"/>
          <path d="m376.19,352.38c-.86.43-1.72,1.5-2.25,2.36-.64.86-1.07,1.82-1.5,2.79-.75,2.04-1.07,4.29-.64,6.43,0,.11.11,0,.11,0-.11-2.14.21-4.4,1.07-6.32.43-.96.96-1.72,1.5-2.57.32-.43.64-.86,1.07-1.18.32-.32.75-.64.96-.96.21-.21,0-.64-.32-.54h0Z" fill="#95204d"/>
        </g>
        <g>
          <path d="m368.26,363.1c-.21-3.75-4.29-6.75-9.97-8.47-5.79-1.72-12.01-.21-16.29,4.29s-6.43,8.47-4.72,9.65c1.72,1.07,9.43,3.86,14.36,5.47s11.58,2.04,16.62-.96c5.04-3,4.72-8.04,0-9.97h0Z" fill="#ba68c8"/>
          <path d="m368.26,363.1c-.21-3.75-4.29-6.75-9.97-8.47-5.79-1.72-12.01-.21-16.29,4.29s-6.43,8.47-4.72,9.65c1.72,1.07,9.43,3.86,14.36,5.47s11.58,2.04,16.62-.96c5.04-3,4.72-8.04,0-9.97h0Z" fill="#b31a3e" isolation="isolate" opacity=".71"/>
        </g>
        <g>
          <path d="m368.58,362.67c-1.82-1.07-4.18-1.5-6.32-1.72s-4.18-.21-6.32.11c-2.25.21-4.4.75-6.54,1.39-1.07.32-2.25.64-3.32,1.07s-2.04.75-3,1.29v.11c1.07-.21,2.14-.64,3.11-.96,1.07-.32,2.25-.64,3.43-.96,2.14-.54,4.29-.96,6.43-1.18s4.4-.21,6.54,0c2.04.21,3.97.86,5.9,1.5.43.11.32-.54.11-.64h0Z" fill="#ba68c8"/>
          <path d="m368.58,362.67c-1.82-1.07-4.18-1.5-6.32-1.72s-4.18-.21-6.32.11c-2.25.21-4.4.75-6.54,1.39-1.07.32-2.25.64-3.32,1.07s-2.04.75-3,1.29v.11c1.07-.21,2.14-.64,3.11-.96,1.07-.32,2.25-.64,3.43-.96,2.14-.54,4.29-.96,6.43-1.18s4.4-.21,6.54,0c2.04.21,3.97.86,5.9,1.5.43.11.32-.54.11-.64h0Z" fill="#95204d"/>
        </g>
        <g>
          <path d="m380.16,357.53c-4.18-3.32-2.79-11.15,11.68-11.58s24.87,3.32,24.44,8.04c2.36,2.36,1.18,8.9-10.61,10.93-11.79,2.04-28.41.96-25.51-7.4Z" fill="#ba68c8"/>
          <path d="m380.16,357.53c-4.18-3.32-2.79-11.15,11.68-11.58s24.87,3.32,24.44,8.04c2.36,2.36,1.18,8.9-10.61,10.93-11.79,2.04-28.41.96-25.51-7.4Z" fill="#b31a3e" isolation="isolate" opacity=".71"/>
        </g>
        <g>
          <path d="m409.53,353.99c-4.29-.75-8.68-.86-12.97-.75-3.97.11-8.15.32-12.01,1.39-.96.32-1.93.64-2.89,1.07-.43.21-.86.43-1.29.64-.32.21-.75.43-.86.75-.11.21.21.54.43.43.86-.21,1.72-.86,2.57-1.29.86-.32,1.72-.64,2.47-.96,1.61-.54,3.32-.75,5.04-.96,4.07-.54,8.15-.75,12.22-.64,2.36,0,4.72.21,7.18.43.11.11.21-.11.11-.11h0Z" fill="#ba68c8"/>
          <path d="m409.53,353.99c-4.29-.75-8.68-.86-12.97-.75-3.97.11-8.15.32-12.01,1.39-.96.32-1.93.64-2.89,1.07-.43.21-.86.43-1.29.64-.32.21-.75.43-.86.75-.11.21.21.54.43.43.86-.21,1.72-.86,2.57-1.29.86-.32,1.72-.64,2.47-.96,1.61-.54,3.32-.75,5.04-.96,4.07-.54,8.15-.75,12.22-.64,2.36,0,4.72.21,7.18.43.11.11.21-.11.11-.11h0Z" fill="#95204d"/>
        </g>
      </g>
    </g>
  </g>
</svg>