<?xml version="1.0" encoding="utf-8"?>
<!-- Generator: Adobe Illustrator 27.6.1, SVG Export Plug-In . SVG Version: 6.00 Build 0)  -->
<svg version="1.1" id="Layer_1" xmlns="http://www.w3.org/2000/svg" xmlns:xlink="http://www.w3.org/1999/xlink" x="0px" y="0px"
	 viewBox="0 0 491.5 468.1" style="enable-background:new 0 0 491.5 468.1;" xml:space="preserve">
<style type="text/css">
	.st0{fill:#FAFAFA;}
	.st1{fill:#FFFFFF;}
	.st2{fill:#F0F0F0;}
	.st3{fill:#E0E0E0;}
	.st4{fill:#F5F5F5;}
	.st5{fill:#455A64;}
	.st6{fill:#263238;}
	.st7{fill:#37474F;}
	.st8{opacity:0.3;enable-background:new    ;}
	.st9{fill:#BA68C8;}
	.st10{fill:#95204D;}
	.st11{fill:#EBEBEB;}
	.st12{fill:#E6E6E6;}
	.st13{opacity:0.8;}
	.st14{fill:#FFF9AF;}
	.st15{opacity:0.65;}
	.st16{fill:#FFDBE1;}
	.st17{opacity:0.61;}
	.st18{opacity:0.45;fill:#FFFFFF;enable-background:new    ;}
	.st19{opacity:0.71;fill:#B31A3E;enable-background:new    ;}
	.st20{fill:#FFA8A7;}
	.st21{opacity:0.6;}
	.st22{fill:#B31A3E;}
	.st23{opacity:0.25;fill:#FFFFFF;enable-background:new    ;}
	.st24{opacity:0.1;enable-background:new    ;}
	.st25{opacity:0.3;}
	.st26{fill:none;}
	.st27{fill:#F28F8F;}
	.st28{opacity:0.82;}
	.st29{opacity:0.4;enable-background:new    ;}
	.st30{fill:#B16668;}
	.st31{fill:#FFBDA7;}
	.st32{fill:#F0997A;}
	.st33{opacity:0.15;enable-background:new    ;}
	.st34{opacity:0.1;fill:#95204D;enable-background:new    ;}
	.st35{opacity:0.7;fill:#FFFFFF;enable-background:new    ;}
</style>
<g id="Floor">
	<path id="Floor-2" class="st0" d="M72,245.4c-96,50.9-96,133.6,0,184.5c96,51,251.6,51,347.6,0c96-51,96-133.6,0-184.5
		C323.6,194.5,168,194.5,72,245.4z"/>
</g>
<g id="Pictures">
	<g id="Picture">
		<g id="Frame">
			<polygon class="st0" points="37.3,161.3 38.8,162.2 70,144.2 68.5,143.3 			"/>
			<polygon class="st1" points="68.5,143.3 38.8,160.5 38.8,129.4 68.5,112.3 			"/>
			<path class="st2" d="M72.9,106.4L36,127.8v39.4l36.9-21.3V106.4z M70,144.2l-31.2,18v-32.8l31.2-18V144.2z"/>
			<polygon class="st3" points="70,144.2 68.5,143.3 68.5,112.3 70,111.4 			"/>
			<polygon class="st0" points="72.9,106.4 71.3,105.6 34.4,126.9 36,127.8 			"/>
			<polygon class="st3" points="34.4,126.9 36,127.8 36,167.2 34.4,166.3 			"/>
		</g>
		<g id="Land">
			<polygon class="st2" points="67.3,142.4 40,158.2 40,150.3 46.8,134.5 51.1,138.5 49.5,145.1 59,124.9 67.3,134.5 			"/>
			<path class="st2" d="M50.8,126.9c-1.1,0.6-2,2.2-2,3.5s0.9,1.8,2,1.2c1.1-0.6,2-2.2,2-3.5S51.9,126.3,50.8,126.9z"/>
		</g>
	</g>
	<g id="Picture-2">
		<g id="Frame-2">
			<polygon class="st0" points="37.3,217.4 38.8,218.4 70,200.4 68.5,199.4 			"/>
			<polygon class="st1" points="68.5,199.4 38.8,216.6 38.8,185.5 68.5,168.4 			"/>
			<path class="st2" d="M72.9,162.6L36,183.9v39.4L72.9,202V162.6z M70,200.4l-31.2,18v-32.8l31.2-18V200.4z"/>
			<polygon class="st3" points="70,200.4 68.5,199.4 68.5,168.4 70,167.5 			"/>
			<polygon class="st0" points="72.9,162.6 71.3,161.7 34.4,183 36,183.9 			"/>
			<polygon class="st3" points="34.4,183 36,183.9 36,223.3 34.4,222.4 			"/>
		</g>
		<g id="Land-2">
			<polygon class="st2" points="67.3,198.5 40,214.3 40,206.4 46.8,190.6 51.1,194.6 49.5,201.2 59,181 67.3,190.6 			"/>
			<path class="st2" d="M50.8,183c-1.1,0.6-2,2.2-2,3.5s0.9,1.8,2,1.2c1.1-0.6,2-2.2,2-3.5S51.9,182.4,50.8,183z"/>
		</g>
	</g>
	<g id="Picture-3">
		<g id="Frame-3">
			<polygon class="st0" points="84.6,189.8 86.2,190.7 119.7,171.4 118.1,170.4 			"/>
			<polygon class="st1" points="118.1,170.4 86.2,188.8 86.2,102.5 118.1,84.1 			"/>
			<path class="st2" d="M122.8,77.8l-39.7,22.9v95.4l39.7-22.9V77.8L122.8,77.8L122.8,77.8z M119.7,171.4l-33.5,19.4v-88.3
				l33.5-19.3V171.4L119.7,171.4L119.7,171.4z"/>
			<polygon class="st3" points="119.7,171.4 118.1,170.4 118.1,84.1 119.7,83.1 			"/>
			<polygon class="st0" points="122.8,77.8 121.2,76.8 81.5,99.8 83.1,100.7 			"/>
			<polygon class="st3" points="81.5,99.8 83.1,100.7 83.1,196.1 81.5,195.1 			"/>
		</g>
		<g id="Land-3">
			<polygon class="st2" points="115.7,168.5 88.6,184.1 88.6,105.4 115.7,89.7 			"/>
		</g>
		<g id="Land-4">
			<polygon class="st2" points="115.7,168.5 88.6,184.1 88.6,105.4 115.7,89.7 			"/>
		</g>
		<path class="st0" d="M88.6,157.9c1.3,0.1,2.6,0.1,3.9,0c4.5-0.3,9-1.3,13.2-2.9c3.3-1.2,6.6-2.8,10-2.9v16.4l-3.7,2.1
			c-1.5-1.3-3.2-2.3-5-2.8c-5.2-1.4-10.6,1.2-15.9,1.9c-0.8,0.1-1.6,0.1-2.5,0.1V157.9z"/>
		<path class="st0" d="M88.6,138.2c6.1-1.8,12.3-3.3,16.6-7.7c3.5-3.6,5.1-8.6,6.3-13.4c1.2-4.9,1.9-9.9,4.1-14.4
			c0,0,0.1-0.1,0.1-0.1v36.2c-0.3,0.5-0.7,1-1,1.5c-4,5.4-9.8,9.9-16.5,10.2c-3.2,0.2-6.4-0.6-9.5-0.6L88.6,138.2L88.6,138.2z"/>
		<path class="st0" d="M88.6,120.2c4.7-4.1,7.1-10.7,6-16.8c-0.1-0.4-0.2-0.9-0.3-1.3l10.4-6c0,0.7-0.1,1.4-0.1,2.1
			c-0.1,4,0,8-0.8,11.9c-1.5,6.5-5.9,12.3-11.9,15.3c-1.1,0.6-2.2,1-3.3,1.4L88.6,120.2L88.6,120.2L88.6,120.2z"/>
	</g>
</g>
<g id="Windows">
	<g id="Window">
		<g id="Window-2">
			<g id="Frame-4">
				<polygon class="st0" points="384.7,165.5 382.9,166.6 323.9,132.6 325.7,131.5 				"/>
				<polygon class="st1" points="325.7,131.5 382.9,164.5 382.9,45.1 325.7,12.1 				"/>
				<path class="st4" d="M320.6,134.5l65.7,37.9V43.2L320.6,5.2V134.5z M323.9,11.1l59,34v121.5l-59-34.1V11.1z"/>
				<polygon class="st3" points="323.9,132.6 325.7,131.5 325.7,12.1 323.9,11.1 				"/>
				<polygon class="st0" points="382.9,122.7 382.9,124.8 323.9,90.8 325.7,89.7 				"/>
				<polygon class="st0" points="382.9,80.9 382.9,83 323.9,49 325.7,47.9 				"/>
				<polygon class="st0" points="320.6,5.2 322.4,4.2 388.1,42.1 386.3,43.2 				"/>
				<polygon class="st3" points="388.1,42.1 386.3,43.2 386.3,172.4 388.1,171.4 				"/>
				<polygon class="st3" points="356.9,30.1 355.1,29 355.1,150.6 356.9,149.5 				"/>
			</g>
			<polygon class="st4" points="351.7,27.1 355.1,29 355.1,150.6 351.7,148.6 			"/>
			<g>
				<polygon class="st4" points="320.6,47 320.6,50.9 386.3,88.8 386.3,84.9 				"/>
				<polygon class="st4" points="320.6,88.8 320.6,92.7 386.3,130.6 386.3,126.8 				"/>
			</g>
			<polygon class="st0" points="355.1,67 356.9,65.9 382.9,80.9 382.9,83 			"/>
			<polygon class="st0" points="355.1,108.7 356.9,107.7 382.9,122.7 382.9,124.8 			"/>
		</g>
	</g>
	<g id="Window-3">
		<g id="Window-4">
			<g id="Frame-5">
				<polygon class="st0" points="467.1,213.1 465.4,214.2 406.4,180.1 408.2,179.1 				"/>
				<polygon class="st1" points="408.2,179.1 465.4,212.1 465.4,92.7 408.2,59.7 				"/>
				<path class="st4" d="M403,182.1l65.7,37.9V90.8L403,52.8L403,182.1L403,182.1L403,182.1z M406.4,58.7l59,34.1v121.5l-59-34.1
					V58.7L406.4,58.7L406.4,58.7z"/>
				<polygon class="st3" points="406.4,180.1 408.2,179.1 408.2,59.7 406.4,58.7 				"/>
				<polygon class="st0" points="465.4,170.3 465.4,172.4 406.4,138.4 408.2,137.3 				"/>
				<polygon class="st0" points="465.4,128.5 465.4,130.6 406.4,96.6 408.2,95.5 				"/>
				<polygon class="st0" points="403,52.8 404.8,51.8 470.5,89.7 468.7,90.8 				"/>
				<polygon class="st3" points="470.5,89.7 468.7,90.8 468.7,220 470.5,219 				"/>
				<polygon class="st3" points="439.4,77.7 437.6,76.7 437.6,198.2 439.4,197.1 				"/>
			</g>
			<polygon class="st4" points="434.2,74.7 437.6,76.7 437.6,198.2 434.2,196.2 			"/>
			<g>
				<polygon class="st4" points="403,94.6 403,98.5 468.7,136.4 468.7,132.6 				"/>
				<polygon class="st4" points="403,136.4 403,140.3 468.7,178.2 468.7,174.4 				"/>
			</g>
			<polygon class="st0" points="437.6,114.6 439.4,113.5 465.4,128.5 465.4,130.6 			"/>
			<polygon class="st0" points="437.6,156.4 439.4,155.3 465.4,170.3 465.4,172.4 			"/>
		</g>
	</g>
</g>
<g id="Stage">
	<g id="Stage-2">
		<g>
			<polygon class="st5" points="34.5,312.7 119.8,361.9 367.5,218.9 282.2,169.6 			"/>
			<polygon class="st6" points="34.5,312.7 119.8,361.9 119.8,388.5 34.5,339.3 			"/>
			<polygon class="st7" points="367.5,218.9 367.5,245.5 119.8,388.5 119.8,361.9 			"/>
		</g>
		<g>
			<polygon class="st5" points="26.3,299.4 119.8,353.3 375.6,205.6 282.2,151.6 			"/>
			<polygon class="st6" points="26.3,299.4 119.8,353.3 119.8,361.9 26.3,308 			"/>
			<polygon class="st7" points="375.6,205.6 375.6,214.2 119.8,361.9 119.8,353.3 			"/>
		</g>
		<g>
			<polygon class="st8" points="34.5,319.5 119.8,368.8 119.8,361.9 34.5,312.7 			"/>
			<polygon class="st8" points="119.8,368.8 119.8,368.8 367.5,225.7 367.5,218.9 119.8,361.9 			"/>
		</g>
	</g>
</g>
<g id="Board">
	<g id="Board-2">
		<g id="Board-3">
			<path class="st3" d="M274.2,2.5L275,3v114.5c0,2.6-1.6,5.7-3.5,6.8l-108.9,62.9c-0.8,0.5-1.6,0.5-2.2,0.2
				c-0.2-0.1-0.8-0.4-0.9-0.5c-0.8-0.4-1.2-1.4-1.2-2.9V69.5L274.2,2.5z"/>
			<g>
				<path class="st0" d="M161.1,187.1c-1,0-1.7-1-1.7-2.7V70.2L274.5,3.8v113.7c0,2.5-1.5,5.3-3.3,6.4l-108.9,62.9
					C161.9,187,161.5,187.1,161.1,187.1L161.1,187.1L161.1,187.1z"/>
				<path class="st3" d="M274.1,4.6v113c0,2.3-1.4,5-3.1,6l-108.9,62.9c-0.4,0.2-0.7,0.3-1,0.3c-0.9,0-1.2-1.2-1.2-2.2v-114
					L274.1,4.6 M275,3L159,70v114.5c0,1.9,0.9,3.1,2.1,3.1c0.4,0,0.9-0.1,1.4-0.4l108.9-62.9c2-1.1,3.5-4.2,3.5-6.8L275,3
					C275,3,275,3,275,3z"/>
			</g>
		</g>
		<g id="Chart">
			<polygon class="st3" points="172.8,169.6 257.3,120.9 257.3,24.7 172.8,73.5 			"/>
			<g>
				<g>
					<path class="st9" d="M176.3,168.6l-0.4-0.2c-0.6-0.4-1.1-1.2-1.1-1.9V75.9c0-0.7,0.5-1.6,1.1-1.9l81.4-47.1
						c0.6-0.4,1.6-0.4,2.2,0l0.4,0.2c0.6,0.4,1.1,1.2,1.1,2v90.4c0,0.7-0.5,1.6-1.1,1.9l-81.4,47.1
						C177.9,168.9,176.9,168.9,176.3,168.6L176.3,168.6L176.3,168.6z"/>
					<path class="st10" d="M176.3,168.6l-0.4-0.2c-0.6-0.4-1.1-1.2-1.1-1.9V75.9c0-0.7,0.5-1.6,1.1-1.9l81.4-47.1
						c0.6-0.4,1.6-0.4,2.2,0l0.4,0.2c0.6,0.4,1.1,1.2,1.1,2v90.4c0,0.7-0.5,1.6-1.1,1.9l-81.4,47.1
						C177.9,168.9,176.9,168.9,176.3,168.6L176.3,168.6L176.3,168.6z"/>
					<path class="st10" d="M174.8,75.9v90.4c0,0.7,0.5,1.6,1.1,1.9l0.4,0.2c0.5,0.3,1.4,0.4,2,0.1c-0.5,0.1-0.9-0.1-0.9-0.8V77.4
						c0-0.3,0.1-0.8,0.3-1.1l-2.6-1.5C174.9,75.2,174.8,75.6,174.8,75.9L174.8,75.9L174.8,75.9z"/>
					<g>
						<path class="st0" d="M178,168.4c-0.3,0-0.4-0.4-0.4-0.5V77.5c0-0.6,0.4-1.4,1-1.7l81.4-47.1c0.1-0.1,0.3-0.1,0.4-0.1
							c0.3,0,0.4,0.4,0.4,0.5v90.4c0,0.6-0.5,1.4-1,1.7l-81.4,47.1C178.3,168.4,178.1,168.4,178,168.4z"/>
						<path class="st9" d="M260.5,28.8L260.5,28.8c0,0,0.1,0.1,0.1,0.3v90.4c0,0.5-0.4,1.2-0.9,1.5l-81.4,47.1
							c-0.1,0.1-0.2,0.1-0.2,0.1l0,0c0,0-0.1-0.1-0.1-0.3V77.5c0-0.5,0.4-1.2,0.9-1.5l81.4-47.1C260.4,28.8,260.5,28.8,260.5,28.8
							 M260.5,28.3c-0.1,0-0.3,0-0.5,0.1l-81.4,47.1c-0.6,0.4-1.1,1.2-1.1,1.9v90.4c0,0.5,0.2,0.8,0.6,0.8c0.1,0,0.3-0.1,0.5-0.1
							l81.4-47.1c0.6-0.4,1.1-1.2,1.1-1.9V29.1C261.1,28.6,260.9,28.3,260.5,28.3L260.5,28.3L260.5,28.3z"/>
					</g>
				</g>
				<g>
					<path class="st9" d="M251.2,41.3c-1.1,0.6-1.9,2.1-1.9,3.3s0.9,1.7,1.9,1.1s1.9-2.1,1.9-3.3S252.3,40.7,251.2,41.3z"/>
					<path class="st11" d="M247.9,45c0,0.8-0.6,1.9-1.4,2.3l-13.1,7.6c-0.8,0.5-1.4,0.1-1.4-0.7s0.6-1.9,1.4-2.3l13.1-7.6
						C247.2,43.9,247.9,44.2,247.9,45z"/>
					<path class="st9" d="M251.2,50.5c-1.1,0.6-1.9,2.1-1.9,3.3s0.9,1.7,1.9,1.1s1.9-2.1,1.9-3.3S252.3,49.9,251.2,50.5z"/>
					<path class="st8" d="M251.2,50.5c-1.1,0.6-1.9,2.1-1.9,3.3s0.9,1.7,1.9,1.1s1.9-2.1,1.9-3.3S252.3,49.9,251.2,50.5z"/>
					<path class="st11" d="M247.9,54.2c0,0.8-0.6,1.9-1.4,2.3l-13.1,7.6c-0.8,0.4-1.4,0.1-1.4-0.7s0.6-1.9,1.4-2.3l13.1-7.6
						C247.2,53.1,247.9,53.4,247.9,54.2z"/>
				</g>
				<g id="Chart-2">
					<g>
						<path class="st10" d="M219.9,97.2V70.7c7-4,13.4,0,15.7,9.4c2.8,11.6-1.8,29.7-10.3,39.2L219.9,97.2L219.9,97.2L219.9,97.2z"
							/>
						<path class="st12" d="M219,123.4c-1.4,0.8-2.8,1.3-4.3,1.6l4.3-22.8l4.3,17.8C221.8,121.4,220.4,122.6,219,123.4z"/>
						<path class="st9" d="M219,123.4c-1.4,0.8-2.8,1.3-4.3,1.6l4.3-22.8l4.3,17.8C221.8,121.4,220.4,122.6,219,123.4z"/>
						<g class="st13">
							<path class="st14" d="M219,123.4c-1.4,0.8-2.8,1.3-4.3,1.6l4.3-22.8l4.3,17.8C221.8,121.4,220.4,122.6,219,123.4z"/>
						</g>
						<path class="st12" d="M212.8,126.5c-4.6,0.2-8.4-3.5-10.1-9.7l14.9-16.1L212.8,126.5L212.8,126.5L212.8,126.5z"/>
						<path class="st9" d="M212.8,126.5c-4.6,0.2-8.4-3.5-10.1-9.7l14.9-16.1L212.8,126.5L212.8,126.5L212.8,126.5z"/>
						<g class="st15">
							<path class="st16" d="M212.8,126.5c-4.6,0.2-8.4-3.5-10.1-9.7l14.9-16.1L212.8,126.5L212.8,126.5L212.8,126.5z"/>
						</g>
						<path class="st12" d="M203,113.7c-0.4-2-0.6-3.9-0.6-6.3c0-13.6,6.9-28.7,15.7-34.4v24.4L203,113.7L203,113.7L203,113.7z"/>
						<path class="st9" d="M203,113.7c-0.4-2-0.6-3.9-0.6-6.3c0-13.6,6.9-28.7,15.7-34.4v24.4L203,113.7L203,113.7L203,113.7z"/>
						<g class="st17">
							<path class="st10" d="M203,113.7c-0.4-2-0.6-3.9-0.6-6.3c0-13.6,6.9-28.7,15.7-34.4v24.4L203,113.7L203,113.7L203,113.7z"/>
						</g>
					</g>
					<path class="st5" d="M231,82.3c0,0,0-0.1,0-0.3c0.1-0.2,0.2-0.4,0.3-0.5l1-0.6c0.1-0.1,0.1,0.1,0.1,0.3
						c-0.1,0.2-0.2,0.4-0.3,0.5L231,82.3C231.1,82.3,231,82.3,231,82.3z M233,81.1c0,0,0-0.1,0-0.3c0.1-0.2,0.2-0.4,0.3-0.5l1-0.6
						c0.1-0.1,0.1,0.1,0.1,0.3c-0.1,0.2-0.2,0.4-0.3,0.5L233,81.1C233.1,81.1,233,81.1,233,81.1z M235.1,79.9c0,0,0-0.1,0-0.3
						c0.1-0.2,0.2-0.4,0.3-0.5l1-0.6c0.1-0.1,0.1,0.1,0.1,0.3c-0.1,0.2-0.2,0.4-0.3,0.5L235.1,79.9
						C235.1,79.9,235.1,79.9,235.1,79.9z M237.1,78.8c0,0,0-0.1,0-0.3c0.1-0.2,0.2-0.4,0.3-0.5l1-0.6c0.1-0.1,0.1,0.1,0.1,0.3
						c-0.1,0.2-0.2,0.4-0.3,0.5L237.1,78.8C237.2,78.8,237.1,78.8,237.1,78.8z M239.1,77.6c0,0,0-0.1,0-0.3c0.1-0.2,0.2-0.4,0.3-0.5
						l1-0.6c0.1-0.1,0.1,0.1,0.1,0.3c-0.1,0.2-0.2,0.4-0.3,0.5L239.1,77.6C239.2,77.6,239.1,77.6,239.1,77.6z M241.2,76.4
						c0,0,0-0.1,0-0.3c0.1-0.2,0.2-0.4,0.3-0.5l0.8-0.4c0.1-0.1,0.1,0.1,0.1,0.3c-0.1,0.2-0.2,0.4-0.3,0.5L241.2,76.4
						C241.2,76.4,241.2,76.4,241.2,76.4L241.2,76.4L241.2,76.4z"/>
					<path class="st5" d="M197.4,101.3c0,0,0-0.1,0-0.3c0.1-0.2,0.2-0.4,0.3-0.5l1-0.6c0.1-0.1,0.1,0.1,0.1,0.3
						c-0.1,0.2-0.2,0.4-0.3,0.5L197.4,101.3C197.5,101.3,197.5,101.3,197.4,101.3z M199.5,100.1c0,0,0-0.1,0-0.3
						c0.1-0.2,0.2-0.4,0.3-0.5l1-0.6c0.1-0.1,0.1,0.1,0.1,0.3c-0.1,0.2-0.2,0.4-0.3,0.5L199.5,100.1
						C199.6,100.1,199.5,100.1,199.5,100.1z M201.5,98.9c0,0,0-0.1,0-0.3c0.1-0.2,0.2-0.4,0.3-0.5l1-0.6c0.1-0.1,0.1,0.1,0.1,0.3
						c-0.1,0.2-0.2,0.4-0.3,0.5L201.5,98.9C201.6,98.9,201.5,98.9,201.5,98.9z M203.5,97.7c0,0,0-0.1,0-0.3c0.1-0.2,0.2-0.4,0.3-0.5
						l1-0.6c0.1-0.1,0.1,0.1,0.1,0.3c-0.1,0.2-0.2,0.4-0.3,0.5L203.5,97.7C203.6,97.7,203.6,97.8,203.5,97.7z M205.6,96.6
						c0,0,0-0.1,0-0.3c0.1-0.2,0.2-0.4,0.3-0.5l1-0.6c0.1-0.1,0.1,0.1,0.1,0.3c-0.1,0.2-0.2,0.4-0.3,0.5L205.6,96.6
						C205.6,96.6,205.6,96.6,205.6,96.6z M207.6,95.4c0,0,0-0.1,0-0.3c0.1-0.2,0.2-0.4,0.3-0.5l0.7-0.4c0.1-0.1,0.1,0.1,0.1,0.3
						c-0.1,0.2-0.2,0.4-0.3,0.5L207.6,95.4C207.7,95.4,207.6,95.4,207.6,95.4z"/>
					<path class="st5" d="M229.4,82.9c0-0.5,0.3-1.1,0.6-1.3c0.4-0.2,0.6,0.1,0.6,0.6s-0.3,1.1-0.6,1.3
						C229.7,83.7,229.4,83.5,229.4,82.9z"/>
					<path class="st5" d="M208.1,94.8c0-0.5,0.3-1.1,0.6-1.3c0.4-0.2,0.6,0.1,0.6,0.6s-0.3,1.1-0.6,1.3
						C208.4,95.6,208.1,95.4,208.1,94.8z"/>
					<path class="st5" d="M218.4,121.1c0-0.5,0.3-1.1,0.6-1.3c0.4-0.2,0.6,0.1,0.6,0.6s-0.3,1.1-0.6,1.3
						C218.6,121.9,218.4,121.7,218.4,121.1z"/>
					<path class="st5" d="M198.6,135.4c0,0,0-0.1,0-0.3c0.1-0.2,0.2-0.4,0.3-0.5l1-0.6c0.1-0.1,0.1,0.1,0.1,0.3
						c-0.1,0.2-0.2,0.4-0.3,0.5L198.6,135.4C198.6,135.4,198.6,135.5,198.6,135.4z M200.6,134.3c0,0,0-0.1,0-0.3
						c0.1-0.2,0.2-0.4,0.3-0.5l1-0.6c0.1-0.1,0.1,0.1,0.1,0.3c-0.1,0.2-0.2,0.4-0.3,0.5L200.6,134.3
						C200.7,134.3,200.6,134.3,200.6,134.3z M202.6,133.1c0,0,0-0.1,0-0.3c0.1-0.2,0.2-0.4,0.3-0.5l1-0.6c0.1-0.1,0.1,0.1,0.1,0.3
						c-0.1,0.2-0.2,0.4-0.3,0.5L202.6,133.1C202.7,133.1,202.6,133.1,202.6,133.1z M204.7,131.9c0,0,0-0.1,0-0.3
						c0.1-0.2,0.2-0.4,0.3-0.5l1-0.6c0.1-0.1,0.1,0.1,0.1,0.3c-0.1,0.2-0.2,0.4-0.3,0.5L204.7,131.9
						C204.7,131.9,204.7,131.9,204.7,131.9z M206.7,130.7c0,0,0-0.1,0-0.3c0.1-0.2,0.2-0.4,0.3-0.5l1-0.6c0.1-0.1,0.1,0.1,0.1,0.3
						c-0.1,0.2-0.2,0.4-0.3,0.5L206.7,130.7C206.8,130.7,206.7,130.8,206.7,130.7z M208.1,129c0,0,0-0.1,0-0.1v-1.6
						c0-0.1,0.1-0.4,0.2-0.5c0.1-0.2,0.2-0.2,0.2,0v1.6c0,0.1-0.1,0.4-0.2,0.5C208.2,129,208.2,129,208.1,129L208.1,129L208.1,129z
						 M208.1,125.9C208.1,125.9,208.1,125.8,208.1,125.9l0-1.7c0-0.1,0.1-0.4,0.2-0.5c0.1-0.2,0.2-0.2,0.2,0v1.6
						c0,0.1-0.1,0.4-0.2,0.5C208.2,125.9,208.2,125.9,208.1,125.9z M208.1,122.7C208.1,122.7,208.1,122.7,208.1,122.7l0-1.6
						c0-0.1,0.1-0.4,0.2-0.5c0.1-0.2,0.2-0.2,0.2,0v1.5c0,0.1-0.1,0.4-0.2,0.5C208.2,122.7,208.2,122.8,208.1,122.7z"/>
					<path class="st5" d="M207.7,120.2c0-0.5,0.3-1.1,0.6-1.3c0.4-0.2,0.6,0.1,0.6,0.6s-0.3,1.1-0.6,1.3
						C208,121,207.7,120.8,207.7,120.2z"/>
					<g>
						<path class="st5" d="M218.8,129.3c0,0,0-0.1,0-0.1v-0.9c0-0.1,0.1-0.4,0.2-0.5c0.1-0.2,0.2-0.2,0.2,0v0.8l0.3-0.2
							c0.1-0.1,0.1,0.1,0.1,0.3c-0.1,0.2-0.2,0.4-0.3,0.5L218.8,129.3C218.9,129.3,218.8,129.3,218.8,129.3L218.8,129.3L218.8,129.3
							z M220.2,128.5c0,0,0-0.1,0-0.3c0.1-0.2,0.2-0.4,0.3-0.5l1-0.6c0.1-0.1,0.1,0.1,0.1,0.3c-0.1,0.2-0.2,0.4-0.3,0.5L220.2,128.5
							C220.3,128.5,220.3,128.5,220.2,128.5L220.2,128.5L220.2,128.5z M218.8,126.8C218.8,126.8,218.8,126.7,218.8,126.8l0-1.7
							c0-0.1,0.1-0.4,0.2-0.5c0.1-0.2,0.2-0.2,0.2,0v1.6c0,0.1-0.1,0.4-0.2,0.5C218.9,126.8,218.9,126.8,218.8,126.8z M222.3,127.3
							c0,0,0-0.1,0-0.3c0.1-0.2,0.2-0.4,0.3-0.5l1-0.6c0.1-0.1,0.1,0.1,0.1,0.3c-0.1,0.2-0.2,0.4-0.3,0.5L222.3,127.3
							C222.4,127.3,222.3,127.3,222.3,127.3z M218.8,123.6C218.8,123.6,218.8,123.6,218.8,123.6l0-1.7c0-0.1,0.1-0.4,0.2-0.5
							c0.1-0.2,0.2-0.2,0.2,0v1.6c0,0.1-0.1,0.4-0.2,0.5C218.9,123.6,218.9,123.7,218.8,123.6z M224.3,126.1c0,0,0-0.1,0-0.3
							c0.1-0.2,0.2-0.4,0.3-0.5l1-0.6c0.1-0.1,0.1,0.1,0.1,0.3c-0.1,0.2-0.2,0.4-0.3,0.5L224.3,126.1
							C224.4,126.1,224.3,126.1,224.3,126.1z M226.4,124.9c0,0,0-0.1,0-0.3c0.1-0.2,0.2-0.4,0.3-0.5l1-0.6c0.1-0.1,0.1,0.1,0.1,0.3
							c-0.1,0.2-0.2,0.4-0.3,0.5L226.4,124.9C226.4,124.9,226.4,124.9,226.4,124.9z M228.4,123.7c0,0,0-0.1,0-0.3
							c0.1-0.2,0.2-0.4,0.3-0.5l1-0.6c0.1-0.1,0.1,0.1,0.1,0.3c-0.1,0.2-0.2,0.4-0.3,0.5L228.4,123.7
							C228.5,123.7,228.4,123.8,228.4,123.7z"/>
						<path class="st5" d="M230.4,122.6c0,0,0-0.1,0-0.3c0.1-0.2,0.2-0.4,0.3-0.5l1-0.6c0.1-0.1,0.1,0.1,0.1,0.3
							c-0.1,0.2-0.2,0.4-0.3,0.5L230.4,122.6C230.5,122.6,230.4,122.6,230.4,122.6z"/>
						<path class="st5" d="M232.5,121.4c0,0,0-0.1,0-0.3c0.1-0.2,0.2-0.4,0.3-0.5l1-0.6c0.1-0.1,0.1,0.1,0.1,0.3
							c-0.1,0.2-0.2,0.4-0.3,0.5L232.5,121.4C232.5,121.4,232.5,121.4,232.5,121.4z"/>
						<path class="st5" d="M234.5,120.2c0,0,0-0.1,0-0.3c0.1-0.2,0.2-0.4,0.3-0.5l1-0.6c0.1-0.1,0.1,0.1,0.1,0.3
							c-0.1,0.2-0.2,0.4-0.3,0.5L234.5,120.2C234.6,120.2,234.5,120.2,234.5,120.2z"/>
						<path class="st5" d="M236.5,119.1c0,0,0-0.1,0-0.3c0.1-0.2,0.2-0.4,0.3-0.5l1-0.6c0.1-0.1,0.1,0.1,0.1,0.3
							c-0.1,0.2-0.2,0.4-0.3,0.5L236.5,119.1C236.6,119.1,236.5,119.1,236.5,119.1z"/>
					</g>
					<path class="st3" d="M183.5,114l11.7-6.8c0.4-0.3,0.8-0.9,0.8-1.5s-0.4-0.8-0.8-0.6l-11.8,6.7c-0.4,0.3-0.8,1-0.8,1.6
						S183,114.2,183.5,114L183.5,114L183.5,114z"/>
					<path class="st3" d="M184.3,148.1l11.7-6.9c0.4-0.3,0.8-0.9,0.8-1.5s-0.4-0.8-0.8-0.6l-11.8,6.7c-0.4,0.3-0.8,1-0.8,1.6
						S183.8,148.3,184.3,148.1L184.3,148.1L184.3,148.1z"/>
					<path class="st3" d="M239.5,122.7l11.7-6.8c0.4-0.3,0.8-0.9,0.8-1.5s-0.4-0.8-0.8-0.6l-11.8,6.7c-0.4,0.3-0.8,1-0.8,1.6
						S239,123,239.5,122.7L239.5,122.7L239.5,122.7z"/>
					<path class="st3" d="M243,82.5l11.7-6.8c0.4-0.3,0.8-0.9,0.8-1.5s-0.4-0.8-0.8-0.6l-11.8,6.7c-0.4,0.3-0.8,1-0.8,1.6
						S242.6,82.7,243,82.5L243,82.5L243,82.5z"/>
				</g>
			</g>
		</g>
		<g id="Tube">
			<path class="st5" d="M158.4,73.4l-2.7-4.7L274.4,0.2l0,0c0.4-0.2,0.8-0.2,1.4,0.1c1.1,0.6,1.9,2.1,1.9,3.3c0,0.6-0.2,1-0.5,1.2
				l0,0l0,0l0,0L158.4,73.4L158.4,73.4L158.4,73.4z"/>
			<path class="st6" d="M159,72.1c0-1.2-0.9-2.7-1.9-3.3s-1.9-0.1-1.9,1.1s0.9,2.7,1.9,3.3S159,73.4,159,72.1z"/>
		</g>
	</g>
</g>
<g id="Shadows">
	<path id="Shadow" class="st3" d="M81.5,401c8.7,5.1,8.7,13.4,0,18.4s-22.9,5.1-31.6,0c-8.7-5.1-8.7-13.4,0-18.4
		S72.8,395.9,81.5,401z"/>
	<path id="Shadow-2" class="st3" d="M348.3,413.6l-51.8-29.9c-3.2-1.9-3.2-5,0.1-6.9l32.1-18.5c3.3-1.9,8.7-1.9,12,0l51.8,29.8
		c3.3,1.9,3.3,5,0,6.9l-32.1,18.7C357.1,415.6,351.7,415.6,348.3,413.6L348.3,413.6L348.3,413.6z"/>
	<path id="Shadow-3" class="st3" d="M281.8,452l-52-29.9c-3.2-1.9-3.2-5,0.1-6.9l32.3-18.6c3.3-1.9,8.7-1.9,12,0l51.8,29.8
		c3.3,1.9,3.3,5,0,6.9L293.8,452C290.5,453.9,285.1,453.9,281.8,452L281.8,452L281.8,452z"/>
	<path id="Shadow-4" class="st3" d="M414.5,375.2l-52-29.9c-3.2-1.9-3.2-5,0.1-6.9l32.3-18.6c3.3-1.9,8.7-1.9,12,0l51.8,29.8
		c3.3,1.9,3.3,5,0,6.9l-32.1,18.7C423.2,377.1,417.8,377.1,414.5,375.2L414.5,375.2L414.5,375.2z"/>
	<ellipse id="Shadow-5" class="st7" cx="126.4" cy="302.6" rx="46.2" ry="26.7"/>
</g>
<g id="Plants">
	<g id="Plant">
		<g id="Pot">
			<path class="st7" d="M52.8,410.4c-6.9-7.1-11-25.1-4.2-30.7h34.3c6.7,5.7,2.7,23.6-4.2,30.7c-0.1,0.1-0.1,0.1-0.2,0.2
				c-0.1,0.1-0.2,0.2-0.2,0.2c-0.2,0.2-0.4,0.4-0.6,0.6c-0.1,0-0.1,0.1-0.2,0.1c-0.2,0.1-0.3,0.3-0.5,0.4c-0.3,0.2-0.6,0.4-0.9,0.6
				c-5.7,3.3-14.9,3.3-20.6,0l0,0c-0.3-0.2-0.6-0.4-0.9-0.6c-0.2-0.1-0.3-0.2-0.5-0.4c-0.1,0-0.1-0.1-0.2-0.2
				c-0.2-0.2-0.4-0.4-0.6-0.5l-0.3-0.3C52.9,410.6,52.8,410.5,52.8,410.4L52.8,410.4L52.8,410.4z"/>
			<path class="st5" d="M79.9,377.4c7.8,4.6,7.8,12,0,16.6s-20.5,4.6-28.4,0s-7.8-12,0-16.6S72,372.9,79.9,377.4z"/>
			<path class="st6" d="M76.1,379.6c5.8,3.4,5.8,8.8,0,12.2c-5.8,3.4-15.1,3.4-20.8,0s-5.8-8.8,0-12.2
				C61,376.3,70.4,376.3,76.1,379.6z"/>
			<path class="st0" d="M55.3,385.4c5.8-3.4,15.1-3.4,20.8,0c1.6,0.9,2.7,2,3.4,3.2c-0.7,1.2-1.8,2.3-3.4,3.2
				c-5.8,3.4-15.1,3.4-20.8,0c-1.6-0.9-2.7-2-3.4-3.2C52.6,387.4,53.7,386.3,55.3,385.4z"/>
		</g>
		<g>
			<g>
				<path class="st9" d="M63.4,339.6c-2.6,2.9-9.9,3.6-13-4.1c-2.8-7.2-5.9-14.1-6.8-16.7c-0.9-2.6,1.8-3.5,1.8-3.5s0.2-4,6.9-1.3
					c6.7,2.7,11.5,6.8,14.4,13.4C69.6,333.9,67.9,338.7,63.4,339.6L63.4,339.6L63.4,339.6z"/>
				<path class="st18" d="M63.4,339.6c-2.6,2.9-9.9,3.6-13-4.1c-2.8-7.2-5.9-14.1-6.8-16.7c-0.9-2.6,1.8-3.5,1.8-3.5s0.2-4,6.9-1.3
					c6.7,2.7,11.5,6.8,14.4,13.4C69.6,333.9,67.9,338.7,63.4,339.6L63.4,339.6L63.4,339.6z"/>
			</g>
			<g>
				<path class="st9" d="M66.3,349.8c-0.1-1.4-0.3-2.7-0.6-4c-0.6-2.6-1.3-5.2-2.2-7.8c-1.9-5.1-4.5-10-7.8-14.4
					c-1.8-2.5-3.8-4.9-6.1-7c-0.1-0.1-0.1,0.1-0.1,0.1c3.8,4,7,8.4,9.6,13.2c2.5,4.8,4.4,9.8,5.5,15c0.3,1.5,0.6,2.9,0.9,4.4
					c0.3,1.5,0.4,3,0.7,4.5c0,0.1,0.3,0.2,0.3,0C66.6,352.7,66.4,351.2,66.3,349.8z"/>
				<path class="st10" d="M66.3,349.8c-0.1-1.4-0.3-2.7-0.6-4c-0.6-2.6-1.3-5.2-2.2-7.8c-1.9-5.1-4.5-10-7.8-14.4
					c-1.8-2.5-3.8-4.9-6.1-7c-0.1-0.1-0.1,0.1-0.1,0.1c3.8,4,7,8.4,9.6,13.2c2.5,4.8,4.4,9.8,5.5,15c0.3,1.5,0.6,2.9,0.9,4.4
					c0.3,1.5,0.4,3,0.7,4.5c0,0.1,0.3,0.2,0.3,0C66.6,352.7,66.4,351.2,66.3,349.8z"/>
			</g>
			<g>
				<path class="st9" d="M68.6,337.6c-6,1.9-10.5-2.9-9-10.2c1.5-7.4,9.3-15.6,12.2-13.4c1.8-1.8,5.9-1.2,7.8,4.8
					S79.8,340.2,68.6,337.6L68.6,337.6L68.6,337.6z"/>
				<path class="st19" d="M68.6,337.6c-6,1.9-10.5-2.9-9-10.2c1.5-7.4,9.3-15.6,12.2-13.4c1.8-1.8,5.9-1.2,7.8,4.8
					S79.8,340.2,68.6,337.6L68.6,337.6L68.6,337.6z"/>
			</g>
			<g>
				<path class="st9" d="M72.1,318.5c-1.8,4.2-3,8.8-4,13.3c-1.1,4.6-1.8,9.2-2.3,13.9c-1.1,9-1.3,18.2-1.2,27.3
					c0,2.5,0.1,5,0.1,7.5c0.1,2.6,0,5.2,0.2,7.8c0.1,1,1.5,0.7,1.5-0.2c0.1-4.5-0.2-9.1-0.2-13.6c-0.1-4.5,0-9,0.1-13.4
					c0.2-9.1,0.9-18.2,2.4-27.2c0.4-2.5,0.9-5,1.5-7.5c0.6-2.6,1.4-5.2,2.1-7.8C72.3,318.5,72.1,318.4,72.1,318.5
					C72.1,318.5,72.1,318.5,72.1,318.5z"/>
				<path class="st10" d="M72.1,318.5c-1.8,4.2-3,8.8-4,13.3c-1.1,4.6-1.8,9.2-2.3,13.9c-1.1,9-1.3,18.2-1.2,27.3
					c0,2.5,0.1,5,0.1,7.5c0.1,2.6,0,5.2,0.2,7.8c0.1,1,1.5,0.7,1.5-0.2c0.1-4.5-0.2-9.1-0.2-13.6c-0.1-4.5,0-9,0.1-13.4
					c0.2-9.1,0.9-18.2,2.4-27.2c0.4-2.5,0.9-5,1.5-7.5c0.6-2.6,1.4-5.2,2.1-7.8C72.3,318.5,72.1,318.4,72.1,318.5
					C72.1,318.5,72.1,318.5,72.1,318.5z"/>
			</g>
			<g>
				<path class="st9" d="M58.7,359.3c-2.6,3-8.7,2.7-12.7-2.6c-4.1-5.3-6.5-25.4-0.8-24.1c1.2-2.7,17,3.8,19,16.8
					C65.7,358.9,58.7,359.3,58.7,359.3L58.7,359.3L58.7,359.3z"/>
				<path class="st19" d="M58.7,359.3c-2.6,3-8.7,2.7-12.7-2.6c-4.1-5.3-6.5-25.4-0.8-24.1c1.2-2.7,17,3.8,19,16.8
					C65.7,358.9,58.7,359.3,58.7,359.3L58.7,359.3L58.7,359.3z"/>
			</g>
			<g>
				<path class="st9" d="M63.4,368.8c-0.2-1.2-0.5-2.5-0.8-3.7c-0.7-2.5-1.4-4.9-2.3-7.2c-1.8-4.9-4.3-9.4-7-13.8
					c-1.5-2.4-3.2-4.9-5-7.1c0-0.1-0.1,0.1-0.1,0.1c1.4,2,2.8,4.1,4.1,6.2c1.3,2.2,2.5,4.5,3.6,6.9c2.1,4.5,3.8,9.2,5.2,14
					c0.4,1.4,0.7,2.7,1.1,4.1c0.4,1.4,0.9,2.8,1.3,4.2c0,0.2,0.3,0.3,0.3,0C63.6,371.2,63.6,370,63.4,368.8L63.4,368.8L63.4,368.8z"
					/>
				<path class="st10" d="M63.4,368.8c-0.2-1.2-0.5-2.5-0.8-3.7c-0.7-2.5-1.4-4.9-2.3-7.2c-1.8-4.9-4.3-9.4-7-13.8
					c-1.5-2.4-3.2-4.9-5-7.1c0-0.1-0.1,0.1-0.1,0.1c1.4,2,2.8,4.1,4.1,6.2c1.3,2.2,2.5,4.5,3.6,6.9c2.1,4.5,3.8,9.2,5.2,14
					c0.4,1.4,0.7,2.7,1.1,4.1c0.4,1.4,0.9,2.8,1.3,4.2c0,0.2,0.3,0.3,0.3,0C63.6,371.2,63.6,370,63.4,368.8L63.4,368.8L63.4,368.8z"
					/>
			</g>
			<g>
				<path class="st9" d="M68.4,356.3c-3.4-0.8-3.6-4.9,0.7-10c4.3-5.1,15.2-7.3,15.7-5.2c2.4,0,2.4,7.6-2.9,14.5
					C76.5,362.6,68.7,361,68.4,356.3z"/>
				<path class="st19" d="M68.4,356.3c-3.4-0.8-3.6-4.9,0.7-10c4.3-5.1,15.2-7.3,15.7-5.2c2.4,0,2.4,7.6-2.9,14.5
					C76.5,362.6,68.7,361,68.4,356.3z"/>
			</g>
			<g>
				<path class="st9" d="M75.1,348.9c-2.3,1.6-4.3,3.5-6,5.7c-1.7,2.2-3,4.6-4,7.2c-0.1,0.3,0.4,0.7,0.5,0.4
					C67.6,357.2,70.9,352.4,75.1,348.9C75.2,349,75.2,348.9,75.1,348.9L75.1,348.9z"/>
				<path class="st10" d="M75.1,348.9c-2.3,1.6-4.3,3.5-6,5.7c-1.7,2.2-3,4.6-4,7.2c-0.1,0.3,0.4,0.7,0.5,0.4
					C67.6,357.2,70.9,352.4,75.1,348.9C75.2,349,75.2,348.9,75.1,348.9L75.1,348.9z"/>
			</g>
			<g>
				<path class="st9" d="M72.3,381.6c-4.8,1.9-2.7,7.6,1.9,12c4.7,4.3,11.3,5.5,14.6,5.2s4-0.7,4-0.7s0.5-4.9,0-7.9
					c-0.8-4.2-3.8-10.1-11.3-12.1C74.1,376,72.3,378.7,72.3,381.6L72.3,381.6L72.3,381.6z"/>
				<path class="st19" d="M72.3,381.6c-4.8,1.9-2.7,7.6,1.9,12c4.7,4.3,11.3,5.5,14.6,5.2s4-0.7,4-0.7s0.5-4.9,0-7.9
					c-0.8-4.2-3.8-10.1-11.3-12.1C74.1,376,72.3,378.7,72.3,381.6L72.3,381.6L72.3,381.6z"/>
			</g>
			<g>
				<path class="st9" d="M85.6,390c-2.2-2.5-4.5-4.9-7.3-6.8c-2.7-1.8-6.3-3.3-9.6-2.2c-1.3,0.4-3.2,1.7-3,3.3
					c0,0.2,0.3,0.5,0.5,0.3c0.6-0.7,1-1.5,1.7-2c0.8-0.6,1.6-0.9,2.6-1c2.3-0.3,4.7,0.5,6.7,1.5C80.3,384.9,82.9,387.5,85.6,390
					C85.6,390.1,85.6,390.1,85.6,390L85.6,390L85.6,390z"/>
				<path class="st10" d="M85.6,390c-2.2-2.5-4.5-4.9-7.3-6.8c-2.7-1.8-6.3-3.3-9.6-2.2c-1.3,0.4-3.2,1.7-3,3.3
					c0,0.2,0.3,0.5,0.5,0.3c0.6-0.7,1-1.5,1.7-2c0.8-0.6,1.6-0.9,2.6-1c2.3-0.3,4.7,0.5,6.7,1.5C80.3,384.9,82.9,387.5,85.6,390
					C85.6,390.1,85.6,390.1,85.6,390L85.6,390L85.6,390z"/>
			</g>
			<g>
				<path class="st9" d="M54.1,357.1c0.5-2.2-2.7-7.4-12.5-8.4s-17.1,3.2-18.6,5.1s-2.2,3.9-0.5,4.4c1.8,0.5,7.9,1.1,11.9,3
					c4,1.9,12.2,7.3,17.8,5.7C57.8,365.2,56.9,359.3,54.1,357.1L54.1,357.1L54.1,357.1z"/>
				<path class="st18" d="M54.1,357.1c0.5-2.2-2.7-7.4-12.5-8.4s-17.1,3.2-18.6,5.1s-2.2,3.9-0.5,4.4c1.8,0.5,7.9,1.1,11.9,3
					c4,1.9,12.2,7.3,17.8,5.7C57.8,365.2,56.9,359.3,54.1,357.1L54.1,357.1L54.1,357.1z"/>
			</g>
			<g>
				<path class="st9" d="M61.6,364.7c-4.1-8.5-14.8-11.1-23.5-11.1c-2.9,0-5.7,0.4-8.5,1.1c0,0,0,0.1,0,0.1
					c4.7-0.7,9.5-0.9,14.2-0.1c4.6,0.8,9.2,2.2,13,5c1.9,1.4,3.5,3.2,4.6,5.2C61.5,365.1,61.7,364.9,61.6,364.7
					C61.6,364.7,61.6,364.7,61.6,364.7z"/>
				<path class="st10" d="M61.6,364.7c-4.1-8.5-14.8-11.1-23.5-11.1c-2.9,0-5.7,0.4-8.5,1.1c0,0,0,0.1,0,0.1
					c4.7-0.7,9.5-0.9,14.2-0.1c4.6,0.8,9.2,2.2,13,5c1.9,1.4,3.5,3.2,4.6,5.2C61.5,365.1,61.7,364.9,61.6,364.7
					C61.6,364.7,61.6,364.7,61.6,364.7z"/>
			</g>
			<g>
				<path class="st9" d="M76.9,345.7c-0.1,3.4,4.7,5.4,9.4,2.5c4.7-3,9.6-5.9,13.9-7c4.3-1.1,6.4-4.6,5-6.4c-1.4-1.7-3.5-6-14.9-4.6
					s-15.4,6.5-17,10.1C71.8,344,75.2,346.7,76.9,345.7z"/>
				<path class="st18" d="M76.9,345.7c-0.1,3.4,4.7,5.4,9.4,2.5c4.7-3,9.6-5.9,13.9-7c4.3-1.1,6.4-4.6,5-6.4
					c-1.4-1.7-3.5-6-14.9-4.6s-15.4,6.5-17,10.1C71.8,344,75.2,346.7,76.9,345.7z"/>
			</g>
			<g>
				<path class="st9" d="M95.5,334.8c-1.6-0.2-3.3,0.1-4.9,0.5c-1.4,0.4-2.8,0.9-4.2,1.5c-2.7,1.2-5.1,3-7.1,5.1
					c-0.6,0.6-1.1,1.2-1.6,1.9c-0.4,0.6-1,1.3-1.2,2c-0.1,0.2,0.2,0.6,0.4,0.4c0.6-0.6,1-1.4,1.5-2.1c0.6-0.7,1.2-1.4,1.8-2.1
					c1.3-1.3,2.8-2.5,4.4-3.5c1.5-0.9,3.2-1.8,4.9-2.4c0.9-0.3,1.9-0.6,2.8-0.9c1-0.3,2-0.5,3.1-0.4
					C95.5,334.9,95.5,334.8,95.5,334.8L95.5,334.8L95.5,334.8z"/>
				<path class="st10" d="M95.5,334.8c-1.6-0.2-3.3,0.1-4.9,0.5c-1.4,0.4-2.8,0.9-4.2,1.5c-2.7,1.2-5.1,3-7.1,5.1
					c-0.6,0.6-1.1,1.2-1.6,1.9c-0.4,0.6-1,1.3-1.2,2c-0.1,0.2,0.2,0.6,0.4,0.4c0.6-0.6,1-1.4,1.5-2.1c0.6-0.7,1.2-1.4,1.8-2.1
					c1.3-1.3,2.8-2.5,4.4-3.5c1.5-0.9,3.2-1.8,4.9-2.4c0.9-0.3,1.9-0.6,2.8-0.9c1-0.3,2-0.5,3.1-0.4
					C95.5,334.9,95.5,334.8,95.5,334.8L95.5,334.8L95.5,334.8z"/>
			</g>
			<g>
				<path class="st9" d="M68.8,364.2c-1.6-1.6-5.9-1.2-8,3.5c-2,4.7,2.2,9.9,2.7,11.3c2-1.1,3.5-0.5,7-1.1c3.5-0.7,6.9-4.4,6.7-8.7
					S75.2,362,68.8,364.2L68.8,364.2L68.8,364.2z"/>
				<path class="st18" d="M68.8,364.2c-1.6-1.6-5.9-1.2-8,3.5c-2,4.7,2.2,9.9,2.7,11.3c2-1.1,3.5-0.5,7-1.1c3.5-0.7,6.9-4.4,6.7-8.7
					S75.2,362,68.8,364.2L68.8,364.2L68.8,364.2z"/>
			</g>
			<g>
				<path class="st9" d="M68.7,363.7c-0.8,0.4-1.6,1.4-2.1,2.2c-0.6,0.8-1,1.7-1.4,2.6c-0.7,1.9-1,4-0.6,6c0,0.1,0.1,0,0.1,0
					c-0.1-2,0.2-4.1,1-5.9c0.4-0.9,0.9-1.6,1.4-2.4c0.3-0.4,0.6-0.8,1-1.1c0.3-0.3,0.7-0.6,0.9-0.9C69.2,364,69,363.6,68.7,363.7
					L68.7,363.7L68.7,363.7z"/>
				<path class="st10" d="M68.7,363.7c-0.8,0.4-1.6,1.4-2.1,2.2c-0.6,0.8-1,1.7-1.4,2.6c-0.7,1.9-1,4-0.6,6c0,0.1,0.1,0,0.1,0
					c-0.1-2,0.2-4.1,1-5.9c0.4-0.9,0.9-1.6,1.4-2.4c0.3-0.4,0.6-0.8,1-1.1c0.3-0.3,0.7-0.6,0.9-0.9C69.2,364,69,363.6,68.7,363.7
					L68.7,363.7L68.7,363.7z"/>
			</g>
			<g>
				<path class="st9" d="M61.3,373.7c-0.2-3.5-4-6.3-9.3-7.9c-5.4-1.6-11.2-0.2-15.2,4s-6,7.9-4.4,9c1.6,1,8.8,3.6,13.4,5.1
					s10.8,1.9,15.5-0.9S65.7,375.5,61.3,373.7L61.3,373.7L61.3,373.7z"/>
				<path class="st19" d="M61.3,373.7c-0.2-3.5-4-6.3-9.3-7.9c-5.4-1.6-11.2-0.2-15.2,4s-6,7.9-4.4,9c1.6,1,8.8,3.6,13.4,5.1
					s10.8,1.9,15.5-0.9S65.7,375.5,61.3,373.7L61.3,373.7L61.3,373.7z"/>
			</g>
			<g>
				<path class="st9" d="M61.6,373.3c-1.7-1-3.9-1.4-5.9-1.6c-2-0.2-3.9-0.2-5.9,0.1c-2.1,0.2-4.1,0.7-6.1,1.3c-1,0.3-2.1,0.6-3.1,1
					c-1,0.4-1.9,0.7-2.8,1.2c0,0,0,0.1,0,0.1c1-0.2,2-0.6,2.9-0.9c1-0.3,2.1-0.6,3.2-0.9c2-0.5,4-0.9,6-1.1c2-0.2,4.1-0.2,6.1,0
					c1.9,0.2,3.7,0.8,5.5,1.4C61.9,374,61.8,373.4,61.6,373.3L61.6,373.3L61.6,373.3z"/>
				<path class="st10" d="M61.6,373.3c-1.7-1-3.9-1.4-5.9-1.6c-2-0.2-3.9-0.2-5.9,0.1c-2.1,0.2-4.1,0.7-6.1,1.3
					c-1,0.3-2.1,0.6-3.1,1c-1,0.4-1.9,0.7-2.8,1.2c0,0,0,0.1,0,0.1c1-0.2,2-0.6,2.9-0.9c1-0.3,2.1-0.6,3.2-0.9c2-0.5,4-0.9,6-1.1
					c2-0.2,4.1-0.2,6.1,0c1.9,0.2,3.7,0.8,5.5,1.4C61.9,374,61.8,373.4,61.6,373.3L61.6,373.3L61.6,373.3z"/>
			</g>
			<g>
				<path class="st9" d="M72.4,368.5c-3.9-3.1-2.6-10.4,10.9-10.8c13.5-0.4,23.2,3.1,22.8,7.5c2.2,2.2,1.1,8.3-9.9,10.2
					S69.7,376.3,72.4,368.5z"/>
				<path class="st19" d="M72.4,368.5c-3.9-3.1-2.6-10.4,10.9-10.8c13.5-0.4,23.2,3.1,22.8,7.5c2.2,2.2,1.1,8.3-9.9,10.2
					S69.7,376.3,72.4,368.5z"/>
			</g>
			<g>
				<path class="st9" d="M99.8,365.2c-4-0.7-8.1-0.8-12.1-0.7c-3.7,0.1-7.6,0.3-11.2,1.3c-0.9,0.3-1.8,0.6-2.7,1
					c-0.4,0.2-0.8,0.4-1.2,0.6c-0.3,0.2-0.7,0.4-0.8,0.7c-0.1,0.2,0.2,0.5,0.4,0.4c0.8-0.2,1.6-0.8,2.4-1.2c0.8-0.3,1.6-0.6,2.3-0.9
					c1.5-0.5,3.1-0.7,4.7-0.9c3.8-0.5,7.6-0.7,11.4-0.6c2.2,0,4.4,0.2,6.7,0.4C99.8,365.4,99.9,365.2,99.8,365.2L99.8,365.2
					L99.8,365.2z"/>
				<path class="st10" d="M99.8,365.2c-4-0.7-8.1-0.8-12.1-0.7c-3.7,0.1-7.6,0.3-11.2,1.3c-0.9,0.3-1.8,0.6-2.7,1
					c-0.4,0.2-0.8,0.4-1.2,0.6c-0.3,0.2-0.7,0.4-0.8,0.7c-0.1,0.2,0.2,0.5,0.4,0.4c0.8-0.2,1.6-0.8,2.4-1.2c0.8-0.3,1.6-0.6,2.3-0.9
					c1.5-0.5,3.1-0.7,4.7-0.9c3.8-0.5,7.6-0.7,11.4-0.6c2.2,0,4.4,0.2,6.7,0.4C99.8,365.4,99.9,365.2,99.8,365.2L99.8,365.2
					L99.8,365.2z"/>
			</g>
		</g>
	</g>
</g>
<g id="Character_4">
	<g id="Character">
		<g id="Legs">
			<g>
				<path class="st6" d="M381.5,316.5c-0.8,2.3-4.8,1.9-9.1,2c-3.4,0.1-7.4-0.5-9.6,0.6c-2.2,1.1-2.6,3.8,1,6.8
					c4.5,3.8,10.5,3.4,13.8,3.7c3.4,0.3,5.3,1.5,8.4,1.4c3.9-0.1,6.2-1.5,6.8-2.6s-0.1-9.5-1.7-9.1c0,0,0.2-0.3-5.6-0.5
					C381.5,318.6,381.5,316.5,381.5,316.5z"/>
				<path class="st20" d="M391.1,319.7c0-0.1,1-7.9,1-7.9s-0.2-0.7-4.8-0.8c-2.3-0.1-5-2-5.2-0.2c-0.2,1.8-0.4,5.6-0.4,5.6
					c-0.8,2.3-4.8,1.9-9.1,2c-0.7,0-1.5,0-2.2,0h0c-2.3,0.2-4.4,1.9-1.7,3.5c2.6,1.6,6.6,1.8,10.3,1.9
					C383.2,324,390.9,324.1,391.1,319.7L391.1,319.7L391.1,319.7z"/>
			</g>
			<path class="st7" d="M380.4,266.7c-0.4,8.5,0.8,48.5,0.8,48.5s4,2,10.6-0.3l4.4-43.5L380.4,266.7L380.4,266.7L380.4,266.7z"/>
			<g>
				<g>
					<path class="st6" d="M361.2,326.4c-0.8,2.3-6.9,3.3-11.1,3.6c-3.4,0.2-7.4-0.3-9.6,0.9c-2.1,1.2-2.5,3.9,1.2,6.8
						c4.6,3.6,12.7,1.7,16.1,1.9s5.3,0.9,8,0.9c3.9,0,5.3-1.5,5.8-2.6s0.9-9.5-0.7-9c0,0,0.1-0.3-5.6-0.3
						C361.2,328.6,361.2,326.4,361.2,326.4L361.2,326.4L361.2,326.4z"/>
					<path class="st20" d="M370.9,329.4c0-0.1,3.1-12.4,3.1-12.4s-2.6,3.8-7.3,3.8c-2.3,0-5-1.8-5.2,0c-0.2,1.9-0.2,3.5-0.4,5.2
						c-0.2,1.7-5.3,3.3-9.9,3.8c-0.7,0.1-2.5,0.3-3.2,0.3h0c-2.6,0.2-5.1,2.3-2.5,3.8c2.7,1.5,9.7,0,13.4,0
						C363.1,333.9,370.9,333.8,370.9,329.4L370.9,329.4L370.9,329.4z"/>
				</g>
				<path class="st5" d="M363.4,282c-1,8.8-2,33.7-2.2,40.7c0,0,5.8,2.4,11.3,0.7c0,0,7.7-25,7.1-34.4
					C379.4,284.6,363.4,282,363.4,282L363.4,282L363.4,282z"/>
			</g>
		</g>
		<g>
			<g>
				<path class="st6" d="M455,353.2l-6.3-52.8l-5.2-0.3l8.9,53.1l0,0c0,0.2,0.1,0.3,0.3,0.5c0.5,0.3,1.3,0.4,1.8,0.1
					C454.9,353.6,455,353.4,455,353.2L455,353.2L455,353.2z"/>
				<g>
					<path class="st7" d="M384.1,295.5h-5.2l-7.5,49.9l0,0c0,0.2,0.1,0.4,0.4,0.6c0.5,0.3,1.3,0.3,1.9,0c0.2-0.1,0.3-0.3,0.4-0.5
						l0,0L384.1,295.5z"/>
					<path class="st6" d="M378.9,295.5l-2.1,13.9c0.9,0.8,2.8,1.9,4,2.4l3.3-16.4L378.9,295.5L378.9,295.5z"/>
				</g>
				<g>
					<path class="st7" d="M420.4,370.9l-4.9-53.7l-5.2-0.3l7.4,54l0,0c0,0.2,0.1,0.3,0.3,0.5c0.5,0.3,1.3,0.4,1.8,0.1
						C420.2,371.3,420.4,371.1,420.4,370.9L420.4,370.9L420.4,370.9z"/>
					<path class="st6" d="M416.2,325l-0.7-7.9l-5.2-0.3l1.2,8.5C412.7,325.8,414.7,325.5,416.2,325L416.2,325L416.2,325z"/>
				</g>
				<path class="st6" d="M412.4,279.1h-5.2l-7.5,49.9l0,0c0,0.2,0.1,0.4,0.4,0.6c0.5,0.3,1.3,0.3,1.9,0c0.2-0.1,0.3-0.3,0.4-0.5l0,0
					L412.4,279.1z"/>
			</g>
			<path class="st9" d="M375.7,294.5c-0.7-4.1,2.6-7.3,8.9-11.5c6.3-4.2,14.3-8.4,18.1-10.2c5.2-2.4,10.6-2.2,17.3,1.3
				c9.3,4.8,37.4,21.8,37.4,21.8s-41.9,23.7-50,22.6c-8.1-1.1-28.2-14.2-29.8-18.8C376,295.1,375.7,294.5,375.7,294.5L375.7,294.5
				L375.7,294.5z"/>
			<g class="st21">
				<path class="st22" d="M375.7,294.5c-0.7-4.1,2.6-7.3,8.9-11.5c6.3-4.2,14.3-8.4,18.1-10.2c5.2-2.4,10.6-2.2,17.3,1.3
					c9.3,4.8,37.4,21.8,37.4,21.8s-41.9,23.7-50,22.6c-8.1-1.1-28.2-14.2-29.8-18.8C376,295.1,375.7,294.5,375.7,294.5L375.7,294.5
					L375.7,294.5z"/>
			</g>
			<path class="st9" d="M411.5,313.5c-6,5.5-12.3,0.8-22.3-5.7c-11.3-7.3-13.5-13.3-13.5-13.3s0,4.5,0.8,6.6
				c0.8,2.1,2.7,4.5,10.8,10.1c8.1,5.6,14,8.4,19.5,9.5l4.3-0.6"/>
			<path class="st23" d="M389.2,307.8c-11.3-7.3-13.5-13.3-13.5-13.3s0,4.5,0.8,6.6c0.8,2.1,2.7,4.5,10.8,10.1
				c8.1,5.6,14,8.4,19.5,9.5l4.3-0.6l0.3-6.5C405.4,319,399.1,314.3,389.2,307.8L389.2,307.8L389.2,307.8z"/>
		</g>
		<g>
			<path class="st7" d="M444.6,277.3c0,0-35.2-10.6-41.3-12.3c-6.1-1.7-17.9-4.5-21.3-3c-3.4,1.5-5.2,3.3-5.5,8.3
				c-0.1,0.9,0,5.5,0,5.5s17,5.3,31,5.3S444.6,277.3,444.6,277.3z"/>
			<path class="st5" d="M447.1,273.8c2.2,7.5,3.4,16.7-1.9,22.2c-3.8,4-13.6,13.1-34.7,12.2c-9.5-0.4-36.2-19-36.2-19
				s-10.1-1.6-10.1-5.1c0-0.9-1-1.1-0.8-2c1.5-7.7,6.3-11.5,13.1-11c11.3,0.9,36.5,8,36.5,8L447.1,273.8L447.1,273.8L447.1,273.8z"
				/>
			<polygon class="st20" points="406.3,213.3 409.9,228.6 422.8,225.9 418.3,209 			"/>
			<g>
				<g>
					<path class="st6" d="M383.1,230.7l20.6,23.5l0.1,0.6l-0.1,0.5c-0.1,0.2-0.2,0.4-0.5,0.5l-22.1,11c-0.2,0.1-0.3,0.1-0.5,0.1
						s-0.3-0.1-0.4-0.2l-20-24.1l0.1-0.5L383.1,230.7L383.1,230.7L383.1,230.7z"/>
					<path class="st5" d="M380.7,266.4c0.2,0,0.4,0,0.5-0.1l22.1-11c0.2-0.1,0.4-0.3,0.5-0.5c0.1-0.2,0-0.5-0.1-0.6l-19.8-23.8
						l-23.6,11.8l20,24.1C380.4,266.3,380.6,266.4,380.7,266.4L380.7,266.4L380.7,266.4z"/>
				</g>
				<g>
					<path class="st4" d="M384.3,228.9l19.7,23.7l0.1,0.3l-0.6,1.8l0,0c0,0.1-0.1,0.2-0.2,0.2l-22.1,11c-0.2,0.1-0.5,0.1-0.6-0.1
						l-19.7-23.7l0.6-1.8L384.3,228.9L384.3,228.9L384.3,228.9z"/>
					<path class="st11" d="M361.4,240.3l0.1,0.1l1.6,1.9l0.3,0.4l17.7,21.3c0.1,0.2,0.4,0.2,0.6,0.1l22.1-11
						c0.2-0.1,0.3-0.3,0.1-0.5l-0.1-0.2l-19.6-23.5l-22.7,11.3l0,0L361.4,240.3L361.4,240.3L361.4,240.3z"/>
					<path class="st3" d="M381.4,264.2l-0.6,1.8c0.1,0,0.2,0,0.4,0l22.1-11c0.1-0.1,0.2-0.1,0.2-0.2l0.6-1.8c0,0.1-0.1,0.2-0.2,0.2
						l-22.1,11C381.7,264.2,381.5,264.2,381.4,264.2z"/>
				</g>
				<path class="st0" d="M361.5,240.1l1.8,2.1l0.3,0.3l17.7,21.3c0.1,0.2,0.4,0.2,0.6,0.1l19.8-9.9c0.2-0.1,0.3-0.2,0.5-0.2
					c0.8-0.4,1.4-0.8,1.8-1.3c0,0,0,0,0-0.1c0,0,0.1-0.1,0.1-0.1c0.1-0.2,0-0.4-0.1-0.5c-0.3-0.2-0.7-0.4-1-0.8h0l-18.5-22.3
					L361.5,240.1L361.5,240.1L361.5,240.1z"/>
				<g>
					<g>
						<path class="st24" d="M363.9,240.2c0.1,0.1,0.1,0.4-0.1,0.5c-0.2,0.1-0.5,0.1-0.6-0.1c-0.1-0.1-0.1-0.4,0.1-0.5
							C363.6,240,363.8,240.1,363.9,240.2z"/>
						<path class="st9" d="M361.7,239.6c0,0.1-0.1,0.3-0.1,0.4l0.3-0.1c0-0.1,0-0.2,0.1-0.2c0.1-0.5,0.4-0.8,0.6-0.9
							c0.1,0,0.2-0.1,0.2,0c0.1,0,0.2,0.1,0.3,0.2c0.3,0.4,0.4,1.1,0.4,1.8c0.1,0,0.1,0,0.2,0c0.1-0.8-0.1-1.6-0.4-2.1
							c-0.2-0.3-0.5-0.3-0.8-0.2C362.2,238.7,361.9,239.1,361.7,239.6L361.7,239.6L361.7,239.6z"/>
						<path class="st6" d="M361.6,240.2C361.6,240.2,361.6,240.2,361.6,240.2L361.6,240.2L361.6,240.2L361.6,240.2L361.6,240.2z"/>
					</g>
					<g>
						<path class="st24" d="M366.2,239.1c0.1,0.1,0.1,0.4-0.1,0.5c-0.2,0.1-0.5,0.1-0.6-0.1c-0.1-0.1-0.1-0.4,0.1-0.5
							C365.8,238.9,366,239,366.2,239.1z"/>
						<path class="st9" d="M363.9,238.5c0,0.1-0.1,0.3-0.1,0.4l0.3-0.1c0-0.1,0-0.2,0.1-0.2c0.1-0.5,0.4-0.8,0.6-0.9
							c0.1,0,0.2-0.1,0.2,0c0.1,0,0.2,0.1,0.3,0.2c0.3,0.4,0.4,1.1,0.4,1.8c0.1,0,0.1,0,0.2,0c0.1-0.8-0.1-1.6-0.4-2.1
							c-0.2-0.3-0.5-0.3-0.8-0.2C364.4,237.6,364.1,238,363.9,238.5L363.9,238.5L363.9,238.5z"/>
					</g>
					<g>
						<path class="st24" d="M368.4,238c0.1,0.1,0.1,0.4-0.1,0.5c-0.2,0.1-0.5,0.1-0.6-0.1c-0.1-0.1-0.1-0.4,0.1-0.5
							C368,237.8,368.2,237.9,368.4,238z"/>
						<path class="st9" d="M366.1,237.4c0,0.1-0.1,0.3-0.1,0.4l0.3-0.1c0-0.1,0-0.2,0.1-0.2c0.1-0.5,0.4-0.8,0.6-0.9
							c0.1,0,0.2-0.1,0.2,0c0.1,0,0.2,0.1,0.3,0.2c0.3,0.4,0.4,1.1,0.4,1.8c0.1,0,0.1,0,0.2,0c0.1-0.8-0.1-1.6-0.4-2.1
							c-0.2-0.3-0.5-0.3-0.8-0.2C366.6,236.5,366.3,236.9,366.1,237.4L366.1,237.4L366.1,237.4z"/>
					</g>
					<g>
						<path class="st24" d="M370.6,236.9c0.1,0.1,0.1,0.4-0.1,0.5c-0.2,0.1-0.5,0.1-0.6-0.1c-0.1-0.1-0.1-0.4,0.1-0.5
							C370.2,236.7,370.5,236.8,370.6,236.9z"/>
						<path class="st9" d="M368.4,236.3c0,0.1-0.1,0.3-0.1,0.4l0.3-0.1c0-0.1,0-0.2,0.1-0.2c0.1-0.5,0.4-0.8,0.6-0.9
							c0.1,0,0.2-0.1,0.2,0c0.1,0,0.2,0.1,0.3,0.2c0.3,0.4,0.4,1.1,0.4,1.8c0.1,0,0.1,0,0.2,0c0.1-0.8-0.1-1.6-0.4-2.1
							c-0.2-0.3-0.5-0.3-0.8-0.2C368.8,235.3,368.5,235.8,368.4,236.3L368.4,236.3L368.4,236.3z"/>
					</g>
					<g>
						<path class="st24" d="M372.8,235.8c0.1,0.1,0.1,0.4-0.1,0.5c-0.2,0.1-0.5,0.1-0.6-0.1c-0.1-0.1-0.1-0.4,0.1-0.5
							C372.4,235.6,372.7,235.7,372.8,235.8z"/>
						<path class="st9" d="M370.6,235.2c0,0.1-0.1,0.3-0.1,0.4l0.3-0.1c0-0.1,0-0.2,0.1-0.2c0.1-0.5,0.4-0.8,0.6-0.9
							c0.1,0,0.2-0.1,0.2,0c0.1,0,0.2,0.1,0.3,0.2c0.3,0.4,0.4,1.1,0.4,1.8c0.1,0,0.1,0,0.2,0c0.1-0.8-0.1-1.6-0.4-2.1
							c-0.2-0.3-0.5-0.3-0.8-0.2C371,234.2,370.8,234.7,370.6,235.2L370.6,235.2L370.6,235.2z"/>
					</g>
					<g>
						<path class="st24" d="M375,234.7c0.1,0.1,0.1,0.4-0.1,0.5s-0.5,0.1-0.6-0.1c-0.1-0.1-0.1-0.4,0.1-0.5
							C374.6,234.5,374.9,234.6,375,234.7z"/>
						<path class="st9" d="M372.8,234.1c0,0.1-0.1,0.3-0.1,0.4l0.3-0.1c0-0.1,0-0.2,0.1-0.2c0.1-0.5,0.4-0.8,0.6-0.9
							c0.1,0,0.2-0.1,0.2,0c0.1,0,0.2,0.1,0.3,0.2c0.3,0.4,0.4,1.1,0.4,1.8c0.1,0,0.1,0,0.2,0c0.1-0.8-0.1-1.6-0.4-2.1
							c-0.2-0.3-0.5-0.3-0.8-0.2C373.3,233.1,373,233.6,372.8,234.1L372.8,234.1L372.8,234.1z"/>
					</g>
					<g>
						<path class="st24" d="M377.2,233.6c0.1,0.1,0.1,0.4-0.1,0.5c-0.2,0.1-0.5,0.1-0.6-0.1s-0.1-0.4,0.1-0.5
							C376.9,233.4,377.1,233.5,377.2,233.6z"/>
						<path class="st9" d="M375,233c0,0.1-0.1,0.3-0.1,0.4l0.3-0.1c0-0.1,0-0.2,0.1-0.2c0.1-0.5,0.4-0.8,0.6-0.9
							c0.1,0,0.2-0.1,0.2,0c0.1,0,0.2,0.1,0.3,0.2c0.3,0.4,0.4,1.1,0.4,1.8c0.1,0,0.1,0,0.2,0c0.1-0.8-0.1-1.6-0.4-2.1
							c-0.2-0.3-0.5-0.3-0.8-0.2C375.5,232,375.2,232.5,375,233L375,233L375,233z"/>
					</g>
					<g>
						<path class="st24" d="M379.5,232.5c0.1,0.1,0.1,0.4-0.1,0.5c-0.2,0.1-0.5,0.1-0.6-0.1c-0.1-0.1-0.1-0.4,0.1-0.5
							S379.3,232.4,379.5,232.5z"/>
						<path class="st9" d="M377.2,231.9c0,0.1-0.1,0.3-0.1,0.4l0.3-0.1c0-0.1,0-0.2,0.1-0.2c0.1-0.5,0.4-0.8,0.6-0.9
							c0.1,0,0.2-0.1,0.2,0c0.1,0,0.2,0.1,0.3,0.2c0.3,0.4,0.4,1.1,0.4,1.8c0.1,0,0.1,0,0.2,0c0.1-0.8-0.1-1.6-0.4-2.1
							c-0.2-0.3-0.5-0.3-0.8-0.2C377.7,230.9,377.4,231.4,377.2,231.9L377.2,231.9L377.2,231.9z"/>
					</g>
					<g>
						<path class="st24" d="M381.7,231.4c0.1,0.1,0.1,0.4-0.1,0.5c-0.2,0.1-0.5,0.1-0.6-0.1c-0.1-0.1-0.1-0.4,0.1-0.5
							C381.3,231.2,381.6,231.2,381.7,231.4z"/>
						<path class="st9" d="M379.4,230.8c0,0.1-0.1,0.3-0.1,0.4l0.3-0.1c0-0.1,0-0.2,0.1-0.2c0.1-0.5,0.4-0.8,0.6-0.9
							c0.1,0,0.2-0.1,0.2,0c0.1,0,0.2,0.1,0.3,0.2c0.3,0.4,0.4,1.1,0.4,1.8c0.1,0,0.1,0,0.2,0c0.1-0.8-0.1-1.6-0.4-2.1
							c-0.2-0.3-0.5-0.3-0.8-0.2C379.9,229.8,379.6,230.3,379.4,230.8L379.4,230.8L379.4,230.8z"/>
					</g>
					<g>
						<path class="st24" d="M383.9,230.3c0.1,0.1,0.1,0.4-0.1,0.5c-0.2,0.1-0.5,0.1-0.6-0.1c-0.1-0.1-0.1-0.4,0.1-0.5
							C383.5,230.1,383.8,230.2,383.9,230.3z"/>
						<path class="st9" d="M381.6,229.7c0,0.1-0.1,0.3-0.1,0.4l0.3-0.1c0-0.1,0-0.2,0.1-0.2c0.1-0.5,0.4-0.8,0.6-0.9
							c0.1,0,0.2-0.1,0.2,0c0.1,0,0.2,0.1,0.3,0.2c0.3,0.4,0.4,1.1,0.4,1.8c0.1,0,0.1,0,0.2,0c0.1-0.8-0.1-1.6-0.4-2.1
							c-0.2-0.3-0.5-0.3-0.8-0.2C382.1,228.7,381.8,229.2,381.6,229.7L381.6,229.7L381.6,229.7z"/>
					</g>
				</g>
				<g class="st25">
					<path class="st26" d="M361.7,239.6c0,0.1-0.1,0.3-0.1,0.4l0.3-0.1c0-0.1,0-0.2,0.1-0.2c0.1-0.5,0.4-0.8,0.6-0.9
						c0.1,0,0.2-0.1,0.2,0c0.1,0,0.2,0.1,0.3,0.2c0.3,0.4,0.4,1.1,0.4,1.8c0.1,0,0.1,0,0.2,0c0.1-0.8-0.1-1.6-0.4-2.1
						c-0.2-0.3-0.5-0.3-0.8-0.2C362.2,238.7,361.9,239.1,361.7,239.6L361.7,239.6L361.7,239.6z"/>
					<path class="st26" d="M363.9,238.5c0,0.1-0.1,0.3-0.1,0.4l0.3-0.1c0-0.1,0-0.2,0.1-0.2c0.1-0.5,0.4-0.8,0.6-0.9
						c0.1,0,0.2-0.1,0.2,0c0.1,0,0.2,0.1,0.3,0.2c0.3,0.4,0.4,1.1,0.4,1.8c0.1,0,0.1,0,0.2,0c0.1-0.8-0.1-1.6-0.4-2.1
						c-0.2-0.3-0.5-0.3-0.8-0.2C364.4,237.6,364.1,238,363.9,238.5L363.9,238.5L363.9,238.5z"/>
					<path class="st26" d="M366.1,237.4c0,0.1-0.1,0.3-0.1,0.4l0.3-0.1c0-0.1,0-0.2,0.1-0.2c0.1-0.5,0.4-0.8,0.6-0.9
						c0.1,0,0.2-0.1,0.2,0c0.1,0,0.2,0.1,0.3,0.2c0.3,0.4,0.4,1.1,0.4,1.8c0.1,0,0.1,0,0.2,0c0.1-0.8-0.1-1.6-0.4-2.1
						c-0.2-0.3-0.5-0.3-0.8-0.2C366.6,236.5,366.3,236.9,366.1,237.4L366.1,237.4L366.1,237.4z"/>
					<path class="st26" d="M368.4,236.3c0,0.1-0.1,0.3-0.1,0.4l0.3-0.1c0-0.1,0-0.2,0.1-0.2c0.1-0.5,0.4-0.8,0.6-0.9
						c0.1,0,0.2-0.1,0.2,0c0.1,0,0.2,0.1,0.3,0.2c0.3,0.4,0.4,1.1,0.4,1.8c0.1,0,0.1,0,0.2,0c0.1-0.8-0.1-1.6-0.4-2.1
						c-0.2-0.3-0.5-0.3-0.8-0.2C368.8,235.3,368.5,235.8,368.4,236.3L368.4,236.3L368.4,236.3z"/>
					<path class="st26" d="M370.6,235.2c0,0.1-0.1,0.3-0.1,0.4l0.3-0.1c0-0.1,0-0.2,0.1-0.2c0.1-0.5,0.4-0.8,0.6-0.9
						c0.1,0,0.2-0.1,0.2,0c0.1,0,0.2,0.1,0.3,0.2c0.3,0.4,0.4,1.1,0.4,1.8c0.1,0,0.1,0,0.2,0c0.1-0.8-0.1-1.6-0.4-2.1
						c-0.2-0.3-0.5-0.3-0.8-0.2C371,234.2,370.8,234.7,370.6,235.2L370.6,235.2L370.6,235.2z"/>
					<path class="st26" d="M372.8,234.1c0,0.1-0.1,0.3-0.1,0.4l0.3-0.1c0-0.1,0-0.2,0.1-0.2c0.1-0.5,0.4-0.8,0.6-0.9
						c0.1,0,0.2-0.1,0.2,0c0.1,0,0.2,0.1,0.3,0.2c0.3,0.4,0.4,1.1,0.4,1.8c0.1,0,0.1,0,0.2,0c0.1-0.8-0.1-1.6-0.4-2.1
						c-0.2-0.3-0.5-0.3-0.8-0.2C373.3,233.1,373,233.6,372.8,234.1L372.8,234.1L372.8,234.1z"/>
					<path class="st26" d="M375,233c0,0.1-0.1,0.3-0.1,0.4l0.3-0.1c0-0.1,0-0.2,0.1-0.2c0.1-0.5,0.4-0.8,0.6-0.9
						c0.1,0,0.2-0.1,0.2,0c0.1,0,0.2,0.1,0.3,0.2c0.3,0.4,0.4,1.1,0.4,1.8c0.1,0,0.1,0,0.2,0c0.1-0.8-0.1-1.6-0.4-2.1
						c-0.2-0.3-0.5-0.3-0.8-0.2C375.5,232,375.2,232.5,375,233L375,233L375,233z"/>
					<path class="st26" d="M377.2,231.9c0,0.1-0.1,0.3-0.1,0.4l0.3-0.1c0-0.1,0-0.2,0.1-0.2c0.1-0.5,0.4-0.8,0.6-0.9
						c0.1,0,0.2-0.1,0.2,0c0.1,0,0.2,0.1,0.3,0.2c0.3,0.4,0.4,1.1,0.4,1.8c0.1,0,0.1,0,0.2,0c0.1-0.8-0.1-1.6-0.4-2.1
						c-0.2-0.3-0.5-0.3-0.8-0.2C377.7,230.9,377.4,231.4,377.2,231.9L377.2,231.9L377.2,231.9z"/>
					<path class="st26" d="M379.4,230.8c0,0.1-0.1,0.3-0.1,0.4l0.3-0.1c0-0.1,0-0.2,0.1-0.2c0.1-0.5,0.4-0.8,0.6-0.9
						c0.1,0,0.2-0.1,0.2,0c0.1,0,0.2,0.1,0.3,0.2c0.3,0.4,0.4,1.1,0.4,1.8c0.1,0,0.1,0,0.2,0c0.1-0.8-0.1-1.6-0.4-2.1
						c-0.2-0.3-0.5-0.3-0.8-0.2C379.9,229.8,379.6,230.3,379.4,230.8L379.4,230.8L379.4,230.8z"/>
					<path class="st26" d="M381.6,229.7c0,0.1-0.1,0.3-0.1,0.4l0.3-0.1c0-0.1,0-0.2,0.1-0.2c0.1-0.5,0.4-0.8,0.6-0.9
						c0.1,0,0.2-0.1,0.2,0c0.1,0,0.2,0.1,0.3,0.2c0.3,0.4,0.4,1.1,0.4,1.8c0.1,0,0.1,0,0.2,0c0.1-0.8-0.1-1.6-0.4-2.1
						c-0.2-0.3-0.5-0.3-0.8-0.2C382.1,228.7,381.8,229.2,381.6,229.7L381.6,229.7L381.6,229.7z"/>
				</g>
			</g>
			<path class="st27" d="M386.2,264.2l-2,1l0,0c-1.3-3-2.4-3.8-3.8-6.3c-2.3-3.9-4.6-4.4-5.7-4.1c-1.1,0.2,0.4,2.4,1.8,5.1
				c0.8,1.6,1.3,3,1.8,4.4l-7.1-8.5c0,0,0.8,3.8,1.1,5.2s0.5,1.9,5.3,6.8c0.4,0.4,0.7,0.7,1,0.9l0,0c1.5,1.6,3.4,3.1,5.8,5.3
				c2.4,2.2,5.1,3.9,7.1,4.2L386.2,264.2L386.2,264.2L386.2,264.2z"/>
			<g>
				<g>
					<path class="st20" d="M421.9,249.8l-25.8-14.3c-2-2.5-3.3-4.2-6.2-5.7c-1.2-0.3-2.5-0.4-3.6-0.1c-3.6,0.9-9.9,6.3-5.4,9.1
						c2.7,1.7,6.7,1.7,9.1,2.6c1.3,0.4,4.2,2.2,5.4,3c6.4,4.2,15,10.4,21.9,15.1c2.6,1.8,5.1,3.5,8,1
						C430,256.3,421.9,249.8,421.9,249.8L421.9,249.8L421.9,249.8z"/>
					<path class="st27" d="M387.4,234.6l-5.7,4.6c0,0,0.4,0.1,0.6,0.3c0,0,2.1-1.4,3.3-2.2c1.1-0.7,2.4-1.6,2.4-1.6s2.8-0.3,3.9-1.1
						S387.4,234.6,387.4,234.6L387.4,234.6L387.4,234.6z"/>
				</g>
				<g>
					<g id="Pencil">
						<g>
							<path class="st20" d="M377,238.5l-2.8,4.3c-0.1,0.1,0,0.3,0.2,0.2l4.8-1.7L377,238.5L377,238.5z"/>
							<path class="st27" d="M374.4,243L374.4,243l4.9-1.7l-1.2-1.5l-0.5,0.4l-3.2,2.6L374.4,243L374.4,243L374.4,243z"/>
							<path class="st6" d="M374.4,243c-0.1,0.1-0.3-0.1-0.2-0.2l0.5-0.8l0,0c0.1,0.3,0.3,0.6,0.6,0.7l0.1,0L374.4,243L374.4,243z"
								/>
							<path class="st5" d="M396.2,227.8l-0.4,0.3l-0.5,0.4l-16.1,12.8c-0.6,0-1.1-0.3-1.5-0.7c-0.6-0.6-0.9-1.5-0.8-2.1l16.1-12.8
								l0.9-0.7C393.4,225.5,395.6,228.3,396.2,227.8L396.2,227.8L396.2,227.8z"/>
							<path class="st7" d="M396.2,227.8l-0.4,0.3l-0.5,0.4l-16.1,12.8c-0.8-0.1-1.3-0.4-1.8-1l16.9-13.6c0-0.1,0-0.1,0-0.1
								C395,227.3,395.9,228.1,396.2,227.8L396.2,227.8L396.2,227.8z"/>
							<path class="st11" d="M394.8,228.9l-0.8,0.7c-0.2,0.2-0.8-0.2-1.3-0.7c-0.7-0.7-1.2-1.8-0.9-2.1l0.6-0.5l0.2-0.2
								c-0.3,0.3,0.2,1.4,0.9,2.1C393.9,228.7,394.5,229.1,394.8,228.9L394.8,228.9C394.7,229,394.7,229,394.8,228.9L394.8,228.9
								L394.8,228.9z"/>
							<path class="st7" d="M394.5,229.1c-0.5,0.5-2.8-2.4-2.2-2.8l0.8-0.7c-0.5,0.5,1.7,3.3,2.2,2.8L394.5,229.1z"/>
							<path class="st11" d="M396.2,227.8l-0.8,0.6c-0.5,0.5-2.7-2.2-2.3-2.8c0,0,0,0,0,0l0.8-0.6
								C393.4,225.5,395.6,228.3,396.2,227.8z"/>
							<path class="st20" d="M374.3,242.9c0,0,0.1,0.1,0.1,0.1C374.4,243,374.3,243,374.3,242.9z"/>
							<path class="st27" d="M397.9,226.5l-1.7,1.3c-0.2,0.2-0.8-0.2-1.3-0.7c-0.7-0.7-1.2-1.8-0.9-2.1c0.1-0.1,0.1-0.1,0,0l1.7-1.4
								c0.7-0.6,2,0.7,2.4,1.8C398.2,225.8,398.1,226.2,397.9,226.5L397.9,226.5L397.9,226.5z"/>
						</g>
						<path class="st24" d="M396.7,226.3c-0.7-0.5-1.3-1.5-1.2-2.2c0-0.2,0.1-0.4,0.3-0.5c0.7-0.3,1.9,0.9,2.2,1.9
							c0.1,0.4,0.1,0.8-0.1,1C397.6,226.7,397.2,226.6,396.7,226.3L396.7,226.3z"/>
					</g>
					<path class="st20" d="M388.3,229.5c-0.7-0.4-1.4-0.6-1.6-0.6c-0.9-0.3-1.6-0.4-2.5-0.3c-0.3,0-0.6,0.1-0.9,0.3
						c-0.3,0.2-0.5,0.5-0.6,0.8c-1,1.4-2.6,2.2-3.6,3.6c-0.9,1.2-2,4.9-1,5.8c0.6,0.6,1.9-0.8,2.4-1.9c0.2,0.8,1.4,0.5,2.3-1.2
						c0.7-1.4,1.6-3.1,1.6-3.1L388.3,229.5L388.3,229.5L388.3,229.5z"/>
					<path class="st27" d="M384.1,231.4c0,0-0.5,0.3-0.4,0.9c0,0.6,0.2,1.2,0.2,1.2l0.4-0.8L384.1,231.4z"/>
					<path class="st20" d="M396.1,235.5c-1.6-2-2-4-4.2-4.4s-3.2,0.1-5.8-0.2c-3.7-0.4-2.1,2.8,1,3.6c3.1,0.8,4.9,0,4.9,0
						S394.7,238.9,396.1,235.5L396.1,235.5L396.1,235.5z"/>
				</g>
			</g>
			<path class="st20" d="M425,216.6c2-0.6,6.6-0.9,9.2,0.6s5,4.4,7.2,12c1.7,5.9,5.7,21.6,5,26.7c-0.7,5.1-18.9,8.3-18.9,8.3
				L425,216.6L425,216.6L425,216.6z"/>
			<path class="st2" d="M444,263.1c-1.6-3-4.2-7.6-5.5-12.9c-1.7-10.9,2.1-15.8-2-26.2c-1.9-4.8-7.9-8.3-12.9-7.1
				c-1.3,0.3-1.8,0.3-3.1,0.6c0.9,2.5-8.4,5.2-12.6,2.9c-1.8,0.6-10.4,4.4-10.4,4.4c-1.8,3.6-2.9,7.8-3.8,15.6
				c-0.4,3.2,1,6.7,2.7,9.7c4.6,8.1,6.6,17.4,5.4,26.7c0,0.3-0.1,0.5-0.1,0.8c0,0,7.8,8.7,27,5.2c17.1-3.1,17.6-14.5,17.6-14.5
				S445.1,265.1,444,263.1L444,263.1L444,263.1z"/>
			<path class="st20" d="M385.9,262.9c0.5-5.8,1.5-14.8,2.7-24.3c1.2-9.2,2.9-11.4,8.9-13.9c8.7,5.4,5.7,22.6,5.7,22.6
				s-3.2,18.4-5.2,24.2c-1.3,3.8-4,8.2-8.2,6.1S385.3,268.7,385.9,262.9L385.9,262.9L385.9,262.9z"/>
			<g>
				<path class="st27" d="M396.3,198.4c0,0-3.1,4.9-2.7,5.3c0.4,0.4,2.7,0.8,2.7,0.8V198.4L396.3,198.4L396.3,198.4z"/>
				<path class="st20" d="M404.2,184.3c-2.7,1.6-7.3,4.5-8,14.7c-0.7,10.5,0.9,14.1,2.4,15.4c1,0.9,7.9,1.1,9.8,0.4
					c3.2-1.1,9.7-5.6,12.7-11.1c3.5-6.6,3.9-15.1-0.8-18.1C413.8,181.3,406.5,182.9,404.2,184.3L404.2,184.3L404.2,184.3z"/>
				<path class="st7" d="M413.3,215c-2-0.6-2.8-1.1-4-2.1c-1.3-1.1-3.3-5.7-3.2-7c0,0,1.9,1.3,4.2-1c2.4-2.3,2.5-6.6-0.8-7.6
					c-2.3-0.7-4,1.2-4.9,3c-0.1,0.3-0.3,0.6-0.7,0.7c-0.5,0.1-0.9-0.4-1.1-0.9c-0.2-0.6-0.4-1.1-0.8-1.6c-0.7-0.8-1.2-1.6-1.3-2.7
					c-0.1-0.9,0.1-1.8,0.2-2.6c-1.1,0.9-1.9,2.1-2.4,3.4c-0.8-1.5-0.7-3.4,0.1-4.9c-1.1,1.2-1.9,2.8-2.3,4.4
					c-0.9-0.8-1.4-1.9-1.6-3.1c-0.5-3.1,0.8-6.4,3-8.7c2.2-2.3,5.1-3.8,8.1-4.8c2.9-0.9,6-1.2,9.1-1.1c6.5,0.4,10.1,3.6,11.1,4.8
					c0.5,0.6,1.5,2.6,1.6,4.4c3.9,2,4,6.9,3.1,10.7c-0.8,3.3-3,6.3-5.1,8.8c-1.1,1.3-2.3,2.6-3.3,4c-0.5,0.7-1,1.3-1.5,2.1
					c-0.6,1.1-1.1,2.1-1.1,2.1S416,215.8,413.3,215L413.3,215L413.3,215z"/>
				<path class="st27" d="M406.8,215.2l-0.4-1.6c0,0-1.1,0.5-4.2,0.7c-3,0.2-4-0.3-4-0.4c0.1,0.2,0.3,0.3,0.4,0.5
					C399.5,215.1,404.1,215.5,406.8,215.2L406.8,215.2L406.8,215.2z"/>
			</g>
		</g>
		<g>
			<path class="st9" d="M411.1,320c3.4-0.2,6.1-2.7,14.3-6.1c15-6.3,26.3-11.3,30.6-19.2c4.3-7.9,7.4-43.2,6.3-53.1
				c-0.1-1.3-0.4-2.4-0.7-3.3l1.1-0.2l-2.7-2.3l0,0c-2.8-2.3-7.4-0.2-10.8,1.6c-9.9,5.4-17.6,10.6-23.6,29.4
				c-4.6,14.1-7.6,39.6-13.9,46.6"/>
			<path class="st23" d="M461.6,238.4l1.1-0.2l-2.7-2.3l0,0c-2.8-2.3-7.4-0.2-10.8,1.6c-9.9,5.4-17.6,10.6-23.6,29.4
				c-4.6,14.1-7.6,39.6-13.9,46.6l-0.3,6.5c3.4-0.2,6.1-2.7,14.3-6.1c15-6.3,26.3-11.3,30.6-19.2s7.4-43.2,6.3-53.1
				C462.2,240.4,461.9,239.3,461.6,238.4L461.6,238.4L461.6,238.4z"/>
			<path class="st9" d="M451.6,238.8c-9.9,5.4-19.1,11.2-24.3,30.5c-5.2,19.1-8.5,48.1-20.5,51.3c0,0,5.4,2.2,22.1-4.9
				c5.3-2.2,11.7-6.3,15.9-8.7c8.3-4.6,13.3-8.4,14.1-9.9c4.4-7.8,7.4-43.2,6.3-53.1C464.1,234.2,456.6,236.1,451.6,238.8
				L451.6,238.8L451.6,238.8z"/>
			<g class="st28">
				<path class="st22" d="M451.6,238.8c-9.9,5.4-19.1,11.2-24.3,30.5c-5.2,19.1-8.5,48.1-20.5,51.3c0,0,5.4,2.2,22.1-4.9
					c5.3-2.2,11.7-6.3,15.9-8.7c8.3-4.6,13.3-8.4,14.1-9.9c4.4-7.8,7.4-43.2,6.3-53.1C464.1,234.2,456.6,236.1,451.6,238.8
					L451.6,238.8L451.6,238.8z"/>
			</g>
		</g>
	</g>
</g>
<g id="Character_3">
	<g id="Character-2">
		<g id="Legs-2">
			<g>
				<g>
					<path class="st27" d="M314,357.5c0-0.1,1.9-7,1.9-7s-0.6,0.6-4.6-0.4c-2-0.5-4.3-1.8-4.3-1.8l-1.1,5c-1,1.9-4.5,1-8.4,0.6
						c-0.6-0.1-1.3-0.2-2-0.3h0c-2.1-0.1-4.1,1.1-2,2.9c2.1,1.8,5.7,2.4,9,3C306.4,360.2,313.3,361.4,314,357.5L314,357.5L314,357.5
						z"/>
					<g>
						<path class="st6" d="M286.5,356.9c0,0-0.4,0.8-0.3,2.1c0.1,0.8,2,3.4,5.3,4.9c3.3,1.6,7.4,1.7,9.4,2.2s3.7,1.7,6,2.2
							c2.3,0.6,4.5,0.9,6.8-0.6c0.4-0.6,0.9-2.1,0.8-2.3C314,365,286.5,356.9,286.5,356.9L286.5,356.9z"/>
						<path class="st7" d="M305.3,354c-1.5,1-4.5,0.3-7.8-0.1c-3.1-0.4-6.6-1.4-8.7-0.7s-3.9,3.2-1,6.4c0.8,0.9,2.6,2.5,3.9,3
							c3.5,1.3,6.7,1.4,9,1.9c3,0.7,4.6,2,7.3,2.4c3.5,0.4,5.8-0.5,6.4-1.4c0.6-0.9,1.2-8.5-0.3-8.4c0,0-0.6,2.5-6.4,0.1
							C305.1,356,305.2,354.5,305.3,354L305.3,354L305.3,354z"/>
						<path class="st0" d="M295.5,358c0,0,0.3-3.2,2.7-4.1c0,0,0.8-0.4,1.3,0.2c0,0-2.2,0.3-2.9,4.1c0,0-0.1,0.2-0.6,0.2
							C295.8,358.4,295.5,358.3,295.5,358L295.5,358L295.5,358z"/>
						<path class="st0" d="M301.5,354.4c0,0,0-0.1-0.6-0.2c-0.4-0.1-0.6,0.1-0.6,0.1s-1.8,0.8-2.1,4.1c0,0,0,0.4,0.5,0.5
							c0.5,0.1,0.6-0.3,0.6-0.3S299.8,355.1,301.5,354.4z"/>
						<path class="st0" d="M303.4,354.5c0,0-0.1-0.2-0.5-0.2c-0.5,0-0.6,0.2-0.6,0.2s-1.3,1.3-1.3,4.1c0,0,0,0.5,0.6,0.5
							c0.7,0,0.6-0.5,0.6-0.5S302.4,355,303.4,354.5L303.4,354.5L303.4,354.5z"/>
					</g>
				</g>
				<g>
					<path class="st9" d="M314.9,312.4c-2.2,9.3-9,37.2-9,37.2s5,4.5,10.4,2.4c5.8-15.2,16.1-25.6,16-36.8L314.9,312.4z"/>
					<path class="st29" d="M314.9,312.4c-2.2,9.3-9,37.2-9,37.2s5,4.5,10.4,2.4c5.8-15.2,16.1-25.6,16-36.8L314.9,312.4z"/>
				</g>
			</g>
			<g>
				<g>
					<path class="st27" d="M294.1,367.1c0.6-0.9,2.8-7,2.8-7s-2.3,1.3-6.3,0.4c-2-0.5-3.9-2.7-3.9-2.7l-1.7,5.9c-1,2-4.2,1.3-8.1,1
						c-0.6-0.1-1.3-0.1-2-0.2h0c-2.1-0.1-4.1,1.2-1.9,2.9c2.2,1.7,5.8,2.3,9,2.8C286,370.8,291.9,370.4,294.1,367.1L294.1,367.1
						L294.1,367.1z"/>
					<g>
						<path class="st6" d="M264.4,367c0,0-0.4,0.9-0.2,2.3c0.1,0.8,2.2,3.5,5.8,5.1s8,1.6,10.1,2.2c2.1,0.5,4,1.7,6.5,2.2
							c2.5,0.5,4.9,0.8,7.3-0.9c0.4-0.7,0.9-2.3,0.7-2.5C294.2,375,264.4,367,264.4,367L264.4,367L264.4,367z"/>
						<path class="st7" d="M284.4,363.3c-0.2,0.2-0.5,0.3-0.7,0.5c-0.3,0.1-0.5,0.1-0.8,0.2c-0.6,0.1-1.3,0.1-1.9,0
							c-1.6-0.1-3.2-0.3-4.8-0.5c-3.3-0.3-7.1-1.4-9.3-0.5c-2.2,0.8-4.3,3.5-1.1,6.9c0.9,1,2.8,2.6,4.2,3.2c3.7,1.5,7.6,1.3,10,1.8
							c3.2,0.7,5,2.1,7.9,2.3c3.8,0.4,6.2-0.7,6.8-1.7c0.4-0.6,0-3.5,0.4-5.9c0.4-2,0.3-3.4-0.4-3.3c-0.1,0.3-0.4,0.5-0.6,0.7
							c-0.2,0.3-0.5,0.5-0.8,0.7c-0.5,0.2-0.9,0.4-1.4,0.5c-0.9,0.2-1.8,0.4-2.6,0.4c-0.2,0-0.5-0.1-0.7-0.2
							c-0.3-0.2-0.4-0.6-0.4-0.9c-0.1-0.3-0.1-0.6-0.2-0.9c0-0.2-0.1-0.3-0.2-0.5c-0.1-0.2-0.3-0.3-0.5-0.4
							c-0.5-0.3-1.1-0.6-1.5-1.1c-0.3-0.4-0.4-0.9-0.4-1.4c0-0.1,0-0.2-0.1-0.2c-0.1-0.1-0.3,0-0.4,0.1
							C284.7,363.1,284.6,363.2,284.4,363.3L284.4,363.3L284.4,363.3z"/>
						<path class="st0" d="M274.1,368c0,0,0.3-3.5,2.8-4.4c0,0,0.8-0.4,1.4,0.1c0,0-2.4,0.4-3,4.5c0,0-0.1,0.3-0.6,0.2
							C274.4,368.3,274.1,368.3,274.1,368L274.1,368L274.1,368z"/>
						<path class="st0" d="M280.5,363.9c0,0,0-0.1-0.6-0.2c-0.4-0.1-0.7,0.1-0.7,0.1s-1.9,0.9-2.1,4.5c0,0,0,0.4,0.6,0.5
							c0.6,0.1,0.7-0.4,0.7-0.4S278.6,364.6,280.5,363.9L280.5,363.9L280.5,363.9z"/>
						<path class="st0" d="M282.5,363.9c0,0-0.1-0.2-0.6-0.2c-0.6,0-0.7,0.2-0.7,0.2s-1.3,1.4-1.3,4.4c0,0,0,0.5,0.7,0.5
							s0.6-0.5,0.6-0.5S281.4,364.6,282.5,363.9L282.5,363.9L282.5,363.9z"/>
					</g>
				</g>
				<g>
					<path class="st9" d="M296.1,321.2c-2.3,7-8.1,26.9-10.7,37.2c0,0,4.8,4.3,10.9,3.9c3.2-7.7,18.1-28.9,16.3-38
						c-1.1-5.7-7.4-4.1-7.4-4.1L296.1,321.2z"/>
					<path class="st8" d="M296.1,321.2c-2.3,7-8.1,26.9-10.7,37.2c0,0,4.8,4.3,10.9,3.9c3.2-7.7,18.1-28.9,16.3-38
						c-1.1-5.7-7.4-4.1-7.4-4.1L296.1,321.2z"/>
					<path class="st8" d="M311.3,332.8c-2.1-1.5-6.9-4.5-7.5-6c0,0,0.7,4.8,6.7,8.1L311.3,332.8L311.3,332.8z"/>
				</g>
			</g>
		</g>
		<g>
			<g>
				<path class="st6" d="M389.1,391.8l-6.3-52.8l-5.2-0.3l8.9,53.1l0,0c0,0.2,0.1,0.3,0.3,0.5c0.5,0.3,1.3,0.4,1.8,0.1
					C388.9,392.2,389.1,392,389.1,391.8L389.1,391.8L389.1,391.8z"/>
				<g>
					<path class="st7" d="M318.2,334.1H313l-7.5,49.9l0,0c0,0.2,0.1,0.4,0.4,0.6c0.5,0.3,1.3,0.3,1.9,0c0.2-0.1,0.3-0.3,0.4-0.5l0,0
						L318.2,334.1z"/>
					<path class="st6" d="M313,334.1l-2.1,13.9c0.9,0.8,2.8,1.9,4,2.4l3.3-16.4L313,334.1L313,334.1z"/>
				</g>
				<g>
					<path class="st7" d="M354.5,409.5l-4.9-53.7l-5.2-0.3l7.4,54l0,0c0,0.2,0.1,0.3,0.4,0.5c0.5,0.3,1.3,0.4,1.8,0.1
						C354.3,409.9,354.5,409.7,354.5,409.5L354.5,409.5L354.5,409.5z"/>
					<path class="st6" d="M350.3,363.6l-0.7-7.9l-5.2-0.3l1.2,8.5C346.7,364.3,348.8,364.1,350.3,363.6L350.3,363.6L350.3,363.6z"/>
				</g>
				<path class="st6" d="M346.5,317.7h-5.2l-7.5,49.9l0,0c0,0.2,0.1,0.4,0.4,0.6c0.5,0.3,1.3,0.3,1.9,0c0.2-0.1,0.3-0.3,0.4-0.5l0,0
					L346.5,317.7z"/>
			</g>
			<path class="st9" d="M309.8,333.1c-0.7-4.1,2.6-7.3,8.9-11.5c6.3-4.2,14.3-8.4,18.1-10.2c5.2-2.4,10.6-2.2,17.3,1.3
				c9.3,4.8,37.4,21.8,37.4,21.8s-41.9,23.7-50,22.6c-8.1-1.1-28.2-14.2-29.8-18.8C310.1,333.7,309.8,333.1,309.8,333.1L309.8,333.1
				L309.8,333.1z"/>
			<g class="st21">
				<path class="st22" d="M309.8,333.1c-0.7-4.1,2.6-7.3,8.9-11.5c6.3-4.2,14.3-8.4,18.1-10.2c5.2-2.4,10.6-2.2,17.3,1.3
					c9.3,4.8,37.4,21.8,37.4,21.8s-41.9,23.7-50,22.6c-8.1-1.1-28.2-14.2-29.8-18.8C310.1,333.7,309.8,333.1,309.8,333.1
					L309.8,333.1L309.8,333.1z"/>
			</g>
			<path class="st9" d="M345.5,352.1c-6,5.5-12.3,0.8-22.3-5.7c-11.3-7.3-13.5-13.3-13.5-13.3s0,4.5,0.8,6.6
				c0.8,2.1,2.7,4.5,10.8,10.1c8.1,5.6,14,8.4,19.5,9.5l4.3-0.6"/>
			<path class="st23" d="M323.3,346.4c-11.3-7.3-13.5-13.3-13.5-13.3s0,4.5,0.8,6.6c0.8,2.1,2.7,4.5,10.8,10.1
				c8.1,5.6,14,8.4,19.5,9.5l4.3-0.6l0.3-6.5C339.5,357.6,333.2,352.9,323.3,346.4L323.3,346.4L323.3,346.4z"/>
		</g>
		<g id="Top">
			<g>
				<g>
					<path class="st9" d="M375.7,311.5c-7.8-0.8-30-6.4-35.4-7.3c-10.4-1.8-15.6-2-18.6-1.1c-3,0.9-5.5,4.3-6.5,7.8
						c-1.1,4.2-1.6,6.4-1.6,6.4s22.8,8,34.3,9.4C359.4,328,375.7,311.5,375.7,311.5L375.7,311.5L375.7,311.5z"/>
					<path class="st29" d="M375.7,311.5c-7.8-0.8-30-6.4-35.4-7.3c-10.4-1.8-15.6-2-18.6-1.1c-3,0.9-5.5,4.3-6.5,7.8
						c-1.1,4.2-1.6,6.4-1.6,6.4s22.8,8,34.3,9.4C359.4,328,375.7,311.5,375.7,311.5L375.7,311.5L375.7,311.5z"/>
				</g>
				<g>
					<path class="st9" d="M375.7,311.5c0.4,11,0.1,21.2-5.2,26.8c-3.6,3.7-21.4,13.4-32.9,9.6c-11.4-3.8-34.9-21.2-37.2-23
						c-2.4-1.8-4.5-3-4.3-3.7c3.2-10.5,7.8-11.3,16.4-9.5c10.5,2.3,33.6,11.7,33.6,11.7L375.7,311.5z"/>
					<path class="st8" d="M375.7,311.5c0.4,11,0.1,21.2-5.2,26.8c-3.6,3.7-21.4,13.4-32.9,9.6c-11.4-3.8-34.9-21.2-37.2-23
						c-2.4-1.8-4.5-3-4.3-3.7c3.2-10.5,7.8-11.3,16.4-9.5c10.5,2.3,33.6,11.7,33.6,11.7L375.7,311.5z"/>
				</g>
			</g>
			<g>
				<g>
					<polygon class="st27" points="330.8,253.3 335.1,265.9 348.8,261.6 344.6,247.3 					"/>
					<g>
						<path class="st30" d="M322,236.5c0,0-3.2,4.7-2.9,5.2c0.4,0.5,2.6,0.9,2.6,0.9L322,236.5L322,236.5L322,236.5z"/>
						<path class="st6" d="M322.1,239.6c-2.1,0-3.9-1.7-3.9-3.9s1.7-3.9,3.9-3.9s3.9,1.7,3.9,3.9S324.2,239.6,322.1,239.6z
							 M322.1,232.5c-1.8,0-3.2,1.4-3.2,3.2s1.4,3.2,3.2,3.2s3.2-1.4,3.2-3.2S323.8,232.5,322.1,232.5z"/>
						<path class="st27" d="M331,223.5c-6.4,1.2-8.3,3.9-9.1,14c-0.9,10.5,0.1,13.9,1.5,15.3c0.9,1,6.1,1.3,8.7,0.6
							c3.3-0.8,10.8-3.3,14.4-8.5c4.2-6.1,5.5-14.6,1.2-18.1C341.7,221.8,333.6,223,331,223.5L331,223.5L331,223.5z"/>
						<path class="st30" d="M330.9,253.7c-2.7,0.6-6,0.1-7.2-0.6c0.1,0,2.1,0.5,4.6-0.2c2.6-0.7,3.1-1.6,3.1-1.6L330.9,253.7
							L330.9,253.7z"/>
					</g>
					<g>
						<path class="st6" d="M320.8,227.6C320.8,227.6,320.8,227.6,320.8,227.6c1.8,1.2,4,1.7,6.1,2.1c-0.2,1.7,0.4,3.4,0.9,5
							c0.4,1.1,1.7,4.7,3.1,2.7c1-1.4,2-2.7,4-2.3c3.3,0.6,3.6,4.8,1.5,7.3c-2.1,2.5-4.1,1.5-4.1,1.5s-0.3,4.5,2.1,7.7
							c0,0,3.6,2.2,8.6,0.5c3.2-1,7.7-5,9.4-8.1c4.6-8.6,4.6-16.8-1-19.3c-0.5-4.1-3.7-6-7.4-6.9c-5.1-1.3-10.3,1.9-15.2-0.2
							c-1-0.4-2-1.1-3-1.4c-0.6-0.2-1.3-0.3-1.8,0c-0.5,0.3-0.6,0.9-0.8,1.4c-0.2,1-0.3,2.1,0.2,2.9c-0.7-0.4-1.5-0.7-2.3-0.9
							s-1.7,0-2.3,0.5c-0.6,0.5-0.9,1.3-0.9,2C317.7,224.3,319,226.4,320.8,227.6L320.8,227.6L320.8,227.6z"/>
						<path class="st6" d="M351.5,226.1l3.9-2.1c-0.6-1.1-1.9-1.4-3-0.9S350.9,225.1,351.5,226.1z"/>
					</g>
					<polygon class="st6" points="330.8,237.8 318.5,235.5 318.6,234.9 331,237.2 					"/>
				</g>
				<g>
					<path class="st7" d="M347.4,256.9l-0.6-2.1c8.8-4.2,16.1,2.6,20.8,14.5c5.1,12.7,8.2,27.1,8.2,44.8c0,0-5.9,7.8-15.9,11.8
						c-10.6,4.2-25.4,2.4-30-8.6c0,0,0-7.3-0.3-13.7c-0.3-5.4-2.2-13.2-4.8-19.4c-2.5-5.9-5.8-16.7,1-20.8c2-1.2,5.1-2.5,7.8-3.8
						C339.8,261.8,348.2,259.4,347.4,256.9L347.4,256.9L347.4,256.9z"/>
					<path class="st5" d="M328.2,262.2c0.8-2,2.9-5.7,3.5-6.1c0,0,4.6,1.1,9.4-0.4c4.8-1.5,5-2.9,5-2.9l-0.3-1.2
						c0,0,0.4-0.5,1.7,0.5c1.3,1,1.9,2.2,2.4,2.9s0.1,4-3.4,6.3s-9.8,1.3-12.2,1c-2.4-0.3-4.3-1-4.3-1L328.2,262.2L328.2,262.2
						L328.2,262.2z"/>
				</g>
				<g>
					<path class="st7" d="M315.7,318.5c-3.4-1.3-5.5-5.1-5.9-7.6c-0.4-2.5,0.1-6.3,1.4-8.6S315.7,318.5,315.7,318.5z"/>
					<path class="st6" d="M311.2,302.8c1-6,3.1-15.4,5.1-25c1.9-9.4,4.5-12.2,9.5-14.3c11.9,7.1,6.6,28.2,6.6,28.2
						s-5.2,14.8-7.7,20.7c-1.6,3.9-5.6,8.2-9.8,5.8C310.6,315.7,310.2,308.8,311.2,302.8z"/>
				</g>
			</g>
		</g>
		<g>
			<path class="st9" d="M345.2,358.6c3.4-0.2,6.1-2.7,14.3-6.1c15-6.3,26.3-11.3,30.6-19.2c4.3-7.9,7.4-43.2,6.3-53.1
				c-0.1-1.3-0.4-2.4-0.7-3.3l1.1-0.2l-2.7-2.3l0,0c-2.8-2.3-7.4-0.2-10.8,1.6c-9.9,5.4-17.6,10.6-23.6,29.4
				c-4.6,14.1-7.6,39.6-13.9,46.6"/>
			<path class="st23" d="M395.6,277l1.1-0.2l-2.7-2.3l0,0c-2.8-2.3-7.4-0.2-10.8,1.6c-9.9,5.4-17.6,10.6-23.6,29.4
				c-4.6,14.1-7.6,39.6-13.9,46.6l-0.3,6.5c3.4-0.2,6.1-2.7,14.3-6.1c15-6.3,26.3-11.3,30.6-19.2s7.4-43.2,6.3-53.1
				C396.2,279,396,277.9,395.6,277L395.6,277L395.6,277z"/>
			<path class="st9" d="M385.7,277.5c-9.9,5.4-19.1,11.2-24.3,30.5c-5.2,19.1-8.5,48.1-20.5,51.3c0,0,5.4,2.2,22.1-4.9
				c5.3-2.2,11.7-6.3,15.9-8.7c8.3-4.6,13.3-8.4,14.1-9.9c4.4-7.8,7.4-43.2,6.3-53.1C398.1,272.9,390.6,274.8,385.7,277.5
				L385.7,277.5L385.7,277.5z"/>
			<g class="st28">
				<path class="st22" d="M385.7,277.5c-9.9,5.4-19.1,11.2-24.3,30.5c-5.2,19.1-8.5,48.1-20.5,51.3c0,0,5.4,2.2,22.1-4.9
					c5.3-2.2,11.7-6.3,15.9-8.7c8.3-4.6,13.3-8.4,14.1-9.9c4.4-7.8,7.4-43.2,6.3-53.1C398.1,272.9,390.6,274.8,385.7,277.5
					L385.7,277.5L385.7,277.5z"/>
			</g>
		</g>
	</g>
</g>
<g id="Character_2">
	<g id="Character-3">
		<g id="Legs-3">
			<g>
				<path class="st0" d="M235.3,397.9c0,0,0-3.1,2.2-4.2c0,0,0.7-0.4,1.3,0c0,0-2.1,0.5-2.4,4.2c0,0-0.1,0.2-0.6,0.2
					C235.7,398.2,235.3,398.2,235.3,397.9L235.3,397.9L235.3,397.9z"/>
				<g>
					<g>
						<path class="st5" d="M233.4,395.2c-3.4,0-5.3-0.4-9.4-0.3c-3.1,0.1-4.2,3.8-0.5,6.9c1,0.9,3.8,2.4,5.3,2.9
							c4.8,1.5,8.3,0.6,10.9,0.9c3.3,0.4,4.2,1.3,6.9,1.5c3.6,0.3,4.9-0.3,5.8-1.4c1.1-2.6,0.4-3.5,0.8-6.5c0.2-1.7,0.1-2.4-0.1-2.4
							C252.1,396.7,235.1,395.2,233.4,395.2L233.4,395.2L233.4,395.2z"/>
						<path class="st31" d="M253.1,397.1c0.5-1.7,2.1-8.5,2.1-8.5s-2.2,1.6-6.4,1c-2.1-0.3-3.5-5.8-3.5-5.8l-1.2,9.1
							c-0.8,2.1-4.9,2.2-8.8,2.2c-0.7,0-1.4,0-2,0h0c-2.1,0.1-4.1,1.7-1.7,3.2c2.4,1.5,6.1,1.7,9.5,1.9
							C245.1,400.5,251.9,401,253.1,397.1L253.1,397.1L253.1,397.1z"/>
					</g>
					<path class="st6" d="M248.7,346.7c-1.2,9.2-4.2,42.1-4.2,42.1s5.3,4.2,10.3,1.7c4.1-15.2,12.1-32,11-42.7L248.7,346.7
						L248.7,346.7L248.7,346.7z"/>
				</g>
			</g>
			<g>
				<g>
					<path class="st5" d="M215.2,405.9c-3.4,0-5.3-0.4-9.4-0.3c-3.1,0.1-4.2,3.8-0.5,6.9c1,0.9,3.8,2.4,5.3,2.9
						c4.8,1.5,8.3,0.6,10.9,0.9c3.3,0.4,4.2,1.3,6.9,1.5c3.6,0.3,4.9-0.3,5.8-1.4c1.1-2.6,0.4-3.5,0.8-6.5c0.2-1.7,0.1-2.4-0.1-2.4
						C233.8,407.4,216.9,405.9,215.2,405.9L215.2,405.9L215.2,405.9z"/>
					<path class="st31" d="M234.9,407.8c0.5-1.7,2.1-8.5,2.1-8.5s-2.2,1.6-6.4,1c-2.1-0.3-3.5-5.8-3.5-5.8l-1.2,9.1
						c-0.8,2.1-4.9,2.2-8.8,2.2c-0.7,0-1.4,0-2,0h0c-2.1,0.1-4.1,1.7-1.7,3.2c2.4,1.5,6.1,1.7,9.5,1.9
						C226.9,411.2,233.6,411.7,234.9,407.8L234.9,407.8L234.9,407.8z"/>
				</g>
				<path class="st7" d="M231.5,357c-1.5,7-3.9,33-5.4,43.1c0,0,4.6,2.8,10.4,1.8c2.4-7.7,13.8-35,11.1-43.5
					c-1.6-5.4-7.5-3.2-7.5-3.2L231.5,357z"/>
			</g>
		</g>
		<g>
			<g>
				<path class="st6" d="M322.6,429.9l-6.4-53l-5.2-0.3l8.9,53.2l0,0c0,0.2,0.1,0.3,0.4,0.5c0.5,0.3,1.3,0.4,1.9,0.1
					C322.4,430.3,322.6,430.1,322.6,429.9L322.6,429.9z"/>
				<g>
					<path class="st7" d="M251.4,372.1h-5.2l-7.6,50l0,0c0,0.2,0.1,0.4,0.4,0.6c0.5,0.3,1.3,0.3,1.9,0c0.2-0.1,0.3-0.3,0.4-0.5l0,0
						L251.4,372.1L251.4,372.1L251.4,372.1z"/>
					<path class="st6" d="M246.2,372.1l-2.1,14c0.9,0.8,2.8,1.9,4,2.4l3.3-16.4H246.2L246.2,372.1z"/>
				</g>
				<g>
					<path class="st7" d="M287.9,447.7l-4.9-53.9l-5.2-0.3l7.5,54.1l0,0c0,0.2,0.1,0.3,0.4,0.5c0.5,0.3,1.3,0.4,1.9,0.1
						C287.7,448.1,287.9,447.9,287.9,447.7L287.9,447.7L287.9,447.7z"/>
					<path class="st6" d="M283.7,401.7l-0.7-7.9l-5.2-0.3l1.2,8.5C280.1,402.4,282.2,402.2,283.7,401.7L283.7,401.7L283.7,401.7z"/>
				</g>
				<path class="st6" d="M279.8,355.6h-5.2l-7.6,50l0,0c0,0.2,0.1,0.4,0.4,0.6c0.5,0.3,1.3,0.3,1.9,0c0.2-0.1,0.3-0.3,0.4-0.5l0,0
					L279.8,355.6L279.8,355.6L279.8,355.6z"/>
			</g>
			<path class="st9" d="M243.1,371.1c-0.7-4.1,2.6-7.3,8.9-11.5c6.3-4.2,14.3-8.4,18.2-10.2c5.2-2.4,10.6-2.2,17.4,1.3
				c9.4,4.8,37.5,21.9,37.5,21.9s-42,23.7-50.1,22.7s-28.3-14.2-29.9-18.8C243.3,371.6,243.1,371.1,243.1,371.1L243.1,371.1
				L243.1,371.1z"/>
			<g class="st21">
				<path class="st22" d="M243.1,371.1c-0.7-4.1,2.6-7.3,8.9-11.5c6.3-4.2,14.3-8.4,18.2-10.2c5.2-2.4,10.6-2.2,17.4,1.3
					c9.4,4.8,37.5,21.9,37.5,21.9s-42,23.7-50.1,22.7s-28.3-14.2-29.9-18.8C243.3,371.6,243.1,371.1,243.1,371.1L243.1,371.1
					L243.1,371.1z"/>
			</g>
			<path class="st9" d="M278.9,390.1c-6,5.5-12.4,0.8-22.3-5.7c-11.3-7.3-13.5-13.3-13.5-13.3s0,4.5,0.8,6.6
				c0.8,2.1,2.7,4.5,10.8,10.1c8.1,5.6,14,8.4,19.5,9.5l4.3-0.6"/>
			<path class="st23" d="M256.6,384.4c-11.3-7.3-13.5-13.3-13.5-13.3s0,4.5,0.8,6.6c0.8,2.1,2.7,4.5,10.8,10.1
				c8.1,5.6,14,8.4,19.5,9.5l4.3-0.6l0.3-6.5C272.9,395.6,266.5,390.9,256.6,384.4L256.6,384.4L256.6,384.4z"/>
		</g>
		<g id="Top-2">
			<g>
				<path class="st6" d="M304,349.4c0,0-17.2-5-29-7.6c-9.9-2.2-13.9-2.7-17.6-2.5c-3.9,0.2-8.1,1.9-8.7,7.1
					c-0.4,3.6-0.8,7.1-0.8,7.1s20.3,9.8,31.4,11.1C290.5,365.9,304,349.4,304,349.4z"/>
				<path class="st7" d="M304.6,349.4c3.6,10.5,3,20.5-3.3,26.4c-3.6,3.4-20.7,13-31.9,9.3c-11-3.6-31.5-22.8-33.8-24.5
					c-2.3-1.7-4.4-2.9-4.1-3.6c3.1-10.2,7.6-11,15.9-9.1c10.2,2.2,30.2,13.7,30.2,13.7L304.6,349.4L304.6,349.4L304.6,349.4z"/>
			</g>
			<g>
				<g>
					<polygon class="st31" points="270.9,293.7 271.8,306.9 286.7,304.9 285.1,290.5 					"/>
					<g>
						<path class="st32" d="M263.5,278.3c0,0-3.2,3.8-2.9,4.3c0.3,0.5,2,1.1,2,1.1L263.5,278.3z"/>
						<path class="st6" d="M293.7,269.4c-0.3-3.2-3-5.7-4.4-6.4c-3.8-2.1-7.4-3-11.6-3c-4.8,0-10.4,1.5-13.1,5.7
							c-1,1.6-1.6,3.5-1.5,5.4c0.1,2.1,0.9,3.7,2.2,5.3c1.2,1.4,2.4,2.8,3.6,4.3c1.1,1.4,2,3,3.1,4.4c0.6,0.8,1.4,1.7,1.9,2.6
							c0,0.1,0.1,0.1,0.1,0.2c-0.9,0.1-1.8-0.4-1.8-0.4s-0.3,5.4,3.9,7.9c0,0,5.1,2.1,9.5,0.3c1.2-1.8,3.7-3.8,6.3-7.1
							C297.1,281.7,296.9,274.1,293.7,269.4L293.7,269.4L293.7,269.4z"/>
						<path class="st31" d="M276.4,286.7c-0.7,0.8-1.5,1-2.4,1.1c-0.9,0.1-1.8-0.3-1.8-0.3s0.3,4.3,2.8,7.1
							c-0.9,0.5-2.2,0.7-2.7,0.8c-2.6,0.5-7.4-0.4-8.3-1.4c-1.2-1.5-3.1-5.2-0.7-15.1c0.2-3.1-0.2-3.1,0.1-4.4c0.4-1.8,1.1-3,2-4.1
							c0,1.5,1.7,3.3,4,3.5c-0.8,0.9-1.2,2.2-1.1,3.4c0.2,1.5,1.1,2.7,2.1,3.9c0.1,0.1,0.1,0.1,0.2,0.2c0.1,0.1,0.8,0.1,0.9,0
							c1-1.2,2.4-2.6,4.8-1.5C279,281,278.4,284.4,276.4,286.7L276.4,286.7L276.4,286.7z"/>
						<path class="st32" d="M264.3,294.2c1.1,0.8,4.3,1.4,6.7,1.3l-0.2-1.9c0,0-1.1,0.5-3,0.7C266,294.6,264.4,294.2,264.3,294.2
							L264.3,294.2L264.3,294.2z"/>
						<path class="st6" d="M269.8,284.6c-1.2-0.6-1.7-2-1.1-3.1c0.6-1.2,2-1.6,3.2-1L269.8,284.6L269.8,284.6L269.8,284.6z"/>
					</g>
				</g>
				<path class="st10" d="M286,298.5l-0.1-1.2c8.5-1.5,14.4-1.9,17.1,10.2c1.6,7,2.2,14.8,3.1,29.2c0.5,7.1,0.4,9.5,1.5,22.5
					c0,0-3.7,4.8-18.7,5.8c-6,0.4-22.3-1.9-24.6-7.8c0,0,0.7-12.6,0.3-18.7c-0.4-5.2-1.5-9-3.4-13.9c-0.9-2.2-0.8-3.6-1.4-5.9
					c-1.5-6-2.3-13.5,4.8-16.4c2.1-0.8,3.9-1.5,6.7-2.3C277,303.1,286.4,301,286,298.5L286,298.5L286,298.5z"/>
				<path class="st31" d="M248.5,258.5c0-3.1,0.5-4.7,1.3-7.6s0.7-5.7,0.7-6.9c0-1.6,0-2.9,0-3c-0.2-0.8-1.9-0.1-2.3,1.8
					c-0.2,1.1-0.2,1.1-0.5,2.4c0,0.2-0.3,1.1-0.4,0.4c-0.1-0.9-0.1-3.1-0.1-4c0-0.9-0.3-1.8-0.4-2.5c-0.1-0.8-0.3-1.6-0.5-2.4
					c-0.2-1-0.5-2.1-0.7-3.2c-0.1-0.3-0.3-0.5-0.7-0.3c-1.1,0.5-1.2,1.6-1.2,2.7c0,0.7,0.1,1.4,0.1,2.2c-0.4-1.8-0.7-3.6-1.1-5.3
					c0-0.2-0.1-0.4-0.2-0.5c-0.3-0.3-0.8-0.2-1.2,0c-0.4,0.2-0.6,0.5-0.8,0.9c-0.2,0.4-0.3,1-0.3,1.5c-0.4,0.2-0.7,0.3-1.1,0.8
					c-0.5,0.6-0.5,1.3-0.5,2.1c0,0.1,0,0.2,0,0.3c0.1,1,0.1,3,0.2,4c-0.3-1.3-0.5-2.4-0.8-3.1c-0.1-0.3-0.2-0.3-0.3-0.4
					c-0.1,0-0.2,0-0.3,0.1c-0.5,0.3-0.7,0.8-0.8,1.4c-0.1,0.6,0,1.1,0.1,1.6c0.3,1.9,0.6,3.7,0.8,5.5c0.1,0.7,0.1,1.6,0.1,2.5
					c-0.1,0.7-0.1,1.4-0.2,2.1c-0.2,1.4-0.4,2.4,0.1,3.8c0.2,0.6,0.4,1.1,0.6,1.7c0.3,0.8,0.8,2.3,0.8,3.1c0,0.5-0.1,2.6-0.2,3.8
					c-0.1,1.5-0.4,12.5-0.8,20c-0.2,5.6-0.1,6.3,3.1,11.2c1.9,2.9,10.1,14.4,16,22.7c2.7,3.9,4.2,7,4.2,7c1.2,0.9,3.7-1.8,5.4-6.3
					c1.4-3.7,2.3-8.7,1.3-12.5c-1-3.8-3.3-4.6-6.8-8.5c-5.6-6.3-9.4-13-9.4-13S248.5,260.7,248.5,258.5L248.5,258.5L248.5,258.5z"/>
			</g>
			<path class="st6" d="M295.1,312.8c1.3-0.8,2.8-1,4.2-1.4c1.1-0.4,2.2-1.3,3-2.2c1.5-1.9,1.9-4.6,1.3-6.9
				c-0.5-2.2-1.7-3.9-3.2-5.6c1.2,0.6,2.2,1.5,3,2.6c-0.8-3-2.9-5.4-4.5-8.1c-0.8-1.3-1.4-2.5-1.8-4c-0.4-1.6-0.5-3.2-0.5-4.9
				c-0.1-7.5-0.3-10.2-3-12.8c-0.2,3.5-1.9,11.1-12.4,19.1c-2.3,1.8-7.3,1.5-9-1c-0.4,1.9-0.7,3.8-1.1,5.7c-0.4,1.9-0.6,4.2-1.8,5.7
				c-1.6,2.2-2.9,4.8-3,7.5s1.1,5.6,3.5,6.9c-0.5-1.2-0.5-2.6,0-3.9c0.6,1.9,1.3,3.9,2.9,5c1.9,1.2,4.3,0.8,6.4,1.5
				c1,0.3,2,0.9,3,1.4c1.9,0.8,4.1,0.9,6.1,0.3C291.3,316.8,292.7,314.3,295.1,312.8L295.1,312.8L295.1,312.8z"/>
		</g>
		<g>
			<path class="st9" d="M278.6,396.7c3.4-0.2,6.1-2.7,14.3-6.1c15.1-6.3,26.4-11.3,30.7-19.2c4.3-7.9,7.4-43.4,6.3-53.2
				c-0.1-1.3-0.4-2.4-0.7-3.3l1.1-0.2l-2.8-2.3l0,0c-2.8-2.3-7.4-0.2-10.9,1.6c-9.9,5.4-17.6,10.6-23.7,29.5
				c-4.6,14.2-7.6,39.8-14,46.7"/>
			<path class="st23" d="M329.1,314.8l1.1-0.2l-2.8-2.3l0,0c-2.8-2.3-7.4-0.2-10.9,1.6c-9.9,5.4-17.6,10.6-23.7,29.5
				c-4.6,14.2-7.6,39.8-14,46.7l-0.3,6.5c3.4-0.2,6.1-2.7,14.3-6.1c15.1-6.3,26.4-11.3,30.7-19.2c4.3-7.9,7.4-43.4,6.3-53.2
				C329.7,316.8,329.5,315.7,329.1,314.8L329.1,314.8L329.1,314.8z"/>
			<path class="st9" d="M319.2,315.2c-9.9,5.4-19.2,11.2-24.4,30.6c-5.2,19.1-8.5,48.2-20.6,51.4c0,0,5.4,2.2,22.1-4.9
				c5.3-2.2,11.8-6.3,16-8.7c8.3-4.6,13.3-8.5,14.1-9.9c4.4-7.9,7.4-43.4,6.3-53.2C331.7,310.7,324.2,312.6,319.2,315.2L319.2,315.2
				L319.2,315.2z"/>
			<g class="st28">
				<path class="st22" d="M319.2,315.2c-9.9,5.4-19.2,11.2-24.4,30.6c-5.2,19.1-8.5,48.2-20.6,51.4c0,0,5.4,2.2,22.1-4.9
					c5.3-2.2,11.8-6.3,16-8.7c8.3-4.6,13.3-8.5,14.1-9.9c4.4-7.9,7.4-43.4,6.3-53.2C331.7,310.7,324.2,312.6,319.2,315.2
					L319.2,315.2L319.2,315.2z"/>
			</g>
		</g>
	</g>
</g>
<g id="Character_1">
	<g id="Chartacter">
		<g id="Bottom">
			<g>
				<polygon points="139.9,294.8 143.9,293.1 142.5,290.3 139.9,292.6 				"/>
				<path class="st6" d="M135.4,287.2c0,0,0.1,2.9,0,3.8c0,0.8,3.6,3.5,4.5,3.9l0-2.2c0.8,0.8,1.2,1.8,2.1,3.2
					c0.7,1.2,1.6,3.5,3.5,5c2.9,2.3,7.4,3.5,11.9,3.7c4.6,0.2,7.2-0.9,8.5-1.8c1.3-1,1.7-2.1,1.4-3.2S135.3,287.2,135.4,287.2
					L135.4,287.2L135.4,287.2z"/>
				<g>
					<path class="st5" d="M147.7,278.2l0.1-1.5c0.9,0,0.9,2.2,2.1,4.2c1.6,2.6,4.1,6,6.4,8.1c4.6,4.2,8.8,6.8,10.8,8.6
						c2.8,2.5-2.2,6.4-9.6,5.9c-3.7-0.2-10.3-2.1-12.1-4.3c-1.8-2.1-2.9-5.5-4.4-7s-4.6-3.1-5.6-5c-0.5-1-0.2-3.4,0.1-5.5
						c0.3-1.9,0.4-4.8,1.5-4.5l0.1,1c0.4,0.8,1.5,2.2,4.4,2.7C143,281.1,147.4,281.3,147.7,278.2L147.7,278.2L147.7,278.2z"/>
					<path class="st33" d="M143.9,280.9c1.4-0.1,3-0.5,3.6-1.8c0,0,0,0,0,0c0,0-0.4,1.4,0.9,3c1.3,1.5,9.7,12.3,9.7,12.3
						s-7.8-8.9-9.3-10.6C146.6,281.3,145.9,281,143.9,280.9L143.9,280.9L143.9,280.9z"/>
				</g>
				<g>
					<path class="st33" d="M145.7,283.8c0,0.2-0.3,0.4-0.5,0.4s-0.4-0.2-0.4-0.5s0.3-0.4,0.5-0.4S145.7,283.6,145.7,283.8z"/>
					<path class="st33" d="M147.9,286.2c0,0.2-0.3,0.4-0.5,0.4s-0.4-0.2-0.4-0.5s0.3-0.4,0.5-0.4S147.9,286,147.9,286.2z"/>
					<path class="st33" d="M150.1,288.6c0,0.2-0.3,0.4-0.5,0.4s-0.4-0.2-0.4-0.5s0.3-0.4,0.5-0.4S150.1,288.3,150.1,288.6z"/>
					<path class="st33" d="M152.3,291c0,0.2-0.3,0.4-0.5,0.4s-0.4-0.2-0.4-0.5s0.3-0.4,0.5-0.4S152.3,290.7,152.3,291z"/>
					<path class="st33" d="M154.5,293.4c0,0.2-0.3,0.4-0.5,0.4s-0.4-0.2-0.4-0.5s0.3-0.4,0.5-0.4S154.5,293.1,154.5,293.4z"/>
				</g>
				<path class="st6" d="M145.2,283.9c0,0-0.1,0-0.1,0c-0.1-0.1-0.1-0.2,0-0.2c0.1-0.1,2.3-2.1,5.2-1.9l0,0c0.1,0,0.2,0.1,0.2,0.2
					s-0.1,0.2-0.2,0.2c-2.7-0.2-4.9,1.8-4.9,1.8C145.3,283.9,145.3,283.9,145.2,283.9L145.2,283.9L145.2,283.9z"/>
				<path class="st6" d="M147.4,286.3c0,0-0.1,0-0.1,0c-0.1-0.1-0.1-0.2,0-0.2c0.1-0.1,2.3-2.1,5.2-1.9l0,0c0.1,0,0.2,0.1,0.2,0.2
					s-0.1,0.2-0.2,0.2c-2.7-0.2-4.9,1.8-4.9,1.8C147.5,286.3,147.5,286.3,147.4,286.3L147.4,286.3L147.4,286.3z"/>
				<path class="st6" d="M149.6,288.7c0,0-0.1,0-0.1,0c-0.1-0.1-0.1-0.2,0-0.2c0.1-0.1,2.3-2.1,5.2-1.9l0,0c0.1,0,0.2,0.1,0.2,0.2
					s-0.1,0.2-0.2,0.2c-2.7-0.2-4.9,1.8-4.9,1.8C149.7,288.7,149.7,288.7,149.6,288.7L149.6,288.7L149.6,288.7z"/>
				<path class="st6" d="M151.8,291.1c0,0-0.1,0-0.1,0c-0.1-0.1-0.1-0.2,0-0.2c0.1-0.1,2.3-2.1,5.2-1.9l0,0c0.1,0,0.2,0.1,0.2,0.2
					s-0.1,0.2-0.2,0.2c-2.7-0.2-4.9,1.8-4.9,1.8C151.9,291.1,151.9,291.1,151.8,291.1L151.8,291.1L151.8,291.1z"/>
				<path class="st6" d="M154,293.5c0,0-0.1,0-0.1,0c-0.1-0.1-0.1-0.2,0-0.2c0.1-0.1,2.3-2.1,5.2-1.9l0,0c0.1,0,0.2,0.1,0.2,0.2
					s-0.1,0.2-0.2,0.2c-2.7-0.2-4.9,1.8-4.9,1.8C154.1,293.5,154,293.5,154,293.5L154,293.5L154,293.5z"/>
			</g>
			<g>
				<g>
					<path class="st6" d="M106.3,307.7c-0.4,3.5-1.2,5.8-2.6,7.8c-1.4,2-4.2,2.4-6.2,2.1c-2.9-0.4-5.8-2.2-7.2-6.1
						c-0.8-2.4-0.5-5.1,0.3-8.4C90.6,303.1,106.3,307.7,106.3,307.7z"/>
					<path class="st5" d="M96.8,281.5c-1,0-1.6,4.7-2.5,9.4c-1,5-2.7,7.8-3.5,11.1c-1,4.7-0.8,6.8,0.7,9.8s8.8,6.3,12,2.4
						c2.7-3.2,3-6.9,3.1-11.7c0.1-4.9,0.1-8.4,0.6-12.1c0.4-3.5,0.9-7,0.1-7.4c-0.1,0.5-0.2,1.2-0.3,1.7c-0.1,0.4-0.3,2.3-0.9,2.3
						c0-0.5,0-0.9,0.1-1.3c0.1-0.4,0.1-0.8-0.2-1.2s-0.7-0.5-1.1-0.5c-1-0.2-2-0.5-3-0.6c-0.5-0.1-1-0.1-1.5-0.1
						c-0.4,0-2.3-0.2-2.7,0c-0.2,0.1-0.5,0.2-0.6,0.5c-0.1,0.2-0.1,0.4-0.1,0.5c0,0.3-0.1,0.6-0.2,1c-0.1,0.1-0.2,0.3-0.3,0.3
						c-0.1,0-0.2-0.2-0.2-0.3c0-0.6,0.1-1,0.2-1.6c0-0.3,0.1-0.7,0.1-1C96.7,282.2,96.8,281.8,96.8,281.5L96.8,281.5L96.8,281.5z"/>
					<path class="st33" d="M94.4,303.5c0,0.2,0.1,0.4,0.3,0.4c0.2,0,0.4-0.1,0.4-0.3c0-0.2-0.1-0.4-0.3-0.4
						C94.7,303.2,94.5,303.3,94.4,303.5z"/>
					<path class="st33" d="M95,300.2c0,0.2,0.1,0.4,0.3,0.4c0.2,0,0.4-0.1,0.4-0.3c0-0.2-0.1-0.4-0.3-0.4
						C95.2,299.9,95,300.1,95,300.2z"/>
					<path class="st33" d="M95.5,297.2c0,0.2,0.1,0.4,0.3,0.4c0.2,0,0.4-0.1,0.4-0.3s-0.1-0.4-0.3-0.4
						C95.7,296.9,95.6,297,95.5,297.2z"/>
					<path class="st33" d="M96,294.1c0,0.2,0.1,0.4,0.3,0.4c0.2,0,0.4-0.1,0.4-0.3c0-0.2-0.1-0.4-0.3-0.4
						C96.3,293.8,96.1,294,96,294.1z"/>
					<path class="st33" d="M104,295.1c0,0.2,0.1,0.4,0.3,0.4c0.2,0,0.4-0.1,0.4-0.3c0-0.2-0.1-0.4-0.3-0.4
						C104.2,294.8,104,294.9,104,295.1z"/>
					<path class="st33" d="M103.5,298.2c0,0.2,0.1,0.4,0.3,0.4c0.2,0,0.4-0.1,0.4-0.3c0-0.2-0.1-0.4-0.3-0.4
						C103.7,297.9,103.5,298,103.5,298.2z"/>
					<path class="st33" d="M103,301.2c0,0.2,0.1,0.4,0.3,0.4s0.4-0.1,0.4-0.3c0-0.2-0.1-0.4-0.3-0.4
						C103.2,300.9,103,301.1,103,301.2z"/>
					<path class="st33" d="M102.4,304.5c0,0.2,0.1,0.4,0.3,0.4c0.2,0,0.4-0.1,0.4-0.3c0-0.2-0.1-0.4-0.3-0.4
						S102.5,304.3,102.4,304.5z"/>
					<polygon class="st33" points="99.3,305.9 103.6,283.2 102.2,283.1 					"/>
				</g>
				<g>
					<path class="st6" d="M94.8,303.7L94.8,303.7c2.4-0.4,6.4,0.1,7.9,0.9c0.1,0,0.2,0,0.2-0.1c0.1-0.1,0-0.2-0.1-0.2
						c-1.6-0.9-5.6-1.4-8.1-1c-0.1,0-0.2,0.1-0.2,0.2C94.6,303.7,94.7,303.7,94.8,303.7z"/>
					<path class="st6" d="M95.3,300.5C95.3,300.5,95.4,300.5,95.3,300.5c1.9-0.7,6.2,0,7.9,0.9c0.1,0,0.2,0,0.2-0.1s0-0.2-0.1-0.2
						c-1.8-1-6.2-1.7-8.1-1c-0.1,0-0.1,0.1-0.1,0.2C95.2,300.4,95.3,300.5,95.3,300.5L95.3,300.5L95.3,300.5z"/>
					<path class="st6" d="M95.8,297.4C95.8,297.4,95.9,297.4,95.8,297.4c1.9-0.7,6.2,0,7.9,0.9c0.1,0,0.2,0,0.2-0.1
						c0.1-0.1,0-0.2-0.1-0.2c-1.8-1-6.2-1.7-8.1-1c-0.1,0-0.1,0.1-0.1,0.2C95.7,297.4,95.8,297.4,95.8,297.4L95.8,297.4L95.8,297.4z
						"/>
					<path class="st6" d="M96.4,294.4C96.4,294.4,96.4,294.4,96.4,294.4c1.9-0.7,6.2,0,7.9,0.9c0.1,0,0.2,0,0.2-0.1
						c0.1-0.1,0-0.2-0.1-0.2c-1.8-1-6.2-1.7-8.1-1c-0.1,0-0.1,0.1-0.1,0.2C96.2,294.3,96.3,294.4,96.4,294.4z"/>
				</g>
			</g>
			<g>
				<path class="st6" d="M104.5,165.9c-2.7,28.9-4.7,68.2-4.7,68.2c-0.2,2.2-2.5,11.5-3.8,22.3c-1.3,11.4-2.5,32.8-2.5,32.8
					s8.2,4.4,14.9,2.4c0,0,7.6-35.9,11.2-49.3c3.4-12.7,8.8-36.7,8.8-36.7l3.1,23.9c0,0-0.6,8.2-0.4,14c0.2,6.7,4.2,39,4.2,39
					s8.9,5.2,15.9,0.2c0,0,1-44.2,1.2-52.2c0.4-16.2,0.8-44.2,0.5-64.6L104.5,165.9L104.5,165.9L104.5,165.9z"/>
				<path d="M116.2,199.3c-0.7,6.9-1.5,13.8-2.4,20.7c-0.4,3.4-0.9,6.9-1.3,10.3l-0.7,5.2l-0.3,2.6c-0.1,0.9-0.3,1.7-0.4,2.6
					c-1.3,6.8-3.2,19.3-4.6,26.1s-2.8,13.6-4.4,20.4c1-6.9,2.1-13.7,3.3-20.6c1.2-6.8,3.1-19.3,4.4-26.1c0.2-0.9,0.3-1.7,0.5-2.6
					l0.4-2.6l0.7-5.2c0.5-3.4,1-6.9,1.5-10.3C113.9,213,115,206.2,116.2,199.3L116.2,199.3L116.2,199.3z"/>
				<path d="M147.6,197.8c0.7,6.5,1,13,1.2,19.5c0.2,6.5,0.4,13,0,19.5c-0.2,6.5-0.6,17.4-0.9,23.9c-0.3,6.5-0.7,13-1.2,19.5
					c0-6.5,0.1-13,0.2-19.5c0.1-6.5,0.4-17.4,0.6-23.9l0.2-4.9l0.1-1.2v-13.4l0-9.7C147.7,204.3,147.7,201.1,147.6,197.8
					L147.6,197.8L147.6,197.8z"/>
				<path d="M128.4,205.5l3.1-15.8c0,0,8.1-1,12.3-4.6c0,0-2.7,4.7-10.4,6.5l-3.1,13.9l1.2,23.9L128.4,205.5L128.4,205.5
					L128.4,205.5z"/>
			</g>
		</g>
		<g id="Top-3">
			<g id="Arm">
				<path class="st7" d="M145.4,109.4c4.9,1.5,5.6,2.6,14.5,10.1c7.3,6.2,11.2,8.8,11.2,8.8s7.6,9,7.9,10.8s-0.3,6.1-3.7,8.6
					c-1.9,1.4-4,0.9-6.1-0.2c-2.5-1.3-3.7-2-4.9-2.7c-8.2-4.8-14.9-9.1-14.9-9.1L145.4,109.4L145.4,109.4L145.4,109.4z"/>
				<g>
					<path class="st20" d="M197.7,103.7c-1.2-0.7-1.4,0.4-1.9,0.6c0,0,1.2-1.5-0.9-2.7c-1.3-0.8-1.9,1.1-1.9,0.8
						c0-0.1,1.5-3.8,2.8-7c1.2-3,0.1-3.9-0.4-4.1c-0.4-0.2-1,0-2.1,2.2c-1.1,2.2-4.3,8.8-5.1,10.1c-0.7,1.4-1.3,2-1.8,0.2
						c-0.5-1.7-0.9-3.2-1.9-4.2c-1.6-1.7-2.9-0.9-2.6,0.4c0.4,1.8,0.4,4,0.7,6.9c0.2,1.6,0.2,3,0.4,4.1c0.6,3.7-1.6,5.5-4.1,8.4
						c-2.1,2.4-4.2,4.4-9,9.3c-4.6,4.6-3.9,14.8,0.4,17.2c4.8,2.7,6.1,1.1,11-6.6c3.2-4.9,7.4-14,8.6-16.1c1.2-2.1,1.6-3.4,3.2-4.4
						c2.2-1.4,3.2-2.9,4.5-5.1c0.6-1.1,1.7-3,2.4-4.6c0.7-1.5,0.8-2.7-0.1-3.3c-1.2-0.9-1.6,0.5-1.7,0.3S199.5,104.7,197.7,103.7
						L197.7,103.7L197.7,103.7z"/>
					<path class="st27" d="M196.1,111.6c-0.4-0.6,0-1.7,0-1.7s-0.4,0.6-1,0.9c-0.6,0.2-1.5-0.2-1.7-0.8c-0.2-0.6,0.2-1.4,0.2-1.4
						s-0.4,0.4-1.1,0.6c-0.7,0.2-1.3-0.2-1.5-1s0.7-2.8,1.6-4.7c0,0-0.8,0.8-1.5,2.1c-0.5,1-0.9,1.7-0.8,2.5c-0.5-0.7-1.2-1.2-2-1.6
						c1.7,1.6,3,6.1,2.3,9.1c1.2-1.8,1.3-4,0.6-5.9c0.5,0.3,1.2,0.2,1.6-0.1c0,0.4-0.1,1.1,0.9,1.7c1,0.6,1.7,0,1.7,0
						s-0.2,0.7,0.7,1.1c0.9,0.4,1.6-0.1,2.1-0.9C197.8,112.1,196.6,112.2,196.1,111.6L196.1,111.6L196.1,111.6z"/>
				</g>
			</g>
			<g id="Chest">
				<path class="st5" d="M106.6,111c0,0-4.5,4-3.3,14.8c1,9.4,1.5,17.3,1.6,21c0.2,5.6-1.2,24.4-1.2,24.4
					c8.1,10.4,44.5,9.3,49.2,0.3c0,0,0-13,0-25.5c0-9.2,0.3-17.6-0.9-23c-1.6-7.2-3.9-11.5-6.6-13.6l-11.9-3.3l-10.9-0.5L106.6,111
					L106.6,111L106.6,111z"/>
			</g>
			<g id="Head">
				<path class="st6" d="M119.5,101c-0.7-3.6-4.4-7.2-6.1-10.3c-1.6-3-2.6-5.3-2.5-8.2c0.1-1.7,0.5-3.3,1.9-4.6
					c-0.3-6.2,5.9-9.4,10.1-10.5c4.9-1.3,8.8-1.6,13.9,0.5c1.9,0.8,4.3,2,6.2,5.9c0.7,1.4,0.9,3.8,0.8,5.9c0,0.2-0.4,1-0.5,1.1
					s-0.1,0.7-0.1,0.8c-0.1,0.6-0.2,1.1-0.6,1.6c-0.5,0.8-1.2,1.5-2,1.9c-2.6,1.3-5.6,1.8-8.4,2.5c-1.1,0.3-2.2,0.5-3.4,0.8
					c-0.2,0.1-1.2,0.1-1.3,0.3L119.5,101L119.5,101L119.5,101z"/>
				<g>
					<path class="st20" d="M115.2,96.5c2.6,1.4,4.2-0.2,4.2-0.2l-0.7,10.8c2.1,4.9,8,2.8,14.8,11.2c0,0,2.1-3.5,0.4-10.6l0.3-3.6
						c0,0,2.6-0.1,4.3-0.3c3-0.5,4.6-3.1,5.5-7.1c0.8-3.2,0.9-7.1,0.1-10.9c-0.2-1-0.3-2-0.2-3c0.2-2.6-0.3-4.2-1.1-6.3
						c-3.2-2.4-10.4-3.1-17,1.2c0.9,4-0.6,7.2-3.4,8.8c0.2,1.1,0.4,3.8-1.4,3.8c-1.3,0-1.4-1.6-2.8-3c-1.4-1.4-4.4-1.7-5.5,0.4
						C111.1,90.7,112.3,95,115.2,96.5L115.2,96.5L115.2,96.5z"/>
					<polygon class="st27" points="135.4,83.5 140.8,90.8 135.8,92.2 					"/>
					<path class="st6" d="M132,82.3l-2.8,1.4c-0.4-0.8,0-1.7,0.7-2.1C130.7,81.2,131.6,81.5,132,82.3L132,82.3L132,82.3z"/>
					<path class="st6" d="M142.6,83l-2.7-1.5c0.4-0.8,1.3-1.1,2.1-0.7C142.7,81.2,143,82.2,142.6,83z"/>
					<path class="st27" d="M134.2,104.2c-4.5-0.4-8.1-0.8-10.5-4c-1.5-2-2.8-5.2-2.8-5.2s0.6,4,2.1,6.6c1.2,2,4,3.9,11.1,4.3
						L134.2,104.2z"/>
				</g>
				<g>
					<path class="st6" d="M132.4,86.1c0.1,0.7-0.5,1.3-1.2,1.4c-0.7,0.1-1.3-0.5-1.4-1.2c-0.1-0.7,0.5-1.3,1.2-1.4
						C131.7,84.8,132.3,85.4,132.4,86.1z"/>
					<path class="st30" d="M131.2,94l5,1.3c-0.4,1.4-1.9,2.2-3.3,1.9S130.8,95.4,131.2,94z"/>
					<path class="st27" d="M134.4,97.2c-0.3-1.5-1.7-2.6-3.3-2.4c0,1.1,0.7,2.2,1.9,2.5C133.5,97.3,134,97.3,134.4,97.2L134.4,97.2
						L134.4,97.2z"/>
					<path class="st6" d="M140.4,84.3c0.7,0,1.2,0.6,1.2,1.3s-0.6,1.3-1.3,1.3s-1.2-0.6-1.2-1.3S139.7,84.2,140.4,84.3"/>
				</g>
			</g>
			<g id="Tie">
				<g>
					<path class="st7" d="M133.5,118.3c0,0-1.4-0.9-2.4-2.1c-1.1-1.2-1.6-1.7-2-1.3c-0.6,0.6-2.4,3.8-2.8,4.9
						c-0.5,1.1-0.4,1.1-1.9,0.1c-2.9-1.9-5.3-4.4-6.7-6.5c-2-2.9-2.7-5.3-2.7-5.3s1.7-2.3,2.2-3.2c1-1.7,0.9-2.4,1.9-2.3v1.2
						c0.2,1.5,2.3,2.8,4.4,4.7c2.1,1.8,5.5,3.5,6.3,4.3C130.3,113.4,133.5,118.3,133.5,118.3L133.5,118.3L133.5,118.3z"/>
					<path class="st7" d="M139.5,117.3c-0.2,0.6-2.2-4.2-3.1-4.1c-0.5,0-1.3,2.4-1.8,3.3s-0.8,1.3-1.1,1.9c0.6-1.4,0.7-5.2,0.9-6.1
						c0.2-1.6-0.5-4.4-0.5-4.4l0.3-3.6c0.2,0,0.6,0,0.9,0c0.2,0.2,1.1,1.2,1.3,1.6c0.9,1.5,2.6,4.3,3,6.1
						C139.9,114.8,139.6,117,139.5,117.3L139.5,117.3L139.5,117.3z"/>
				</g>
			</g>
			<g>
				<path class="st7" d="M108.6,110.4c-6.8,2.2-11.3,3.2-13.7,8.2c-2.4,5.1-6.6,17.6-8.9,25.1c-2,6.5-3,12.4-1.6,15.3l14.3-5.1
					l7.8-20.4C106.5,133.5,113,117.3,108.6,110.4L108.6,110.4L108.6,110.4z"/>
				<path class="st6" d="M100.5,143.9c-1.3,1.6-2.7,2.1-5.7,3.4c-2.8,1.1-6.1,2.2-7.9,5.1c0.6-2.8,2.2-4.1,5.8-5.8
					c3.6-1.8,8.7-3.8,8.7-3.8L100.5,143.9L100.5,143.9L100.5,143.9z"/>
				<path class="st20" d="M100.5,143.9c-1.3,1.6-2.7,2.1-5.7,3.4c-2.8,1.1-6.1,2.2-7.9,5.1c-1.6,2.6-3.3,4.7-2.5,6.7
					c0.6,1.4,4.4,2.4,8.1,2.4c3.7,0,6.3-2.9,10.2-5.4c3.3-2.1,5-3.4,5-3.4L100.5,143.9L100.5,143.9L100.5,143.9z"/>
				<g>
					<path class="st20" d="M106.5,147.7c-1.3-1.4-1.6-2.7-3.6-3.9s-3.3-1.1-5.4-2.2s-3.9-1.6-5.5-1.1c-1.6,0.5-1.4,1.4-0.2,2.2
						s3.3,1.8,4.7,2.8c1.4,1.1,2.9,1.7,2.9,3.5s-0.2,5.6-0.7,8.7c-0.4,3.1-1,5.6-0.8,5.9s1.6,0.5,2.4-1.2c0.8-1.7,1.9-8,1.9-8
						s0.6,4.3,0.8,7.3c0.2,3,0.3,5.3,0.4,5.9s2.2,0.1,2.6-2.1c0.3-2.2-0.1-8.9-0.1-8.9s1.8,3.1,2.9,5s2.5,4.7,3,5.3
						c0.5,0.7,1.8-0.5,1.5-2.3c-0.3-1.8-2.6-6.2-2.6-6.2s2.8,2.9,3.3,3.2c0.5,0.3,2,0.1,1.5-1.9c-0.3-1.3-1.2-2.2-3.4-4.7
						c-2.2-2.6-2.2-3.6-2.9-4.8C108.2,148.7,107.5,148.7,106.5,147.7L106.5,147.7L106.5,147.7z"/>
					<path class="st27" d="M92,140.4c-0.3,0.1-0.6,0.2-0.8,0.4c-0.2,0.2-0.4,0.5-0.3,0.7c0.2,0.5,0.7,0.9,1.2,1.1l3.1,1.7
						c0.5,0.3,1,0.6,1.5,0.9c0.5,0.3,1,0.6,1.4,1c0.5,0.4,0.9,0.8,1.2,1.4c0.3,0.6,0.3,1.3,0.3,1.8c-0.1,2.4-0.3,4.7-0.6,7
						c-0.2,1.2-0.3,2.3-0.6,3.5l-0.3,1.7c-0.1,0.6-0.3,1.2-0.2,1.7c-0.1-0.6,0-1.2,0.1-1.8l0.2-1.8c0.2-1.2,0.3-2.3,0.4-3.5
						c0.2-2.3,0.4-4.7,0.5-7c0-0.6,0-1.1-0.2-1.6s-0.6-0.9-1.1-1.2c-0.4-0.4-0.9-0.7-1.4-1c-0.5-0.3-0.9-0.7-1.4-1l-3-1.8
						c-0.5-0.3-1-0.7-1.2-1.3c-0.1-0.3,0.1-0.6,0.4-0.8C91.4,140.6,91.7,140.5,92,140.4L92,140.4L92,140.4z"/>
					<path class="st27" d="M101,148.7c2.2,1,4.4,0,4.7-0.6C105.5,149.7,102.5,150.6,101,148.7z"/>
					<path class="st27" d="M115.5,160.8c-0.2,0.3-0.8,0.4-1.4-0.1c-0.6-0.5-1.9-2-2.6-2.7s-2.8-3.3-2.8-3.3l1.9,3.7
						c0,0,2.8,2.9,3.3,3.2C114.3,161.8,115.3,161.7,115.5,160.8L115.5,160.8L115.5,160.8z"/>
				</g>
			</g>
		</g>
		<g>
			<path d="M147.8,97.6l-1.3-0.6c0,0,1.1-1.4,0.5-2.4c-0.5-0.8-1.9-1.7-2.4-2.1c0-0.6,0.1-1.2,0.1-1.8c0.2,0.1,1.7,1.1,3.1,2.4
				C149.1,94.7,148.7,96.6,147.8,97.6L147.8,97.6L147.8,97.6z"/>
			<path class="st9" d="M147.4,96.7c-0.9-0.8-1.6-0.2-2.8,1.4s-0.8,2.3,0.1,2.9c0.8,0.6,1.7,0.2,2.6-1.2
				C148.3,98.1,148.4,97.5,147.4,96.7L147.4,96.7L147.4,96.7z"/>
			<path class="st34" d="M147.4,96.7c-0.9-0.8-1.6-0.2-2.8,1.4s-0.8,2.3,0.1,2.9c0.8,0.6,1.7,0.1,2.6-1.2
				C148.3,98.1,148.4,97.5,147.4,96.7L147.4,96.7L147.4,96.7z"/>
		</g>
	</g>
</g>
<g id="Speech_Bubbles">
	<g id="Speech_Bubble">
		<g>
			<path class="st1" d="M101.8,70.6c0-13.8-15.6-24.9-34.8-24.9S32.3,56.8,32.3,70.6S47.8,95.4,67,95.4c1.2,0,2.3,0,3.4-0.1
				c3.8,7.1,10.2,8.4,15.3,7.8c-3.5-1.6-5.8-5.4-5.4-9.6C92.9,89.8,101.8,80.9,101.8,70.6z"/>
			<path class="st22" d="M83.6,103.6c-4.1,0-9.8-1.3-13.4-7.9c-1.1,0.1-2.2,0.1-3.2,0.1c-19.4,0-35.1-11.3-35.1-25.2
				S47.7,45.3,67,45.3s35.1,11.3,35.1,25.2c0,10.2-8.4,19.3-21.4,23.3c-0.3,3.8,1.8,7.4,5.2,9c0.2,0.1,0.2,0.2,0.2,0.4
				c0,0.2-0.2,0.3-0.3,0.3C85.1,103.6,84.4,103.6,83.6,103.6L83.6,103.6L83.6,103.6z M70.4,95c0.1,0,0.3,0.1,0.3,0.2
				c3.7,6.9,9.7,7.9,13.7,7.7c-3.1-1.9-4.8-5.5-4.5-9.3c0-0.2,0.1-0.3,0.3-0.3c12.8-3.8,21.2-12.7,21.2-22.6
				c0-13.5-15.4-24.5-34.4-24.5s-34.4,11-34.4,24.5S48.1,95.1,67,95.1C68.1,95.1,69.3,95.1,70.4,95L70.4,95L70.4,95L70.4,95z"/>
		</g>
		<g>
			<path class="st9" d="M55.4,71.3c0,1.9-1.6,3.5-3.5,3.5s-3.5-1.6-3.5-3.5s1.6-3.5,3.5-3.5S55.4,69.3,55.4,71.3z"/>
			<path class="st9" d="M70.6,71.3c0,1.9-1.6,3.5-3.5,3.5s-3.5-1.6-3.5-3.5s1.6-3.5,3.5-3.5S70.6,69.3,70.6,71.3z"/>
			<path class="st9" d="M85.7,71.3c0,1.9-1.6,3.5-3.5,3.5s-3.5-1.6-3.5-3.5s1.6-3.5,3.5-3.5S85.7,69.3,85.7,71.3z"/>
		</g>
		<g class="st25">
			<path class="st22" d="M55.4,71.3c0,1.9-1.6,3.5-3.5,3.5s-3.5-1.6-3.5-3.5s1.6-3.5,3.5-3.5S55.4,69.3,55.4,71.3z"/>
			<path class="st22" d="M70.6,71.3c0,1.9-1.6,3.5-3.5,3.5s-3.5-1.6-3.5-3.5s1.6-3.5,3.5-3.5S70.6,69.3,70.6,71.3z"/>
			<path class="st22" d="M85.7,71.3c0,1.9-1.6,3.5-3.5,3.5s-3.5-1.6-3.5-3.5s1.6-3.5,3.5-3.5S85.7,69.3,85.7,71.3z"/>
		</g>
	</g>
	<g id="Speech_Bubble-2">
		<g id="Speech_Bubble-3">
			<path class="st1" d="M298.1,222.5c0,4.9-1.9,9.3-5,12.6l-1.5,1.4c-3.2,2.7-7.4,4.4-11.9,4.4c-10.2,0-18.5-8.2-18.5-18.4
				c0-4.5,1.6-8.7,4.4-11.9l1.5-1.5c3.3-3.1,7.7-5,12.6-5C289.8,204.1,298.1,212.3,298.1,222.5L298.1,222.5L298.1,222.5z"/>
			<path class="st3" d="M279.6,202.6c-11,0-20,9-20,20.1c0,9.9,7.3,18.1,16.7,19.7l2.3,5.8c0.4,1,1.8,1,2.2,0l2.2-5.8
				c9.5-1.6,16.6-9.9,16.6-19.8C299.6,211.5,290.6,202.5,279.6,202.6L279.6,202.6L279.6,202.6z M298.1,222.5c0,4.9-1.9,9.3-5,12.6
				l-1.5,1.4c-3.2,2.7-7.4,4.4-11.9,4.4c-10.2,0-18.5-8.2-18.5-18.4c0-4.5,1.6-8.7,4.4-11.9l1.5-1.5c3.3-3.1,7.7-5,12.6-5
				C289.8,204.1,298.1,212.3,298.1,222.5L298.1,222.5L298.1,222.5z"/>
			<path class="st35" d="M298.1,222.5c0,4.9-1.9,9.3-5,12.6l-1.5,1.4c-3.2,2.7-7.4,4.4-11.9,4.4c-10.2,0-18.5-8.2-18.5-18.4
				c0-4.5,1.6-8.7,4.4-11.9l1.5-1.5c3.3-3.1,7.7-5,12.6-5C289.8,204.1,298.1,212.3,298.1,222.5L298.1,222.5L298.1,222.5z"/>
		</g>
		<path class="st10" d="M272.1,211.6c0.4-0.4,0.9-0.8,1.4-1.1s1.1-0.6,1.7-0.9c0.6-0.3,1.3-0.5,2-0.6s1.5-0.2,2.3-0.2
			c1.1,0,2.1,0.1,3.1,0.5c0.9,0.3,1.7,0.8,2.4,1.3c0.7,0.6,1.2,1.3,1.5,2.1c0.4,0.8,0.5,1.7,0.5,2.7s-0.1,1.8-0.4,2.5
			c-0.3,0.7-0.6,1.3-1.1,1.9c-0.4,0.5-0.9,1-1.4,1.4s-1,0.8-1.4,1.1s-0.8,0.7-1.2,1c-0.3,0.3-0.5,0.7-0.6,1.1l-0.4,2.8h-3.3
			l-0.3-3.1c-0.1-0.6,0-1.1,0.3-1.6c0.2-0.5,0.6-0.9,1-1.2c0.4-0.4,0.9-0.8,1.4-1.1c0.5-0.4,1-0.7,1.5-1.2s0.8-0.9,1.1-1.4
			c0.3-0.5,0.5-1.1,0.5-1.9c0-0.5-0.1-0.9-0.3-1.2c-0.2-0.4-0.4-0.7-0.7-0.9c-0.3-0.3-0.7-0.5-1.1-0.6s-0.9-0.2-1.4-0.2
			c-0.7,0-1.4,0.1-1.9,0.2c-0.5,0.2-0.9,0.3-1.3,0.5s-0.6,0.4-0.9,0.5c-0.2,0.2-0.5,0.2-0.7,0.2c-0.5,0-0.8-0.2-1-0.6L272.1,211.6
			L272.1,211.6L272.1,211.6z M275.8,232.2c0-0.4,0.1-0.8,0.2-1.1s0.4-0.7,0.6-0.9c0.3-0.3,0.6-0.5,0.9-0.6c0.4-0.1,0.8-0.2,1.2-0.2
			s0.8,0.1,1.1,0.2c0.4,0.1,0.7,0.4,0.9,0.6c0.3,0.3,0.5,0.6,0.6,0.9c0.1,0.4,0.2,0.7,0.2,1.1s-0.1,0.8-0.2,1.1
			c-0.1,0.4-0.4,0.7-0.6,0.9c-0.3,0.3-0.6,0.5-0.9,0.6c-0.4,0.1-0.7,0.2-1.1,0.2s-0.8-0.1-1.2-0.2c-0.4-0.1-0.7-0.4-0.9-0.6
			s-0.5-0.6-0.6-0.9C275.9,233,275.8,232.6,275.8,232.2z"/>
	</g>
	<g id="Speech_Bubble-4">
		<g id="Speech_Bubble-5">
			<path class="st1" d="M430.7,145.6c0,4.9-1.9,9.3-5,12.6l-1.5,1.4c-3.2,2.7-7.4,4.4-11.9,4.4c-10.2,0-18.5-8.2-18.5-18.4
				c0-4.5,1.6-8.7,4.4-11.9l1.5-1.5c3.3-3.1,7.7-5,12.6-5C422.3,127.2,430.6,135.4,430.7,145.6L430.7,145.6L430.7,145.6z"/>
			<path class="st3" d="M412.2,125.6c-11,0-20,9-20,20.1c0,9.9,7.3,18.1,16.7,19.7l2.3,5.8c0.4,1,1.8,1,2.2,0l2.2-5.8
				c9.5-1.6,16.6-9.9,16.6-19.8C432.2,134.6,423.2,125.6,412.2,125.6L412.2,125.6L412.2,125.6z M430.7,145.6c0,4.9-1.9,9.3-5,12.6
				l-1.5,1.4c-3.2,2.7-7.4,4.4-11.9,4.4c-10.2,0-18.5-8.2-18.5-18.4c0-4.5,1.6-8.7,4.4-11.9l1.5-1.5c3.3-3.1,7.7-5,12.6-5
				C422.3,127.2,430.6,135.4,430.7,145.6L430.7,145.6L430.7,145.6z"/>
			<path class="st35" d="M430.7,145.6c0,4.9-1.9,9.3-5,12.6l-1.5,1.4c-3.2,2.7-7.4,4.4-11.9,4.4c-10.2,0-18.5-8.2-18.5-18.4
				c0-4.5,1.6-8.7,4.4-11.9l1.5-1.5c3.3-3.1,7.7-5,12.6-5C422.3,127.2,430.6,135.4,430.7,145.6L430.7,145.6L430.7,145.6z"/>
		</g>
		<path class="st10" d="M402.8,143.2c-1.3,0-2.4,1.1-2.4,2.4s1.1,2.4,2.4,2.4s2.4-1.1,2.4-2.4S404.1,143.2,402.8,143.2z
			 M421.7,143.2c-1.3,0-2.4,1.1-2.4,2.4s1.1,2.4,2.4,2.4s2.4-1.1,2.4-2.4S423,143.2,421.7,143.2z M412.2,143.2
			c-1.3,0-2.4,1.1-2.4,2.4s1.1,2.4,2.4,2.4s2.4-1.1,2.4-2.4S413.6,143.2,412.2,143.2z"/>
	</g>
</g>
</svg>
